<?xml version="1.0" encoding="UTF-8" standalone="no"?><svg xmlns="http://www.w3.org/2000/svg" xmlns:xlink="http://www.w3.org/1999/xlink" contentScriptType="application/ecmascript" contentStyleType="text/css" height="538px" preserveAspectRatio="none" style="width:1628px;height:538px;" version="1.1" viewBox="0 0 1628 538" width="1628px" zoomAndPan="magnify"><defs><filter height="300%" id="fonvl17" width="300%" x="-1" y="-1"><feGaussianBlur result="blurOut" stdDeviation="2.0"/><feColorMatrix in="blurOut" result="blurOut2" type="matrix" values="0 0 0 0 0 0 0 0 0 0 0 0 0 0 0 0 0 0 .4 0"/><feOffset dx="4.0" dy="4.0" in="blurOut2" result="blurOut3"/><feBlend in="SourceGraphic" in2="blurOut3" mode="normal"/></filter></defs><g><!--cluster org.junit.jupiter--><polygon fill="#FFFFFF" filter="url(#fonvl17)" points="22,222,137,222,144,247.0654,663,247.0654,663,414,22,414,22,222" style="stroke: #000000; stroke-width: 2.0;"/><line style="stroke: #000000; stroke-width: 2.0;" x1="22" x2="144" y1="247.0654" y2="247.0654"/><text fill="#000000" font-family="Open Sans" font-size="14" font-weight="bold" lengthAdjust="spacingAndGlyphs" textLength="109" x="26" y="238.9639">org.junit.jupiter</text><!--cluster org.junit.vintage--><polygon fill="#FFFFFF" filter="url(#fonvl17)" points="737,222,857,222,864,247.0654,925,247.0654,925,414,737,414,737,222" style="stroke: #000000; stroke-width: 2.0;"/><line style="stroke: #000000; stroke-width: 2.0;" x1="737" x2="864" y1="247.0654" y2="247.0654"/><text fill="#000000" font-family="Open Sans" font-size="14" font-weight="bold" lengthAdjust="spacingAndGlyphs" textLength="114" x="741" y="238.9639">org.junit.vintage</text><!--cluster org.junit.platform--><polygon fill="#FFFFFF" filter="url(#fonvl17)" points="949,24,1079,24,1086,49.0654,1621,49.0654,1621,531,949,531,949,24" style="stroke: #000000; stroke-width: 2.0;"/><line style="stroke: #000000; stroke-width: 2.0;" x1="949" x2="1086" y1="49.0654" y2="49.0654"/><text fill="#000000" font-family="Open Sans" font-size="14" font-weight="bold" lengthAdjust="spacingAndGlyphs" textLength="124" x="953" y="40.9639">org.junit.platform</text><!--cluster org.opentest4j--><polygon fill="#FFFFFF" filter="url(#fonvl17)" points="655,438,762,438,769,463.0654,779,463.0654,779,531,655,531,655,438" style="stroke: #000000; stroke-width: 2.0;"/><line style="stroke: #000000; stroke-width: 2.0;" x1="655" x2="769" y1="463.0654" y2="463.0654"/><text fill="#000000" font-family="Open Sans" font-size="14" font-weight="bold" lengthAdjust="spacingAndGlyphs" textLength="101" x="659" y="454.9639">org.opentest4j</text><!--entity jupiter_api--><rect fill="#FEFECE" filter="url(#fonvl17)" height="39.0654" style="stroke: #A80036; stroke-width: 1.5;" width="127" x="507.5" y="359"/><rect fill="#FEFECE" height="5" style="stroke: #A80036; stroke-width: 1.5;" width="10" x="502.5" y="364"/><rect fill="#FEFECE" height="5" style="stroke: #A80036; stroke-width: 1.5;" width="10" x="502.5" y="388.0654"/><text fill="#000000" font-family="Open Sans" font-size="14" lengthAdjust="spacingAndGlyphs" textLength="107" x="517.5" y="383.9639">junit-jupiter-api</text><!--entity jupiter_engine--><rect fill="#FEFECE" filter="url(#fonvl17)" height="39.0654" style="stroke: #A80036; stroke-width: 1.5;" width="152" x="495" y="260"/><rect fill="#FEFECE" height="5" style="stroke: #A80036; stroke-width: 1.5;" width="10" x="490" y="265"/><rect fill="#FEFECE" height="5" style="stroke: #A80036; stroke-width: 1.5;" width="10" x="490" y="289.0654"/><text fill="#000000" font-family="Open Sans" font-size="14" lengthAdjust="spacingAndGlyphs" textLength="132" x="505" y="284.9639">junit-jupiter-engine</text><!--entity jupiter_params--><rect fill="#FEFECE" filter="url(#fonvl17)" height="39.0654" style="stroke: #A80036; stroke-width: 1.5;" width="157" x="38.5" y="260"/><rect fill="#FEFECE" height="5" style="stroke: #A80036; stroke-width: 1.5;" width="10" x="33.5" y="265"/><rect fill="#FEFECE" height="5" style="stroke: #A80036; stroke-width: 1.5;" width="10" x="33.5" y="289.0654"/><text fill="#000000" font-family="Open Sans" font-size="14" lengthAdjust="spacingAndGlyphs" textLength="137" x="48.5" y="284.9639">junit-jupiter-params</text><!--entity jupiter_migration_support--><rect fill="#FEFECE" filter="url(#fonvl17)" height="39.0654" style="stroke: #A80036; stroke-width: 1.5;" width="229" x="230.5" y="260"/><rect fill="#FEFECE" height="5" style="stroke: #A80036; stroke-width: 1.5;" width="10" x="225.5" y="265"/><rect fill="#FEFECE" height="5" style="stroke: #A80036; stroke-width: 1.5;" width="10" x="225.5" y="289.0654"/><text fill="#000000" font-family="Open Sans" font-size="14" lengthAdjust="spacingAndGlyphs" textLength="209" x="240.5" y="284.9639">junit-jupiter-migration-support</text><!--entity vintage_engine--><rect fill="#FEFECE" filter="url(#fonvl17)" height="39.0654" style="stroke: #A80036; stroke-width: 1.5;" width="156" x="753" y="260"/><rect fill="#FEFECE" height="5" style="stroke: #A80036; stroke-width: 1.5;" width="10" x="748" y="265"/><rect fill="#FEFECE" height="5" style="stroke: #A80036; stroke-width: 1.5;" width="10" x="748" y="289.0654"/><text fill="#000000" font-family="Open Sans" font-size="14" lengthAdjust="spacingAndGlyphs" textLength="136" x="763" y="284.9639">junit-vintage-engine</text><!--entity junit4--><rect fill="#FEFECE" filter="url(#fonvl17)" height="39.0654" style="stroke: #A80036; stroke-width: 1.5;" width="86" x="753" y="359"/><rect fill="#FEFECE" height="5" style="stroke: #A80036; stroke-width: 1.5;" width="10" x="748" y="364"/><rect fill="#FEFECE" height="5" style="stroke: #A80036; stroke-width: 1.5;" width="10" x="748" y="388.0654"/><text fill="#000000" font-family="Open Sans" font-size="14" lengthAdjust="spacingAndGlyphs" textLength="66" x="763" y="383.9639">junit:junit</text><!--entity commons--><rect fill="#FEFECE" filter="url(#fonvl17)" height="39.0654" style="stroke: #A80036; stroke-width: 1.5;" width="184" x="965" y="476"/><rect fill="#FEFECE" height="5" style="stroke: #A80036; stroke-width: 1.5;" width="10" x="960" y="481"/><rect fill="#FEFECE" height="5" style="stroke: #A80036; stroke-width: 1.5;" width="10" x="960" y="505.0654"/><text fill="#000000" font-family="Open Sans" font-size="14" lengthAdjust="spacingAndGlyphs" textLength="164" x="975" y="500.9639">junit-platform-commons</text><!--entity console--><rect fill="#FEFECE" filter="url(#fonvl17)" height="39.0654" style="stroke: #A80036; stroke-width: 1.5;" width="170" x="1435" y="161"/><rect fill="#FEFECE" height="5" style="stroke: #A80036; stroke-width: 1.5;" width="10" x="1430" y="166"/><rect fill="#FEFECE" height="5" style="stroke: #A80036; stroke-width: 1.5;" width="10" x="1430" y="190.0654"/><text fill="#000000" font-family="Open Sans" font-size="14" lengthAdjust="spacingAndGlyphs" textLength="150" x="1445" y="185.9639">junit-platform-console</text><!--entity engine--><rect fill="#FEFECE" filter="url(#fonvl17)" height="39.0654" style="stroke: #A80036; stroke-width: 1.5;" width="165" x="965.5" y="359"/><rect fill="#FEFECE" height="5" style="stroke: #A80036; stroke-width: 1.5;" width="10" x="960.5" y="364"/><rect fill="#FEFECE" height="5" style="stroke: #A80036; stroke-width: 1.5;" width="10" x="960.5" y="388.0654"/><text fill="#000000" font-family="Open Sans" font-size="14" lengthAdjust="spacingAndGlyphs" textLength="145" x="975.5" y="383.9639">junit-platform-engine</text><!--entity gradle--><rect fill="#FEFECE" filter="url(#fonvl17)" height="39.0654" style="stroke: #A80036; stroke-width: 1.5;" width="210" x="1395" y="62"/><rect fill="#FEFECE" height="5" style="stroke: #A80036; stroke-width: 1.5;" width="10" x="1390" y="67"/><rect fill="#FEFECE" height="5" style="stroke: #A80036; stroke-width: 1.5;" width="10" x="1390" y="91.0654"/><text fill="#000000" font-family="Open Sans" font-size="14" lengthAdjust="spacingAndGlyphs" textLength="190" x="1405" y="86.9639">junit-platform-gradle-plugin</text><!--entity launcher--><rect fill="#FEFECE" filter="url(#fonvl17)" height="39.0654" style="stroke: #A80036; stroke-width: 1.5;" width="179" x="1165.5" y="260"/><rect fill="#FEFECE" height="5" style="stroke: #A80036; stroke-width: 1.5;" width="10" x="1160.5" y="265"/><rect fill="#FEFECE" height="5" style="stroke: #A80036; stroke-width: 1.5;" width="10" x="1160.5" y="289.0654"/><text fill="#000000" font-family="Open Sans" font-size="14" lengthAdjust="spacingAndGlyphs" textLength="159" x="1175.5" y="284.9639">junit-platform-launcher</text><!--entity runner--><rect fill="#FEFECE" filter="url(#fonvl17)" height="39.0654" style="stroke: #A80036; stroke-width: 1.5;" width="166" x="965" y="161"/><rect fill="#FEFECE" height="5" style="stroke: #A80036; stroke-width: 1.5;" width="10" x="960" y="166"/><rect fill="#FEFECE" height="5" style="stroke: #A80036; stroke-width: 1.5;" width="10" x="960" y="190.0654"/><text fill="#000000" font-family="Open Sans" font-size="14" lengthAdjust="spacingAndGlyphs" textLength="146" x="975" y="185.9639">junit-platform-runner</text><!--entity suite_api--><rect fill="#FEFECE" filter="url(#fonvl17)" height="39.0654" style="stroke: #A80036; stroke-width: 1.5;" width="178" x="1166" y="359"/><rect fill="#FEFECE" height="5" style="stroke: #A80036; stroke-width: 1.5;" width="10" x="1161" y="364"/><rect fill="#FEFECE" height="5" style="stroke: #A80036; stroke-width: 1.5;" width="10" x="1161" y="388.0654"/><text fill="#000000" font-family="Open Sans" font-size="14" lengthAdjust="spacingAndGlyphs" textLength="158" x="1176" y="383.9639">junit-platform-suite-api</text><!--entity surefire--><rect fill="#FEFECE" filter="url(#fonvl17)" height="39.0654" style="stroke: #A80036; stroke-width: 1.5;" width="234" x="1166" y="161"/><rect fill="#FEFECE" height="5" style="stroke: #A80036; stroke-width: 1.5;" width="10" x="1161" y="166"/><rect fill="#FEFECE" height="5" style="stroke: #A80036; stroke-width: 1.5;" width="10" x="1161" y="190.0654"/><text fill="#000000" font-family="Open Sans" font-size="14" lengthAdjust="spacingAndGlyphs" textLength="214" x="1176" y="185.9639">junit-platform-surefire-provider</text><!--entity opentest4j--><rect fill="#FEFECE" filter="url(#fonvl17)" height="39.0654" style="stroke: #A80036; stroke-width: 1.5;" width="91" x="671.5" y="476"/><rect fill="#FEFECE" height="5" style="stroke: #A80036; stroke-width: 1.5;" width="10" x="666.5" y="481"/><rect fill="#FEFECE" height="5" style="stroke: #A80036; stroke-width: 1.5;" width="10" x="666.5" y="505.0654"/><text fill="#000000" font-family="Open Sans" font-size="14" lengthAdjust="spacingAndGlyphs" textLength="71" x="681.5" y="500.9639">opentest4j</text><path d="M594.782,398.233 C620.553,418.532 661.642,450.8963 688.965,472.4179 " fill="none" style="stroke: #A80036; stroke-width: 1.0; stroke-dasharray: 7.0,7.0;"/><polygon fill="#A80036" points="693.228,475.7753,688.6335,467.0638,689.3004,472.6812,683.6829,473.348,693.228,475.7753" style="stroke: #A80036; stroke-width: 1.0;"/><path d="M634.627,396.782 C665.435,404.895 703.028,414.424 737,422 C755.547,426.136 760.408,426.074 779,430 C845.468,444.035 920.483,461.5385 975.823,474.7689 " fill="none" style="stroke: #A80036; stroke-width: 1.0; stroke-dasharray: 7.0,7.0;"/><polygon fill="#A80036" points="980.779,475.9549,972.9578,469.9692,975.9164,474.7907,971.095,477.7493,980.779,475.9549" style="stroke: #A80036; stroke-width: 1.0;"/><path d="M647.11,295.977 C732.427,313.327 870.544,341.414 960.317,359.669 " fill="none" style="stroke: #A80036; stroke-width: 1.0; stroke-dasharray: 7.0,7.0;"/><polygon fill="#A80036" points="965.356,360.694,957.3331,354.9814,960.4562,359.698,955.7396,362.8211,965.356,360.694" style="stroke: #A80036; stroke-width: 1.0;"/><path d="M571,299.203 C571,314.769 571,337.021 571,353.827 " fill="none" style="stroke: #A80036; stroke-width: 1.0; stroke-dasharray: 7.0,7.0;"/><polygon fill="#A80036" points="571,358.855,575,349.855,571,353.855,567,349.855,571,358.855" style="stroke: #A80036; stroke-width: 1.0;"/><path d="M195.562,297.285 C281.984,315.75 419.52,345.135 501.953,362.748 " fill="none" style="stroke: #A80036; stroke-width: 1.0; stroke-dasharray: 7.0,7.0;"/><polygon fill="#A80036" points="507.302,363.89,499.3375,358.0964,502.4125,362.8444,497.6645,365.9195,507.302,363.89" style="stroke: #A80036; stroke-width: 1.0;"/><path d="M388.308,299.088 C426.858,315.634 483.162,339.8 523.057,356.923 " fill="none" style="stroke: #A80036; stroke-width: 1.0; stroke-dasharray: 7.0,7.0;"/><polygon fill="#A80036" points="527.839,358.975,521.1456,351.7501,523.2442,357.0033,517.991,359.1019,527.839,358.975" style="stroke: #A80036; stroke-width: 1.0;"/><path d="M431.157,299.031 C525.037,319.222 671.91,350.811 747.482,367.065 " fill="none" style="stroke: #A80036; stroke-width: 1.0; stroke-dasharray: 7.0,7.0;"/><polygon fill="#A80036" points="752.798,368.208,744.8403,362.405,747.9098,367.1566,743.1581,370.2261,752.798,368.208" style="stroke: #A80036; stroke-width: 1.0;"/><path d="M1469.22,200.088 C1423.74,216.735 1357.19,241.094 1310.36,258.235 " fill="none" style="stroke: #A80036; stroke-width: 1.0; stroke-dasharray: 7.0,7.0;"/><polygon fill="#A80036" points="1305.61,259.975,1315.4377,260.6197,1310.3022,258.2477,1312.6741,253.1122,1305.61,259.975" style="stroke: #A80036; stroke-width: 1.0;"/><path d="M1503.86,101.203 C1507.07,116.769 1511.65,139.021 1515.12,155.827 " fill="none" style="stroke: #A80036; stroke-width: 1.0; stroke-dasharray: 7.0,7.0;"/><polygon fill="#A80036" points="1516.16,160.855,1518.2607,151.2328,1515.1506,155.9579,1510.4255,152.8478,1516.16,160.855" style="stroke: #A80036; stroke-width: 1.0;"/><path d="M1215.09,299.203 C1180.01,315.641 1129.02,339.536 1092.6,356.599 " fill="none" style="stroke: #A80036; stroke-width: 1.0; stroke-dasharray: 7.0,7.0;"/><polygon fill="#A80036" points="1087.79,358.855,1097.6366,358.6454,1092.3148,356.7275,1094.2327,351.4057,1087.79,358.855" style="stroke: #A80036; stroke-width: 1.0;"/><path d="M994.451,398.105 C931.896,419.838 829.17,455.5284 767.815,476.8454 " fill="none" style="stroke: #A80036; stroke-width: 1.0; stroke-dasharray: 7.0,7.0;"/><polygon fill="#A80036" points="762.74,478.6085,772.5541,479.435,767.4633,476.9684,769.9299,471.8776,762.74,478.6085" style="stroke: #A80036; stroke-width: 1.0;"/><path d="M1049.47,398.233 C1051.01,417.947 1053.44,449.0417 1055.12,470.5315 " fill="none" style="stroke: #A80036; stroke-width: 1.0; stroke-dasharray: 7.0,7.0;"/><polygon fill="#A80036" points="1055.53,475.7753,1058.8157,466.4907,1055.1399,470.7905,1050.8401,467.1148,1055.53,475.7753" style="stroke: #A80036; stroke-width: 1.0;"/><path d="M1087.91,200.203 C1122.99,216.641 1173.98,240.536 1210.4,257.599 " fill="none" style="stroke: #A80036; stroke-width: 1.0; stroke-dasharray: 7.0,7.0;"/><polygon fill="#A80036" points="1215.21,259.855,1208.7673,252.4057,1210.6852,257.7275,1205.3634,259.6454,1215.21,259.855" style="stroke: #A80036; stroke-width: 1.0;"/><path d="M1061.7,200.172 C1079.94,224.38 1113.87,267.253 1148,299 C1170.93,320.333 1199.68,341.144 1221.6,355.973 " fill="none" style="stroke: #A80036; stroke-width: 1.0; stroke-dasharray: 7.0,7.0;"/><polygon fill="#A80036" points="1225.89,358.857,1220.6468,350.5198,1221.7386,356.0703,1216.1881,357.1621,1225.89,358.857" style="stroke: #A80036; stroke-width: 1.0;"/><path d="M964.773,184.482 C877.282,188.494 750.181,197.161 735,214 C709.704,242.058 722.748,263.264 735,299 C742.317,320.341 758.065,340.354 771.726,354.831 " fill="none" style="stroke: #A80036; stroke-width: 1.0; stroke-dasharray: 7.0,7.0;"/><polygon fill="#A80036" points="775.516,358.765,772.1538,349.5078,772.0475,355.1637,766.3917,355.0574,775.516,358.765" style="stroke: #A80036; stroke-width: 1.0;"/><path d="M1222.75,398.233 C1187.26,418.843 1130.36,451.8933 1093.33,473.4017 " fill="none" style="stroke: #A80036; stroke-width: 1.0; stroke-dasharray: 7.0,7.0;"/><polygon fill="#A80036" points="1088.91,475.9659,1098.7035,474.9236,1093.2385,473.4631,1094.699,467.998,1088.91,475.9659" style="stroke: #A80036; stroke-width: 1.0;"/><path d="M1277.6,200.203 C1273.11,215.769 1266.68,238.021 1261.83,254.827 " fill="none" style="stroke: #A80036; stroke-width: 1.0; stroke-dasharray: 7.0,7.0;"/><polygon fill="#A80036" points="1260.38,259.855,1266.7193,252.3176,1261.7668,255.0512,1259.0332,250.0987,1260.38,259.855" style="stroke: #A80036; stroke-width: 1.0;"/><path d="M872.583,299.088 C909.598,315.634 963.66,339.8 1001.966,356.923 " fill="none" style="stroke: #A80036; stroke-width: 1.0; stroke-dasharray: 7.0,7.0;"/><polygon fill="#A80036" points="1006.56,358.975,999.9755,351.6507,1001.9952,356.9348,996.7112,358.9544,1006.56,358.975" style="stroke: #A80036; stroke-width: 1.0;"/><path d="M824.252,299.203 C818.635,314.769 810.606,337.021 804.542,353.827 " fill="none" style="stroke: #A80036; stroke-width: 1.0; stroke-dasharray: 7.0,7.0;"/><polygon fill="#A80036" points="802.728,358.855,809.5455,351.7472,804.4252,354.1519,802.0205,349.0316,802.728,358.855" style="stroke: #A80036; stroke-width: 1.0;"/></g></svg>