<?xml version="1.0" encoding="UTF-8" standalone="no"?><svg xmlns="http://www.w3.org/2000/svg" xmlns:xlink="http://www.w3.org/1999/xlink" contentScriptType="application/ecmascript" contentStyleType="text/css" height="656px" preserveAspectRatio="none" style="width:2047px;height:656px;" version="1.1" viewBox="0 0 2047 656" width="2047px" zoomAndPan="magnify"><defs><filter height="300%" id="f9zf83l7ztemx" width="300%" x="-1" y="-1"><feGaussianBlur result="blurOut" stdDeviation="2.0"/><feColorMatrix in="blurOut" result="blurOut2" type="matrix" values="0 0 0 0 0 0 0 0 0 0 0 0 0 0 0 0 0 0 .4 0"/><feOffset dx="4.0" dy="4.0" in="blurOut2" result="blurOut3"/><feBlend in="SourceGraphic" in2="blurOut3" mode="normal"/></filter></defs><g><!--MD5=[423490a38fdf15f9d701d98f9f242cfc]
cluster org.junit.jupiter--><polygon fill="#FFFFFF" filter="url(#f9zf83l7ztemx)" points="1114.93,170.5,1229.93,170.5,1236.93,195.5654,1787.93,195.5654,1787.93,527,1114.93,527,1114.93,170.5" style="stroke: #000000; stroke-width: 1.5;"/><line style="stroke: #000000; stroke-width: 1.5;" x1="1114.93" x2="1236.93" y1="195.5654" y2="195.5654"/><text fill="#000000" font-family="Open Sans" font-size="14" font-weight="bold" lengthAdjust="spacingAndGlyphs" textLength="109" x="1118.93" y="187.4639">org.junit.jupiter</text><!--MD5=[899e7549d75556ed53cabbb57638df67]
cluster org.junit.vintage--><polygon fill="#FFFFFF" filter="url(#f9zf83l7ztemx)" points="62.93,335,182.93,335,189.93,360.0654,250.93,360.0654,250.93,527,62.93,527,62.93,335" style="stroke: #000000; stroke-width: 1.5;"/><line style="stroke: #000000; stroke-width: 1.5;" x1="62.93" x2="189.93" y1="360.0654" y2="360.0654"/><text fill="#000000" font-family="Open Sans" font-size="14" font-weight="bold" lengthAdjust="spacingAndGlyphs" textLength="114" x="66.93" y="351.9639">org.junit.vintage</text><!--MD5=[7eecee75087ecb6f70a379822261fafe]
cluster org.junit.platform--><polygon fill="#FFFFFF" filter="url(#f9zf83l7ztemx)" points="274.93,24,404.93,24,411.93,49.0654,1090.93,49.0654,1090.93,644,274.93,644,274.93,24" style="stroke: #000000; stroke-width: 1.5;"/><line style="stroke: #000000; stroke-width: 1.5;" x1="274.93" x2="411.93" y1="49.0654" y2="49.0654"/><text fill="#000000" font-family="Open Sans" font-size="14" font-weight="bold" lengthAdjust="spacingAndGlyphs" textLength="124" x="278.93" y="40.9639">org.junit.platform</text><!--MD5=[310a961075fb7375dfa4f21827c94e35]
cluster org.opentest4j--><polygon fill="#FFFFFF" filter="url(#f9zf83l7ztemx)" points="126.93,551,233.93,551,240.93,576.0654,250.93,576.0654,250.93,644,126.93,644,126.93,551" style="stroke: #000000; stroke-width: 1.5;"/><line style="stroke: #000000; stroke-width: 1.5;" x1="126.93" x2="240.93" y1="576.0654" y2="576.0654"/><text fill="#000000" font-family="Open Sans" font-size="14" font-weight="bold" lengthAdjust="spacingAndGlyphs" textLength="101" x="130.93" y="567.9639">org.opentest4j</text><!--MD5=[8acdc85b3afaf40a8a892cda9d8153cf]
cluster org.apiguardian--><polygon fill="#FFFFFF" filter="url(#f9zf83l7ztemx)" points="1811.93,24,1926.93,24,1933.93,49.0654,2025.93,49.0654,2025.93,311,1811.93,311,1811.93,24" style="stroke: #000000; stroke-width: 1.5;"/><line style="stroke: #000000; stroke-width: 1.5;" x1="1811.93" x2="1933.93" y1="49.0654" y2="49.0654"/><text fill="#000000" font-family="Open Sans" font-size="14" font-weight="bold" lengthAdjust="spacingAndGlyphs" textLength="109" x="1815.93" y="40.9639">org.apiguardian</text><!--MD5=[7639c34473ec179827bcbba76712a2e4]
entity jupiter--><rect fill="#FEFECE" filter="url(#f9zf83l7ztemx)" height="39.0654" style="stroke: #A80036; stroke-width: 1.5;" width="101" x="1605.43" y="208.5"/><rect fill="#FEFECE" height="5" style="stroke: #A80036; stroke-width: 1.5;" width="10" x="1600.43" y="213.5"/><rect fill="#FEFECE" height="5" style="stroke: #A80036; stroke-width: 1.5;" width="10" x="1600.43" y="237.5654"/><text fill="#000000" font-family="Open Sans" font-size="14" lengthAdjust="spacingAndGlyphs" textLength="81" x="1615.43" y="233.4639">junit-jupiter</text><!--MD5=[ed6f8020ec715bb224e5be01e90531f5]
entity jupiter_api--><rect fill="#FEFECE" filter="url(#f9zf83l7ztemx)" height="39.0654" style="stroke: #A80036; stroke-width: 1.5;" width="127" x="1290.43" y="472"/><rect fill="#FEFECE" height="5" style="stroke: #A80036; stroke-width: 1.5;" width="10" x="1285.43" y="477"/><rect fill="#FEFECE" height="5" style="stroke: #A80036; stroke-width: 1.5;" width="10" x="1285.43" y="501.0654"/><text fill="#000000" font-family="Open Sans" font-size="14" lengthAdjust="spacingAndGlyphs" textLength="107" x="1300.43" y="496.9639">junit-jupiter-api</text><!--MD5=[441ea3cc830cfeb0964e05e1fab31d32]
entity jupiter_engine--><rect fill="#FEFECE" filter="url(#f9zf83l7ztemx)" height="39.0654" style="stroke: #A80036; stroke-width: 1.5;" width="152" x="1389.93" y="373"/><rect fill="#FEFECE" height="5" style="stroke: #A80036; stroke-width: 1.5;" width="10" x="1384.93" y="378"/><rect fill="#FEFECE" height="5" style="stroke: #A80036; stroke-width: 1.5;" width="10" x="1384.93" y="402.0654"/><text fill="#000000" font-family="Open Sans" font-size="14" lengthAdjust="spacingAndGlyphs" textLength="132" x="1399.93" y="397.9639">junit-jupiter-engine</text><!--MD5=[0e07f1ea6d76de99774c7466f06ace44]
entity jupiter_params--><rect fill="#FEFECE" filter="url(#f9zf83l7ztemx)" height="39.0654" style="stroke: #A80036; stroke-width: 1.5;" width="157" x="1577.43" y="373"/><rect fill="#FEFECE" height="5" style="stroke: #A80036; stroke-width: 1.5;" width="10" x="1572.43" y="378"/><rect fill="#FEFECE" height="5" style="stroke: #A80036; stroke-width: 1.5;" width="10" x="1572.43" y="402.0654"/><text fill="#000000" font-family="Open Sans" font-size="14" lengthAdjust="spacingAndGlyphs" textLength="137" x="1587.43" y="397.9639">junit-jupiter-params</text><!--MD5=[18ea6b98240b8025530ab9473dcf2373]
entity jupiter_migration_support--><rect fill="#FEFECE" filter="url(#f9zf83l7ztemx)" height="39.0654" style="stroke: #A80036; stroke-width: 1.5;" width="224" x="1130.93" y="373"/><rect fill="#FEFECE" height="5" style="stroke: #A80036; stroke-width: 1.5;" width="10" x="1125.93" y="378"/><rect fill="#FEFECE" height="5" style="stroke: #A80036; stroke-width: 1.5;" width="10" x="1125.93" y="402.0654"/><text fill="#000000" font-family="Open Sans" font-size="14" lengthAdjust="spacingAndGlyphs" textLength="204" x="1140.93" y="397.9639">junit-jupiter-migrationsupport</text><!--MD5=[afcb64d8fae65ccf72870f209580e7a2]
entity vintage_engine--><rect fill="#FEFECE" filter="url(#f9zf83l7ztemx)" height="39.0654" style="stroke: #A80036; stroke-width: 1.5;" width="156" x="78.93" y="373"/><rect fill="#FEFECE" height="5" style="stroke: #A80036; stroke-width: 1.5;" width="10" x="73.93" y="378"/><rect fill="#FEFECE" height="5" style="stroke: #A80036; stroke-width: 1.5;" width="10" x="73.93" y="402.0654"/><text fill="#000000" font-family="Open Sans" font-size="14" lengthAdjust="spacingAndGlyphs" textLength="136" x="88.93" y="397.9639">junit-vintage-engine</text><!--MD5=[7d5ade99636a31ce3293aec6f1ccaf79]
entity junit4--><rect fill="#FEFECE" filter="url(#f9zf83l7ztemx)" height="39.0654" style="stroke: #A80036; stroke-width: 1.5;" width="86" x="113.93" y="472"/><rect fill="#FEFECE" height="5" style="stroke: #A80036; stroke-width: 1.5;" width="10" x="108.93" y="477"/><rect fill="#FEFECE" height="5" style="stroke: #A80036; stroke-width: 1.5;" width="10" x="108.93" y="501.0654"/><text fill="#000000" font-family="Open Sans" font-size="14" lengthAdjust="spacingAndGlyphs" textLength="66" x="123.93" y="496.9639">junit:junit</text><!--MD5=[5cb3c982fc9f237863c6af934ec05e1f]
entity commons--><rect fill="#FEFECE" filter="url(#f9zf83l7ztemx)" height="39.0654" style="stroke: #A80036; stroke-width: 1.5;" width="184" x="789.93" y="589"/><rect fill="#FEFECE" height="5" style="stroke: #A80036; stroke-width: 1.5;" width="10" x="784.93" y="594"/><rect fill="#FEFECE" height="5" style="stroke: #A80036; stroke-width: 1.5;" width="10" x="784.93" y="618.0654"/><text fill="#000000" font-family="Open Sans" font-size="14" lengthAdjust="spacingAndGlyphs" textLength="164" x="799.93" y="613.9639">junit-platform-commons</text><!--MD5=[5ff5fa45ad236cb7c8993bec112332ca]
entity console--><rect fill="#FEFECE" filter="url(#f9zf83l7ztemx)" height="39.0654" style="stroke: #A80036; stroke-width: 1.5;" width="170" x="834.93" y="62"/><rect fill="#FEFECE" height="5" style="stroke: #A80036; stroke-width: 1.5;" width="10" x="829.93" y="67"/><rect fill="#FEFECE" height="5" style="stroke: #A80036; stroke-width: 1.5;" width="10" x="829.93" y="91.0654"/><text fill="#000000" font-family="Open Sans" font-size="14" lengthAdjust="spacingAndGlyphs" textLength="150" x="844.93" y="86.9639">junit-platform-console</text><!--MD5=[cb028c5091c687ec367cd0cbfd70389f]
entity engine--><rect fill="#FEFECE" filter="url(#f9zf83l7ztemx)" height="39.0654" style="stroke: #A80036; stroke-width: 1.5;" width="165" x="685.43" y="472"/><rect fill="#FEFECE" height="5" style="stroke: #A80036; stroke-width: 1.5;" width="10" x="680.43" y="477"/><rect fill="#FEFECE" height="5" style="stroke: #A80036; stroke-width: 1.5;" width="10" x="680.43" y="501.0654"/><text fill="#000000" font-family="Open Sans" font-size="14" lengthAdjust="spacingAndGlyphs" textLength="145" x="695.43" y="496.9639">junit-platform-engine</text><!--MD5=[bcc99341bf3209081c0ac0a5db9b8813]
entity jfr--><rect fill="#FEFECE" filter="url(#f9zf83l7ztemx)" height="39.0654" style="stroke: #A80036; stroke-width: 1.5;" width="134" x="686.93" y="208.5"/><rect fill="#FEFECE" height="5" style="stroke: #A80036; stroke-width: 1.5;" width="10" x="681.93" y="213.5"/><rect fill="#FEFECE" height="5" style="stroke: #A80036; stroke-width: 1.5;" width="10" x="681.93" y="237.5654"/><text fill="#000000" font-family="Open Sans" font-size="14" lengthAdjust="spacingAndGlyphs" textLength="114" x="696.93" y="233.4639">junit-platform-jfr</text><!--MD5=[1cacb5a8490e30b3bd5ac3ecbdc4ac78]
entity launcher--><rect fill="#FEFECE" filter="url(#f9zf83l7ztemx)" height="39.0654" style="stroke: #A80036; stroke-width: 1.5;" width="179" x="678.43" y="373"/><rect fill="#FEFECE" height="5" style="stroke: #A80036; stroke-width: 1.5;" width="10" x="673.43" y="378"/><rect fill="#FEFECE" height="5" style="stroke: #A80036; stroke-width: 1.5;" width="10" x="673.43" y="402.0654"/><text fill="#000000" font-family="Open Sans" font-size="14" lengthAdjust="spacingAndGlyphs" textLength="159" x="688.43" y="397.9639">junit-platform-launcher</text><!--MD5=[bb652fc1ce3da2060c9c3c7211dc4a65]
entity reporting--><rect fill="#FEFECE" filter="url(#f9zf83l7ztemx)" height="39.0654" style="stroke: #A80036; stroke-width: 1.5;" width="182" x="892.93" y="208.5"/><rect fill="#FEFECE" height="5" style="stroke: #A80036; stroke-width: 1.5;" width="10" x="887.93" y="213.5"/><rect fill="#FEFECE" height="5" style="stroke: #A80036; stroke-width: 1.5;" width="10" x="887.93" y="237.5654"/><text fill="#000000" font-family="Open Sans" font-size="14" lengthAdjust="spacingAndGlyphs" textLength="162" x="902.93" y="233.4639">junit-platform-reporting</text><!--MD5=[a9fdbcd7a6cbc124882de1da71397e01]
entity runner--><rect fill="#FEFECE" filter="url(#f9zf83l7ztemx)" height="39.0654" style="stroke: #A80036; stroke-width: 1.5;" width="166" x="485.93" y="208.5"/><rect fill="#FEFECE" height="5" style="stroke: #A80036; stroke-width: 1.5;" width="10" x="480.93" y="213.5"/><rect fill="#FEFECE" height="5" style="stroke: #A80036; stroke-width: 1.5;" width="10" x="480.93" y="237.5654"/><text fill="#000000" font-family="Open Sans" font-size="14" lengthAdjust="spacingAndGlyphs" textLength="146" x="495.93" y="233.4639">junit-platform-runner</text><!--MD5=[26c3d440917bb993db7e0b4582132327]
entity suite_api--><rect fill="#FEFECE" filter="url(#f9zf83l7ztemx)" height="39.0654" style="stroke: #A80036; stroke-width: 1.5;" width="178" x="464.93" y="373"/><rect fill="#FEFECE" height="5" style="stroke: #A80036; stroke-width: 1.5;" width="10" x="459.93" y="378"/><rect fill="#FEFECE" height="5" style="stroke: #A80036; stroke-width: 1.5;" width="10" x="459.93" y="402.0654"/><text fill="#000000" font-family="Open Sans" font-size="14" lengthAdjust="spacingAndGlyphs" textLength="158" x="474.93" y="397.9639">junit-platform-suite-api</text><!--MD5=[fcdac87879aaef72fc0ff5ea6583b90a]
entity testkit--><rect fill="#FEFECE" filter="url(#f9zf83l7ztemx)" height="39.0654" style="stroke: #A80036; stroke-width: 1.5;" width="160" x="290.93" y="208.5"/><rect fill="#FEFECE" height="5" style="stroke: #A80036; stroke-width: 1.5;" width="10" x="285.93" y="213.5"/><rect fill="#FEFECE" height="5" style="stroke: #A80036; stroke-width: 1.5;" width="10" x="285.93" y="237.5654"/><text fill="#000000" font-family="Open Sans" font-size="14" lengthAdjust="spacingAndGlyphs" textLength="140" x="300.93" y="233.4639">junit-platform-testkit</text><!--MD5=[ba030213f11f5a3d5b319bb69903d2f9]
entity opentest4j--><rect fill="#FEFECE" filter="url(#f9zf83l7ztemx)" height="39.0654" style="stroke: #A80036; stroke-width: 1.5;" width="91" x="143.43" y="589"/><rect fill="#FEFECE" height="5" style="stroke: #A80036; stroke-width: 1.5;" width="10" x="138.43" y="594"/><rect fill="#FEFECE" height="5" style="stroke: #A80036; stroke-width: 1.5;" width="10" x="138.43" y="618.0654"/><text fill="#000000" font-family="Open Sans" font-size="14" lengthAdjust="spacingAndGlyphs" textLength="71" x="153.43" y="613.9639">opentest4j</text><!--MD5=[55218f8824bbe5d39f8ba58cd4b6343d]
entity apiguardian--><rect fill="#FEFECE" filter="url(#f9zf83l7ztemx)" height="39.0654" style="stroke: #A80036; stroke-width: 1.5;" width="128" x="1854.93" y="62"/><rect fill="#FEFECE" height="5" style="stroke: #A80036; stroke-width: 1.5;" width="10" x="1849.93" y="67"/><rect fill="#FEFECE" height="5" style="stroke: #A80036; stroke-width: 1.5;" width="10" x="1849.93" y="91.0654"/><text fill="#000000" font-family="Open Sans" font-size="14" lengthAdjust="spacingAndGlyphs" textLength="108" x="1864.93" y="86.9639">apiguardian-api</text><path d="M1828.43,161 L1828.43,294.9253 A0,0 0 0 0 1828.43,294.9253 L2009.43,294.9253 A0,0 0 0 0 2009.43,294.9253 L2009.43,171 L1999.43,161 L1922.93,161 L1918.93,101.1 L1914.93,161 L1828.43,161 A0,0 0 0 0 1828.43,161 " fill="#FFFFFF" filter="url(#f9zf83l7ztemx)" style="stroke: #A80036; stroke-width: 1.0;"/><path d="M1999.43,161 L1999.43,171 L2009.43,171 L1999.43,161 " fill="#FFFFFF" style="stroke: #A80036; stroke-width: 1.0;"/><text fill="#000000" font-family="Open Sans" font-size="13" lengthAdjust="spacingAndGlyphs" textLength="108" x="1834.43" y="179.895">All artifacts except</text><text fill="#000000" font-family="Open Sans" font-size="13" lengthAdjust="spacingAndGlyphs" textLength="150" x="1834.43" y="197.5986">opentest4j and junit:junit</text><text fill="#000000" font-family="Open Sans" font-size="13" lengthAdjust="spacingAndGlyphs" textLength="160" x="1834.43" y="215.3022">have a dependency on this</text><text fill="#000000" font-family="Open Sans" font-size="13" lengthAdjust="spacingAndGlyphs" textLength="140" x="1834.43" y="233.0059">artifact. The edges have</text><text fill="#000000" font-family="Open Sans" font-size="13" lengthAdjust="spacingAndGlyphs" textLength="138" x="1834.43" y="250.7095">been omitted from this</text><text fill="#000000" font-family="Open Sans" font-size="13" lengthAdjust="spacingAndGlyphs" textLength="137" x="1834.43" y="268.4131">diagram for the sake of</text><text fill="#000000" font-family="Open Sans" font-size="13" lengthAdjust="spacingAndGlyphs" textLength="66" x="1834.43" y="286.1167">readability.</text><!--MD5=[4009dd525e6f9a7f47142ed360ba0d57]
link jupiter to jupiter_api--><path d="M1683.82,247.79 C1706.97,265.22 1738.25,293.48 1751.93,327 C1766.21,361.98 1775.92,382.82 1751.93,412 C1711.03,461.76 1525.39,480.49 1422.73,487.13 " fill="none" id="jupiter-&gt;jupiter_api" style="stroke: #A80036; stroke-width: 1.0; stroke-dasharray: 7.0,7.0;"/><polygon fill="#A80036" points="1417.6,487.45,1426.8338,490.8759,1422.5901,487.1354,1426.3305,482.8917,1417.6,487.45" style="stroke: #A80036; stroke-width: 1.0;"/><!--MD5=[b24b86d13fe18d486aee36e6caa1f3c6]
link jupiter to jupiter_params--><path d="M1655.93,247.64 C1655.93,277.32 1655.93,335.26 1655.93,367.83 " fill="none" id="jupiter-&gt;jupiter_params" style="stroke: #A80036; stroke-width: 1.0; stroke-dasharray: 7.0,7.0;"/><polygon fill="#A80036" points="1655.93,372.83,1659.93,363.83,1655.93,367.83,1651.93,363.83,1655.93,372.83" style="stroke: #A80036; stroke-width: 1.0;"/><!--MD5=[3673af4386eb99ef3e448e853cc2ed05]
link jupiter to jupiter_engine--><path d="M1634.14,247.64 C1598.87,277.8 1529.45,337.18 1491.76,369.41 " fill="none" id="jupiter-&gt;jupiter_engine" style="stroke: #A80036; stroke-width: 1.0; stroke-dasharray: 7.0,7.0;"/><polygon fill="#A80036" points="1487.76,372.83,1497.2026,370.0304,1491.5633,369.5843,1492.0094,363.9451,1487.76,372.83" style="stroke: #A80036; stroke-width: 1.0;"/><!--MD5=[ab0c9ae47c398095103bf89a3c28c4c9]
link jupiter_api to opentest4j--><path d="M1290.22,505.55 C1237.17,515.76 1159.48,529.16 1090.93,535 C1068.35,536.92 296.4,535.73 274.93,543 C250.16,551.39 226.74,569.92 210.62,584.98 " fill="none" id="jupiter_api-&gt;opentest4j" style="stroke: #A80036; stroke-width: 1.0; stroke-dasharray: 7.0,7.0;"/><polygon fill="#A80036" points="206.68,588.72,215.9555,585.4087,210.3003,585.2714,210.4377,579.6162,206.68,588.72" style="stroke: #A80036; stroke-width: 1.0;"/><!--MD5=[c6dba83660e232a3eacf0989abc01e97]
link jupiter_api to commons--><path d="M1290.28,508.01 C1205.61,528.64 1055.86,565.12 963.15,587.71 " fill="none" id="jupiter_api-&gt;commons" style="stroke: #A80036; stroke-width: 1.0; stroke-dasharray: 7.0,7.0;"/><polygon fill="#A80036" points="958.22,588.91,967.9119,590.6615,963.0774,587.7242,966.0146,582.8897,958.22,588.91" style="stroke: #A80036; stroke-width: 1.0;"/><!--MD5=[5515becd8ae5974390a505b42c5bf28b]
link jupiter_engine to engine--><path d="M1389.88,409.06 C1384.15,410.1 1378.45,411.09 1372.93,412 C1189.88,442.05 974.11,467.72 856.08,480.95 " fill="none" id="jupiter_engine-&gt;engine" style="stroke: #A80036; stroke-width: 1.0; stroke-dasharray: 7.0,7.0;"/><polygon fill="#A80036" points="850.88,481.53,860.261,484.5294,855.8505,480.9872,859.3926,476.5767,850.88,481.53" style="stroke: #A80036; stroke-width: 1.0;"/><!--MD5=[774fec1a04f57a7fa1a43bd46173ba1b]
link jupiter_engine to jupiter_api--><path d="M1444.34,412.2 C1425.74,428.31 1398.89,451.56 1379.28,468.55 " fill="none" id="jupiter_engine-&gt;jupiter_api" style="stroke: #A80036; stroke-width: 1.0; stroke-dasharray: 7.0,7.0;"/><polygon fill="#A80036" points="1375.46,471.85,1384.8735,468.954,1379.23,468.5656,1379.6184,462.9221,1375.46,471.85" style="stroke: #A80036; stroke-width: 1.0;"/><!--MD5=[03dfa84e06aaa30e604468ad77330edd]
link jupiter_params to jupiter_api--><path d="M1598.06,412.09 C1546.02,428.8 1469.78,453.29 1416.38,470.44 " fill="none" id="jupiter_params-&gt;jupiter_api" style="stroke: #A80036; stroke-width: 1.0; stroke-dasharray: 7.0,7.0;"/><polygon fill="#A80036" points="1411.61,471.98,1421.4022,473.035,1416.3703,470.4504,1418.9549,465.4185,1411.61,471.98" style="stroke: #A80036; stroke-width: 1.0;"/><!--MD5=[96ef0e985d276c4c20d5e08ddc711db3]
link jupiter_migration_support to jupiter_api--><path d="M1264.33,412.2 C1282.76,428.31 1309.38,451.56 1328.81,468.55 " fill="none" id="jupiter_migration_support-&gt;jupiter_api" style="stroke: #A80036; stroke-width: 1.0; stroke-dasharray: 7.0,7.0;"/><polygon fill="#A80036" points="1332.6,471.85,1328.4584,462.9143,1328.8362,468.5585,1323.192,468.9363,1332.6,471.85" style="stroke: #A80036; stroke-width: 1.0;"/><!--MD5=[4a92a44fd24ddedab72875e8b5ce5922]
link jupiter_migration_support to junit4--><path d="M1130.52,407.79 C1117.19,409.31 1103.76,410.75 1090.93,412 C729,447.31 636.2,430.47 274.93,472 C251.85,474.65 226.38,478.53 205.02,482.04 " fill="none" id="jupiter_migration_support-&gt;junit4" style="stroke: #A80036; stroke-width: 1.0; stroke-dasharray: 7.0,7.0;"/><polygon fill="#A80036" points="199.97,482.88,209.5017,485.3594,204.9031,482.065,208.1976,477.4664,199.97,482.88" style="stroke: #A80036; stroke-width: 1.0;"/><!--MD5=[f05aa6405411279f5c68282f5216bc3f]
link console to launcher--><path d="M907.52,101.12 C897.7,116.58 884.3,139.45 875.93,161 C849.82,228.23 873.67,255.79 838.93,319 C828.31,338.33 811.09,356.1 796.27,369.21 " fill="none" id="console-&gt;launcher" style="stroke: #A80036; stroke-width: 1.0; stroke-dasharray: 7.0,7.0;"/><polygon fill="#A80036" points="792.16,372.78,801.5735,369.884,795.93,369.4956,796.3184,363.8521,792.16,372.78" style="stroke: #A80036; stroke-width: 1.0;"/><!--MD5=[959093e92f79cfa82ab2e6d1e4accd10]
link console to reporting--><path d="M928.17,101.1 C939.78,127.32 960.97,175.16 973.62,203.72 " fill="none" id="console-&gt;reporting" style="stroke: #A80036; stroke-width: 1.0; stroke-dasharray: 7.0,7.0;"/><polygon fill="#A80036" points="975.73,208.48,975.7615,198.6312,973.7139,203.9045,968.4406,201.8569,975.73,208.48" style="stroke: #A80036; stroke-width: 1.0;"/><!--MD5=[b36ac9ee04bee0cbdb8c8aff1f788bd3]
link launcher to engine--><path d="M767.93,412.2 C767.93,427.77 767.93,450.02 767.93,466.83 " fill="none" id="launcher-&gt;engine" style="stroke: #A80036; stroke-width: 1.0; stroke-dasharray: 7.0,7.0;"/><polygon fill="#A80036" points="767.93,471.85,771.93,462.85,767.93,466.85,763.93,462.85,767.93,471.85" style="stroke: #A80036; stroke-width: 1.0;"/><!--MD5=[9d585c854521e03ebfb991fc39763367]
link jfr to launcher--><path d="M755.54,247.64 C758.09,277.32 763.09,335.26 765.89,367.83 " fill="none" id="jfr-&gt;launcher" style="stroke: #A80036; stroke-width: 1.0; stroke-dasharray: 7.0,7.0;"/><polygon fill="#A80036" points="766.32,372.83,769.5345,363.5205,765.8918,367.8484,761.5639,364.2056,766.32,372.83" style="stroke: #A80036; stroke-width: 1.0;"/><!--MD5=[c9628446b22c9a0cc0be936a2c86c68e]
link engine to opentest4j--><path d="M684.95,495.64 C564.47,501.1 347.55,514.6 274.93,543 C250.9,552.4 227.73,570.46 211.52,585.09 " fill="none" id="engine-&gt;opentest4j" style="stroke: #A80036; stroke-width: 1.0; stroke-dasharray: 7.0,7.0;"/><polygon fill="#A80036" points="207.55,588.73,216.8906,585.6069,211.2393,585.3553,211.491,579.704,207.55,588.73" style="stroke: #A80036; stroke-width: 1.0;"/><!--MD5=[ea2060f86e85beb92a12609e16c4fe65]
link engine to commons--><path d="M786.5,511.23 C806.54,531.45 838.44,563.63 859.78,585.15 " fill="none" id="engine-&gt;commons" style="stroke: #A80036; stroke-width: 1.0; stroke-dasharray: 7.0,7.0;"/><polygon fill="#A80036" points="863.37,588.78,859.853,579.5805,859.8416,585.2373,854.1848,585.2259,863.37,588.78" style="stroke: #A80036; stroke-width: 1.0;"/><!--MD5=[41dea4201c585a09229cbd97f511c3cd]
link reporting to launcher--><path d="M959.6,247.72 C935.8,266 898.48,294.55 865.93,319 C843.12,336.14 817.16,355.33 797.69,369.66 " fill="none" id="reporting-&gt;launcher" style="stroke: #A80036; stroke-width: 1.0; stroke-dasharray: 7.0,7.0;"/><polygon fill="#A80036" points="793.39,372.82,803.0121,370.7189,797.4207,369.8613,798.2782,364.2699,793.39,372.82" style="stroke: #A80036; stroke-width: 1.0;"/><!--MD5=[5817c755e21cdd5c7ae5782c2bb20346]
link runner to launcher--><path d="M588.96,247.83 C609.01,266.43 640.95,295.45 669.93,319 C691.77,336.74 717.35,355.61 736.91,369.65 " fill="none" id="runner-&gt;launcher" style="stroke: #A80036; stroke-width: 1.0; stroke-dasharray: 7.0,7.0;"/><polygon fill="#A80036" points="741.23,372.75,736.2539,364.2507,737.1691,369.833,731.5867,370.7481,741.23,372.75" style="stroke: #A80036; stroke-width: 1.0;"/><!--MD5=[83dd4bf5e25301a76323c84b2d8fe61a]
link runner to suite_api--><path d="M567.21,247.64 C564.47,277.32 559.12,335.26 556.12,367.83 " fill="none" id="runner-&gt;suite_api" style="stroke: #A80036; stroke-width: 1.0; stroke-dasharray: 7.0,7.0;"/><polygon fill="#A80036" points="555.66,372.83,560.4651,364.2328,556.1165,367.8509,552.4985,363.5024,555.66,372.83" style="stroke: #A80036; stroke-width: 1.0;"/><!--MD5=[d164b78841eb186049a4bbb03c13ac85]
link runner to junit4--><path d="M555.16,247.71 C537.84,269.51 505.86,304.41 468.93,319 C447.9,327.31 77.77,310.85 61.93,327 C35.48,353.97 45.84,377.82 61.93,412 C73.42,436.4 96.62,455.8 117.22,469.21 " fill="none" id="runner-&gt;junit4" style="stroke: #A80036; stroke-width: 1.0; stroke-dasharray: 7.0,7.0;"/><polygon fill="#A80036" points="121.57,471.98,116.1299,463.7699,117.3535,469.2928,111.8305,470.5164,121.57,471.98" style="stroke: #A80036; stroke-width: 1.0;"/><!--MD5=[f9a4ffd5dbe47c724a72c261cd0dbcc1]
link testkit to opentest4j--><path d="M290.85,241.31 C202.09,256.77 67.4,286.31 36.93,327 C-18.91,401.58 8.16,459.64 62.93,535 C81.51,560.56 112.06,578.46 138.42,590.08 " fill="none" id="testkit-&gt;opentest4j" style="stroke: #A80036; stroke-width: 1.0; stroke-dasharray: 7.0,7.0;"/><polygon fill="#A80036" points="143.29,592.18,136.6123,584.9406,138.6995,590.1984,133.4417,592.2855,143.29,592.18" style="stroke: #A80036; stroke-width: 1.0;"/><!--MD5=[a03d5193873264966af50dc3cedb1169]
link testkit to launcher--><path d="M384.39,247.56 C401.34,269.23 432.64,303.99 468.93,319 C508.39,335.32 620.04,314.7 660.93,327 C690.41,335.86 720.08,354.72 740.68,369.77 " fill="none" id="testkit-&gt;launcher" style="stroke: #A80036; stroke-width: 1.0; stroke-dasharray: 7.0,7.0;"/><polygon fill="#A80036" points="744.93,372.91,740.0811,364.3375,740.913,369.9328,735.3176,370.7647,744.93,372.91" style="stroke: #A80036; stroke-width: 1.0;"/><!--MD5=[689563d167406738417b7162b24b4b21]
link vintage_engine to engine--><path d="M234.94,405.88 C348.9,423.98 560.3,457.54 679.76,476.5 " fill="none" id="vintage_engine-&gt;engine" style="stroke: #A80036; stroke-width: 1.0; stroke-dasharray: 7.0,7.0;"/><polygon fill="#A80036" points="685.03,477.34,676.772,471.973,680.0924,476.5528,675.5125,479.8732,685.03,477.34" style="stroke: #A80036; stroke-width: 1.0;"/><!--MD5=[39cae807274abf57b2b086cda786b46e]
link vintage_engine to junit4--><path d="M156.93,412.2 C156.93,427.77 156.93,450.02 156.93,466.83 " fill="none" id="vintage_engine-&gt;junit4" style="stroke: #A80036; stroke-width: 1.0; stroke-dasharray: 7.0,7.0;"/><polygon fill="#A80036" points="156.93,471.85,160.93,462.85,156.93,466.85,152.93,462.85,156.93,471.85" style="stroke: #A80036; stroke-width: 1.0;"/><!--MD5=[aadf82d9d1985b7d3386576fb7637616]
@startuml
skinparam {
    defaultFontName Open Sans
}

package org.junit.jupiter {
    [junit-jupiter] as jupiter
    [junit-jupiter-api] as jupiter_api
    [junit-jupiter-engine] as jupiter_engine
    [junit-jupiter-params] as jupiter_params
    [junit-jupiter-migrationsupport] as jupiter_migration_support
}

package org.junit.vintage {
    [junit-vintage-engine] as vintage_engine
    [junit:junit] as junit4
}

package org.junit.platform {
    [junit-platform-commons] as commons
    [junit-platform-console] as console
    [junit-platform-engine] as engine
    [junit-platform-jfr] as jfr
    [junit-platform-launcher] as launcher
    [junit-platform-reporting] as reporting
    [junit-platform-runner] as runner
    [junit-platform-suite-api] as suite_api
    [junit-platform-testkit] as testkit
}

package org.opentest4j {
    [opentest4j]
}

package org.apiguardian {
    [apiguardian-api] as apiguardian
    note bottom of apiguardian #white
        All artifacts except
        opentest4j and junit:junit
        have a dependency on this
        artifact. The edges have
        been omitted from this
        diagram for the sake of
        readability.
    endnote
}

jupiter ..> jupiter_api
jupiter ..> jupiter_params
jupiter ..> jupiter_engine

jupiter_api ..> opentest4j
jupiter_api ..> commons

jupiter_engine ..> engine
jupiter_engine ..> jupiter_api

jupiter_params ..> jupiter_api
jupiter_migration_support ..> jupiter_api
jupiter_migration_support ..> junit4

console ..> launcher
console ..> reporting

launcher ..> engine

jfr ..> launcher

engine ..> opentest4j
engine ..> commons

reporting ..> launcher

runner ..> launcher
runner ..> suite_api
runner ..> junit4

testkit ..> opentest4j
testkit ..> launcher

vintage_engine ..> engine
vintage_engine ..> junit4
@enduml

PlantUML version 1.2019.12(Sun Nov 03 11:24:54 CET 2019)
(APACHE source distribution)
Java Runtime: OpenJDK Runtime Environment
JVM: OpenJDK 64-Bit Server VM
Java Version: 11.0.10+9
Operating System: Mac OS X
Default Encoding: UTF-8
Language: en
Country: DE
--></g></svg>