<?xml version="1.0" encoding="UTF-8" standalone="no"?><svg xmlns="http://www.w3.org/2000/svg" xmlns:xlink="http://www.w3.org/1999/xlink" contentScriptType="application/ecmascript" contentStyleType="text/css" height="497px" preserveAspectRatio="none" style="width:1788px;height:497px;" version="1.1" viewBox="0 0 1788 497" width="1788px" zoomAndPan="magnify"><defs><filter height="300%" id="fkdbpve35g6ob" width="300%" x="-1" y="-1"><feGaussianBlur result="blurOut" stdDeviation="2.0"/><feColorMatrix in="blurOut" result="blurOut2" type="matrix" values="0 0 0 0 0 0 0 0 0 0 0 0 0 0 0 0 0 0 .4 0"/><feOffset dx="4.0" dy="4.0" in="blurOut2" result="blurOut3"/><feBlend in="SourceGraphic" in2="blurOut3" mode="normal"/></filter></defs><g><!--cluster org.junit.jupiter--><polygon fill="#FFFFFF" filter="url(#fkdbpve35g6ob)" points="14,162.5,129,162.5,136,187.5654,634,187.5654,634,386,14,386,14,162.5" style="stroke: #000000; stroke-width: 1.5;"/><line style="stroke: #000000; stroke-width: 1.5;" x1="14" x2="136" y1="187.5654" y2="187.5654"/><text fill="#000000" font-family="Open Sans" font-size="14" font-weight="bold" lengthAdjust="spacingAndGlyphs" textLength="109" x="18" y="179.4639">org.junit.jupiter</text><!--cluster org.junit.vintage--><polygon fill="#FFFFFF" filter="url(#fkdbpve35g6ob)" points="724,162.5,844,162.5,851,187.5654,896,187.5654,896,386,724,386,724,162.5" style="stroke: #000000; stroke-width: 1.5;"/><line style="stroke: #000000; stroke-width: 1.5;" x1="724" x2="851" y1="187.5654" y2="187.5654"/><text fill="#000000" font-family="Open Sans" font-size="14" font-weight="bold" lengthAdjust="spacingAndGlyphs" textLength="114" x="728" y="179.4639">org.junit.vintage</text><!--cluster org.junit.platform--><polygon fill="#FFFFFF" filter="url(#fkdbpve35g6ob)" points="904,16,1034,16,1041,41.0654,1560,41.0654,1560,485,904,485,904,16" style="stroke: #000000; stroke-width: 1.5;"/><line style="stroke: #000000; stroke-width: 1.5;" x1="904" x2="1041" y1="41.0654" y2="41.0654"/><text fill="#000000" font-family="Open Sans" font-size="14" font-weight="bold" lengthAdjust="spacingAndGlyphs" textLength="124" x="908" y="32.9639">org.junit.platform</text><!--cluster org.opentest4j--><polygon fill="#FFFFFF" filter="url(#fkdbpve35g6ob)" points="632,408,739,408,746,433.0654,749,433.0654,749,485,632,485,632,408" style="stroke: #000000; stroke-width: 1.5;"/><line style="stroke: #000000; stroke-width: 1.5;" x1="632" x2="746" y1="433.0654" y2="433.0654"/><text fill="#000000" font-family="Open Sans" font-size="14" font-weight="bold" lengthAdjust="spacingAndGlyphs" textLength="101" x="636" y="424.9639">org.opentest4j</text><!--cluster org.apiguardian--><polygon fill="#FFFFFF" filter="url(#fkdbpve35g6ob)" points="1568,16,1683,16,1690,41.0654,1766,41.0654,1766,287,1568,287,1568,16" style="stroke: #000000; stroke-width: 1.5;"/><line style="stroke: #000000; stroke-width: 1.5;" x1="1568" x2="1690" y1="41.0654" y2="41.0654"/><text fill="#000000" font-family="Open Sans" font-size="14" font-weight="bold" lengthAdjust="spacingAndGlyphs" textLength="109" x="1572" y="32.9639">org.apiguardian</text><!--entity jupiter_api--><rect fill="#FEFECE" filter="url(#fkdbpve35g6ob)" height="39.0654" style="stroke: #A80036; stroke-width: 1.5;" width="127" x="486.5" y="339"/><rect fill="#FEFECE" height="5" style="stroke: #A80036; stroke-width: 1.5;" width="10" x="481.5" y="344"/><rect fill="#FEFECE" height="5" style="stroke: #A80036; stroke-width: 1.5;" width="10" x="481.5" y="368.0654"/><text fill="#000000" font-family="Open Sans" font-size="14" lengthAdjust="spacingAndGlyphs" textLength="107" x="496.5" y="363.9639">junit-jupiter-api</text><!--entity jupiter_engine--><rect fill="#FEFECE" filter="url(#fkdbpve35g6ob)" height="39.0654" style="stroke: #A80036; stroke-width: 1.5;" width="152" x="474" y="192.5"/><rect fill="#FEFECE" height="5" style="stroke: #A80036; stroke-width: 1.5;" width="10" x="469" y="197.5"/><rect fill="#FEFECE" height="5" style="stroke: #A80036; stroke-width: 1.5;" width="10" x="469" y="221.5654"/><text fill="#000000" font-family="Open Sans" font-size="14" lengthAdjust="spacingAndGlyphs" textLength="132" x="484" y="217.4639">junit-jupiter-engine</text><!--entity jupiter_params--><rect fill="#FEFECE" filter="url(#fkdbpve35g6ob)" height="39.0654" style="stroke: #A80036; stroke-width: 1.5;" width="157" x="22.5" y="192.5"/><rect fill="#FEFECE" height="5" style="stroke: #A80036; stroke-width: 1.5;" width="10" x="17.5" y="197.5"/><rect fill="#FEFECE" height="5" style="stroke: #A80036; stroke-width: 1.5;" width="10" x="17.5" y="221.5654"/><text fill="#000000" font-family="Open Sans" font-size="14" lengthAdjust="spacingAndGlyphs" textLength="137" x="32.5" y="217.4639">junit-jupiter-params</text><!--entity jupiter_migration_support--><rect fill="#FEFECE" filter="url(#fkdbpve35g6ob)" height="39.0654" style="stroke: #A80036; stroke-width: 1.5;" width="224" x="215" y="192.5"/><rect fill="#FEFECE" height="5" style="stroke: #A80036; stroke-width: 1.5;" width="10" x="210" y="197.5"/><rect fill="#FEFECE" height="5" style="stroke: #A80036; stroke-width: 1.5;" width="10" x="210" y="221.5654"/><text fill="#000000" font-family="Open Sans" font-size="14" lengthAdjust="spacingAndGlyphs" textLength="204" x="225" y="217.4639">junit-jupiter-migrationsupport</text><!--entity vintage_engine--><rect fill="#FEFECE" filter="url(#fkdbpve35g6ob)" height="39.0654" style="stroke: #A80036; stroke-width: 1.5;" width="156" x="732" y="192.5"/><rect fill="#FEFECE" height="5" style="stroke: #A80036; stroke-width: 1.5;" width="10" x="727" y="197.5"/><rect fill="#FEFECE" height="5" style="stroke: #A80036; stroke-width: 1.5;" width="10" x="727" y="221.5654"/><text fill="#000000" font-family="Open Sans" font-size="14" lengthAdjust="spacingAndGlyphs" textLength="136" x="742" y="217.4639">junit-vintage-engine</text><!--entity junit4--><rect fill="#FEFECE" filter="url(#fkdbpve35g6ob)" height="39.0654" style="stroke: #A80036; stroke-width: 1.5;" width="86" x="732" y="339"/><rect fill="#FEFECE" height="5" style="stroke: #A80036; stroke-width: 1.5;" width="10" x="727" y="344"/><rect fill="#FEFECE" height="5" style="stroke: #A80036; stroke-width: 1.5;" width="10" x="727" y="368.0654"/><text fill="#000000" font-family="Open Sans" font-size="14" lengthAdjust="spacingAndGlyphs" textLength="66" x="742" y="363.9639">junit:junit</text><!--entity commons--><rect fill="#FEFECE" filter="url(#fkdbpve35g6ob)" height="39.0654" style="stroke: #A80036; stroke-width: 1.5;" width="184" x="912" y="438"/><rect fill="#FEFECE" height="5" style="stroke: #A80036; stroke-width: 1.5;" width="10" x="907" y="443"/><rect fill="#FEFECE" height="5" style="stroke: #A80036; stroke-width: 1.5;" width="10" x="907" y="467.0654"/><text fill="#000000" font-family="Open Sans" font-size="14" lengthAdjust="spacingAndGlyphs" textLength="164" x="922" y="462.9639">junit-platform-commons</text><!--entity console--><rect fill="#FEFECE" filter="url(#fkdbpve35g6ob)" height="39.0654" style="stroke: #A80036; stroke-width: 1.5;" width="170" x="1382" y="46"/><rect fill="#FEFECE" height="5" style="stroke: #A80036; stroke-width: 1.5;" width="10" x="1377" y="51"/><rect fill="#FEFECE" height="5" style="stroke: #A80036; stroke-width: 1.5;" width="10" x="1377" y="75.0654"/><text fill="#000000" font-family="Open Sans" font-size="14" lengthAdjust="spacingAndGlyphs" textLength="150" x="1392" y="70.9639">junit-platform-console</text><!--entity engine--><rect fill="#FEFECE" filter="url(#fkdbpve35g6ob)" height="39.0654" style="stroke: #A80036; stroke-width: 1.5;" width="165" x="912.5" y="339"/><rect fill="#FEFECE" height="5" style="stroke: #A80036; stroke-width: 1.5;" width="10" x="907.5" y="344"/><rect fill="#FEFECE" height="5" style="stroke: #A80036; stroke-width: 1.5;" width="10" x="907.5" y="368.0654"/><text fill="#000000" font-family="Open Sans" font-size="14" lengthAdjust="spacingAndGlyphs" textLength="145" x="922.5" y="363.9639">junit-platform-engine</text><!--entity launcher--><rect fill="#FEFECE" filter="url(#fkdbpve35g6ob)" height="39.0654" style="stroke: #A80036; stroke-width: 1.5;" width="179" x="1112.5" y="192.5"/><rect fill="#FEFECE" height="5" style="stroke: #A80036; stroke-width: 1.5;" width="10" x="1107.5" y="197.5"/><rect fill="#FEFECE" height="5" style="stroke: #A80036; stroke-width: 1.5;" width="10" x="1107.5" y="221.5654"/><text fill="#000000" font-family="Open Sans" font-size="14" lengthAdjust="spacingAndGlyphs" textLength="159" x="1122.5" y="217.4639">junit-platform-launcher</text><!--entity runner--><rect fill="#FEFECE" filter="url(#fkdbpve35g6ob)" height="39.0654" style="stroke: #A80036; stroke-width: 1.5;" width="166" x="912" y="46"/><rect fill="#FEFECE" height="5" style="stroke: #A80036; stroke-width: 1.5;" width="10" x="907" y="51"/><rect fill="#FEFECE" height="5" style="stroke: #A80036; stroke-width: 1.5;" width="10" x="907" y="75.0654"/><text fill="#000000" font-family="Open Sans" font-size="14" lengthAdjust="spacingAndGlyphs" textLength="146" x="922" y="70.9639">junit-platform-runner</text><!--entity suite_api--><rect fill="#FEFECE" filter="url(#fkdbpve35g6ob)" height="39.0654" style="stroke: #A80036; stroke-width: 1.5;" width="178" x="1113" y="339"/><rect fill="#FEFECE" height="5" style="stroke: #A80036; stroke-width: 1.5;" width="10" x="1108" y="344"/><rect fill="#FEFECE" height="5" style="stroke: #A80036; stroke-width: 1.5;" width="10" x="1108" y="368.0654"/><text fill="#000000" font-family="Open Sans" font-size="14" lengthAdjust="spacingAndGlyphs" textLength="158" x="1123" y="363.9639">junit-platform-suite-api</text><!--entity surefire--><rect fill="#FEFECE" filter="url(#fkdbpve35g6ob)" height="39.0654" style="stroke: #A80036; stroke-width: 1.5;" width="234" x="1113" y="46"/><rect fill="#FEFECE" height="5" style="stroke: #A80036; stroke-width: 1.5;" width="10" x="1108" y="51"/><rect fill="#FEFECE" height="5" style="stroke: #A80036; stroke-width: 1.5;" width="10" x="1108" y="75.0654"/><text fill="#000000" font-family="Open Sans" font-size="14" lengthAdjust="spacingAndGlyphs" textLength="214" x="1123" y="70.9639">junit-platform-surefire-provider</text><!--entity opentest4j--><rect fill="#FEFECE" filter="url(#fkdbpve35g6ob)" height="39.0654" style="stroke: #A80036; stroke-width: 1.5;" width="91" x="644.5" y="438"/><rect fill="#FEFECE" height="5" style="stroke: #A80036; stroke-width: 1.5;" width="10" x="639.5" y="443"/><rect fill="#FEFECE" height="5" style="stroke: #A80036; stroke-width: 1.5;" width="10" x="639.5" y="467.0654"/><text fill="#000000" font-family="Open Sans" font-size="14" lengthAdjust="spacingAndGlyphs" textLength="71" x="654.5" y="462.9639">opentest4j</text><!--entity apiguardian--><rect fill="#FEFECE" filter="url(#fkdbpve35g6ob)" height="39.0654" style="stroke: #A80036; stroke-width: 1.5;" width="128" x="1603" y="46"/><rect fill="#FEFECE" height="5" style="stroke: #A80036; stroke-width: 1.5;" width="10" x="1598" y="51"/><rect fill="#FEFECE" height="5" style="stroke: #A80036; stroke-width: 1.5;" width="10" x="1598" y="75.0654"/><text fill="#000000" font-family="Open Sans" font-size="14" lengthAdjust="spacingAndGlyphs" textLength="108" x="1613" y="70.9639">apiguardian-api</text><path d="M1576.5,145 L1576.5,278.9253 A0,0 0 0 0 1576.5,278.9253 L1757.5,278.9253 A0,0 0 0 0 1757.5,278.9253 L1757.5,155 L1747.5,145 L1671,145 L1667,85.2576 L1663,145 L1576.5,145 A0,0 0 0 0 1576.5,145 " fill="#FFFFFF" filter="url(#fkdbpve35g6ob)" style="stroke: #A80036; stroke-width: 1.0;"/><path d="M1747.5,145 L1747.5,155 L1757.5,155 L1747.5,145 " fill="#FFFFFF" style="stroke: #A80036; stroke-width: 1.0;"/><text fill="#000000" font-family="Open Sans" font-size="13" lengthAdjust="spacingAndGlyphs" textLength="108" x="1582.5" y="163.895">All artifacts except</text><text fill="#000000" font-family="Open Sans" font-size="13" lengthAdjust="spacingAndGlyphs" textLength="150" x="1582.5" y="181.5986">opentest4j and junit:junit</text><text fill="#000000" font-family="Open Sans" font-size="13" lengthAdjust="spacingAndGlyphs" textLength="160" x="1582.5" y="199.3022">have a dependency on this</text><text fill="#000000" font-family="Open Sans" font-size="13" lengthAdjust="spacingAndGlyphs" textLength="140" x="1582.5" y="217.0059">artifact. The edges have</text><text fill="#000000" font-family="Open Sans" font-size="13" lengthAdjust="spacingAndGlyphs" textLength="138" x="1582.5" y="234.7095">been omitted from this</text><text fill="#000000" font-family="Open Sans" font-size="13" lengthAdjust="spacingAndGlyphs" textLength="137" x="1582.5" y="252.4131">diagram for the sake of</text><text fill="#000000" font-family="Open Sans" font-size="13" lengthAdjust="spacingAndGlyphs" textLength="66" x="1582.5" y="270.1167">readability.</text><!--link jupiter_api to opentest4j--><path d="M577.6595,378.0592 C600.8612,394.4661 634.0035,417.9025 658.2778,435.0678 " fill="none" id="jupiter_api-opentest4j" style="stroke: #A80036; stroke-width: 1.0; stroke-dasharray: 7.0,7.0;"/><polygon fill="#A80036" points="662.398,437.9814,657.3591,429.5191,658.3156,435.0946,652.7402,436.051,662.398,437.9814" style="stroke: #A80036; stroke-width: 1.0;"/><!--link jupiter_api to commons--><path d="M613.6048,372.3698 C690.4873,389.1349 820.5661,417.5001 909.2665,436.8423 " fill="none" id="jupiter_api-commons" style="stroke: #A80036; stroke-width: 1.0; stroke-dasharray: 7.0,7.0;"/><polygon fill="#A80036" points="914.2523,437.9295,906.3113,432.1036,909.3671,436.8641,904.6067,439.9199,914.2523,437.9295" style="stroke: #A80036; stroke-width: 1.0;"/><!--link jupiter_engine to engine--><path d="M588.1301,231.5185 C621.2851,247.931 670.9429,271.1825 716,287 C751.0039,299.2883 839.164,321.3529 907.0988,337.7322 " fill="none" id="jupiter_engine-engine" style="stroke: #A80036; stroke-width: 1.0; stroke-dasharray: 7.0,7.0;"/><polygon fill="#A80036" points="912.3659,339.0005,904.5527,333.0044,907.5049,337.8298,902.6795,340.782,912.3659,339.0005" style="stroke: #A80036; stroke-width: 1.0;"/><!--link jupiter_engine to jupiter_api--><path d="M550,231.7576 C550,258.0799 550,304.6653 550,333.4323 " fill="none" id="jupiter_engine-jupiter_api" style="stroke: #A80036; stroke-width: 1.0; stroke-dasharray: 7.0,7.0;"/><polygon fill="#A80036" points="550,338.5875,554,329.5875,550,333.5875,546,329.5875,550,338.5875" style="stroke: #A80036; stroke-width: 1.0;"/><!--link jupiter_params to jupiter_api--><path d="M120.486,231.7433 C138.6841,249.0034 167.4149,273.377 197,287 C289.7668,329.7161 407.8518,347.0301 481.1875,353.9678 " fill="none" id="jupiter_params-jupiter_api" style="stroke: #A80036; stroke-width: 1.0; stroke-dasharray: 7.0,7.0;"/><polygon fill="#A80036" points="486.3894,354.4496,477.7967,349.6366,481.4107,353.9885,477.0588,357.6025,486.3894,354.4496" style="stroke: #A80036; stroke-width: 1.0;"/><!--link jupiter_migration_support to jupiter_api--><path d="M357.0748,231.7576 C398.3376,258.8653 472.3131,307.4636 515.6883,335.9589 " fill="none" id="jupiter_migration_support-jupiter_api" style="stroke: #A80036; stroke-width: 1.0; stroke-dasharray: 7.0,7.0;"/><polygon fill="#A80036" points="520.0464,338.822,514.7208,330.5372,515.8676,336.0766,510.3282,337.2233,520.0464,338.822" style="stroke: #A80036; stroke-width: 1.0;"/><!--link jupiter_migration_support to junit4--><path d="M354.9224,231.6288 C380.2271,248.5711 419.0975,272.5355 456,287 C548.2574,323.1617 663.0501,343.2552 726.7289,352.3778 " fill="none" id="jupiter_migration_support-junit4" style="stroke: #A80036; stroke-width: 1.0; stroke-dasharray: 7.0,7.0;"/><polygon fill="#A80036" points="731.9766,353.1213,723.6268,347.8983,727.026,352.4199,722.5044,355.8191,731.9766,353.1213" style="stroke: #A80036; stroke-width: 1.0;"/><!--link console to launcher--><path d="M1431.5359,85.1056 C1382.3876,112.2763 1293.8088,161.2453 1242.2429,189.7525 " fill="none" id="console-launcher" style="stroke: #A80036; stroke-width: 1.0; stroke-dasharray: 7.0,7.0;"/><polygon fill="#A80036" points="1237.6772,192.2765,1247.489,191.4227,1242.053,189.8574,1243.6184,184.4214,1237.6772,192.2765" style="stroke: #A80036; stroke-width: 1.0;"/><!--link launcher to engine--><path d="M1174.0831,231.7576 C1135.8582,258.8105 1067.3902,307.2673 1027.0942,335.786 " fill="none" id="launcher-engine" style="stroke: #A80036; stroke-width: 1.0; stroke-dasharray: 7.0,7.0;"/><polygon fill="#A80036" points="1022.8044,338.822,1032.4615,336.888,1026.8857,335.9336,1027.8401,330.3579,1022.8044,338.822" style="stroke: #A80036; stroke-width: 1.0;"/><!--link engine to opentest4j--><path d="M934.7418,378.0592 C878.0648,396.456 794.1597,423.6908 740.7932,441.013 " fill="none" id="engine-opentest4j" style="stroke: #A80036; stroke-width: 1.0; stroke-dasharray: 7.0,7.0;"/><polygon fill="#A80036" points="735.726,442.6578,745.5213,443.6838,740.4817,441.1141,743.0514,436.0746,735.726,442.6578" style="stroke: #A80036; stroke-width: 1.0;"/><!--link engine to commons--><path d="M996.7781,378.0592 C998.208,393.7881 1000.2252,415.9776 1001.7644,432.9087 " fill="none" id="engine-commons" style="stroke: #A80036; stroke-width: 1.0; stroke-dasharray: 7.0,7.0;"/><polygon fill="#A80036" points="1002.2256,437.9814,1005.3943,428.6562,1001.7729,433.0019,997.4271,429.3805,1002.2256,437.9814" style="stroke: #A80036; stroke-width: 1.0;"/><!--link runner to launcher--><path d="M1022.9169,85.2576 C1061.1418,112.3105 1129.6098,160.7673 1169.9058,189.286 " fill="none" id="runner-launcher" style="stroke: #A80036; stroke-width: 1.0; stroke-dasharray: 7.0,7.0;"/><polygon fill="#A80036" points="1174.1956,192.322,1169.1599,183.8579,1170.1143,189.4336,1164.5385,190.388,1174.1956,192.322" style="stroke: #A80036; stroke-width: 1.0;"/><!--link runner to suite_api--><path d="M999.9246,85.2671 C1011.0158,126.601 1041.2697,223.5826 1095,287 C1112.1915,307.2909 1136.5292,324.1707 1157.6508,336.4246 " fill="none" id="runner-suite_api" style="stroke: #A80036; stroke-width: 1.0; stroke-dasharray: 7.0,7.0;"/><polygon fill="#A80036" points="1162.1054,338.9688,1156.274,331.0319,1157.7636,336.4891,1152.3064,337.9787,1162.1054,338.9688" style="stroke: #A80036; stroke-width: 1.0;"/><!--link runner to junit4--><path d="M911.7884,77.8959 C838.1724,90.7651 738.8379,113.4516 715,145 C676.9532,195.3533 693.4137,227.6953 715,287 C721.6806,305.3538 735.371,322.2746 747.9895,335.0432 " fill="none" id="runner-junit4" style="stroke: #A80036; stroke-width: 1.0; stroke-dasharray: 7.0,7.0;"/><polygon fill="#A80036" points="751.8622,338.8695,748.2714,329.6986,748.3054,335.3553,742.6487,335.3894,751.8622,338.8695" style="stroke: #A80036; stroke-width: 1.0;"/><!--link suite_api to commons--><path d="M1162.8816,378.0592 C1129.661,394.6695 1082.0307,418.4846 1047.5934,435.7033 " fill="none" id="suite_api-commons" style="stroke: #A80036; stroke-width: 1.0; stroke-dasharray: 7.0,7.0;"/><polygon fill="#A80036" points="1043.0372,437.9814,1052.8759,437.5341,1047.5093,435.7453,1049.2981,430.3787,1043.0372,437.9814" style="stroke: #A80036; stroke-width: 1.0;"/><!--link surefire to launcher--><path d="M1226.2238,85.2576 C1221.1929,111.5799 1212.2892,158.1653 1206.7911,186.9323 " fill="none" id="surefire-launcher" style="stroke: #A80036; stroke-width: 1.0; stroke-dasharray: 7.0,7.0;"/><polygon fill="#A80036" points="1205.8058,192.0875,1211.4246,183.9987,1206.7446,187.1764,1203.5669,182.4965,1205.8058,192.0875" style="stroke: #A80036; stroke-width: 1.0;"/><!--link vintage_engine to engine--><path d="M831.4454,231.6767 C848.5657,247.1444 873.353,269.0086 896,287 C917.4523,304.0423 942.4733,322.0982 961.9938,335.8017 " fill="none" id="vintage_engine-engine" style="stroke: #A80036; stroke-width: 1.0; stroke-dasharray: 7.0,7.0;"/><polygon fill="#A80036" points="966.3245,338.834,961.2463,330.3953,962.2287,335.9662,956.6578,336.9486,966.3245,338.834" style="stroke: #A80036; stroke-width: 1.0;"/><!--link vintage_engine to junit4--><path d="M805.2797,231.7576 C798.9912,258.0799 787.8615,304.6653 780.9889,333.4323 " fill="none" id="vintage_engine-junit4" style="stroke: #A80036; stroke-width: 1.0; stroke-dasharray: 7.0,7.0;"/><polygon fill="#A80036" points="779.7573,338.5875,785.7391,330.7633,780.9192,333.7244,777.9581,328.9044,779.7573,338.5875" style="stroke: #A80036; stroke-width: 1.0;"/><!--
@startuml
skinparam {
    defaultFontName Open Sans
}

package org.junit.jupiter {
    [junit-jupiter-api] as jupiter_api
    [junit-jupiter-engine] as jupiter_engine
    [junit-jupiter-params] as jupiter_params
    [junit-jupiter-migrationsupport] as jupiter_migration_support
}

package org.junit.vintage {
    [junit-vintage-engine] as vintage_engine
    [junit:junit] as junit4
}

package org.junit.platform {
    [junit-platform-commons] as commons
    [junit-platform-console] as console
    [junit-platform-engine] as engine
    [junit-platform-launcher] as launcher
    [junit-platform-runner] as runner
    [junit-platform-suite-api] as suite_api
    [junit-platform-surefire-provider] as surefire
}

package org.opentest4j {
    [opentest4j]
}

package org.apiguardian {
    [apiguardian-api] as apiguardian
    note bottom of apiguardian #white
        All artifacts except
        opentest4j and junit:junit
        have a dependency on this
        artifact. The edges have
        been omitted from this
        diagram for the sake of
        readability.
    endnote
}

jupiter_api ..> opentest4j
jupiter_api ..> commons

jupiter_engine ..> engine
jupiter_engine ..> jupiter_api

jupiter_params ..> jupiter_api
jupiter_migration_support ..> jupiter_api
jupiter_migration_support ..> junit4

console ..> launcher

launcher ..> engine

engine ..> opentest4j
engine ..> commons

runner ..> launcher
runner ..> suite_api
runner ..> junit4

suite_api ..> commons

surefire ..> launcher

vintage_engine ..> engine
vintage_engine ..> junit4
@enduml

PlantUML version 1.2018.01(Sun Jan 28 19:08:22 CET 2018)
(APACHE source distribution)
Java Runtime: Java(TM) SE Runtime Environment
JVM: Java HotSpot(TM) 64-Bit Server VM
Java Version: 10.0.2+13
Operating System: Mac OS X
OS Version: 10.14.1
Default Encoding: UTF-8
Language: en
Country: DE
--></g></svg>