<?xml version="1.0" encoding="UTF-8" standalone="no"?><svg xmlns="http://www.w3.org/2000/svg" xmlns:xlink="http://www.w3.org/1999/xlink" contentScriptType="application/ecmascript" contentStyleType="text/css" height="564px" preserveAspectRatio="none" style="width:1863px;height:564px;" version="1.1" viewBox="0 0 1863 564" width="1863px" zoomAndPan="magnify"><defs><filter height="300%" id="f1rrr2d2399cu7" width="300%" x="-1" y="-1"><feGaussianBlur result="blurOut" stdDeviation="2.0"/><feColorMatrix in="blurOut" result="blurOut2" type="matrix" values="0 0 0 0 0 0 0 0 0 0 0 0 0 0 0 0 0 0 .4 0"/><feOffset dx="4.0" dy="4.0" in="blurOut2" result="blurOut3"/><feBlend in="SourceGraphic" in2="blurOut3" mode="normal"/></filter></defs><g><!--cluster org.junit.jupiter--><polygon fill="#FFFFFF" filter="url(#f1rrr2d2399cu7)" points="14,289,132,289,139,311.4883,656,311.4883,656,456,14,456,14,289" style="stroke: #000000; stroke-width: 1.5;"/><line style="stroke: #000000; stroke-width: 1.5;" x1="14" x2="139" y1="311.4883" y2="311.4883"/><text fill="#000000" font-family="Open Sans" font-size="14" font-weight="bold" lengthAdjust="spacingAndGlyphs" textLength="112" x="18" y="304.5352">org.junit.jupiter</text><!--cluster org.junit.vintage--><polygon fill="#FFFFFF" filter="url(#f1rrr2d2399cu7)" points="746,289,869,289,876,311.4883,926,311.4883,926,456,746,456,746,289" style="stroke: #000000; stroke-width: 1.5;"/><line style="stroke: #000000; stroke-width: 1.5;" x1="746" x2="876" y1="311.4883" y2="311.4883"/><text fill="#000000" font-family="Open Sans" font-size="14" font-weight="bold" lengthAdjust="spacingAndGlyphs" textLength="117" x="750" y="304.5352">org.junit.vintage</text><!--cluster org.junit.platform--><polygon fill="#FFFFFF" filter="url(#f1rrr2d2399cu7)" points="934,16,1067,16,1074,38.4883,1618,38.4883,1618,552,934,552,934,16" style="stroke: #000000; stroke-width: 1.5;"/><line style="stroke: #000000; stroke-width: 1.5;" x1="934" x2="1074" y1="38.4883" y2="38.4883"/><text fill="#000000" font-family="Open Sans" font-size="14" font-weight="bold" lengthAdjust="spacingAndGlyphs" textLength="127" x="938" y="31.5352">org.junit.platform</text><!--cluster org.opentest4j--><polygon fill="#FFFFFF" filter="url(#f1rrr2d2399cu7)" points="654,481,764,481,771,503.4883,774,503.4883,774,552,654,552,654,481" style="stroke: #000000; stroke-width: 1.5;"/><line style="stroke: #000000; stroke-width: 1.5;" x1="654" x2="771" y1="503.4883" y2="503.4883"/><text fill="#000000" font-family="Open Sans" font-size="14" font-weight="bold" lengthAdjust="spacingAndGlyphs" textLength="104" x="658" y="496.5352">org.opentest4j</text><!--cluster org.apiguardian--><polygon fill="#FFFFFF" filter="url(#f1rrr2d2399cu7)" points="1637,16,1755,16,1762,38.4883,1841,38.4883,1841,264,1637,264,1637,16" style="stroke: #000000; stroke-width: 1.5;"/><line style="stroke: #000000; stroke-width: 1.5;" x1="1637" x2="1762" y1="38.4883" y2="38.4883"/><text fill="#000000" font-family="Open Sans" font-size="14" font-weight="bold" lengthAdjust="spacingAndGlyphs" textLength="112" x="1641" y="31.5352">org.apiguardian</text><!--entity jupiter_api--><rect fill="#FEFECE" filter="url(#f1rrr2d2399cu7)" height="36.4883" style="stroke: #A80036; stroke-width: 1.5;" width="133" x="501.5" y="412"/><rect fill="#FEFECE" height="5" style="stroke: #A80036; stroke-width: 1.5;" width="10" x="496.5" y="417"/><rect fill="#FEFECE" height="5" style="stroke: #A80036; stroke-width: 1.5;" width="10" x="496.5" y="438.4883"/><text fill="#000000" font-family="Open Sans" font-size="14" lengthAdjust="spacingAndGlyphs" textLength="113" x="511.5" y="435.5352">junit-jupiter-api</text><!--entity jupiter_engine--><rect fill="#FEFECE" filter="url(#f1rrr2d2399cu7)" height="36.4883" style="stroke: #A80036; stroke-width: 1.5;" width="159" x="488.5" y="316"/><rect fill="#FEFECE" height="5" style="stroke: #A80036; stroke-width: 1.5;" width="10" x="483.5" y="321"/><rect fill="#FEFECE" height="5" style="stroke: #A80036; stroke-width: 1.5;" width="10" x="483.5" y="342.4883"/><text fill="#000000" font-family="Open Sans" font-size="14" lengthAdjust="spacingAndGlyphs" textLength="139" x="498.5" y="339.5352">junit-jupiter-engine</text><!--entity jupiter_params--><rect fill="#FEFECE" filter="url(#f1rrr2d2399cu7)" height="36.4883" style="stroke: #A80036; stroke-width: 1.5;" width="163" x="22.5" y="316"/><rect fill="#FEFECE" height="5" style="stroke: #A80036; stroke-width: 1.5;" width="10" x="17.5" y="321"/><rect fill="#FEFECE" height="5" style="stroke: #A80036; stroke-width: 1.5;" width="10" x="17.5" y="342.4883"/><text fill="#000000" font-family="Open Sans" font-size="14" lengthAdjust="spacingAndGlyphs" textLength="143" x="32.5" y="339.5352">junit-jupiter-params</text><!--entity jupiter_migration_support--><rect fill="#FEFECE" filter="url(#f1rrr2d2399cu7)" height="36.4883" style="stroke: #A80036; stroke-width: 1.5;" width="233" x="220.5" y="316"/><rect fill="#FEFECE" height="5" style="stroke: #A80036; stroke-width: 1.5;" width="10" x="215.5" y="321"/><rect fill="#FEFECE" height="5" style="stroke: #A80036; stroke-width: 1.5;" width="10" x="215.5" y="342.4883"/><text fill="#000000" font-family="Open Sans" font-size="14" lengthAdjust="spacingAndGlyphs" textLength="213" x="230.5" y="339.5352">junit-jupiter-migrationsupport</text><!--entity vintage_engine--><rect fill="#FEFECE" filter="url(#f1rrr2d2399cu7)" height="36.4883" style="stroke: #A80036; stroke-width: 1.5;" width="164" x="754" y="316"/><rect fill="#FEFECE" height="5" style="stroke: #A80036; stroke-width: 1.5;" width="10" x="749" y="321"/><rect fill="#FEFECE" height="5" style="stroke: #A80036; stroke-width: 1.5;" width="10" x="749" y="342.4883"/><text fill="#000000" font-family="Open Sans" font-size="14" lengthAdjust="spacingAndGlyphs" textLength="144" x="764" y="339.5352">junit-vintage-engine</text><!--entity junit4--><rect fill="#FEFECE" filter="url(#f1rrr2d2399cu7)" height="36.4883" style="stroke: #A80036; stroke-width: 1.5;" width="86" x="754" y="412"/><rect fill="#FEFECE" height="5" style="stroke: #A80036; stroke-width: 1.5;" width="10" x="749" y="417"/><rect fill="#FEFECE" height="5" style="stroke: #A80036; stroke-width: 1.5;" width="10" x="749" y="438.4883"/><text fill="#000000" font-family="Open Sans" font-size="14" lengthAdjust="spacingAndGlyphs" textLength="66" x="764" y="435.5352">junit:junit</text><!--entity commons--><rect fill="#FEFECE" filter="url(#f1rrr2d2399cu7)" height="36.4883" style="stroke: #A80036; stroke-width: 1.5;" width="193" x="942.5" y="508"/><rect fill="#FEFECE" height="5" style="stroke: #A80036; stroke-width: 1.5;" width="10" x="937.5" y="513"/><rect fill="#FEFECE" height="5" style="stroke: #A80036; stroke-width: 1.5;" width="10" x="937.5" y="534.4883"/><text fill="#000000" font-family="Open Sans" font-size="14" lengthAdjust="spacingAndGlyphs" textLength="173" x="952.5" y="531.5352">junit-platform-commons</text><!--entity console--><rect fill="#FEFECE" filter="url(#f1rrr2d2399cu7)" height="36.4883" style="stroke: #A80036; stroke-width: 1.5;" width="179" x="1430.5" y="179.5"/><rect fill="#FEFECE" height="5" style="stroke: #A80036; stroke-width: 1.5;" width="10" x="1425.5" y="184.5"/><rect fill="#FEFECE" height="5" style="stroke: #A80036; stroke-width: 1.5;" width="10" x="1425.5" y="205.9883"/><text fill="#000000" font-family="Open Sans" font-size="14" lengthAdjust="spacingAndGlyphs" textLength="159" x="1440.5" y="203.0352">junit-platform-console</text><!--entity engine--><rect fill="#FEFECE" filter="url(#f1rrr2d2399cu7)" height="36.4883" style="stroke: #A80036; stroke-width: 1.5;" width="173" x="942.5" y="412"/><rect fill="#FEFECE" height="5" style="stroke: #A80036; stroke-width: 1.5;" width="10" x="937.5" y="417"/><rect fill="#FEFECE" height="5" style="stroke: #A80036; stroke-width: 1.5;" width="10" x="937.5" y="438.4883"/><text fill="#000000" font-family="Open Sans" font-size="14" lengthAdjust="spacingAndGlyphs" textLength="153" x="952.5" y="435.5352">junit-platform-engine</text><!--entity gradle--><rect fill="#FEFECE" filter="url(#f1rrr2d2399cu7)" height="36.4883" style="stroke: #A80036; stroke-width: 1.5;" width="222" x="1388" y="43"/><rect fill="#FEFECE" height="5" style="stroke: #A80036; stroke-width: 1.5;" width="10" x="1383" y="48"/><rect fill="#FEFECE" height="5" style="stroke: #A80036; stroke-width: 1.5;" width="10" x="1383" y="69.4883"/><text fill="#000000" font-family="Open Sans" font-size="14" lengthAdjust="spacingAndGlyphs" textLength="202" x="1398" y="66.5352">junit-platform-gradle-plugin</text><!--entity launcher--><rect fill="#FEFECE" filter="url(#f1rrr2d2399cu7)" height="36.4883" style="stroke: #A80036; stroke-width: 1.5;" width="186" x="1151" y="316"/><rect fill="#FEFECE" height="5" style="stroke: #A80036; stroke-width: 1.5;" width="10" x="1146" y="321"/><rect fill="#FEFECE" height="5" style="stroke: #A80036; stroke-width: 1.5;" width="10" x="1146" y="342.4883"/><text fill="#000000" font-family="Open Sans" font-size="14" lengthAdjust="spacingAndGlyphs" textLength="166" x="1161" y="339.5352">junit-platform-launcher</text><!--entity runner--><rect fill="#FEFECE" filter="url(#f1rrr2d2399cu7)" height="36.4883" style="stroke: #A80036; stroke-width: 1.5;" width="173" x="942.5" y="179.5"/><rect fill="#FEFECE" height="5" style="stroke: #A80036; stroke-width: 1.5;" width="10" x="937.5" y="184.5"/><rect fill="#FEFECE" height="5" style="stroke: #A80036; stroke-width: 1.5;" width="10" x="937.5" y="205.9883"/><text fill="#000000" font-family="Open Sans" font-size="14" lengthAdjust="spacingAndGlyphs" textLength="153" x="952.5" y="203.0352">junit-platform-runner</text><!--entity suite_api--><rect fill="#FEFECE" filter="url(#f1rrr2d2399cu7)" height="36.4883" style="stroke: #A80036; stroke-width: 1.5;" width="188" x="1151" y="412"/><rect fill="#FEFECE" height="5" style="stroke: #A80036; stroke-width: 1.5;" width="10" x="1146" y="417"/><rect fill="#FEFECE" height="5" style="stroke: #A80036; stroke-width: 1.5;" width="10" x="1146" y="438.4883"/><text fill="#000000" font-family="Open Sans" font-size="14" lengthAdjust="spacingAndGlyphs" textLength="168" x="1161" y="435.5352">junit-platform-suite-api</text><!--entity surefire--><rect fill="#FEFECE" filter="url(#f1rrr2d2399cu7)" height="36.4883" style="stroke: #A80036; stroke-width: 1.5;" width="245" x="1150.5" y="179.5"/><rect fill="#FEFECE" height="5" style="stroke: #A80036; stroke-width: 1.5;" width="10" x="1145.5" y="184.5"/><rect fill="#FEFECE" height="5" style="stroke: #A80036; stroke-width: 1.5;" width="10" x="1145.5" y="205.9883"/><text fill="#000000" font-family="Open Sans" font-size="14" lengthAdjust="spacingAndGlyphs" textLength="225" x="1160.5" y="203.0352">junit-platform-surefire-provider</text><!--entity opentest4j--><rect fill="#FEFECE" filter="url(#f1rrr2d2399cu7)" height="36.4883" style="stroke: #A80036; stroke-width: 1.5;" width="93" x="667.5" y="508"/><rect fill="#FEFECE" height="5" style="stroke: #A80036; stroke-width: 1.5;" width="10" x="662.5" y="513"/><rect fill="#FEFECE" height="5" style="stroke: #A80036; stroke-width: 1.5;" width="10" x="662.5" y="534.4883"/><text fill="#000000" font-family="Open Sans" font-size="14" lengthAdjust="spacingAndGlyphs" textLength="73" x="677.5" y="531.5352">opentest4j</text><!--entity apiguardian--><rect fill="#FEFECE" filter="url(#f1rrr2d2399cu7)" height="36.4883" style="stroke: #A80036; stroke-width: 1.5;" width="132" x="1673" y="43"/><rect fill="#FEFECE" height="5" style="stroke: #A80036; stroke-width: 1.5;" width="10" x="1668" y="48"/><rect fill="#FEFECE" height="5" style="stroke: #A80036; stroke-width: 1.5;" width="10" x="1668" y="69.4883"/><text fill="#000000" font-family="Open Sans" font-size="14" lengthAdjust="spacingAndGlyphs" textLength="112" x="1683" y="66.5352">apiguardian-api</text><path d="M1645,139 L1645,256.1738 A0,0 0 0 0 1645,256.1738 L1833,256.1738 A0,0 0 0 0 1833,256.1738 L1833,149 L1823,139 L1743,139 L1739,79.1261 L1735,139 L1645,139 A0,0 0 0 0 1645,139 " fill="#FFFFFF" filter="url(#f1rrr2d2399cu7)" style="stroke: #A80036; stroke-width: 1.0;"/><path d="M1823,139 L1823,149 L1833,149 L1823,139 " fill="#FFFFFF" style="stroke: #A80036; stroke-width: 1.0;"/><text fill="#000000" font-family="Open Sans" font-size="13" lengthAdjust="spacingAndGlyphs" textLength="119" x="1651" y="156.5684">All artifacts except</text><text fill="#000000" font-family="Open Sans" font-size="13" lengthAdjust="spacingAndGlyphs" textLength="160" x="1651" y="171.8789">opentest4j and junit:junit</text><text fill="#000000" font-family="Open Sans" font-size="13" lengthAdjust="spacingAndGlyphs" textLength="167" x="1651" y="187.1895">have a dependency on this</text><text fill="#000000" font-family="Open Sans" font-size="13" lengthAdjust="spacingAndGlyphs" textLength="150" x="1651" y="202.5">artifact. The edges have</text><text fill="#000000" font-family="Open Sans" font-size="13" lengthAdjust="spacingAndGlyphs" textLength="145" x="1651" y="217.8105">been omitted from this</text><text fill="#000000" font-family="Open Sans" font-size="13" lengthAdjust="spacingAndGlyphs" textLength="147" x="1651" y="233.1211">diagram for the sake of</text><text fill="#000000" font-family="Open Sans" font-size="13" lengthAdjust="spacingAndGlyphs" textLength="70" x="1651" y="248.4316">readability.</text><!--link jupiter_api to opentest4j--><path d="M595.4615,448.0569 C619.9803,464.1788 655.9109,487.8044 681.7806,504.8147 " fill="none" id="jupiter_api-opentest4j" style="stroke: #A80036; stroke-width: 1.0; stroke-dasharray: 7.0,7.0;"/><polygon fill="#A80036" points="686.1653,507.6977,680.8428,499.4109,681.9875,504.9507,676.4477,506.0954,686.1653,507.6977" style="stroke: #A80036; stroke-width: 1.0;"/><!--link jupiter_api to commons--><path d="M634.9826,443.6525 C716.2419,460.2149 853.7137,488.2346 945.4109,506.9245 " fill="none" id="jupiter_api-commons" style="stroke: #A80036; stroke-width: 1.0; stroke-dasharray: 7.0,7.0;"/><polygon fill="#A80036" points="950.5619,507.9744,942.5421,502.2576,945.6626,506.9758,940.9444,510.0964,950.5619,507.9744" style="stroke: #A80036; stroke-width: 1.0;"/><!--link jupiter_engine to engine--><path d="M647.5111,350.5576 C728.0711,367.3337 852.5674,393.2591 937.2578,410.8953 " fill="none" id="jupiter_engine-engine" style="stroke: #A80036; stroke-width: 1.0; stroke-dasharray: 7.0,7.0;"/><polygon fill="#A80036" points="942.2709,411.9393,934.2755,406.1884,937.3759,410.9199,932.6444,414.0203,942.2709,411.9393" style="stroke: #A80036; stroke-width: 1.0;"/><!--link jupiter_engine to jupiter_api--><path d="M568,352.0569 C568,367.5126 568,389.8647 568,406.6731 " fill="none" id="jupiter_engine-jupiter_api" style="stroke: #A80036; stroke-width: 1.0; stroke-dasharray: 7.0,7.0;"/><polygon fill="#A80036" points="568,411.6977,572,402.6977,568,406.6977,564,402.6977,568,411.6977" style="stroke: #A80036; stroke-width: 1.0;"/><!--link jupiter_params to jupiter_api--><path d="M185.6195,350.8868 C273.7079,369.112 412.6195,397.8523 496.542,415.2156 " fill="none" id="jupiter_params-jupiter_api" style="stroke: #A80036; stroke-width: 1.0; stroke-dasharray: 7.0,7.0;"/><polygon fill="#A80036" points="501.491,416.2395,493.4881,410.499,496.5947,415.2265,491.8672,418.3331,501.491,416.2395" style="stroke: #A80036; stroke-width: 1.0;"/><!--link jupiter_migration_support to jupiter_api--><path d="M380.4493,352.0569 C420.09,368.5309 478.5835,392.8399 519.6813,409.9195 " fill="none" id="jupiter_migration_support-jupiter_api" style="stroke: #A80036; stroke-width: 1.0; stroke-dasharray: 7.0,7.0;"/><polygon fill="#A80036" points="524.3534,411.8612,517.5778,404.7134,519.7363,409.9422,514.5075,412.1007,524.3534,411.8612" style="stroke: #A80036; stroke-width: 1.0;"/><!--link jupiter_migration_support to junit4--><path d="M423.2525,352.0005 C519.4759,372.0819 671.7271,403.8561 748.8369,419.9486 " fill="none" id="jupiter_migration_support-junit4" style="stroke: #A80036; stroke-width: 1.0; stroke-dasharray: 7.0,7.0;"/><polygon fill="#A80036" points="753.8059,420.9856,745.813,415.2312,748.9114,419.964,744.1785,423.0624,753.8059,420.9856" style="stroke: #A80036; stroke-width: 1.0;"/><!--link console to launcher--><path d="M1493.445,215.7032 C1472.2143,229.8352 1441.4066,249.4135 1413,264 C1375.7068,283.1497 1331.9373,301.1631 1298.2869,314.1202 " fill="none" id="console-launcher" style="stroke: #A80036; stroke-width: 1.0; stroke-dasharray: 7.0,7.0;"/><polygon fill="#A80036" points="1293.3974,315.9948,1303.2329,316.5078,1298.066,314.2048,1300.3689,309.038,1293.3974,315.9948" style="stroke: #A80036; stroke-width: 1.0;"/><!--link gradle to console--><path d="M1501.7886,79.1261 C1505.5541,103.6019 1512.2685,147.2454 1516.4079,174.1515 " fill="none" id="gradle-console" style="stroke: #A80036; stroke-width: 1.0; stroke-dasharray: 7.0,7.0;"/><polygon fill="#A80036" points="1517.1998,179.2989,1519.7845,169.7953,1516.4394,174.3571,1511.8776,171.0119,1517.1998,179.2989" style="stroke: #A80036; stroke-width: 1.0;"/><!--link launcher to engine--><path d="M1203.5601,352.0569 C1166.7399,368.4975 1112.4439,392.7413 1074.2049,409.8155 " fill="none" id="launcher-engine" style="stroke: #A80036; stroke-width: 1.0; stroke-dasharray: 7.0,7.0;"/><polygon fill="#A80036" points="1069.6234,411.8612,1079.4722,411.8442,1074.189,409.8226,1076.2105,404.5393,1069.6234,411.8612" style="stroke: #A80036; stroke-width: 1.0;"/><!--link engine to opentest4j--><path d="M969.7509,448.0569 C910.9319,465.9827 821.6739,493.1851 765.6597,510.2561 " fill="none" id="engine-opentest4j" style="stroke: #A80036; stroke-width: 1.0; stroke-dasharray: 7.0,7.0;"/><polygon fill="#A80036" points="760.6806,511.7735,770.4558,512.9762,765.4634,510.3159,768.1237,505.3236,760.6806,511.7735" style="stroke: #A80036; stroke-width: 1.0;"/><!--link engine to commons--><path d="M1030.8809,448.0569 C1032.4909,463.5126 1034.8192,485.8647 1036.5701,502.6731 " fill="none" id="engine-commons" style="stroke: #A80036; stroke-width: 1.0; stroke-dasharray: 7.0,7.0;"/><polygon fill="#A80036" points="1037.0935,507.6977,1040.1393,498.3316,1036.5754,502.7246,1032.1824,499.1607,1037.0935,507.6977" style="stroke: #A80036; stroke-width: 1.0;"/><!--link runner to launcher--><path d="M1057.2195,215.6115 C1078.1212,229.01 1107.3099,247.6863 1133,264 C1159.1444,280.6022 1188.8215,299.3103 1210.9077,313.2067 " fill="none" id="runner-launcher" style="stroke: #A80036; stroke-width: 1.0; stroke-dasharray: 7.0,7.0;"/><polygon fill="#A80036" points="1215.2204,315.9197,1209.7324,307.7415,1210.9882,313.2572,1205.4725,314.513,1215.2204,315.9197" style="stroke: #A80036; stroke-width: 1.0;"/><!--link runner to suite_api--><path d="M1038.4992,215.7027 C1055.0382,246.2645 1091.4532,308.783 1134,352 C1156.1522,374.5011 1185.544,394.8263 1208.5177,409.0838 " fill="none" id="runner-suite_api" style="stroke: #A80036; stroke-width: 1.0; stroke-dasharray: 7.0,7.0;"/><polygon fill="#A80036" points="1213.0228,411.8532,1207.4505,403.7323,1208.7633,409.2347,1203.2609,410.5475,1213.0228,411.8532" style="stroke: #A80036; stroke-width: 1.0;"/><!--link runner to junit4--><path d="M942.4775,212.9642 C865.5891,228.6761 761.6499,255.444 737,289 C709.4164,326.5496 747.6561,378.7141 774.5659,407.9222 " fill="none" id="runner-junit4" style="stroke: #A80036; stroke-width: 1.0; stroke-dasharray: 7.0,7.0;"/><polygon fill="#A80036" points="778.115,411.7141,774.8852,402.4099,774.6983,408.0636,769.0445,407.8767,778.115,411.7141" style="stroke: #A80036; stroke-width: 1.0;"/><!--link suite_api to commons--><path d="M1206.253,448.0569 C1171.1175,464.4307 1119.3736,488.5444 1082.7602,505.6069 " fill="none" id="suite_api-commons" style="stroke: #A80036; stroke-width: 1.0; stroke-dasharray: 7.0,7.0;"/><polygon fill="#A80036" points="1077.9229,507.8612,1087.7702,507.6852,1082.4549,505.7492,1084.391,500.4339,1077.9229,507.8612" style="stroke: #A80036; stroke-width: 1.0;"/><!--link surefire to launcher--><path d="M1269.149,215.6261 C1263.949,240.1019 1254.6768,283.7454 1248.9605,310.6515 " fill="none" id="surefire-launcher" style="stroke: #A80036; stroke-width: 1.0; stroke-dasharray: 7.0,7.0;"/><polygon fill="#A80036" points="1247.8669,315.7989,1253.65,307.8267,1248.906,310.9081,1245.8247,306.1641,1247.8669,315.7989" style="stroke: #A80036; stroke-width: 1.0;"/><!--link vintage_engine to engine--><path d="M872.3018,352.0569 C905.22,368.4307 953.6985,392.5444 988.0014,409.6069 " fill="none" id="vintage_engine-engine" style="stroke: #A80036; stroke-width: 1.0; stroke-dasharray: 7.0,7.0;"/><polygon fill="#A80036" points="992.5334,411.8612,986.2567,404.2715,988.0566,409.6344,982.6938,411.4344,992.5334,411.8612" style="stroke: #A80036; stroke-width: 1.0;"/><!--link vintage_engine to junit4--><path d="M828.6644,352.0569 C822.3855,367.5126 813.305,389.8647 806.4766,406.6731 " fill="none" id="vintage_engine-junit4" style="stroke: #A80036; stroke-width: 1.0; stroke-dasharray: 7.0,7.0;"/><polygon fill="#A80036" points="804.4353,411.6977,811.5285,404.8649,806.3171,407.0653,804.1167,401.854,804.4353,411.6977" style="stroke: #A80036; stroke-width: 1.0;"/><!--
@startuml
skinparam {
    defaultFontName Open Sans
}

package org.junit.jupiter {
    [junit-jupiter-api] as jupiter_api
    [junit-jupiter-engine] as jupiter_engine
    [junit-jupiter-params] as jupiter_params
    [junit-jupiter-migrationsupport] as jupiter_migration_support
}

package org.junit.vintage {
    [junit-vintage-engine] as vintage_engine
    [junit:junit] as junit4
}

package org.junit.platform {
    [junit-platform-commons] as commons
    [junit-platform-console] as console
    [junit-platform-engine] as engine
    [junit-platform-gradle-plugin] as gradle
    [junit-platform-launcher] as launcher
    [junit-platform-runner] as runner
    [junit-platform-suite-api] as suite_api
    [junit-platform-surefire-provider] as surefire
}

package org.opentest4j {
    [opentest4j]
}

package org.apiguardian {
    [apiguardian-api] as apiguardian
    note bottom of apiguardian #white
        All artifacts except
        opentest4j and junit:junit
        have a dependency on this
        artifact. The edges have
        been omitted from this
        diagram for the sake of
        readability.
    endnote
}

jupiter_api ..> opentest4j
jupiter_api ..> commons

jupiter_engine ..> engine
jupiter_engine ..> jupiter_api

jupiter_params ..> jupiter_api
jupiter_migration_support ..> jupiter_api
jupiter_migration_support ..> junit4

console ..> launcher

gradle ..> console

launcher ..> engine

engine ..> opentest4j
engine ..> commons

runner ..> launcher
runner ..> suite_api
runner ..> junit4

suite_api ..> commons

surefire ..> launcher

vintage_engine ..> engine
vintage_engine ..> junit4
@enduml

PlantUML version 1.2018.01(Sun Jan 28 19:08:22 CET 2018)
(APACHE source distribution)
Java Runtime: Java(TM) SE Runtime Environment
JVM: Java HotSpot(TM) 64-Bit Server VM
Java Version: 9.0.4+11
Operating System: Mac OS X
OS Version: 10.13.3
Default Encoding: UTF-8
Language: en
Country: DE
--></g></svg>