<svg xmlns="http://www.w3.org/2000/svg" xmlns:xlink="http://www.w3.org/1999/xlink" contentStyleType="text/css" data-diagram-type="DESCRIPTION" height="907px" preserveAspectRatio="none" style="width:2352px;height:907px;background:#FFFFFF;" version="1.1" viewBox="0 0 2352 907" width="2352px" zoomAndPan="magnify"><defs/><g><!--cluster org.junit.jupiter--><g class="cluster" data-entity="org.junit.jupiter" data-source-line="6" data-uid="ent0002" id="cluster_org.junit.jupiter"><path d="M1352.5,147 L1479.582,147 A3.75,3.75 0 0 1 1482.082,149.5 L1489.082,169.2969 L2088.5,169.2969 A2.5,2.5 0 0 1 2091,171.7969 L2091,503.5 A2.5,2.5 0 0 1 2088.5,506 L1352.5,506 A2.5,2.5 0 0 1 1350,503.5 L1350,149.5 A2.5,2.5 0 0 1 1352.5,147" fill="none" style="stroke:#000000;stroke-width:1.5;"/><line style="stroke:#000000;stroke-width:1.5;" x1="1350" x2="1489.082" y1="169.2969" y2="169.2969"/><text fill="#000000" font-family="sans-serif" font-size="14" font-weight="bold" lengthAdjust="spacing" textLength="126.082" x="1354" y="161.9951">org.junit.jupiter</text></g><!--cluster org.junit.vintage--><g class="cluster" data-entity="org.junit.vintage" data-source-line="14" data-uid="ent0008" id="cluster_org.junit.vintage"><path d="M1064.5,303 L1198.4521,303 A3.75,3.75 0 0 1 1200.9521,305.5 L1207.9521,325.2969 L1273.5,325.2969 A2.5,2.5 0 0 1 1276,327.7969 L1276,397.5 A2.5,2.5 0 0 1 1273.5,400 L1064.5,400 A2.5,2.5 0 0 1 1062,397.5 L1062,305.5 A2.5,2.5 0 0 1 1064.5,303" fill="none" style="stroke:#000000;stroke-width:1.5;"/><line style="stroke:#000000;stroke-width:1.5;" x1="1062" x2="1207.9521" y1="325.2969" y2="325.2969"/><text fill="#000000" font-family="sans-serif" font-size="14" font-weight="bold" lengthAdjust="spacing" textLength="132.9521" x="1066" y="317.9951">org.junit.vintage</text></g><!--cluster org.junit.platform--><g class="cluster" data-entity="org.junit.platform" data-source-line="18" data-uid="ent0010" id="cluster_org.junit.platform"><path d="M33.5,6 L176.0654,6 A3.75,3.75 0 0 1 178.5654,8.5 L185.5654,28.2969 L1035.5,28.2969 A2.5,2.5 0 0 1 1038,30.7969 L1038,730.5 A2.5,2.5 0 0 1 1035.5,733 L33.5,733 A2.5,2.5 0 0 1 31,730.5 L31,8.5 A2.5,2.5 0 0 1 33.5,6" fill="none" style="stroke:#000000;stroke-width:1.5;"/><line style="stroke:#000000;stroke-width:1.5;" x1="31" x2="185.5654" y1="28.2969" y2="28.2969"/><text fill="#000000" font-family="sans-serif" font-size="14" font-weight="bold" lengthAdjust="spacing" textLength="141.5654" x="35" y="20.9951">org.junit.platform</text></g><!--cluster JUnit 4--><g class="cluster" data-entity="JUnit 4" data-source-line="33" data-uid="ent0023" id="cluster_JUnit 4"><path d="M1246.5,530 L1300.1504,530 A3.75,3.75 0 0 1 1302.6504,532.5 L1309.6504,552.2969 L1379.5,552.2969 A2.5,2.5 0 0 1 1382,554.7969 L1382,624.5 A2.5,2.5 0 0 1 1379.5,627 L1246.5,627 A2.5,2.5 0 0 1 1244,624.5 L1244,532.5 A2.5,2.5 0 0 1 1246.5,530" fill="none" style="stroke:#000000;stroke-width:1.5;"/><line style="stroke:#000000;stroke-width:1.5;" x1="1244" x2="1309.6504" y1="552.2969" y2="552.2969"/><text fill="#000000" font-family="sans-serif" font-size="14" font-weight="bold" lengthAdjust="spacing" textLength="52.6504" x="1248" y="544.9951">JUnit 4</text></g><!--cluster org.opentest4j--><g class="cluster" data-entity="org.opentest4j" data-source-line="37" data-uid="ent0025" id="cluster_org.opentest4j"><path d="M687.5,803 L805.2168,803 A3.75,3.75 0 0 1 807.7168,805.5 L814.7168,825.2969 L830.5,825.2969 A2.5,2.5 0 0 1 833,827.7969 L833,897.5 A2.5,2.5 0 0 1 830.5,900 L687.5,900 A2.5,2.5 0 0 1 685,897.5 L685,805.5 A2.5,2.5 0 0 1 687.5,803" fill="none" style="stroke:#000000;stroke-width:1.5;"/><line style="stroke:#000000;stroke-width:1.5;" x1="685" x2="814.7168" y1="825.2969" y2="825.2969"/><text fill="#000000" font-family="sans-serif" font-size="14" font-weight="bold" lengthAdjust="spacing" textLength="116.7168" x="689" y="817.9951">org.opentest4j</text></g><!--cluster org.opentest4j.reporting--><g class="cluster" data-entity="org.opentest4j.reporting" data-source-line="41" data-uid="ent0027" id="cluster_org.opentest4j.reporting"><path d="M8.5,803 L205.958,803 A3.75,3.75 0 0 1 208.458,805.5 L215.458,825.2969 L291.5,825.2969 A2.5,2.5 0 0 1 294,827.7969 L294,897.5 A2.5,2.5 0 0 1 291.5,900 L8.5,900 A2.5,2.5 0 0 1 6,897.5 L6,805.5 A2.5,2.5 0 0 1 8.5,803" fill="none" style="stroke:#000000;stroke-width:1.5;"/><line style="stroke:#000000;stroke-width:1.5;" x1="6" x2="215.458" y1="825.2969" y2="825.2969"/><text fill="#000000" font-family="sans-serif" font-size="14" font-weight="bold" lengthAdjust="spacing" textLength="196.458" x="10" y="817.9951">org.opentest4j.reporting</text></g><!--cluster org.apiguardian--><g class="cluster" data-entity="org.apiguardian" data-source-line="45" data-uid="ent0029" id="cluster_org.apiguardian"><path d="M2117.5,6 L2245.2041,6 A3.75,3.75 0 0 1 2247.7041,8.5 L2254.7041,28.2969 L2342.5,28.2969 A2.5,2.5 0 0 1 2345,30.7969 L2345,276.5 A2.5,2.5 0 0 1 2342.5,279 L2117.5,279 A2.5,2.5 0 0 1 2115,276.5 L2115,8.5 A2.5,2.5 0 0 1 2117.5,6" fill="none" style="stroke:#000000;stroke-width:1.5;"/><line style="stroke:#000000;stroke-width:1.5;" x1="2115" x2="2254.7041" y1="28.2969" y2="28.2969"/><text fill="#000000" font-family="sans-serif" font-size="14" font-weight="bold" lengthAdjust="spacing" textLength="126.7041" x="2119" y="20.9951">org.apiguardian</text></g><!--entity jupiter--><g class="entity" data-entity="jupiter" data-source-line="7" data-uid="ent0003" id="entity_jupiter"><rect fill="#F1F1F1" height="46.2969" rx="2.5" ry="2.5" style="stroke:#181818;stroke-width:0.5;" width="121.4639" x="1887.5" y="182"/><rect fill="#F1F1F1" height="10" style="stroke:#181818;stroke-width:0.5;" width="15" x="1988.9639" y="187"/><rect fill="#F1F1F1" height="2" style="stroke:#181818;stroke-width:0.5;" width="4" x="1986.9639" y="189"/><rect fill="#F1F1F1" height="2" style="stroke:#181818;stroke-width:0.5;" width="4" x="1986.9639" y="193"/><text fill="#000000" font-family="sans-serif" font-size="14" lengthAdjust="spacing" textLength="81.4639" x="1902.5" y="214.9951">junit-jupiter</text></g><!--entity jupiter_api--><g class="entity" data-entity="jupiter_api" data-source-line="8" data-uid="ent0004" id="entity_jupiter_api"><rect fill="#F1F1F1" height="46.2969" rx="2.5" ry="2.5" style="stroke:#181818;stroke-width:0.5;" width="147.8711" x="1578" y="444"/><rect fill="#F1F1F1" height="10" style="stroke:#181818;stroke-width:0.5;" width="15" x="1705.8711" y="449"/><rect fill="#F1F1F1" height="2" style="stroke:#181818;stroke-width:0.5;" width="4" x="1703.8711" y="451"/><rect fill="#F1F1F1" height="2" style="stroke:#181818;stroke-width:0.5;" width="4" x="1703.8711" y="455"/><text fill="#000000" font-family="sans-serif" font-size="14" lengthAdjust="spacing" textLength="107.8711" x="1593" y="476.9951">junit-jupiter-api</text></g><!--entity jupiter_engine--><g class="entity" data-entity="jupiter_engine" data-source-line="9" data-uid="ent0005" id="entity_jupiter_engine"><rect fill="#F1F1F1" height="46.2969" rx="2.5" ry="2.5" style="stroke:#181818;stroke-width:0.5;" width="174.2646" x="1366" y="338"/><rect fill="#F1F1F1" height="10" style="stroke:#181818;stroke-width:0.5;" width="15" x="1520.2646" y="343"/><rect fill="#F1F1F1" height="2" style="stroke:#181818;stroke-width:0.5;" width="4" x="1518.2646" y="345"/><rect fill="#F1F1F1" height="2" style="stroke:#181818;stroke-width:0.5;" width="4" x="1518.2646" y="349"/><text fill="#000000" font-family="sans-serif" font-size="14" lengthAdjust="spacing" textLength="134.2646" x="1381" y="370.9951">junit-jupiter-engine</text></g><!--entity jupiter_params--><g class="entity" data-entity="jupiter_params" data-source-line="10" data-uid="ent0006" id="entity_jupiter_params"><rect fill="#F1F1F1" height="46.2969" rx="2.5" ry="2.5" style="stroke:#181818;stroke-width:0.5;" width="179.248" x="1858.5" y="338"/><rect fill="#F1F1F1" height="10" style="stroke:#181818;stroke-width:0.5;" width="15" x="2017.748" y="343"/><rect fill="#F1F1F1" height="2" style="stroke:#181818;stroke-width:0.5;" width="4" x="2015.748" y="345"/><rect fill="#F1F1F1" height="2" style="stroke:#181818;stroke-width:0.5;" width="4" x="2015.748" y="349"/><text fill="#000000" font-family="sans-serif" font-size="14" lengthAdjust="spacing" textLength="139.248" x="1873.5" y="370.9951">junit-jupiter-params</text></g><!--entity jupiter_migration_support--><g class="entity" data-entity="jupiter_migration_support" data-source-line="11" data-uid="ent0007" id="entity_jupiter_migration_support"><rect fill="#F1F1F1" height="46.2969" rx="2.5" ry="2.5" style="stroke:#181818;stroke-width:0.5;" width="247.833" x="1575" y="338"/><rect fill="#F1F1F1" height="10" style="stroke:#181818;stroke-width:0.5;" width="15" x="1802.833" y="343"/><rect fill="#F1F1F1" height="2" style="stroke:#181818;stroke-width:0.5;" width="4" x="1800.833" y="345"/><rect fill="#F1F1F1" height="2" style="stroke:#181818;stroke-width:0.5;" width="4" x="1800.833" y="349"/><text fill="#000000" font-family="sans-serif" font-size="14" lengthAdjust="spacing" textLength="207.833" x="1590" y="370.9951">junit-jupiter-migrationsupport</text></g><!--entity vintage_engine--><g class="entity" data-entity="vintage_engine" data-source-line="15" data-uid="ent0009" id="entity_vintage_engine"><rect fill="#F1F1F1" height="46.2969" rx="2.5" ry="2.5" style="stroke:#181818;stroke-width:0.5;" width="181.4834" x="1078.5" y="338"/><rect fill="#F1F1F1" height="10" style="stroke:#181818;stroke-width:0.5;" width="15" x="1239.9834" y="343"/><rect fill="#F1F1F1" height="2" style="stroke:#181818;stroke-width:0.5;" width="4" x="1237.9834" y="345"/><rect fill="#F1F1F1" height="2" style="stroke:#181818;stroke-width:0.5;" width="4" x="1237.9834" y="349"/><text fill="#000000" font-family="sans-serif" font-size="14" lengthAdjust="spacing" textLength="141.4834" x="1093.5" y="370.9951">junit-vintage-engine</text></g><!--entity commons--><g class="entity" data-entity="commons" data-source-line="19" data-uid="ent0011" id="entity_commons"><rect fill="#F1F1F1" height="46.2969" rx="2.5" ry="2.5" style="stroke:#181818;stroke-width:0.5;" width="209.1211" x="812.5" y="671"/><rect fill="#F1F1F1" height="10" style="stroke:#181818;stroke-width:0.5;" width="15" x="1001.6211" y="676"/><rect fill="#F1F1F1" height="2" style="stroke:#181818;stroke-width:0.5;" width="4" x="999.6211" y="678"/><rect fill="#F1F1F1" height="2" style="stroke:#181818;stroke-width:0.5;" width="4" x="999.6211" y="682"/><text fill="#000000" font-family="sans-serif" font-size="14" lengthAdjust="spacing" textLength="169.1211" x="827.5" y="703.9951">junit-platform-commons</text></g><!--entity console--><g class="entity" data-entity="console" data-source-line="20" data-uid="ent0012" id="entity_console"><rect fill="#F1F1F1" height="46.2969" rx="2.5" ry="2.5" style="stroke:#181818;stroke-width:0.5;" width="194.3486" x="179" y="182"/><rect fill="#F1F1F1" height="10" style="stroke:#181818;stroke-width:0.5;" width="15" x="353.3486" y="187"/><rect fill="#F1F1F1" height="2" style="stroke:#181818;stroke-width:0.5;" width="4" x="351.3486" y="189"/><rect fill="#F1F1F1" height="2" style="stroke:#181818;stroke-width:0.5;" width="4" x="351.3486" y="193"/><text fill="#000000" font-family="sans-serif" font-size="14" lengthAdjust="spacing" textLength="154.3486" x="194" y="214.9951">junit-platform-console</text></g><!--entity engine--><g class="entity" data-entity="engine" data-source-line="21" data-uid="ent0013" id="entity_engine"><rect fill="#F1F1F1" height="46.2969" rx="2.5" ry="2.5" style="stroke:#181818;stroke-width:0.5;" width="188.5996" x="822.5" y="565"/><rect fill="#F1F1F1" height="10" style="stroke:#181818;stroke-width:0.5;" width="15" x="991.0996" y="570"/><rect fill="#F1F1F1" height="2" style="stroke:#181818;stroke-width:0.5;" width="4" x="989.0996" y="572"/><rect fill="#F1F1F1" height="2" style="stroke:#181818;stroke-width:0.5;" width="4" x="989.0996" y="576"/><text fill="#000000" font-family="sans-serif" font-size="14" lengthAdjust="spacing" textLength="148.5996" x="837.5" y="597.9951">junit-platform-engine</text></g><!--entity jfr--><g class="entity" data-entity="jfr" data-source-line="22" data-uid="ent0014" id="entity_jfr"><rect fill="#F1F1F1" height="46.2969" rx="2.5" ry="2.5" style="stroke:#181818;stroke-width:0.5;" width="155.4248" x="546.5" y="338"/><rect fill="#F1F1F1" height="10" style="stroke:#181818;stroke-width:0.5;" width="15" x="681.9248" y="343"/><rect fill="#F1F1F1" height="2" style="stroke:#181818;stroke-width:0.5;" width="4" x="679.9248" y="345"/><rect fill="#F1F1F1" height="2" style="stroke:#181818;stroke-width:0.5;" width="4" x="679.9248" y="349"/><text fill="#000000" font-family="sans-serif" font-size="14" lengthAdjust="spacing" textLength="115.4248" x="561.5" y="370.9951">junit-platform-jfr</text></g><!--entity launcher--><g class="entity" data-entity="launcher" data-source-line="23" data-uid="ent0015" id="entity_launcher"><rect fill="#F1F1F1" height="46.2969" rx="2.5" ry="2.5" style="stroke:#181818;stroke-width:0.5;" width="202.0049" x="500" y="444"/><rect fill="#F1F1F1" height="10" style="stroke:#181818;stroke-width:0.5;" width="15" x="682.0049" y="449"/><rect fill="#F1F1F1" height="2" style="stroke:#181818;stroke-width:0.5;" width="4" x="680.0049" y="451"/><rect fill="#F1F1F1" height="2" style="stroke:#181818;stroke-width:0.5;" width="4" x="680.0049" y="455"/><text fill="#000000" font-family="sans-serif" font-size="14" lengthAdjust="spacing" textLength="162.0049" x="515" y="476.9951">junit-platform-launcher</text></g><!--entity reporting--><g class="entity" data-entity="reporting" data-source-line="24" data-uid="ent0016" id="entity_reporting"><rect fill="#F1F1F1" height="46.2969" rx="2.5" ry="2.5" style="stroke:#181818;stroke-width:0.5;" width="205.5664" x="47" y="338"/><rect fill="#F1F1F1" height="10" style="stroke:#181818;stroke-width:0.5;" width="15" x="232.5664" y="343"/><rect fill="#F1F1F1" height="2" style="stroke:#181818;stroke-width:0.5;" width="4" x="230.5664" y="345"/><rect fill="#F1F1F1" height="2" style="stroke:#181818;stroke-width:0.5;" width="4" x="230.5664" y="349"/><text fill="#000000" font-family="sans-serif" font-size="14" lengthAdjust="spacing" textLength="165.5664" x="62" y="370.9951">junit-platform-reporting</text></g><!--entity runner--><g class="entity" data-entity="runner" data-source-line="25" data-uid="ent0017" id="entity_runner"><rect fill="#F1F1F1" height="46.2969" rx="2.5" ry="2.5" style="stroke:#181818;stroke-width:0.5;" width="187.5947" x="797" y="182"/><rect fill="#F1F1F1" height="10" style="stroke:#181818;stroke-width:0.5;" width="15" x="964.5947" y="187"/><rect fill="#F1F1F1" height="2" style="stroke:#181818;stroke-width:0.5;" width="4" x="962.5947" y="189"/><rect fill="#F1F1F1" height="2" style="stroke:#181818;stroke-width:0.5;" width="4" x="962.5947" y="193"/><text fill="#000000" font-family="sans-serif" font-size="14" lengthAdjust="spacing" textLength="147.5947" x="812" y="214.9951">junit-platform-runner</text></g><!--entity suite--><g class="entity" data-entity="suite" data-source-line="26" data-uid="ent0018" id="entity_suite"><rect fill="#F1F1F1" height="46.2969" rx="2.5" ry="2.5" style="stroke:#181818;stroke-width:0.5;" width="175.0098" x="703.5" y="41"/><rect fill="#F1F1F1" height="10" style="stroke:#181818;stroke-width:0.5;" width="15" x="858.5098" y="46"/><rect fill="#F1F1F1" height="2" style="stroke:#181818;stroke-width:0.5;" width="4" x="856.5098" y="48"/><rect fill="#F1F1F1" height="2" style="stroke:#181818;stroke-width:0.5;" width="4" x="856.5098" y="52"/><text fill="#000000" font-family="sans-serif" font-size="14" lengthAdjust="spacing" textLength="135.0098" x="718.5" y="73.9951">junit-platform-suite</text></g><!--entity suite_api--><g class="entity" data-entity="suite_api" data-source-line="27" data-uid="ent0019" id="entity_suite_api"><rect fill="#F1F1F1" height="46.2969" rx="2.5" ry="2.5" style="stroke:#181818;stroke-width:0.5;" width="201.417" x="791.5" y="444"/><rect fill="#F1F1F1" height="10" style="stroke:#181818;stroke-width:0.5;" width="15" x="972.917" y="449"/><rect fill="#F1F1F1" height="2" style="stroke:#181818;stroke-width:0.5;" width="4" x="970.917" y="451"/><rect fill="#F1F1F1" height="2" style="stroke:#181818;stroke-width:0.5;" width="4" x="970.917" y="455"/><text fill="#000000" font-family="sans-serif" font-size="14" lengthAdjust="spacing" textLength="161.417" x="806.5" y="476.9951">junit-platform-suite-api</text></g><!--entity suite_commons--><g class="entity" data-entity="suite_commons" data-source-line="28" data-uid="ent0020" id="entity_suite_commons"><rect fill="#F1F1F1" height="46.2969" rx="2.5" ry="2.5" style="stroke:#181818;stroke-width:0.5;" width="248.332" x="737" y="338"/><rect fill="#F1F1F1" height="10" style="stroke:#181818;stroke-width:0.5;" width="15" x="965.332" y="343"/><rect fill="#F1F1F1" height="2" style="stroke:#181818;stroke-width:0.5;" width="4" x="963.332" y="345"/><rect fill="#F1F1F1" height="2" style="stroke:#181818;stroke-width:0.5;" width="4" x="963.332" y="349"/><text fill="#000000" font-family="sans-serif" font-size="14" lengthAdjust="spacing" textLength="208.332" x="752" y="370.9951">junit-platform-suite-commons</text></g><!--entity suite_engine--><g class="entity" data-entity="suite_engine" data-source-line="29" data-uid="ent0021" id="entity_suite_engine"><rect fill="#F1F1F1" height="46.2969" rx="2.5" ry="2.5" style="stroke:#181818;stroke-width:0.5;" width="227.8105" x="534" y="182"/><rect fill="#F1F1F1" height="10" style="stroke:#181818;stroke-width:0.5;" width="15" x="741.8105" y="187"/><rect fill="#F1F1F1" height="2" style="stroke:#181818;stroke-width:0.5;" width="4" x="739.8105" y="189"/><rect fill="#F1F1F1" height="2" style="stroke:#181818;stroke-width:0.5;" width="4" x="739.8105" y="193"/><text fill="#000000" font-family="sans-serif" font-size="14" lengthAdjust="spacing" textLength="187.8105" x="549" y="214.9951">junit-platform-suite-engine</text></g><!--entity testkit--><g class="entity" data-entity="testkit" data-source-line="30" data-uid="ent0022" id="entity_testkit"><rect fill="#F1F1F1" height="46.2969" rx="2.5" ry="2.5" style="stroke:#181818;stroke-width:0.5;" width="185.2227" x="288.5" y="338"/><rect fill="#F1F1F1" height="10" style="stroke:#181818;stroke-width:0.5;" width="15" x="453.7227" y="343"/><rect fill="#F1F1F1" height="2" style="stroke:#181818;stroke-width:0.5;" width="4" x="451.7227" y="345"/><rect fill="#F1F1F1" height="2" style="stroke:#181818;stroke-width:0.5;" width="4" x="451.7227" y="349"/><text fill="#000000" font-family="sans-serif" font-size="14" lengthAdjust="spacing" textLength="145.2227" x="303.5" y="370.9951">junit-platform-testkit</text></g><!--entity junit4--><g class="entity" data-entity="junit4" data-source-line="34" data-uid="ent0024" id="entity_junit4"><rect fill="#F1F1F1" height="46.2969" rx="2.5" ry="2.5" style="stroke:#181818;stroke-width:0.5;" width="106.7461" x="1259.5" y="565"/><rect fill="#F1F1F1" height="10" style="stroke:#181818;stroke-width:0.5;" width="15" x="1346.2461" y="570"/><rect fill="#F1F1F1" height="2" style="stroke:#181818;stroke-width:0.5;" width="4" x="1344.2461" y="572"/><rect fill="#F1F1F1" height="2" style="stroke:#181818;stroke-width:0.5;" width="4" x="1344.2461" y="576"/><text fill="#000000" font-family="sans-serif" font-size="14" lengthAdjust="spacing" textLength="66.7461" x="1274.5" y="597.9951">junit:junit</text></g><!--entity opentest4j--><g class="entity" data-entity="opentest4j" data-source-line="38" data-uid="ent0026" id="entity_opentest4j"><rect fill="#F1F1F1" height="46.2969" rx="2.5" ry="2.5" style="stroke:#181818;stroke-width:0.5;" width="114.6211" x="701.5" y="838"/><rect fill="#F1F1F1" height="10" style="stroke:#181818;stroke-width:0.5;" width="15" x="796.1211" y="843"/><rect fill="#F1F1F1" height="2" style="stroke:#181818;stroke-width:0.5;" width="4" x="794.1211" y="845"/><rect fill="#F1F1F1" height="2" style="stroke:#181818;stroke-width:0.5;" width="4" x="794.1211" y="849"/><text fill="#000000" font-family="sans-serif" font-size="14" lengthAdjust="spacing" textLength="74.6211" x="716.5" y="870.9951">opentest4j</text></g><!--entity otr_tooling_spi--><g class="entity" data-entity="otr_tooling_spi" data-source-line="42" data-uid="ent0028" id="entity_otr_tooling_spi"><rect fill="#F1F1F1" height="46.2969" rx="2.5" ry="2.5" style="stroke:#181818;stroke-width:0.5;" width="254.9766" x="22.5" y="838"/><rect fill="#F1F1F1" height="10" style="stroke:#181818;stroke-width:0.5;" width="15" x="257.4766" y="843"/><rect fill="#F1F1F1" height="2" style="stroke:#181818;stroke-width:0.5;" width="4" x="255.4766" y="845"/><rect fill="#F1F1F1" height="2" style="stroke:#181818;stroke-width:0.5;" width="4" x="255.4766" y="849"/><text fill="#000000" font-family="sans-serif" font-size="14" lengthAdjust="spacing" textLength="214.9766" x="37.5" y="870.9951">open-test-reporting-tooling-spi</text></g><!--entity apiguardian--><g class="entity" data-entity="apiguardian" data-source-line="46" data-uid="ent0030" id="entity_apiguardian"><rect fill="#F1F1F1" height="46.2969" rx="2.5" ry="2.5" style="stroke:#181818;stroke-width:0.5;" width="150.0859" x="2155" y="41"/><rect fill="#F1F1F1" height="10" style="stroke:#181818;stroke-width:0.5;" width="15" x="2285.0859" y="46"/><rect fill="#F1F1F1" height="2" style="stroke:#181818;stroke-width:0.5;" width="4" x="2283.0859" y="48"/><rect fill="#F1F1F1" height="2" style="stroke:#181818;stroke-width:0.5;" width="4" x="2283.0859" y="52"/><text fill="#000000" font-family="sans-serif" font-size="14" lengthAdjust="spacing" textLength="110.0859" x="2170" y="73.9951">apiguardian-api</text></g><g class="entity" data-entity="GMN31" data-source-line="48" data-uid="ent0032" id="entity_GMN31"><path d="M2131.5,147 L2131.5,262.9297 A0,0 0 0 0 2131.5,262.9297 L2328.876,262.9297 A0,0 0 0 0 2328.876,262.9297 L2328.876,157 L2318.876,147 L2234,147 L2230,87.02 L2226,147 L2131.5,147 A0,0 0 0 0 2131.5,147" fill="#FFFFFF" style="stroke:#181818;stroke-width:0.5;"/><path d="M2318.876,147 L2318.876,157 L2328.876,157 L2318.876,147" fill="#FFFFFF" style="stroke:#181818;stroke-width:0.5;"/><text fill="#000000" font-family="sans-serif" font-size="13" lengthAdjust="spacing" textLength="122.1479" x="2137.5" y="164.0669">All artifacts except</text><text fill="#000000" font-family="sans-serif" font-size="13" lengthAdjust="spacing" textLength="163.9917" x="2137.5" y="179.1997">opentest4j and junit:junit</text><text fill="#000000" font-family="sans-serif" font-size="13" lengthAdjust="spacing" textLength="176.376" x="2137.5" y="194.3325">have a dependency on this</text><text fill="#000000" font-family="sans-serif" font-size="13" lengthAdjust="spacing" textLength="158.6851" x="2137.5" y="209.4653">artifact. The edges have</text><text fill="#000000" font-family="sans-serif" font-size="13" lengthAdjust="spacing" textLength="149.8174" x="2137.5" y="224.5981">been omitted from this</text><text fill="#000000" font-family="sans-serif" font-size="13" lengthAdjust="spacing" textLength="152.5913" x="2137.5" y="239.731">diagram for the sake of</text><text fill="#000000" font-family="sans-serif" font-size="13" lengthAdjust="spacing" textLength="73.5376" x="2137.5" y="254.8638">readability.</text></g><!--link jupiter to jupiter_api--><g class="link" data-entity-1="jupiter" data-entity-2="jupiter_api" data-source-line="58" data-uid="lnk34" id="link_jupiter_jupiter_api"><path d="M1989.46,228.09 C2013.43,243.36 2041.46,266.12 2055,295 C2076.32,340.47 2087.89,370.04 2055,408 C2013.28,456.15 1836.5196,465.1828 1732.0196,466.3528" fill="none" id="jupiter-to-jupiter_api" style="stroke:#181818;stroke-width:1;stroke-dasharray:7.0,7.0;"/><polygon fill="#181818" points="1726.02,466.42,1735.0642,470.319,1731.0197,466.364,1734.9747,462.3195,1726.02,466.42" style="stroke:#181818;stroke-width:1;"/></g><!--link jupiter to jupiter_params--><g class="link" data-entity-1="jupiter" data-entity-2="jupiter_params" data-source-line="59" data-uid="lnk35" id="link_jupiter_jupiter_params"><path d="M1948,228.06 C1948,257.34 1948,302.72 1948,331.98" fill="none" id="jupiter-to-jupiter_params" style="stroke:#181818;stroke-width:1;stroke-dasharray:7.0,7.0;"/><polygon fill="#181818" points="1948,337.98,1952,328.98,1948,332.98,1944,328.98,1948,337.98" style="stroke:#181818;stroke-width:1;"/></g><!--link jupiter to jupiter_engine--><g class="link" data-entity-1="jupiter" data-entity-2="jupiter_engine" data-source-line="60" data-uid="lnk36" id="link_jupiter_jupiter_engine"><path d="M1887.33,213.52 C1808.99,224.64 1669.48,249.26 1558,295 C1531.02,306.07 1508.004,320.2916 1487.724,334.4116" fill="none" id="jupiter-to-jupiter_engine" style="stroke:#181818;stroke-width:1;stroke-dasharray:7.0,7.0;"/><polygon fill="#181818" points="1482.8,337.84,1492.4717,335.9801,1486.9034,334.983,1487.9005,329.4147,1482.8,337.84" style="stroke:#181818;stroke-width:1;"/></g><!--link jupiter_api to opentest4j--><g class="link" data-entity-1="jupiter_api" data-entity-2="opentest4j" data-source-line="62" data-uid="lnk37" id="link_jupiter_api_opentest4j"><path d="M1638.54,490.22 C1615.73,526 1566.05,596.3 1506,635 C1277.73,782.11 954.7619,836.0419 822.8719,852.8419" fill="none" id="jupiter_api-to-opentest4j" style="stroke:#181818;stroke-width:1;stroke-dasharray:7.0,7.0;"/><polygon fill="#181818" points="816.92,853.6,826.3533,856.4307,821.8799,852.9682,825.3424,848.4948,816.92,853.6" style="stroke:#181818;stroke-width:1;"/></g><!--link jupiter_api to commons--><g class="link" data-entity-1="jupiter_api" data-entity-2="commons" data-source-line="63" data-uid="lnk38" id="link_jupiter_api_commons"><path d="M1625.29,490.09 C1579,527.02 1479.46,600.63 1382,635 C1263.27,676.87 1124.1665,689.1043 1027.9565,692.4043" fill="none" id="jupiter_api-to-commons" style="stroke:#181818;stroke-width:1;stroke-dasharray:7.0,7.0;"/><polygon fill="#181818" points="1021.96,692.61,1031.0918,696.2991,1026.9571,692.4386,1030.8176,688.3038,1021.96,692.61" style="stroke:#181818;stroke-width:1;"/></g><!--link jupiter_engine to engine--><g class="link" data-entity-1="jupiter_engine" data-entity-2="engine" data-source-line="65" data-uid="lnk39" id="link_jupiter_engine_engine"><path d="M1400.14,384.19 C1297.4,427.32 1077.4223,519.6576 974.9923,562.6576" fill="none" id="jupiter_engine-to-engine" style="stroke:#181818;stroke-width:1;stroke-dasharray:7.0,7.0;"/><polygon fill="#181818" points="969.46,564.98,979.3067,565.1845,974.0702,563.0446,976.2101,557.8081,969.46,564.98" style="stroke:#181818;stroke-width:1;"/></g><!--link jupiter_engine to jupiter_api--><g class="link" data-entity-1="jupiter_engine" data-entity-2="jupiter_api" data-source-line="66" data-uid="lnk40" id="link_jupiter_engine_jupiter_api"><path d="M1495.2,384.06 C1528.97,401.7 1570.7822,423.5614 1604.5422,441.2014" fill="none" id="jupiter_engine-to-jupiter_api" style="stroke:#181818;stroke-width:1;stroke-dasharray:7.0,7.0;"/><polygon fill="#181818" points="1609.86,443.98,1603.7357,436.2668,1605.4285,441.6645,1600.0308,443.3573,1609.86,443.98" style="stroke:#181818;stroke-width:1;"/></g><!--link jupiter_params to jupiter_api--><g class="link" data-entity-1="jupiter_params" data-entity-2="jupiter_api" data-source-line="68" data-uid="lnk41" id="link_jupiter_params_jupiter_api"><path d="M1899.71,384.08 C1881.49,392.06 1860.46,400.86 1841,408 C1803.63,421.72 1767.0759,433.226 1731.9759,443.556" fill="none" id="jupiter_params-to-jupiter_api" style="stroke:#181818;stroke-width:1;stroke-dasharray:7.0,7.0;"/><polygon fill="#181818" points="1726.22,445.25,1735.9832,446.5463,1731.0166,443.8384,1733.7245,438.8718,1726.22,445.25" style="stroke:#181818;stroke-width:1;"/></g><!--link jupiter_migration_support to jupiter_api--><g class="link" data-entity-1="jupiter_migration_support" data-entity-2="jupiter_api" data-source-line="69" data-uid="lnk42" id="link_jupiter_migration_support_jupiter_api"><path d="M1689.03,384.06 C1681.06,401.7 1672.403,420.8734 1664.423,438.5134" fill="none" id="jupiter_migration_support-to-jupiter_api" style="stroke:#181818;stroke-width:1;stroke-dasharray:7.0,7.0;"/><polygon fill="#181818" points="1661.95,443.98,1669.3039,437.4287,1664.0108,439.4245,1662.0151,434.1314,1661.95,443.98" style="stroke:#181818;stroke-width:1;"/></g><!--link jupiter_migration_support to junit4--><g class="link" data-entity-1="jupiter_migration_support" data-entity-2="junit4" data-source-line="70" data-uid="lnk43" id="link_jupiter_migration_support_junit4"><path d="M1660.93,384.19 C1586.94,427.32 1429.7235,518.9582 1355.9635,561.9582" fill="none" id="jupiter_migration_support-to-junit4" style="stroke:#181818;stroke-width:1;stroke-dasharray:7.0,7.0;"/><polygon fill="#181818" points="1350.78,564.98,1360.5698,563.9029,1355.0996,562.4618,1356.5407,556.9916,1350.78,564.98" style="stroke:#181818;stroke-width:1;"/></g><!--link console to launcher--><g class="link" data-entity-1="console" data-entity-2="launcher" data-source-line="72" data-uid="lnk44" id="link_console_launcher"><path d="M373.14,227.06 C414.3,240.39 459.84,261.64 491,295 C527.17,333.72 498.71,364.53 529,408 C538.73,421.96 547.9158,430.7325 561.0058,440.4125" fill="none" id="console-to-launcher" style="stroke:#181818;stroke-width:1;stroke-dasharray:7.0,7.0;"/><polygon fill="#181818" points="565.83,443.98,560.972,435.4126,561.8098,441.0071,556.2154,441.8449,565.83,443.98" style="stroke:#181818;stroke-width:1;"/></g><!--link console to reporting--><g class="link" data-entity-1="console" data-entity-2="reporting" data-source-line="73" data-uid="lnk45" id="link_console_reporting"><path d="M257.95,228.06 C233.99,257.34 195.7485,304.0755 171.8185,333.3355" fill="none" id="console-to-reporting" style="stroke:#181818;stroke-width:1;stroke-dasharray:7.0,7.0;"/><polygon fill="#181818" points="168.02,337.98,176.8141,333.5455,171.1854,334.1096,170.6214,328.4809,168.02,337.98" style="stroke:#181818;stroke-width:1;"/></g><!--link launcher to engine--><g class="link" data-entity-1="launcher" data-entity-2="engine" data-source-line="75" data-uid="lnk46" id="link_launcher_engine"><path d="M659.7,490.1 C716.37,511.44 796.0848,541.4658 852.7348,562.7958" fill="none" id="launcher-to-engine" style="stroke:#181818;stroke-width:1;stroke-dasharray:7.0,7.0;"/><polygon fill="#181818" points="858.35,564.91,851.3368,557.9952,853.6707,563.1481,848.5178,565.4821,858.35,564.91" style="stroke:#181818;stroke-width:1;"/></g><!--link jfr to launcher--><g class="link" data-entity-1="jfr" data-entity-2="launcher" data-source-line="77" data-uid="lnk47" id="link_jfr_launcher"><path d="M619.12,384.06 C615.22,401.7 611.0653,420.4815 607.1653,438.1215" fill="none" id="jfr-to-launcher" style="stroke:#181818;stroke-width:1;stroke-dasharray:7.0,7.0;"/><polygon fill="#181818" points="605.87,443.98,611.7186,436.0557,606.9494,439.0979,603.9072,434.3287,605.87,443.98" style="stroke:#181818;stroke-width:1;"/></g><!--link engine to opentest4j--><g class="link" data-entity-1="engine" data-entity-2="opentest4j" data-source-line="79" data-uid="lnk48" id="link_engine_opentest4j"><path d="M866.74,611.02 C841.37,624.69 812.37,644.7 795,671 C760.49,723.26 757.1049,794.3611 757.8249,831.8711" fill="none" id="engine-to-opentest4j" style="stroke:#181818;stroke-width:1;stroke-dasharray:7.0,7.0;"/><polygon fill="#181818" points="757.94,837.87,761.7665,828.7949,757.844,832.8709,753.768,828.9484,757.94,837.87" style="stroke:#181818;stroke-width:1;"/></g><!--link engine to commons--><g class="link" data-entity-1="engine" data-entity-2="commons" data-source-line="80" data-uid="lnk49" id="link_engine_commons"><path d="M917,611.06 C917,628.7 917,647.34 917,664.98" fill="none" id="engine-to-commons" style="stroke:#181818;stroke-width:1;stroke-dasharray:7.0,7.0;"/><polygon fill="#181818" points="917,670.98,921,661.98,917,665.98,913,661.98,917,670.98" style="stroke:#181818;stroke-width:1;"/></g><!--link reporting to launcher--><g class="link" data-entity-1="reporting" data-entity-2="launcher" data-source-line="82" data-uid="lnk50" id="link_reporting_launcher"><path d="M201.4,384.01 C222.64,392.45 247.71,401.59 271,408 C346.57,428.8 428.0816,442.9228 493.9616,452.4328" fill="none" id="reporting-to-launcher" style="stroke:#181818;stroke-width:1;stroke-dasharray:7.0,7.0;"/><polygon fill="#181818" points="499.9,453.29,491.5638,448.0452,494.9513,452.5756,490.4208,455.9631,499.9,453.29" style="stroke:#181818;stroke-width:1;"/></g><!--link reporting to otr_tooling_spi--><g class="link" data-entity-1="reporting" data-entity-2="otr_tooling_spi" data-source-line="83" data-uid="lnk51" id="link_reporting_otr_tooling_spi"><path d="M150,384.04 C150,424.33 150,512.59 150,587 C150,587 150,587 150,695 C150,746.13 150,800.18 150,831.85" fill="none" id="reporting-to-otr_tooling_spi" style="stroke:#181818;stroke-width:1;stroke-dasharray:7.0,7.0;"/><polygon fill="#181818" points="150,837.85,154,828.85,150,832.85,146,828.85,150,837.85" style="stroke:#181818;stroke-width:1;"/></g><!--link runner to suite_commons--><g class="link" data-entity-1="runner" data-entity-2="suite_commons" data-source-line="85" data-uid="lnk52" id="link_runner_suite_commons"><path d="M886.7,228.06 C881,257.34 872.1373,302.8307 866.4373,332.0907" fill="none" id="runner-to-suite_commons" style="stroke:#181818;stroke-width:1;stroke-dasharray:7.0,7.0;"/><polygon fill="#181818" points="865.29,337.98,870.9371,329.9109,866.2461,333.0723,863.0847,328.3812,865.29,337.98" style="stroke:#181818;stroke-width:1;"/></g><!--link runner to junit4--><g class="link" data-entity-1="runner" data-entity-2="junit4" data-source-line="86" data-uid="lnk53" id="link_runner_junit4"><path d="M985.23,215.49 C1086.37,227.72 1237.71,252.63 1276,295 C1345.72,372.15 1329.0993,505.2653 1318.8893,559.0353" fill="none" id="runner-to-junit4" style="stroke:#181818;stroke-width:1;stroke-dasharray:7.0,7.0;"/><polygon fill="#181818" points="1317.77,564.93,1323.3787,556.8342,1318.7027,560.0178,1315.5192,555.3418,1317.77,564.93" style="stroke:#181818;stroke-width:1;"/></g><!--link suite to suite_api--><g class="link" data-entity-1="suite" data-entity-2="suite_api" data-source-line="88" data-uid="lnk54" id="link_suite_suite_api"><path d="M878.56,72.09 C923.58,80.7 974.79,99.27 1003,139 C1072.22,236.48 1064.94,305.74 1003,408 C993.48,423.71 983.4579,432.5724 967.1979,441.1424" fill="none" id="suite-to-suite_api" style="stroke:#181818;stroke-width:1;stroke-dasharray:7.0,7.0;"/><polygon fill="#181818" points="961.89,443.94,971.7169,443.2822,966.3132,441.6087,967.9868,436.2051,961.89,443.94" style="stroke:#181818;stroke-width:1;"/></g><!--link suite to suite_engine--><g class="link" data-entity-1="suite" data-entity-2="suite_engine" data-source-line="89" data-uid="lnk55" id="link_suite_suite_engine"><path d="M768.34,87.02 C741.72,112.9 702.1017,151.4072 675.3317,177.4372" fill="none" id="suite-to-suite_engine" style="stroke:#181818;stroke-width:1;stroke-dasharray:7.0,7.0;"/><polygon fill="#181818" points="671.03,181.62,680.271,178.2136,674.6147,178.1344,674.694,172.4781,671.03,181.62" style="stroke:#181818;stroke-width:1;"/></g><!--link suite_engine to suite_commons--><g class="link" data-entity-1="suite_engine" data-entity-2="suite_commons" data-source-line="91" data-uid="lnk56" id="link_suite_engine_suite_commons"><path d="M678.52,228.06 C719.01,257.34 785.2181,305.204 825.6781,334.464" fill="none" id="suite_engine-to-suite_commons" style="stroke:#181818;stroke-width:1;stroke-dasharray:7.0,7.0;"/><polygon fill="#181818" points="830.54,337.98,825.5912,329.4647,826.4885,335.05,820.9032,335.9472,830.54,337.98" style="stroke:#181818;stroke-width:1;"/></g><!--link suite_commons to launcher--><g class="link" data-entity-1="suite_commons" data-entity-2="launcher" data-source-line="93" data-uid="lnk57" id="link_suite_commons_launcher"><path d="M805.86,384.06 C761.74,401.7 705.7309,424.1117 661.6309,441.7517" fill="none" id="suite_commons-to-launcher" style="stroke:#181818;stroke-width:1;stroke-dasharray:7.0,7.0;"/><polygon fill="#181818" points="656.06,443.98,665.9019,444.3514,660.7024,442.123,662.9307,436.9236,656.06,443.98" style="stroke:#181818;stroke-width:1;"/></g><!--link suite_commons to suite_api--><g class="link" data-entity-1="suite_commons" data-entity-2="suite_api" data-source-line="94" data-uid="lnk58" id="link_suite_commons_suite_api"><path d="M867.57,384.06 C872.84,401.7 878.4655,420.5902 883.7255,438.2302" fill="none" id="suite_commons-to-suite_api" style="stroke:#181818;stroke-width:1;stroke-dasharray:7.0,7.0;"/><polygon fill="#181818" points="885.44,443.98,886.7014,434.2123,884.0112,439.1885,879.035,436.4983,885.44,443.98" style="stroke:#181818;stroke-width:1;"/></g><!--link testkit to opentest4j--><g class="link" data-entity-1="testkit" data-entity-2="opentest4j" data-source-line="96" data-uid="lnk59" id="link_testkit_opentest4j"><path d="M388.27,384.07 C400.76,424.07 425,511.38 425,587 C425,587 425,587 425,695 C425,816.75 599.6328,848.1473 695.2228,856.5073" fill="none" id="testkit-to-opentest4j" style="stroke:#181818;stroke-width:1;stroke-dasharray:7.0,7.0;"/><polygon fill="#181818" points="701.2,857.03,692.5827,852.2611,696.219,856.5944,691.8857,860.2307,701.2,857.03" style="stroke:#181818;stroke-width:1;"/></g><!--link testkit to launcher--><g class="link" data-entity-1="testkit" data-entity-2="launcher" data-source-line="97" data-uid="lnk60" id="link_testkit_launcher"><path d="M427.66,384.06 C464.99,401.7 511.6654,423.776 548.9854,441.416" fill="none" id="testkit-to-launcher" style="stroke:#181818;stroke-width:1;stroke-dasharray:7.0,7.0;"/><polygon fill="#181818" points="554.41,443.98,547.9825,436.5176,549.8895,441.8433,544.5638,443.7503,554.41,443.98" style="stroke:#181818;stroke-width:1;"/></g><!--link vintage_engine to engine--><g class="link" data-entity-1="vintage_engine" data-entity-2="engine" data-source-line="99" data-uid="lnk61" id="link_vintage_engine_engine"><path d="M1147.26,384.1 C1117.21,414.33 1060.93,469.85 1010,514 C989.53,531.75 970.2148,546.9667 951.6848,561.0667" fill="none" id="vintage_engine-to-engine" style="stroke:#181818;stroke-width:1;stroke-dasharray:7.0,7.0;"/><polygon fill="#181818" points="946.91,564.7,956.4945,562.4333,950.889,561.6722,951.6501,556.0668,946.91,564.7" style="stroke:#181818;stroke-width:1;"/></g><!--link vintage_engine to junit4--><g class="link" data-entity-1="vintage_engine" data-entity-2="junit4" data-source-line="100" data-uid="lnk62" id="link_vintage_engine_junit4"><path d="M1183.33,384.4 C1210.94,427.52 1267.9358,516.5863 1295.4858,559.6363" fill="none" id="vintage_engine-to-junit4" style="stroke:#181818;stroke-width:1;stroke-dasharray:7.0,7.0;"/><polygon fill="#181818" points="1298.72,564.69,1297.2379,554.9533,1296.0249,560.4786,1290.4996,559.2655,1298.72,564.69" style="stroke:#181818;stroke-width:1;"/></g><!--SRC=[bLMnZjim3Dtr5S9rjgTC7Gxeqg53ftOw70B5fXqbjcH8zBM7elzUIfPboLOEQ0P7Uk-HePvenjwbceGH8__3E7rQwCGyu5UjyBiOWLkXR6N1o8xzPMmIpLtqmBNfwzki9D9paWWcHBzui0hWAnUMXtM1hiGaKycPzYKPg5ugo9GBL1BxizXCl40byIXx8r1gPUTfqWQpi4YU0risu4qgT4XcG03JqWEqbbxCDGq2Est6FDcALeqUHwhLfmlh1pfbzG11vzT5NLBTqT2ekdNX8ZjJv0Sng-OQRdlT59K6d8rIzLuQTsNjh5J8kIoBAZlJLNcHNptMn5xpktsdxRIfpul-8xUNcCJB9UG3Hn4itkNIRM6TziFJjvyavwUdh0q- -sVeK5gTzYsa9r0ks-csnct8wsDn7UyX3VCrRXTMeTQ3-xR1Hetc7B0pOVlqv6y_2zDAeTQi2HGl8y6yI6a4Vj68UkIwIsd-wTTrlM3t-J8CN51fdMYGklTt0nD6Cd52g9OdzaN9LRm15pJjIDg2QjwvLXolqaR5chtcFwx0eUt1-gWek00ehaU922tl39MSnLFLlHkhTED4k45w9s-wo1iGhRZ8GU9xxK4gn9tVMRaErRf-pePZ2G_JhKI55cH92kATOdDeJpx7oSBoD0iPKXwel4wM5_Ve7CSH-rzAB_Ll0WjJpeV74PI2sx1XAy-Jyp0QRdamsqwT-vKSEJgrlK9PZXGEUNQl3Ljccm_B9qqaabDwHQ9r1ksnzK3fhf2UPTkyx2Er_HmBy-heoqQaBkR_UbaF7QXuq7y0]--></g></svg>