<?xml version="1.0" encoding="UTF-8" standalone="no"?><svg xmlns="http://www.w3.org/2000/svg" xmlns:xlink="http://www.w3.org/1999/xlink" contentScriptType="application/ecmascript" contentStyleType="text/css" height="596px" preserveAspectRatio="none" style="width:1799px;height:596px;" version="1.1" viewBox="0 0 1799 596" width="1799px" zoomAndPan="magnify"><defs><filter height="300%" id="f1rrr2d2399cu7" width="300%" x="-1" y="-1"><feGaussianBlur result="blurOut" stdDeviation="2.0"/><feColorMatrix in="blurOut" result="blurOut2" type="matrix" values="0 0 0 0 0 0 0 0 0 0 0 0 0 0 0 0 0 0 .4 0"/><feOffset dx="4.0" dy="4.0" in="blurOut2" result="blurOut3"/><feBlend in="SourceGraphic" in2="blurOut3" mode="normal"/></filter></defs><g><!--cluster org.junit.jupiter--><polygon fill="#FFFFFF" filter="url(#f1rrr2d2399cu7)" points="14,309,129,309,136,334.0654,634,334.0654,634,485,14,485,14,309" style="stroke: #000000; stroke-width: 1.5;"/><line style="stroke: #000000; stroke-width: 1.5;" x1="14" x2="136" y1="334.0654" y2="334.0654"/><text fill="#000000" font-family="Open Sans" font-size="14" font-weight="bold" lengthAdjust="spacingAndGlyphs" textLength="109" x="18" y="325.9639">org.junit.jupiter</text><!--cluster org.junit.vintage--><polygon fill="#FFFFFF" filter="url(#f1rrr2d2399cu7)" points="724,309,844,309,851,334.0654,896,334.0654,896,485,724,485,724,309" style="stroke: #000000; stroke-width: 1.5;"/><line style="stroke: #000000; stroke-width: 1.5;" x1="724" x2="851" y1="334.0654" y2="334.0654"/><text fill="#000000" font-family="Open Sans" font-size="14" font-weight="bold" lengthAdjust="spacingAndGlyphs" textLength="114" x="728" y="325.9639">org.junit.vintage</text><!--cluster org.junit.platform--><polygon fill="#FFFFFF" filter="url(#f1rrr2d2399cu7)" points="904,16,1034,16,1041,41.0654,1560,41.0654,1560,584,904,584,904,16" style="stroke: #000000; stroke-width: 1.5;"/><line style="stroke: #000000; stroke-width: 1.5;" x1="904" x2="1041" y1="41.0654" y2="41.0654"/><text fill="#000000" font-family="Open Sans" font-size="14" font-weight="bold" lengthAdjust="spacingAndGlyphs" textLength="124" x="908" y="32.9639">org.junit.platform</text><!--cluster org.opentest4j--><polygon fill="#FFFFFF" filter="url(#f1rrr2d2399cu7)" points="632,507,739,507,746,532.0654,749,532.0654,749,584,632,584,632,507" style="stroke: #000000; stroke-width: 1.5;"/><line style="stroke: #000000; stroke-width: 1.5;" x1="632" x2="746" y1="532.0654" y2="532.0654"/><text fill="#000000" font-family="Open Sans" font-size="14" font-weight="bold" lengthAdjust="spacingAndGlyphs" textLength="101" x="636" y="523.9639">org.opentest4j</text><!--cluster org.apiguardian--><polygon fill="#FFFFFF" filter="url(#f1rrr2d2399cu7)" points="1579,16,1694,16,1701,41.0654,1777,41.0654,1777,287,1579,287,1579,16" style="stroke: #000000; stroke-width: 1.5;"/><line style="stroke: #000000; stroke-width: 1.5;" x1="1579" x2="1701" y1="41.0654" y2="41.0654"/><text fill="#000000" font-family="Open Sans" font-size="14" font-weight="bold" lengthAdjust="spacingAndGlyphs" textLength="109" x="1583" y="32.9639">org.apiguardian</text><!--entity jupiter_api--><rect fill="#FEFECE" filter="url(#f1rrr2d2399cu7)" height="39.0654" style="stroke: #A80036; stroke-width: 1.5;" width="127" x="486.5" y="438"/><rect fill="#FEFECE" height="5" style="stroke: #A80036; stroke-width: 1.5;" width="10" x="481.5" y="443"/><rect fill="#FEFECE" height="5" style="stroke: #A80036; stroke-width: 1.5;" width="10" x="481.5" y="467.0654"/><text fill="#000000" font-family="Open Sans" font-size="14" lengthAdjust="spacingAndGlyphs" textLength="107" x="496.5" y="462.9639">junit-jupiter-api</text><!--entity jupiter_engine--><rect fill="#FEFECE" filter="url(#f1rrr2d2399cu7)" height="39.0654" style="stroke: #A80036; stroke-width: 1.5;" width="152" x="474" y="339"/><rect fill="#FEFECE" height="5" style="stroke: #A80036; stroke-width: 1.5;" width="10" x="469" y="344"/><rect fill="#FEFECE" height="5" style="stroke: #A80036; stroke-width: 1.5;" width="10" x="469" y="368.0654"/><text fill="#000000" font-family="Open Sans" font-size="14" lengthAdjust="spacingAndGlyphs" textLength="132" x="484" y="363.9639">junit-jupiter-engine</text><!--entity jupiter_params--><rect fill="#FEFECE" filter="url(#f1rrr2d2399cu7)" height="39.0654" style="stroke: #A80036; stroke-width: 1.5;" width="157" x="22.5" y="339"/><rect fill="#FEFECE" height="5" style="stroke: #A80036; stroke-width: 1.5;" width="10" x="17.5" y="344"/><rect fill="#FEFECE" height="5" style="stroke: #A80036; stroke-width: 1.5;" width="10" x="17.5" y="368.0654"/><text fill="#000000" font-family="Open Sans" font-size="14" lengthAdjust="spacingAndGlyphs" textLength="137" x="32.5" y="363.9639">junit-jupiter-params</text><!--entity jupiter_migration_support--><rect fill="#FEFECE" filter="url(#f1rrr2d2399cu7)" height="39.0654" style="stroke: #A80036; stroke-width: 1.5;" width="224" x="215" y="339"/><rect fill="#FEFECE" height="5" style="stroke: #A80036; stroke-width: 1.5;" width="10" x="210" y="344"/><rect fill="#FEFECE" height="5" style="stroke: #A80036; stroke-width: 1.5;" width="10" x="210" y="368.0654"/><text fill="#000000" font-family="Open Sans" font-size="14" lengthAdjust="spacingAndGlyphs" textLength="204" x="225" y="363.9639">junit-jupiter-migrationsupport</text><!--entity vintage_engine--><rect fill="#FEFECE" filter="url(#f1rrr2d2399cu7)" height="39.0654" style="stroke: #A80036; stroke-width: 1.5;" width="156" x="732" y="339"/><rect fill="#FEFECE" height="5" style="stroke: #A80036; stroke-width: 1.5;" width="10" x="727" y="344"/><rect fill="#FEFECE" height="5" style="stroke: #A80036; stroke-width: 1.5;" width="10" x="727" y="368.0654"/><text fill="#000000" font-family="Open Sans" font-size="14" lengthAdjust="spacingAndGlyphs" textLength="136" x="742" y="363.9639">junit-vintage-engine</text><!--entity junit4--><rect fill="#FEFECE" filter="url(#f1rrr2d2399cu7)" height="39.0654" style="stroke: #A80036; stroke-width: 1.5;" width="86" x="732" y="438"/><rect fill="#FEFECE" height="5" style="stroke: #A80036; stroke-width: 1.5;" width="10" x="727" y="443"/><rect fill="#FEFECE" height="5" style="stroke: #A80036; stroke-width: 1.5;" width="10" x="727" y="467.0654"/><text fill="#000000" font-family="Open Sans" font-size="14" lengthAdjust="spacingAndGlyphs" textLength="66" x="742" y="462.9639">junit:junit</text><!--entity commons--><rect fill="#FEFECE" filter="url(#f1rrr2d2399cu7)" height="39.0654" style="stroke: #A80036; stroke-width: 1.5;" width="184" x="912" y="537"/><rect fill="#FEFECE" height="5" style="stroke: #A80036; stroke-width: 1.5;" width="10" x="907" y="542"/><rect fill="#FEFECE" height="5" style="stroke: #A80036; stroke-width: 1.5;" width="10" x="907" y="566.0654"/><text fill="#000000" font-family="Open Sans" font-size="14" lengthAdjust="spacingAndGlyphs" textLength="164" x="922" y="561.9639">junit-platform-commons</text><!--entity console--><rect fill="#FEFECE" filter="url(#f1rrr2d2399cu7)" height="39.0654" style="stroke: #A80036; stroke-width: 1.5;" width="170" x="1382" y="192.5"/><rect fill="#FEFECE" height="5" style="stroke: #A80036; stroke-width: 1.5;" width="10" x="1377" y="197.5"/><rect fill="#FEFECE" height="5" style="stroke: #A80036; stroke-width: 1.5;" width="10" x="1377" y="221.5654"/><text fill="#000000" font-family="Open Sans" font-size="14" lengthAdjust="spacingAndGlyphs" textLength="150" x="1392" y="217.4639">junit-platform-console</text><!--entity engine--><rect fill="#FEFECE" filter="url(#f1rrr2d2399cu7)" height="39.0654" style="stroke: #A80036; stroke-width: 1.5;" width="165" x="912.5" y="438"/><rect fill="#FEFECE" height="5" style="stroke: #A80036; stroke-width: 1.5;" width="10" x="907.5" y="443"/><rect fill="#FEFECE" height="5" style="stroke: #A80036; stroke-width: 1.5;" width="10" x="907.5" y="467.0654"/><text fill="#000000" font-family="Open Sans" font-size="14" lengthAdjust="spacingAndGlyphs" textLength="145" x="922.5" y="462.9639">junit-platform-engine</text><!--entity gradle--><rect fill="#FEFECE" filter="url(#f1rrr2d2399cu7)" height="39.0654" style="stroke: #A80036; stroke-width: 1.5;" width="210" x="1342" y="46"/><rect fill="#FEFECE" height="5" style="stroke: #A80036; stroke-width: 1.5;" width="10" x="1337" y="51"/><rect fill="#FEFECE" height="5" style="stroke: #A80036; stroke-width: 1.5;" width="10" x="1337" y="75.0654"/><text fill="#000000" font-family="Open Sans" font-size="14" lengthAdjust="spacingAndGlyphs" textLength="190" x="1352" y="70.9639">junit-platform-gradle-plugin</text><!--entity launcher--><rect fill="#FEFECE" filter="url(#f1rrr2d2399cu7)" height="39.0654" style="stroke: #A80036; stroke-width: 1.5;" width="179" x="1112.5" y="339"/><rect fill="#FEFECE" height="5" style="stroke: #A80036; stroke-width: 1.5;" width="10" x="1107.5" y="344"/><rect fill="#FEFECE" height="5" style="stroke: #A80036; stroke-width: 1.5;" width="10" x="1107.5" y="368.0654"/><text fill="#000000" font-family="Open Sans" font-size="14" lengthAdjust="spacingAndGlyphs" textLength="159" x="1122.5" y="363.9639">junit-platform-launcher</text><!--entity runner--><rect fill="#FEFECE" filter="url(#f1rrr2d2399cu7)" height="39.0654" style="stroke: #A80036; stroke-width: 1.5;" width="166" x="912" y="192.5"/><rect fill="#FEFECE" height="5" style="stroke: #A80036; stroke-width: 1.5;" width="10" x="907" y="197.5"/><rect fill="#FEFECE" height="5" style="stroke: #A80036; stroke-width: 1.5;" width="10" x="907" y="221.5654"/><text fill="#000000" font-family="Open Sans" font-size="14" lengthAdjust="spacingAndGlyphs" textLength="146" x="922" y="217.4639">junit-platform-runner</text><!--entity suite_api--><rect fill="#FEFECE" filter="url(#f1rrr2d2399cu7)" height="39.0654" style="stroke: #A80036; stroke-width: 1.5;" width="178" x="1113" y="438"/><rect fill="#FEFECE" height="5" style="stroke: #A80036; stroke-width: 1.5;" width="10" x="1108" y="443"/><rect fill="#FEFECE" height="5" style="stroke: #A80036; stroke-width: 1.5;" width="10" x="1108" y="467.0654"/><text fill="#000000" font-family="Open Sans" font-size="14" lengthAdjust="spacingAndGlyphs" textLength="158" x="1123" y="462.9639">junit-platform-suite-api</text><!--entity surefire--><rect fill="#FEFECE" filter="url(#f1rrr2d2399cu7)" height="39.0654" style="stroke: #A80036; stroke-width: 1.5;" width="234" x="1113" y="192.5"/><rect fill="#FEFECE" height="5" style="stroke: #A80036; stroke-width: 1.5;" width="10" x="1108" y="197.5"/><rect fill="#FEFECE" height="5" style="stroke: #A80036; stroke-width: 1.5;" width="10" x="1108" y="221.5654"/><text fill="#000000" font-family="Open Sans" font-size="14" lengthAdjust="spacingAndGlyphs" textLength="214" x="1123" y="217.4639">junit-platform-surefire-provider</text><!--entity opentest4j--><rect fill="#FEFECE" filter="url(#f1rrr2d2399cu7)" height="39.0654" style="stroke: #A80036; stroke-width: 1.5;" width="91" x="644.5" y="537"/><rect fill="#FEFECE" height="5" style="stroke: #A80036; stroke-width: 1.5;" width="10" x="639.5" y="542"/><rect fill="#FEFECE" height="5" style="stroke: #A80036; stroke-width: 1.5;" width="10" x="639.5" y="566.0654"/><text fill="#000000" font-family="Open Sans" font-size="14" lengthAdjust="spacingAndGlyphs" textLength="71" x="654.5" y="561.9639">opentest4j</text><!--entity apiguardian--><rect fill="#FEFECE" filter="url(#f1rrr2d2399cu7)" height="39.0654" style="stroke: #A80036; stroke-width: 1.5;" width="128" x="1614" y="46"/><rect fill="#FEFECE" height="5" style="stroke: #A80036; stroke-width: 1.5;" width="10" x="1609" y="51"/><rect fill="#FEFECE" height="5" style="stroke: #A80036; stroke-width: 1.5;" width="10" x="1609" y="75.0654"/><text fill="#000000" font-family="Open Sans" font-size="14" lengthAdjust="spacingAndGlyphs" textLength="108" x="1624" y="70.9639">apiguardian-api</text><path d="M1587.5,145 L1587.5,278.9253 A0,0 0 0 0 1587.5,278.9253 L1768.5,278.9253 A0,0 0 0 0 1768.5,278.9253 L1768.5,155 L1758.5,145 L1682,145 L1678,85.2576 L1674,145 L1587.5,145 A0,0 0 0 0 1587.5,145 " fill="#FFFFFF" filter="url(#f1rrr2d2399cu7)" style="stroke: #A80036; stroke-width: 1.0;"/><path d="M1758.5,145 L1758.5,155 L1768.5,155 L1758.5,145 " fill="#FFFFFF" style="stroke: #A80036; stroke-width: 1.0;"/><text fill="#000000" font-family="Open Sans" font-size="13" lengthAdjust="spacingAndGlyphs" textLength="108" x="1593.5" y="163.895">All artifacts except</text><text fill="#000000" font-family="Open Sans" font-size="13" lengthAdjust="spacingAndGlyphs" textLength="150" x="1593.5" y="181.5986">opentest4j and junit:junit</text><text fill="#000000" font-family="Open Sans" font-size="13" lengthAdjust="spacingAndGlyphs" textLength="160" x="1593.5" y="199.3022">have a dependency on this</text><text fill="#000000" font-family="Open Sans" font-size="13" lengthAdjust="spacingAndGlyphs" textLength="140" x="1593.5" y="217.0059">artifact. The edges have</text><text fill="#000000" font-family="Open Sans" font-size="13" lengthAdjust="spacingAndGlyphs" textLength="138" x="1593.5" y="234.7095">been omitted from this</text><text fill="#000000" font-family="Open Sans" font-size="13" lengthAdjust="spacingAndGlyphs" textLength="137" x="1593.5" y="252.4131">diagram for the sake of</text><text fill="#000000" font-family="Open Sans" font-size="13" lengthAdjust="spacingAndGlyphs" textLength="66" x="1593.5" y="270.1167">readability.</text><!--link jupiter_api to opentest4j--><path d="M577.6595,477.0592 C600.8612,493.4661 634.0035,516.9025 658.2778,534.0678 " fill="none" id="jupiter_api-opentest4j" style="stroke: #A80036; stroke-width: 1.0; stroke-dasharray: 7.0,7.0;"/><polygon fill="#A80036" points="662.398,536.9814,657.3591,528.5191,658.3156,534.0946,652.7402,535.051,662.398,536.9814" style="stroke: #A80036; stroke-width: 1.0;"/><!--link jupiter_api to commons--><path d="M613.6048,471.3698 C690.4873,488.1349 820.5661,516.5001 909.2665,535.8423 " fill="none" id="jupiter_api-commons" style="stroke: #A80036; stroke-width: 1.0; stroke-dasharray: 7.0,7.0;"/><polygon fill="#A80036" points="914.2523,536.9295,906.3113,531.1036,909.3671,535.8641,904.6067,538.9199,914.2523,536.9295" style="stroke: #A80036; stroke-width: 1.0;"/><!--link jupiter_engine to engine--><path d="M626.2453,375.4624 C704.1373,392.7912 824.9605,419.671 906.8974,437.8997 " fill="none" id="jupiter_engine-engine" style="stroke: #A80036; stroke-width: 1.0; stroke-dasharray: 7.0,7.0;"/><polygon fill="#A80036" points="912.2374,439.0876,904.3209,433.2285,907.3567,438.0018,902.5835,441.0376,912.2374,439.0876" style="stroke: #A80036; stroke-width: 1.0;"/><!--link jupiter_engine to jupiter_api--><path d="M550,378.0592 C550,393.7881 550,415.9776 550,432.9087 " fill="none" id="jupiter_engine-jupiter_api" style="stroke: #A80036; stroke-width: 1.0; stroke-dasharray: 7.0,7.0;"/><polygon fill="#A80036" points="550,437.9814,554,428.9814,550,432.9814,546,428.9814,550,437.9814" style="stroke: #A80036; stroke-width: 1.0;"/><!--link jupiter_params to jupiter_api--><path d="M179.7236,375.8578 C264.9983,394.66 399.7104,424.3627 480.9875,442.2834 " fill="none" id="jupiter_params-jupiter_api" style="stroke: #A80036; stroke-width: 1.0; stroke-dasharray: 7.0,7.0;"/><polygon fill="#A80036" points="486.2628,443.4466,478.3353,437.6024,481.3801,442.3699,476.6126,445.4147,486.2628,443.4466" style="stroke: #A80036; stroke-width: 1.0;"/><!--link jupiter_migration_support to jupiter_api--><path d="M371.0576,378.0592 C408.6254,394.7373 462.5551,418.6792 501.3766,435.9138 " fill="none" id="jupiter_migration_support-jupiter_api" style="stroke: #A80036; stroke-width: 1.0; stroke-dasharray: 7.0,7.0;"/><polygon fill="#A80036" points="506.0339,437.9814,499.4312,430.6736,501.464,435.9525,496.185,437.9853,506.0339,437.9814" style="stroke: #A80036; stroke-width: 1.0;"/><!--link jupiter_migration_support to junit4--><path d="M415.243,378.0001 C508.4704,398.6017 652.0707,430.3348 726.5137,446.7854 " fill="none" id="jupiter_migration_support-junit4" style="stroke: #A80036; stroke-width: 1.0; stroke-dasharray: 7.0,7.0;"/><polygon fill="#A80036" points="731.7525,447.9431,723.8277,442.0952,726.8703,446.8641,722.1014,449.9067,731.7525,447.9431" style="stroke: #A80036; stroke-width: 1.0;"/><!--link console to launcher--><path d="M1443.302,231.7706 C1423.2616,247.9019 1393.3611,270.6219 1365,287 C1331.2052,306.516 1291.0856,324.1772 1259.1058,337.0641 " fill="none" id="console-launcher" style="stroke: #A80036; stroke-width: 1.0; stroke-dasharray: 7.0,7.0;"/><polygon fill="#A80036" points="1254.4482,338.9305,1264.2903,339.2957,1259.0894,337.0706,1261.3145,331.8697,1254.4482,338.9305" style="stroke: #A80036; stroke-width: 1.0;"/><!--link gradle to console--><path d="M1449.6973,85.2576 C1453.2908,111.5799 1459.6506,158.1653 1463.5778,186.9323 " fill="none" id="gradle-console" style="stroke: #A80036; stroke-width: 1.0; stroke-dasharray: 7.0,7.0;"/><polygon fill="#A80036" points="1464.2816,192.0875,1467.0272,182.6291,1463.6052,187.1335,1459.1008,183.7114,1464.2816,192.0875" style="stroke: #A80036; stroke-width: 1.0;"/><!--link launcher to engine--><path d="M1161.1035,378.0592 C1126.3729,394.6695 1076.5776,418.4846 1040.5749,435.7033 " fill="none" id="launcher-engine" style="stroke: #A80036; stroke-width: 1.0; stroke-dasharray: 7.0,7.0;"/><polygon fill="#A80036" points="1035.8116,437.9814,1045.6566,437.7069,1040.3223,435.8241,1042.205,430.4898,1035.8116,437.9814" style="stroke: #A80036; stroke-width: 1.0;"/><!--link engine to opentest4j--><path d="M934.7418,477.0592 C878.0648,495.456 794.1597,522.6908 740.7932,540.013 " fill="none" id="engine-opentest4j" style="stroke: #A80036; stroke-width: 1.0; stroke-dasharray: 7.0,7.0;"/><polygon fill="#A80036" points="735.726,541.6578,745.5213,542.6838,740.4817,540.1141,743.0514,535.0746,735.726,541.6578" style="stroke: #A80036; stroke-width: 1.0;"/><!--link engine to commons--><path d="M996.7781,477.0592 C998.208,492.7881 1000.2252,514.9776 1001.7644,531.9087 " fill="none" id="engine-commons" style="stroke: #A80036; stroke-width: 1.0; stroke-dasharray: 7.0,7.0;"/><polygon fill="#A80036" points="1002.2256,536.9814,1005.3943,527.6562,1001.7729,532.0019,997.4271,528.3805,1002.2256,536.9814" style="stroke: #A80036; stroke-width: 1.0;"/><!--link runner to launcher--><path d="M1020.9209,231.7521 C1041.1838,247.0697 1070.1535,268.7005 1096,287 C1119.6793,303.7651 1146.8103,322.049 1167.696,335.9307 " fill="none" id="runner-launcher" style="stroke: #A80036; stroke-width: 1.0; stroke-dasharray: 7.0,7.0;"/><polygon fill="#A80036" points="1172.0544,338.8239,1166.7683,330.5138,1167.8887,336.0586,1162.3439,337.179,1172.0544,338.8239" style="stroke: #A80036; stroke-width: 1.0;"/><!--link runner to suite_api--><path d="M1003.6627,231.5239 C1018.8482,264.3108 1052.7166,331.4114 1095,378 C1115.2679,400.3316 1142.627,420.5277 1164.6063,434.9761 " fill="none" id="runner-suite_api" style="stroke: #A80036; stroke-width: 1.0; stroke-dasharray: 7.0,7.0;"/><polygon fill="#A80036" points="1168.9267,437.788,1163.5658,429.526,1164.7362,435.0605,1159.2017,436.2308,1168.9267,437.788" style="stroke: #A80036; stroke-width: 1.0;"/><!--link runner to junit4--><path d="M911.9189,229.6228 C838.108,247.1635 738.3833,276.1526 715,309 C686.9121,348.4561 724.8214,402.9662 751.923,433.7798 " fill="none" id="runner-junit4" style="stroke: #A80036; stroke-width: 1.0; stroke-dasharray: 7.0,7.0;"/><polygon fill="#A80036" points="755.5011,437.7834,752.4861,428.4074,752.1692,434.0554,746.5212,433.7384,755.5011,437.7834" style="stroke: #A80036; stroke-width: 1.0;"/><!--link suite_api to commons--><path d="M1162.8816,477.0592 C1129.661,493.6695 1082.0307,517.4846 1047.5934,534.7033 " fill="none" id="suite_api-commons" style="stroke: #A80036; stroke-width: 1.0; stroke-dasharray: 7.0,7.0;"/><polygon fill="#A80036" points="1043.0372,536.9814,1052.8759,536.5341,1047.5093,534.7453,1049.2981,529.3787,1043.0372,536.9814" style="stroke: #A80036; stroke-width: 1.0;"/><!--link surefire to launcher--><path d="M1226.2238,231.7576 C1221.1929,258.0799 1212.2892,304.6653 1206.7911,333.4323 " fill="none" id="surefire-launcher" style="stroke: #A80036; stroke-width: 1.0; stroke-dasharray: 7.0,7.0;"/><polygon fill="#A80036" points="1205.8058,338.5875,1211.4246,330.4987,1206.7446,333.6764,1203.5669,328.9965,1205.8058,338.5875" style="stroke: #A80036; stroke-width: 1.0;"/><!--link vintage_engine to engine--><path d="M846.55,378.0592 C877.4628,394.6017 921.7294,418.2903 953.8742,435.4921 " fill="none" id="vintage_engine-engine" style="stroke: #A80036; stroke-width: 1.0; stroke-dasharray: 7.0,7.0;"/><polygon fill="#A80036" points="958.5259,437.9814,952.478,430.2082,954.1175,435.6222,948.7034,437.2617,958.5259,437.9814" style="stroke: #A80036; stroke-width: 1.0;"/><!--link vintage_engine to junit4--><path d="M803.0851,378.0592 C797.5244,393.7881 789.6796,415.9776 783.6939,432.9087 " fill="none" id="vintage_engine-junit4" style="stroke: #A80036; stroke-width: 1.0; stroke-dasharray: 7.0,7.0;"/><polygon fill="#A80036" points="781.9005,437.9814,788.6718,430.8295,783.5672,433.2674,781.1293,428.1628,781.9005,437.9814" style="stroke: #A80036; stroke-width: 1.0;"/><!--
@startuml
skinparam {
    defaultFontName Open Sans
}

package org.junit.jupiter {
    [junit-jupiter-api] as jupiter_api
    [junit-jupiter-engine] as jupiter_engine
    [junit-jupiter-params] as jupiter_params
    [junit-jupiter-migrationsupport] as jupiter_migration_support
}

package org.junit.vintage {
    [junit-vintage-engine] as vintage_engine
    [junit:junit] as junit4
}

package org.junit.platform {
    [junit-platform-commons] as commons
    [junit-platform-console] as console
    [junit-platform-engine] as engine
    [junit-platform-gradle-plugin] as gradle
    [junit-platform-launcher] as launcher
    [junit-platform-runner] as runner
    [junit-platform-suite-api] as suite_api
    [junit-platform-surefire-provider] as surefire
}

package org.opentest4j {
    [opentest4j]
}

package org.apiguardian {
    [apiguardian-api] as apiguardian
    note bottom of apiguardian #white
        All artifacts except
        opentest4j and junit:junit
        have a dependency on this
        artifact. The edges have
        been omitted from this
        diagram for the sake of
        readability.
    endnote
}

jupiter_api ..> opentest4j
jupiter_api ..> commons

jupiter_engine ..> engine
jupiter_engine ..> jupiter_api

jupiter_params ..> jupiter_api
jupiter_migration_support ..> jupiter_api
jupiter_migration_support ..> junit4

console ..> launcher

gradle ..> console

launcher ..> engine

engine ..> opentest4j
engine ..> commons

runner ..> launcher
runner ..> suite_api
runner ..> junit4

suite_api ..> commons

surefire ..> launcher

vintage_engine ..> engine
vintage_engine ..> junit4
@enduml

PlantUML version 1.2018.01(Sun Jan 28 19:08:22 CET 2018)
(APACHE source distribution)
Java Runtime: Java(TM) SE Runtime Environment
JVM: Java HotSpot(TM) 64-Bit Server VM
Java Version: 10.0.1+10
Operating System: Mac OS X
OS Version: 10.13.4
Default Encoding: UTF-8
Language: en
Country: DE
--></g></svg>