<?xml version="1.0" encoding="UTF-8" standalone="no"?><svg xmlns="http://www.w3.org/2000/svg" xmlns:xlink="http://www.w3.org/1999/xlink" contentScriptType="application/ecmascript" contentStyleType="text/css" height="651px" preserveAspectRatio="none" style="width:1861px;height:651px;" version="1.1" viewBox="0 0 1861 651" width="1861px" zoomAndPan="magnify"><defs><filter height="300%" id="ff6urs0" width="300%" x="-1" y="-1"><feGaussianBlur result="blurOut" stdDeviation="2.0"/><feColorMatrix in="blurOut" result="blurOut2" type="matrix" values="0 0 0 0 0 0 0 0 0 0 0 0 0 0 0 0 0 0 .4 0"/><feOffset dx="4.0" dy="4.0" in="blurOut2" result="blurOut3"/><feBlend in="SourceGraphic" in2="blurOut3" mode="normal"/></filter></defs><g><!--cluster org.junit.jupiter--><polygon fill="#FFFFFF" filter="url(#ff6urs0)" points="22,335,137,335,144,360.0654,658,360.0654,658,527,22,527,22,335" style="stroke: #000000; stroke-width: 2.0;"/><line style="stroke: #000000; stroke-width: 2.0;" x1="22" x2="144" y1="360.0654" y2="360.0654"/><text fill="#000000" font-family="Open Sans" font-size="14" font-weight="bold" lengthAdjust="spacingAndGlyphs" textLength="109" x="26" y="351.9639">org.junit.jupiter</text><!--cluster org.junit.vintage--><polygon fill="#FFFFFF" filter="url(#ff6urs0)" points="732,335,852,335,859,360.0654,920,360.0654,920,527,732,527,732,335" style="stroke: #000000; stroke-width: 2.0;"/><line style="stroke: #000000; stroke-width: 2.0;" x1="732" x2="859" y1="360.0654" y2="360.0654"/><text fill="#000000" font-family="Open Sans" font-size="14" font-weight="bold" lengthAdjust="spacingAndGlyphs" textLength="114" x="736" y="351.9639">org.junit.vintage</text><!--cluster org.junit.platform--><polygon fill="#FFFFFF" filter="url(#ff6urs0)" points="944,24,1074,24,1081,49.0654,1616,49.0654,1616,644,944,644,944,24" style="stroke: #000000; stroke-width: 2.0;"/><line style="stroke: #000000; stroke-width: 2.0;" x1="944" x2="1081" y1="49.0654" y2="49.0654"/><text fill="#000000" font-family="Open Sans" font-size="14" font-weight="bold" lengthAdjust="spacingAndGlyphs" textLength="124" x="948" y="40.9639">org.junit.platform</text><!--cluster org.opentest4j--><polygon fill="#FFFFFF" filter="url(#ff6urs0)" points="650,551,757,551,764,576.0654,774,576.0654,774,644,650,644,650,551" style="stroke: #000000; stroke-width: 2.0;"/><line style="stroke: #000000; stroke-width: 2.0;" x1="650" x2="764" y1="576.0654" y2="576.0654"/><text fill="#000000" font-family="Open Sans" font-size="14" font-weight="bold" lengthAdjust="spacingAndGlyphs" textLength="101" x="654" y="567.9639">org.opentest4j</text><!--cluster org.apiguardian--><polygon fill="#FFFFFF" filter="url(#ff6urs0)" points="1640,24,1755,24,1762,49.0654,1854,49.0654,1854,311,1640,311,1640,24" style="stroke: #000000; stroke-width: 2.0;"/><line style="stroke: #000000; stroke-width: 2.0;" x1="1640" x2="1762" y1="49.0654" y2="49.0654"/><text fill="#000000" font-family="Open Sans" font-size="14" font-weight="bold" lengthAdjust="spacingAndGlyphs" textLength="109" x="1644" y="40.9639">org.apiguardian</text><!--entity jupiter_api--><rect fill="#FEFECE" filter="url(#ff6urs0)" height="39.0654" style="stroke: #A80036; stroke-width: 1.5;" width="127" x="502.5" y="472"/><rect fill="#FEFECE" height="5" style="stroke: #A80036; stroke-width: 1.5;" width="10" x="497.5" y="477"/><rect fill="#FEFECE" height="5" style="stroke: #A80036; stroke-width: 1.5;" width="10" x="497.5" y="501.0654"/><text fill="#000000" font-family="Open Sans" font-size="14" lengthAdjust="spacingAndGlyphs" textLength="107" x="512.5" y="496.9639">junit-jupiter-api</text><!--entity jupiter_engine--><rect fill="#FEFECE" filter="url(#ff6urs0)" height="39.0654" style="stroke: #A80036; stroke-width: 1.5;" width="152" x="490" y="373"/><rect fill="#FEFECE" height="5" style="stroke: #A80036; stroke-width: 1.5;" width="10" x="485" y="378"/><rect fill="#FEFECE" height="5" style="stroke: #A80036; stroke-width: 1.5;" width="10" x="485" y="402.0654"/><text fill="#000000" font-family="Open Sans" font-size="14" lengthAdjust="spacingAndGlyphs" textLength="132" x="500" y="397.9639">junit-jupiter-engine</text><!--entity jupiter_params--><rect fill="#FEFECE" filter="url(#ff6urs0)" height="39.0654" style="stroke: #A80036; stroke-width: 1.5;" width="157" x="38.5" y="373"/><rect fill="#FEFECE" height="5" style="stroke: #A80036; stroke-width: 1.5;" width="10" x="33.5" y="378"/><rect fill="#FEFECE" height="5" style="stroke: #A80036; stroke-width: 1.5;" width="10" x="33.5" y="402.0654"/><text fill="#000000" font-family="Open Sans" font-size="14" lengthAdjust="spacingAndGlyphs" textLength="137" x="48.5" y="397.9639">junit-jupiter-params</text><!--entity jupiter_migration_support--><rect fill="#FEFECE" filter="url(#ff6urs0)" height="39.0654" style="stroke: #A80036; stroke-width: 1.5;" width="224" x="231" y="373"/><rect fill="#FEFECE" height="5" style="stroke: #A80036; stroke-width: 1.5;" width="10" x="226" y="378"/><rect fill="#FEFECE" height="5" style="stroke: #A80036; stroke-width: 1.5;" width="10" x="226" y="402.0654"/><text fill="#000000" font-family="Open Sans" font-size="14" lengthAdjust="spacingAndGlyphs" textLength="204" x="241" y="397.9639">junit-jupiter-migrationsupport</text><!--entity vintage_engine--><rect fill="#FEFECE" filter="url(#ff6urs0)" height="39.0654" style="stroke: #A80036; stroke-width: 1.5;" width="156" x="748" y="373"/><rect fill="#FEFECE" height="5" style="stroke: #A80036; stroke-width: 1.5;" width="10" x="743" y="378"/><rect fill="#FEFECE" height="5" style="stroke: #A80036; stroke-width: 1.5;" width="10" x="743" y="402.0654"/><text fill="#000000" font-family="Open Sans" font-size="14" lengthAdjust="spacingAndGlyphs" textLength="136" x="758" y="397.9639">junit-vintage-engine</text><!--entity junit4--><rect fill="#FEFECE" filter="url(#ff6urs0)" height="39.0654" style="stroke: #A80036; stroke-width: 1.5;" width="86" x="748" y="472"/><rect fill="#FEFECE" height="5" style="stroke: #A80036; stroke-width: 1.5;" width="10" x="743" y="477"/><rect fill="#FEFECE" height="5" style="stroke: #A80036; stroke-width: 1.5;" width="10" x="743" y="501.0654"/><text fill="#000000" font-family="Open Sans" font-size="14" lengthAdjust="spacingAndGlyphs" textLength="66" x="758" y="496.9639">junit:junit</text><!--entity commons--><rect fill="#FEFECE" filter="url(#ff6urs0)" height="39.0654" style="stroke: #A80036; stroke-width: 1.5;" width="184" x="960" y="589"/><rect fill="#FEFECE" height="5" style="stroke: #A80036; stroke-width: 1.5;" width="10" x="955" y="594"/><rect fill="#FEFECE" height="5" style="stroke: #A80036; stroke-width: 1.5;" width="10" x="955" y="618.0654"/><text fill="#000000" font-family="Open Sans" font-size="14" lengthAdjust="spacingAndGlyphs" textLength="164" x="970" y="613.9639">junit-platform-commons</text><!--entity console--><rect fill="#FEFECE" filter="url(#ff6urs0)" height="39.0654" style="stroke: #A80036; stroke-width: 1.5;" width="170" x="1430" y="208.5"/><rect fill="#FEFECE" height="5" style="stroke: #A80036; stroke-width: 1.5;" width="10" x="1425" y="213.5"/><rect fill="#FEFECE" height="5" style="stroke: #A80036; stroke-width: 1.5;" width="10" x="1425" y="237.5654"/><text fill="#000000" font-family="Open Sans" font-size="14" lengthAdjust="spacingAndGlyphs" textLength="150" x="1440" y="233.4639">junit-platform-console</text><!--entity engine--><rect fill="#FEFECE" filter="url(#ff6urs0)" height="39.0654" style="stroke: #A80036; stroke-width: 1.5;" width="165" x="960.5" y="472"/><rect fill="#FEFECE" height="5" style="stroke: #A80036; stroke-width: 1.5;" width="10" x="955.5" y="477"/><rect fill="#FEFECE" height="5" style="stroke: #A80036; stroke-width: 1.5;" width="10" x="955.5" y="501.0654"/><text fill="#000000" font-family="Open Sans" font-size="14" lengthAdjust="spacingAndGlyphs" textLength="145" x="970.5" y="496.9639">junit-platform-engine</text><!--entity gradle--><rect fill="#FEFECE" filter="url(#ff6urs0)" height="39.0654" style="stroke: #A80036; stroke-width: 1.5;" width="210" x="1390" y="62"/><rect fill="#FEFECE" height="5" style="stroke: #A80036; stroke-width: 1.5;" width="10" x="1385" y="67"/><rect fill="#FEFECE" height="5" style="stroke: #A80036; stroke-width: 1.5;" width="10" x="1385" y="91.0654"/><text fill="#000000" font-family="Open Sans" font-size="14" lengthAdjust="spacingAndGlyphs" textLength="190" x="1400" y="86.9639">junit-platform-gradle-plugin</text><!--entity launcher--><rect fill="#FEFECE" filter="url(#ff6urs0)" height="39.0654" style="stroke: #A80036; stroke-width: 1.5;" width="179" x="1160.5" y="373"/><rect fill="#FEFECE" height="5" style="stroke: #A80036; stroke-width: 1.5;" width="10" x="1155.5" y="378"/><rect fill="#FEFECE" height="5" style="stroke: #A80036; stroke-width: 1.5;" width="10" x="1155.5" y="402.0654"/><text fill="#000000" font-family="Open Sans" font-size="14" lengthAdjust="spacingAndGlyphs" textLength="159" x="1170.5" y="397.9639">junit-platform-launcher</text><!--entity runner--><rect fill="#FEFECE" filter="url(#ff6urs0)" height="39.0654" style="stroke: #A80036; stroke-width: 1.5;" width="166" x="960" y="208.5"/><rect fill="#FEFECE" height="5" style="stroke: #A80036; stroke-width: 1.5;" width="10" x="955" y="213.5"/><rect fill="#FEFECE" height="5" style="stroke: #A80036; stroke-width: 1.5;" width="10" x="955" y="237.5654"/><text fill="#000000" font-family="Open Sans" font-size="14" lengthAdjust="spacingAndGlyphs" textLength="146" x="970" y="233.4639">junit-platform-runner</text><!--entity suite_api--><rect fill="#FEFECE" filter="url(#ff6urs0)" height="39.0654" style="stroke: #A80036; stroke-width: 1.5;" width="178" x="1161" y="472"/><rect fill="#FEFECE" height="5" style="stroke: #A80036; stroke-width: 1.5;" width="10" x="1156" y="477"/><rect fill="#FEFECE" height="5" style="stroke: #A80036; stroke-width: 1.5;" width="10" x="1156" y="501.0654"/><text fill="#000000" font-family="Open Sans" font-size="14" lengthAdjust="spacingAndGlyphs" textLength="158" x="1171" y="496.9639">junit-platform-suite-api</text><!--entity surefire--><rect fill="#FEFECE" filter="url(#ff6urs0)" height="39.0654" style="stroke: #A80036; stroke-width: 1.5;" width="234" x="1161" y="208.5"/><rect fill="#FEFECE" height="5" style="stroke: #A80036; stroke-width: 1.5;" width="10" x="1156" y="213.5"/><rect fill="#FEFECE" height="5" style="stroke: #A80036; stroke-width: 1.5;" width="10" x="1156" y="237.5654"/><text fill="#000000" font-family="Open Sans" font-size="14" lengthAdjust="spacingAndGlyphs" textLength="214" x="1171" y="233.4639">junit-platform-surefire-provider</text><!--entity opentest4j--><rect fill="#FEFECE" filter="url(#ff6urs0)" height="39.0654" style="stroke: #A80036; stroke-width: 1.5;" width="91" x="666.5" y="589"/><rect fill="#FEFECE" height="5" style="stroke: #A80036; stroke-width: 1.5;" width="10" x="661.5" y="594"/><rect fill="#FEFECE" height="5" style="stroke: #A80036; stroke-width: 1.5;" width="10" x="661.5" y="618.0654"/><text fill="#000000" font-family="Open Sans" font-size="14" lengthAdjust="spacingAndGlyphs" textLength="71" x="676.5" y="613.9639">opentest4j</text><!--entity apiguardian--><rect fill="#FEFECE" filter="url(#ff6urs0)" height="39.0654" style="stroke: #A80036; stroke-width: 1.5;" width="128" x="1683" y="62"/><rect fill="#FEFECE" height="5" style="stroke: #A80036; stroke-width: 1.5;" width="10" x="1678" y="67"/><rect fill="#FEFECE" height="5" style="stroke: #A80036; stroke-width: 1.5;" width="10" x="1678" y="91.0654"/><text fill="#000000" font-family="Open Sans" font-size="14" lengthAdjust="spacingAndGlyphs" textLength="108" x="1693" y="86.9639">apiguardian-api</text><polygon fill="#FFFFFF" filter="url(#ff6urs0)" points="1656.5,161,1656.5,294.9253,1837.5,294.9253,1837.5,171,1827.5,161,1656.5,161" style="stroke: #A80036; stroke-width: 1.0;"/><polygon fill="#FFFFFF" points="1656.5,161,1656.5,294.9253,1837.5,294.9253,1837.5,171,1827.5,161,1751,161,1747,101.2576,1743,161,1656.5,161" style="stroke: #A80036; stroke-width: 1.0;"/><line style="stroke: #A80036; stroke-width: 1.0;" x1="1827.5" x2="1827.5" y1="161" y2="171"/><line style="stroke: #A80036; stroke-width: 1.0;" x1="1837.5" x2="1827.5" y1="171" y2="171"/><text fill="#000000" font-family="Open Sans" font-size="13" lengthAdjust="spacingAndGlyphs" textLength="108" x="1662.5" y="179.895">All artifacts except</text><text fill="#000000" font-family="Open Sans" font-size="13" lengthAdjust="spacingAndGlyphs" textLength="150" x="1662.5" y="197.5986">opentest4j and junit:junit</text><text fill="#000000" font-family="Open Sans" font-size="13" lengthAdjust="spacingAndGlyphs" textLength="160" x="1662.5" y="215.3022">have a dependency on this</text><text fill="#000000" font-family="Open Sans" font-size="13" lengthAdjust="spacingAndGlyphs" textLength="140" x="1662.5" y="233.0059">artifact. The edges have</text><text fill="#000000" font-family="Open Sans" font-size="13" lengthAdjust="spacingAndGlyphs" textLength="138" x="1662.5" y="250.7095">been omitted from this</text><text fill="#000000" font-family="Open Sans" font-size="13" lengthAdjust="spacingAndGlyphs" textLength="137" x="1662.5" y="268.4131">diagram for the sake of</text><text fill="#000000" font-family="Open Sans" font-size="13" lengthAdjust="spacingAndGlyphs" textLength="66" x="1662.5" y="286.1167">readability.</text><path d="M590.4371,511.0832 C616.0193,531.584 656.1636,563.7544 683.252,585.4622 " fill="none" style="stroke: #A80036; stroke-width: 1.0; stroke-dasharray: 7.0,7.0;"/><polygon fill="#A80036" points="687.4832,588.8529,682.9617,580.1033,683.5815,585.7261,677.9587,586.346,687.4832,588.8529" style="stroke: #A80036; stroke-width: 1.0;"/><path d="M629.6019,509.2512 C660.4046,517.57 698.0001,527.3165 732,535 C750.5349,539.1886 755.4144,539.0424 774,543 C839.4374,556.9342 913.1224,574.3756 968.1829,587.7562 " fill="none" style="stroke: #A80036; stroke-width: 1.0; stroke-dasharray: 7.0,7.0;"/><polygon fill="#A80036" points="973.1166,588.9565,965.3173,582.9423,968.2583,587.7745,963.4261,590.7155,973.1166,588.9565" style="stroke: #A80036; stroke-width: 1.0;"/><path d="M642.1095,408.2963 C727.4271,426.0037 865.5439,454.6695 955.3169,473.3016 " fill="none" style="stroke: #A80036; stroke-width: 1.0; stroke-dasharray: 7.0,7.0;"/><polygon fill="#A80036" points="960.356,474.3475,952.3567,468.6019,955.4603,473.3314,950.7309,476.435,960.356,474.3475" style="stroke: #A80036; stroke-width: 1.0;"/><path d="M566,412.0592 C566,427.7881 566,449.9776 566,466.9087 " fill="none" style="stroke: #A80036; stroke-width: 1.0; stroke-dasharray: 7.0,7.0;"/><polygon fill="#A80036" points="566,471.9814,570,462.9814,566,466.9814,562,462.9814,566,471.9814" style="stroke: #A80036; stroke-width: 1.0;"/><path d="M195.7236,409.8578 C280.9983,428.66 415.7104,458.3627 496.9875,476.2834 " fill="none" style="stroke: #A80036; stroke-width: 1.0; stroke-dasharray: 7.0,7.0;"/><polygon fill="#A80036" points="502.2628,477.4466,494.3353,471.6024,497.3801,476.3699,492.6126,479.4147,502.2628,477.4466" style="stroke: #A80036; stroke-width: 1.0;"/><path d="M387.0576,412.0592 C424.6254,428.7373 478.5551,452.6792 517.3766,469.9138 " fill="none" style="stroke: #A80036; stroke-width: 1.0; stroke-dasharray: 7.0,7.0;"/><polygon fill="#A80036" points="522.0339,471.9814,515.4312,464.6736,517.464,469.9525,512.185,471.9853,522.0339,471.9814" style="stroke: #A80036; stroke-width: 1.0;"/><path d="M431.243,412.0001 C524.4704,432.6017 668.0707,464.3348 742.5137,480.7854 " fill="none" style="stroke: #A80036; stroke-width: 1.0; stroke-dasharray: 7.0,7.0;"/><polygon fill="#A80036" points="747.7525,481.9431,739.8277,476.0952,742.8703,480.8641,738.1014,483.9067,747.7525,481.9431" style="stroke: #A80036; stroke-width: 1.0;"/><path d="M1496.5232,247.696 C1477.1244,267.561 1445.0419,298.188 1413,319 C1380.4953,340.1127 1340.9229,358.115 1308.9094,371.0188 " fill="none" style="stroke: #A80036; stroke-width: 1.0; stroke-dasharray: 7.0,7.0;"/><polygon fill="#A80036" points="1304.2427,372.8854,1314.0846,373.2567,1308.8851,371.0284,1311.1134,365.8289,1304.2427,372.8854" style="stroke: #A80036; stroke-width: 1.0;"/><path d="M1497.6973,101.2576 C1501.2908,127.5799 1507.6506,174.1653 1511.5778,202.9323 " fill="none" style="stroke: #A80036; stroke-width: 1.0; stroke-dasharray: 7.0,7.0;"/><polygon fill="#A80036" points="1512.2816,208.0875,1515.0272,198.6291,1511.6052,203.1335,1507.1008,199.7114,1512.2816,208.0875" style="stroke: #A80036; stroke-width: 1.0;"/><path d="M1209.1035,412.0592 C1174.3729,428.6695 1124.5776,452.4846 1088.5749,469.7033 " fill="none" style="stroke: #A80036; stroke-width: 1.0; stroke-dasharray: 7.0,7.0;"/><polygon fill="#A80036" points="1083.8116,471.9814,1093.6566,471.7069,1088.3223,469.8241,1090.205,464.4898,1083.8116,471.9814" style="stroke: #A80036; stroke-width: 1.0;"/><path d="M987.5885,511.1002 C966.4382,518.5806 942.1026,527.1865 920,535 C866.2812,553.9902 804.7549,575.7302 762.6361,590.6111 " fill="none" style="stroke: #A80036; stroke-width: 1.0; stroke-dasharray: 7.0,7.0;"/><polygon fill="#A80036" points="757.8544,592.3005,767.6729,593.0738,762.5688,590.6348,765.0077,585.5307,757.8544,592.3005" style="stroke: #A80036; stroke-width: 1.0;"/><path d="M1044.5064,511.0832 C1046.0444,531.0778 1048.4364,562.1729 1050.1027,583.8354 " fill="none" style="stroke: #A80036; stroke-width: 1.0; stroke-dasharray: 7.0,7.0;"/><polygon fill="#A80036" points="1050.4887,588.8529,1053.7865,579.5726,1050.1051,583.8676,1045.8101,580.1863,1050.4887,588.8529" style="stroke: #A80036; stroke-width: 1.0;"/><path d="M1063.2189,247.6182 C1083.1448,266.6103 1114.766,295.8478 1144,319 C1166.9454,337.1719 1194.0919,355.9475 1215.1685,369.9734 " fill="none" style="stroke: #A80036; stroke-width: 1.0; stroke-dasharray: 7.0,7.0;"/><polygon fill="#A80036" points="1219.5702,372.8923,1214.2804,364.5846,1215.4032,370.1289,1209.8589,371.2517,1219.5702,372.8923" style="stroke: #A80036; stroke-width: 1.0;"/><path d="M1050.3734,247.6996 C1064.3942,283.3444 1097.6014,359.693 1143,412 C1162.6254,434.6118 1189.7423,454.6732 1211.7665,468.9869 " fill="none" style="stroke: #A80036; stroke-width: 1.0; stroke-dasharray: 7.0,7.0;"/><polygon fill="#A80036" points="1216.0997,471.7721,1210.6914,463.541,1211.8936,469.0687,1206.3659,470.2708,1216.0997,471.7721" style="stroke: #A80036; stroke-width: 1.0;"/><path d="M959.8375,242.983 C876.9965,259.8005 758.3104,289.6819 731,327 C708.6895,357.4861 718.9997,376.1789 731,412 C738.0793,433.1318 753.2381,453.1362 766.5469,467.7922 " fill="none" style="stroke: #A80036; stroke-width: 1.0; stroke-dasharray: 7.0,7.0;"/><polygon fill="#A80036" points="770.2433,471.7806,767.0593,462.4606,766.8445,468.1134,761.1917,467.8987,770.2433,471.7806" style="stroke: #A80036; stroke-width: 1.0;"/><path d="M1216.8593,511.0832 C1181.7373,531.837 1126.3761,564.5505 1089.6346,586.2614 " fill="none" style="stroke: #A80036; stroke-width: 1.0; stroke-dasharray: 7.0,7.0;"/><polygon fill="#A80036" points="1085.2489,588.8529,1095.0322,587.718,1089.5535,586.3092,1090.9623,580.8306,1085.2489,588.8529" style="stroke: #A80036; stroke-width: 1.0;"/><path d="M1274.6781,247.5163 C1269.5766,277.4873 1259.818,334.8192 1254.2222,367.6948 " fill="none" style="stroke: #A80036; stroke-width: 1.0; stroke-dasharray: 7.0,7.0;"/><polygon fill="#A80036" points="1253.3611,372.7533,1258.8146,364.5521,1254.2001,367.8242,1250.928,363.2097,1253.3611,372.7533" style="stroke: #A80036; stroke-width: 1.0;"/><path d="M868.8722,412.0592 C905.2806,428.6695 957.4815,452.4846 995.2234,469.7033 " fill="none" style="stroke: #A80036; stroke-width: 1.0; stroke-dasharray: 7.0,7.0;"/><polygon fill="#A80036" points="1000.2168,471.9814,993.689,464.6065,995.6679,469.906,990.3684,471.8848,1000.2168,471.9814" style="stroke: #A80036; stroke-width: 1.0;"/><path d="M819.0851,412.0592 C813.5244,427.7881 805.6796,449.9776 799.6939,466.9087 " fill="none" style="stroke: #A80036; stroke-width: 1.0; stroke-dasharray: 7.0,7.0;"/><polygon fill="#A80036" points="797.9005,471.9814,804.6718,464.8295,799.5672,467.2674,797.1293,462.1628,797.9005,471.9814" style="stroke: #A80036; stroke-width: 1.0;"/></g></svg>