<?xml version="1.0" encoding="UTF-8" standalone="no"?><svg xmlns="http://www.w3.org/2000/svg" xmlns:xlink="http://www.w3.org/1999/xlink" contentScriptType="application/ecmascript" contentStyleType="text/css" height="538px" preserveAspectRatio="none" style="width:1623px;height:538px;" version="1.1" viewBox="0 0 1623 538" width="1623px" zoomAndPan="magnify"><defs><filter height="300%" id="fgscxip" width="300%" x="-1" y="-1"><feGaussianBlur result="blurOut" stdDeviation="2.0"/><feColorMatrix in="blurOut" result="blurOut2" type="matrix" values="0 0 0 0 0 0 0 0 0 0 0 0 0 0 0 0 0 0 .4 0"/><feOffset dx="4.0" dy="4.0" in="blurOut2" result="blurOut3"/><feBlend in="SourceGraphic" in2="blurOut3" mode="normal"/></filter></defs><g><!--cluster org.junit.jupiter--><polygon fill="#FFFFFF" filter="url(#fgscxip)" points="22,222,137,222,144,247.0654,658,247.0654,658,414,22,414,22,222" style="stroke: #000000; stroke-width: 2.0;"/><line style="stroke: #000000; stroke-width: 2.0;" x1="22" x2="144" y1="247.0654" y2="247.0654"/><text fill="#000000" font-family="Open Sans" font-size="14" font-weight="bold" lengthAdjust="spacingAndGlyphs" textLength="109" x="26" y="238.9639">org.junit.jupiter</text><!--cluster org.junit.vintage--><polygon fill="#FFFFFF" filter="url(#fgscxip)" points="732,222,852,222,859,247.0654,920,247.0654,920,414,732,414,732,222" style="stroke: #000000; stroke-width: 2.0;"/><line style="stroke: #000000; stroke-width: 2.0;" x1="732" x2="859" y1="247.0654" y2="247.0654"/><text fill="#000000" font-family="Open Sans" font-size="14" font-weight="bold" lengthAdjust="spacingAndGlyphs" textLength="114" x="736" y="238.9639">org.junit.vintage</text><!--cluster org.junit.platform--><polygon fill="#FFFFFF" filter="url(#fgscxip)" points="944,24,1074,24,1081,49.0654,1616,49.0654,1616,531,944,531,944,24" style="stroke: #000000; stroke-width: 2.0;"/><line style="stroke: #000000; stroke-width: 2.0;" x1="944" x2="1081" y1="49.0654" y2="49.0654"/><text fill="#000000" font-family="Open Sans" font-size="14" font-weight="bold" lengthAdjust="spacingAndGlyphs" textLength="124" x="948" y="40.9639">org.junit.platform</text><!--cluster org.opentest4j--><polygon fill="#FFFFFF" filter="url(#fgscxip)" points="650,438,757,438,764,463.0654,774,463.0654,774,531,650,531,650,438" style="stroke: #000000; stroke-width: 2.0;"/><line style="stroke: #000000; stroke-width: 2.0;" x1="650" x2="764" y1="463.0654" y2="463.0654"/><text fill="#000000" font-family="Open Sans" font-size="14" font-weight="bold" lengthAdjust="spacingAndGlyphs" textLength="101" x="654" y="454.9639">org.opentest4j</text><!--entity jupiter_api--><rect fill="#FEFECE" filter="url(#fgscxip)" height="39.0654" style="stroke: #A80036; stroke-width: 1.5;" width="127" x="502.5" y="359"/><rect fill="#FEFECE" height="5" style="stroke: #A80036; stroke-width: 1.5;" width="10" x="497.5" y="364"/><rect fill="#FEFECE" height="5" style="stroke: #A80036; stroke-width: 1.5;" width="10" x="497.5" y="388.0654"/><text fill="#000000" font-family="Open Sans" font-size="14" lengthAdjust="spacingAndGlyphs" textLength="107" x="512.5" y="383.9639">junit-jupiter-api</text><!--entity jupiter_engine--><rect fill="#FEFECE" filter="url(#fgscxip)" height="39.0654" style="stroke: #A80036; stroke-width: 1.5;" width="152" x="490" y="260"/><rect fill="#FEFECE" height="5" style="stroke: #A80036; stroke-width: 1.5;" width="10" x="485" y="265"/><rect fill="#FEFECE" height="5" style="stroke: #A80036; stroke-width: 1.5;" width="10" x="485" y="289.0654"/><text fill="#000000" font-family="Open Sans" font-size="14" lengthAdjust="spacingAndGlyphs" textLength="132" x="500" y="284.9639">junit-jupiter-engine</text><!--entity jupiter_params--><rect fill="#FEFECE" filter="url(#fgscxip)" height="39.0654" style="stroke: #A80036; stroke-width: 1.5;" width="157" x="38.5" y="260"/><rect fill="#FEFECE" height="5" style="stroke: #A80036; stroke-width: 1.5;" width="10" x="33.5" y="265"/><rect fill="#FEFECE" height="5" style="stroke: #A80036; stroke-width: 1.5;" width="10" x="33.5" y="289.0654"/><text fill="#000000" font-family="Open Sans" font-size="14" lengthAdjust="spacingAndGlyphs" textLength="137" x="48.5" y="284.9639">junit-jupiter-params</text><!--entity jupiter_migration_support--><rect fill="#FEFECE" filter="url(#fgscxip)" height="39.0654" style="stroke: #A80036; stroke-width: 1.5;" width="224" x="231" y="260"/><rect fill="#FEFECE" height="5" style="stroke: #A80036; stroke-width: 1.5;" width="10" x="226" y="265"/><rect fill="#FEFECE" height="5" style="stroke: #A80036; stroke-width: 1.5;" width="10" x="226" y="289.0654"/><text fill="#000000" font-family="Open Sans" font-size="14" lengthAdjust="spacingAndGlyphs" textLength="204" x="241" y="284.9639">junit-jupiter-migrationsupport</text><!--entity vintage_engine--><rect fill="#FEFECE" filter="url(#fgscxip)" height="39.0654" style="stroke: #A80036; stroke-width: 1.5;" width="156" x="748" y="260"/><rect fill="#FEFECE" height="5" style="stroke: #A80036; stroke-width: 1.5;" width="10" x="743" y="265"/><rect fill="#FEFECE" height="5" style="stroke: #A80036; stroke-width: 1.5;" width="10" x="743" y="289.0654"/><text fill="#000000" font-family="Open Sans" font-size="14" lengthAdjust="spacingAndGlyphs" textLength="136" x="758" y="284.9639">junit-vintage-engine</text><!--entity junit4--><rect fill="#FEFECE" filter="url(#fgscxip)" height="39.0654" style="stroke: #A80036; stroke-width: 1.5;" width="86" x="748" y="359"/><rect fill="#FEFECE" height="5" style="stroke: #A80036; stroke-width: 1.5;" width="10" x="743" y="364"/><rect fill="#FEFECE" height="5" style="stroke: #A80036; stroke-width: 1.5;" width="10" x="743" y="388.0654"/><text fill="#000000" font-family="Open Sans" font-size="14" lengthAdjust="spacingAndGlyphs" textLength="66" x="758" y="383.9639">junit:junit</text><!--entity commons--><rect fill="#FEFECE" filter="url(#fgscxip)" height="39.0654" style="stroke: #A80036; stroke-width: 1.5;" width="184" x="960" y="476"/><rect fill="#FEFECE" height="5" style="stroke: #A80036; stroke-width: 1.5;" width="10" x="955" y="481"/><rect fill="#FEFECE" height="5" style="stroke: #A80036; stroke-width: 1.5;" width="10" x="955" y="505.0654"/><text fill="#000000" font-family="Open Sans" font-size="14" lengthAdjust="spacingAndGlyphs" textLength="164" x="970" y="500.9639">junit-platform-commons</text><!--entity console--><rect fill="#FEFECE" filter="url(#fgscxip)" height="39.0654" style="stroke: #A80036; stroke-width: 1.5;" width="170" x="1430" y="161"/><rect fill="#FEFECE" height="5" style="stroke: #A80036; stroke-width: 1.5;" width="10" x="1425" y="166"/><rect fill="#FEFECE" height="5" style="stroke: #A80036; stroke-width: 1.5;" width="10" x="1425" y="190.0654"/><text fill="#000000" font-family="Open Sans" font-size="14" lengthAdjust="spacingAndGlyphs" textLength="150" x="1440" y="185.9639">junit-platform-console</text><!--entity engine--><rect fill="#FEFECE" filter="url(#fgscxip)" height="39.0654" style="stroke: #A80036; stroke-width: 1.5;" width="165" x="960.5" y="359"/><rect fill="#FEFECE" height="5" style="stroke: #A80036; stroke-width: 1.5;" width="10" x="955.5" y="364"/><rect fill="#FEFECE" height="5" style="stroke: #A80036; stroke-width: 1.5;" width="10" x="955.5" y="388.0654"/><text fill="#000000" font-family="Open Sans" font-size="14" lengthAdjust="spacingAndGlyphs" textLength="145" x="970.5" y="383.9639">junit-platform-engine</text><!--entity gradle--><rect fill="#FEFECE" filter="url(#fgscxip)" height="39.0654" style="stroke: #A80036; stroke-width: 1.5;" width="210" x="1390" y="62"/><rect fill="#FEFECE" height="5" style="stroke: #A80036; stroke-width: 1.5;" width="10" x="1385" y="67"/><rect fill="#FEFECE" height="5" style="stroke: #A80036; stroke-width: 1.5;" width="10" x="1385" y="91.0654"/><text fill="#000000" font-family="Open Sans" font-size="14" lengthAdjust="spacingAndGlyphs" textLength="190" x="1400" y="86.9639">junit-platform-gradle-plugin</text><!--entity launcher--><rect fill="#FEFECE" filter="url(#fgscxip)" height="39.0654" style="stroke: #A80036; stroke-width: 1.5;" width="179" x="1160.5" y="260"/><rect fill="#FEFECE" height="5" style="stroke: #A80036; stroke-width: 1.5;" width="10" x="1155.5" y="265"/><rect fill="#FEFECE" height="5" style="stroke: #A80036; stroke-width: 1.5;" width="10" x="1155.5" y="289.0654"/><text fill="#000000" font-family="Open Sans" font-size="14" lengthAdjust="spacingAndGlyphs" textLength="159" x="1170.5" y="284.9639">junit-platform-launcher</text><!--entity runner--><rect fill="#FEFECE" filter="url(#fgscxip)" height="39.0654" style="stroke: #A80036; stroke-width: 1.5;" width="166" x="960" y="161"/><rect fill="#FEFECE" height="5" style="stroke: #A80036; stroke-width: 1.5;" width="10" x="955" y="166"/><rect fill="#FEFECE" height="5" style="stroke: #A80036; stroke-width: 1.5;" width="10" x="955" y="190.0654"/><text fill="#000000" font-family="Open Sans" font-size="14" lengthAdjust="spacingAndGlyphs" textLength="146" x="970" y="185.9639">junit-platform-runner</text><!--entity suite_api--><rect fill="#FEFECE" filter="url(#fgscxip)" height="39.0654" style="stroke: #A80036; stroke-width: 1.5;" width="178" x="1161" y="359"/><rect fill="#FEFECE" height="5" style="stroke: #A80036; stroke-width: 1.5;" width="10" x="1156" y="364"/><rect fill="#FEFECE" height="5" style="stroke: #A80036; stroke-width: 1.5;" width="10" x="1156" y="388.0654"/><text fill="#000000" font-family="Open Sans" font-size="14" lengthAdjust="spacingAndGlyphs" textLength="158" x="1171" y="383.9639">junit-platform-suite-api</text><!--entity surefire--><rect fill="#FEFECE" filter="url(#fgscxip)" height="39.0654" style="stroke: #A80036; stroke-width: 1.5;" width="234" x="1161" y="161"/><rect fill="#FEFECE" height="5" style="stroke: #A80036; stroke-width: 1.5;" width="10" x="1156" y="166"/><rect fill="#FEFECE" height="5" style="stroke: #A80036; stroke-width: 1.5;" width="10" x="1156" y="190.0654"/><text fill="#000000" font-family="Open Sans" font-size="14" lengthAdjust="spacingAndGlyphs" textLength="214" x="1171" y="185.9639">junit-platform-surefire-provider</text><!--entity opentest4j--><rect fill="#FEFECE" filter="url(#fgscxip)" height="39.0654" style="stroke: #A80036; stroke-width: 1.5;" width="91" x="666.5" y="476"/><rect fill="#FEFECE" height="5" style="stroke: #A80036; stroke-width: 1.5;" width="10" x="661.5" y="481"/><rect fill="#FEFECE" height="5" style="stroke: #A80036; stroke-width: 1.5;" width="10" x="661.5" y="505.0654"/><text fill="#000000" font-family="Open Sans" font-size="14" lengthAdjust="spacingAndGlyphs" textLength="71" x="676.5" y="500.9639">opentest4j</text><path d="M590.4371,398.0832 C616.0193,418.584 656.1636,450.7544 683.252,472.4622 " fill="none" style="stroke: #A80036; stroke-width: 1.0; stroke-dasharray: 7.0,7.0;"/><polygon fill="#A80036" points="687.4832,475.8529,682.9617,467.1033,683.5815,472.7261,677.9587,473.346,687.4832,475.8529" style="stroke: #A80036; stroke-width: 1.0;"/><path d="M629.6019,396.2512 C660.4046,404.57 698.0001,414.3165 732,422 C750.5349,426.1886 755.4144,426.0424 774,430 C839.4374,443.9342 913.1224,461.3756 968.1829,474.7562 " fill="none" style="stroke: #A80036; stroke-width: 1.0; stroke-dasharray: 7.0,7.0;"/><polygon fill="#A80036" points="973.1166,475.9565,965.3173,469.9423,968.2583,474.7745,963.4261,477.7155,973.1166,475.9565" style="stroke: #A80036; stroke-width: 1.0;"/><path d="M642.1095,295.2963 C727.4271,313.0037 865.5439,341.6695 955.3169,360.3016 " fill="none" style="stroke: #A80036; stroke-width: 1.0; stroke-dasharray: 7.0,7.0;"/><polygon fill="#A80036" points="960.356,361.3475,952.3567,355.6019,955.4603,360.3314,950.7309,363.435,960.356,361.3475" style="stroke: #A80036; stroke-width: 1.0;"/><path d="M566,299.0592 C566,314.7881 566,336.9776 566,353.9087 " fill="none" style="stroke: #A80036; stroke-width: 1.0; stroke-dasharray: 7.0,7.0;"/><polygon fill="#A80036" points="566,358.9814,570,349.9814,566,353.9814,562,349.9814,566,358.9814" style="stroke: #A80036; stroke-width: 1.0;"/><path d="M195.7236,296.8578 C280.9983,315.66 415.7104,345.3627 496.9875,363.2834 " fill="none" style="stroke: #A80036; stroke-width: 1.0; stroke-dasharray: 7.0,7.0;"/><polygon fill="#A80036" points="502.2628,364.4466,494.3353,358.6024,497.3801,363.3699,492.6126,366.4147,502.2628,364.4466" style="stroke: #A80036; stroke-width: 1.0;"/><path d="M387.0576,299.0592 C424.6254,315.7373 478.5551,339.6792 517.3766,356.9138 " fill="none" style="stroke: #A80036; stroke-width: 1.0; stroke-dasharray: 7.0,7.0;"/><polygon fill="#A80036" points="522.0339,358.9814,515.4312,351.6736,517.464,356.9525,512.185,358.9853,522.0339,358.9814" style="stroke: #A80036; stroke-width: 1.0;"/><path d="M431.243,299.0001 C524.4704,319.6017 668.0707,351.3348 742.5137,367.7854 " fill="none" style="stroke: #A80036; stroke-width: 1.0; stroke-dasharray: 7.0,7.0;"/><polygon fill="#A80036" points="747.7525,368.9431,739.8277,363.0952,742.8703,367.8641,738.1014,370.9067,747.7525,368.9431" style="stroke: #A80036; stroke-width: 1.0;"/><path d="M1462.6445,200.0592 C1417.7289,216.839 1353.1321,240.9714 1306.9393,258.2283 " fill="none" style="stroke: #A80036; stroke-width: 1.0; stroke-dasharray: 7.0,7.0;"/><polygon fill="#A80036" points="1302.2467,259.9814,1312.0774,260.5787,1306.9305,258.2316,1309.2777,253.0846,1302.2467,259.9814" style="stroke: #A80036; stroke-width: 1.0;"/><path d="M1498.9514,101.0592 C1502.1289,116.7881 1506.6116,138.9776 1510.0321,155.9087 " fill="none" style="stroke: #A80036; stroke-width: 1.0; stroke-dasharray: 7.0,7.0;"/><polygon fill="#A80036" points="1511.0569,160.9814,1513.1954,151.3675,1510.0668,156.0804,1505.3539,152.9517,1511.0569,160.9814" style="stroke: #A80036; stroke-width: 1.0;"/><path d="M1209.1035,299.0592 C1174.3729,315.6695 1124.5776,339.4846 1088.5749,356.7033 " fill="none" style="stroke: #A80036; stroke-width: 1.0; stroke-dasharray: 7.0,7.0;"/><polygon fill="#A80036" points="1083.8116,358.9814,1093.6566,358.7069,1088.3223,356.8241,1090.205,351.4898,1083.8116,358.9814" style="stroke: #A80036; stroke-width: 1.0;"/><path d="M987.5885,398.1002 C966.4382,405.5806 942.1026,414.1865 920,422 C866.2812,440.9902 804.7549,462.7302 762.6361,477.6111 " fill="none" style="stroke: #A80036; stroke-width: 1.0; stroke-dasharray: 7.0,7.0;"/><polygon fill="#A80036" points="757.8544,479.3005,767.6729,480.0738,762.5688,477.6348,765.0077,472.5307,757.8544,479.3005" style="stroke: #A80036; stroke-width: 1.0;"/><path d="M1044.5064,398.0832 C1046.0444,418.0778 1048.4364,449.1729 1050.1027,470.8354 " fill="none" style="stroke: #A80036; stroke-width: 1.0; stroke-dasharray: 7.0,7.0;"/><polygon fill="#A80036" points="1050.4887,475.8529,1053.7865,466.5726,1050.1051,470.8676,1045.8101,467.1863,1050.4887,475.8529" style="stroke: #A80036; stroke-width: 1.0;"/><path d="M1083.8965,200.0592 C1118.6271,216.6695 1168.4224,240.4846 1204.4251,257.7033 " fill="none" style="stroke: #A80036; stroke-width: 1.0; stroke-dasharray: 7.0,7.0;"/><polygon fill="#A80036" points="1209.1884,259.9814,1202.795,252.4898,1204.6777,257.8241,1199.3434,259.7069,1209.1884,259.9814" style="stroke: #A80036; stroke-width: 1.0;"/><path d="M1057.3369,200.1601 C1075.7179,224.6971 1109.2621,267.2894 1143,299 C1165.6071,320.2486 1193.8803,341.0445 1215.6853,356.0345 " fill="none" style="stroke: #A80036; stroke-width: 1.0; stroke-dasharray: 7.0,7.0;"/><polygon fill="#A80036" points="1219.9565,358.9535,1214.7829,350.5729,1215.8284,356.1323,1210.269,357.1778,1219.9565,358.9535" style="stroke: #A80036; stroke-width: 1.0;"/><path d="M959.6358,183.7937 C872.4292,188.1163 746.0864,197.2071 731,214 C694.2982,254.8535 739.2762,319.9677 768.9304,354.7567 " fill="none" style="stroke: #A80036; stroke-width: 1.0; stroke-dasharray: 7.0,7.0;"/><polygon fill="#A80036" points="772.4643,358.8453,769.6054,349.4205,769.1947,355.0625,763.5528,354.6518,772.4643,358.8453" style="stroke: #A80036; stroke-width: 1.0;"/><path d="M1216.8593,398.0832 C1181.7373,418.837 1126.3761,451.5505 1089.6346,473.2614 " fill="none" style="stroke: #A80036; stroke-width: 1.0; stroke-dasharray: 7.0,7.0;"/><polygon fill="#A80036" points="1085.2489,475.8529,1095.0322,474.718,1089.5535,473.3092,1090.9623,467.8306,1085.2489,475.8529" style="stroke: #A80036; stroke-width: 1.0;"/><path d="M1272.4681,200.0592 C1268.0195,215.7881 1261.7437,237.9776 1256.9551,254.9087 " fill="none" style="stroke: #A80036; stroke-width: 1.0; stroke-dasharray: 7.0,7.0;"/><polygon fill="#A80036" points="1255.5204,259.9814,1261.8187,252.4097,1256.8811,255.1701,1254.1207,250.2325,1255.5204,259.9814" style="stroke: #A80036; stroke-width: 1.0;"/><path d="M868.8722,299.0592 C905.2806,315.6695 957.4815,339.4846 995.2234,356.7033 " fill="none" style="stroke: #A80036; stroke-width: 1.0; stroke-dasharray: 7.0,7.0;"/><polygon fill="#A80036" points="1000.2168,358.9814,993.689,351.6065,995.6679,356.906,990.3684,358.8848,1000.2168,358.9814" style="stroke: #A80036; stroke-width: 1.0;"/><path d="M819.0851,299.0592 C813.5244,314.7881 805.6796,336.9776 799.6939,353.9087 " fill="none" style="stroke: #A80036; stroke-width: 1.0; stroke-dasharray: 7.0,7.0;"/><polygon fill="#A80036" points="797.9005,358.9814,804.6718,351.8295,799.5672,354.2674,797.1293,349.1628,797.9005,358.9814" style="stroke: #A80036; stroke-width: 1.0;"/></g></svg>