<?xml version="1.0" encoding="us-ascii" standalone="no"?><svg xmlns="http://www.w3.org/2000/svg" xmlns:xlink="http://www.w3.org/1999/xlink" contentStyleType="text/css" height="911px" preserveAspectRatio="none" style="width:2351px;height:911px;background:#FFFFFF;" version="1.1" viewBox="0 0 2351 911" width="2351px" zoomAndPan="magnify"><defs/><g><!--cluster org.junit.jupiter--><g id="cluster_org.junit.jupiter"><path d="M1348.5,147.83 L1461.5,147.83 A3.75,3.75 0 0 1 1464,150.33 L1471,170.3183 L2097.5,170.3183 A2.5,2.5 0 0 1 2100,172.8183 L2100,506.14 A2.5,2.5 0 0 1 2097.5,508.64 L1348.5,508.64 A2.5,2.5 0 0 1 1346,506.14 L1346,150.33 A2.5,2.5 0 0 1 1348.5,147.83 " fill="none" style="stroke:#000000;stroke-width:1.5;"/><line style="stroke:#000000;stroke-width:1.5;" x1="1346" x2="1471" y1="170.3183" y2="170.3183"/><text fill="#000000" font-family="sans-serif" font-size="14" font-weight="bold" lengthAdjust="spacing" textLength="112" x="1350" y="163.3652">org.junit.jupiter</text></g><!--cluster org.junit.vintage--><g id="cluster_org.junit.vintage"><path d="M1058.5,304.66 L1176.5,304.66 A3.75,3.75 0 0 1 1179,307.16 L1186,327.1483 L1269.5,327.1483 A2.5,2.5 0 0 1 1272,329.6483 L1272,399.65 A2.5,2.5 0 0 1 1269.5,402.15 L1058.5,402.15 A2.5,2.5 0 0 1 1056,399.65 L1056,307.16 A2.5,2.5 0 0 1 1058.5,304.66 " fill="none" style="stroke:#000000;stroke-width:1.5;"/><line style="stroke:#000000;stroke-width:1.5;" x1="1056" x2="1186" y1="327.1483" y2="327.1483"/><text fill="#000000" font-family="sans-serif" font-size="14" font-weight="bold" lengthAdjust="spacing" textLength="117" x="1060" y="320.1952">org.junit.vintage</text></g><!--cluster org.junit.platform--><g id="cluster_org.junit.platform"><path d="M8.5,6 L136.5,6 A3.75,3.75 0 0 1 139,8.5 L146,28.4883 L1029.5,28.4883 A2.5,2.5 0 0 1 1032,30.9883 L1032,734.11 A2.5,2.5 0 0 1 1029.5,736.61 L8.5,736.61 A2.5,2.5 0 0 1 6,734.11 L6,8.5 A2.5,2.5 0 0 1 8.5,6 " fill="none" style="stroke:#000000;stroke-width:1.5;"/><line style="stroke:#000000;stroke-width:1.5;" x1="6" x2="146" y1="28.4883" y2="28.4883"/><text fill="#000000" font-family="sans-serif" font-size="14" font-weight="bold" lengthAdjust="spacing" textLength="127" x="10" y="21.5352">org.junit.platform</text></g><!--cluster JUnit 4--><g id="cluster_JUnit 4"><path d="M1242.5,532.64 L1293.5,532.64 A3.75,3.75 0 0 1 1296,535.14 L1303,555.1283 L1375.5,555.1283 A2.5,2.5 0 0 1 1378,557.6283 L1378,627.62 A2.5,2.5 0 0 1 1375.5,630.12 L1242.5,630.12 A2.5,2.5 0 0 1 1240,627.62 L1240,535.14 A2.5,2.5 0 0 1 1242.5,532.64 " fill="none" style="stroke:#000000;stroke-width:1.5;"/><line style="stroke:#000000;stroke-width:1.5;" x1="1240" x2="1303" y1="555.1283" y2="555.1283"/><text fill="#000000" font-family="sans-serif" font-size="14" font-weight="bold" lengthAdjust="spacing" textLength="50" x="1244" y="548.1752">JUnit 4</text></g><!--cluster org.opentest4j--><g id="cluster_org.opentest4j"><path d="M681.5,806.61 L786.5,806.61 A3.75,3.75 0 0 1 789,809.11 L796,829.0983 L820.5,829.0983 A2.5,2.5 0 0 1 823,831.5983 L823,901.6 A2.5,2.5 0 0 1 820.5,904.1 L681.5,904.1 A2.5,2.5 0 0 1 679,901.6 L679,809.11 A2.5,2.5 0 0 1 681.5,806.61 " fill="none" style="stroke:#000000;stroke-width:1.5;"/><line style="stroke:#000000;stroke-width:1.5;" x1="679" x2="796" y1="829.0983" y2="829.0983"/><text fill="#000000" font-family="sans-serif" font-size="14" font-weight="bold" lengthAdjust="spacing" textLength="104" x="683" y="822.1452">org.opentest4j</text></g><!--cluster org.apiguardian--><g id="cluster_org.apiguardian"><path d="M2126.5,6 L2239.5,6 A3.75,3.75 0 0 1 2242,8.5 L2249,28.4883 L2341.5,28.4883 A2.5,2.5 0 0 1 2344,30.9883 L2344,278.16 A2.5,2.5 0 0 1 2341.5,280.66 L2126.5,280.66 A2.5,2.5 0 0 1 2124,278.16 L2124,8.5 A2.5,2.5 0 0 1 2126.5,6 " fill="none" style="stroke:#000000;stroke-width:1.5;"/><line style="stroke:#000000;stroke-width:1.5;" x1="2124" x2="2249" y1="28.4883" y2="28.4883"/><text fill="#000000" font-family="sans-serif" font-size="14" font-weight="bold" lengthAdjust="spacing" textLength="112" x="2128" y="21.5352">org.apiguardian</text></g><!--entity jupiter--><g id="elem_jupiter"><rect fill="#F1F1F1" height="46.4883" rx="2.5" ry="2.5" style="stroke:#181818;stroke-width:0.5;" width="124" x="1893" y="182.83"/><rect fill="#F1F1F1" height="10" style="stroke:#181818;stroke-width:0.5;" width="15" x="1997" y="187.83"/><rect fill="#F1F1F1" height="2" style="stroke:#181818;stroke-width:0.5;" width="4" x="1995" y="189.83"/><rect fill="#F1F1F1" height="2" style="stroke:#181818;stroke-width:0.5;" width="4" x="1995" y="193.83"/><text fill="#000000" font-family="sans-serif" font-size="14" lengthAdjust="spacing" textLength="84" x="1908" y="216.3652">junit-jupiter</text></g><!--entity jupiter_api--><g id="elem_jupiter_api"><rect fill="#F1F1F1" height="46.4883" rx="2.5" ry="2.5" style="stroke:#181818;stroke-width:0.5;" width="153" x="1609.5" y="446.15"/><rect fill="#F1F1F1" height="10" style="stroke:#181818;stroke-width:0.5;" width="15" x="1742.5" y="451.15"/><rect fill="#F1F1F1" height="2" style="stroke:#181818;stroke-width:0.5;" width="4" x="1740.5" y="453.15"/><rect fill="#F1F1F1" height="2" style="stroke:#181818;stroke-width:0.5;" width="4" x="1740.5" y="457.15"/><text fill="#000000" font-family="sans-serif" font-size="14" lengthAdjust="spacing" textLength="113" x="1624.5" y="479.6852">junit-jupiter-api</text></g><!--entity jupiter_engine--><g id="elem_jupiter_engine"><rect fill="#F1F1F1" height="46.4883" rx="2.5" ry="2.5" style="stroke:#181818;stroke-width:0.5;" width="179" x="1361.5" y="339.66"/><rect fill="#F1F1F1" height="10" style="stroke:#181818;stroke-width:0.5;" width="15" x="1520.5" y="344.66"/><rect fill="#F1F1F1" height="2" style="stroke:#181818;stroke-width:0.5;" width="4" x="1518.5" y="346.66"/><rect fill="#F1F1F1" height="2" style="stroke:#181818;stroke-width:0.5;" width="4" x="1518.5" y="350.66"/><text fill="#000000" font-family="sans-serif" font-size="14" lengthAdjust="spacing" textLength="139" x="1376.5" y="373.1952">junit-jupiter-engine</text></g><!--entity jupiter_params--><g id="elem_jupiter_params"><rect fill="#F1F1F1" height="46.4883" rx="2.5" ry="2.5" style="stroke:#181818;stroke-width:0.5;" width="183" x="1863.5" y="339.66"/><rect fill="#F1F1F1" height="10" style="stroke:#181818;stroke-width:0.5;" width="15" x="2026.5" y="344.66"/><rect fill="#F1F1F1" height="2" style="stroke:#181818;stroke-width:0.5;" width="4" x="2024.5" y="346.66"/><rect fill="#F1F1F1" height="2" style="stroke:#181818;stroke-width:0.5;" width="4" x="2024.5" y="350.66"/><text fill="#000000" font-family="sans-serif" font-size="14" lengthAdjust="spacing" textLength="143" x="1878.5" y="373.1952">junit-jupiter-params</text></g><!--entity jupiter_migration_support--><g id="elem_jupiter_migration_support"><rect fill="#F1F1F1" height="46.4883" rx="2.5" ry="2.5" style="stroke:#181818;stroke-width:0.5;" width="253" x="1575.5" y="339.66"/><rect fill="#F1F1F1" height="10" style="stroke:#181818;stroke-width:0.5;" width="15" x="1808.5" y="344.66"/><rect fill="#F1F1F1" height="2" style="stroke:#181818;stroke-width:0.5;" width="4" x="1806.5" y="346.66"/><rect fill="#F1F1F1" height="2" style="stroke:#181818;stroke-width:0.5;" width="4" x="1806.5" y="350.66"/><text fill="#000000" font-family="sans-serif" font-size="14" lengthAdjust="spacing" textLength="213" x="1590.5" y="373.1952">junit-jupiter-migrationsupport</text></g><!--entity vintage_engine--><g id="elem_vintage_engine"><rect fill="#F1F1F1" height="46.4883" rx="2.5" ry="2.5" style="stroke:#181818;stroke-width:0.5;" width="184" x="1072" y="339.66"/><rect fill="#F1F1F1" height="10" style="stroke:#181818;stroke-width:0.5;" width="15" x="1236" y="344.66"/><rect fill="#F1F1F1" height="2" style="stroke:#181818;stroke-width:0.5;" width="4" x="1234" y="346.66"/><rect fill="#F1F1F1" height="2" style="stroke:#181818;stroke-width:0.5;" width="4" x="1234" y="350.66"/><text fill="#000000" font-family="sans-serif" font-size="14" lengthAdjust="spacing" textLength="144" x="1087" y="373.1952">junit-vintage-engine</text></g><!--entity commons--><g id="elem_commons"><rect fill="#F1F1F1" height="46.4883" rx="2.5" ry="2.5" style="stroke:#181818;stroke-width:0.5;" width="213" x="803.5" y="674.12"/><rect fill="#F1F1F1" height="10" style="stroke:#181818;stroke-width:0.5;" width="15" x="996.5" y="679.12"/><rect fill="#F1F1F1" height="2" style="stroke:#181818;stroke-width:0.5;" width="4" x="994.5" y="681.12"/><rect fill="#F1F1F1" height="2" style="stroke:#181818;stroke-width:0.5;" width="4" x="994.5" y="685.12"/><text fill="#000000" font-family="sans-serif" font-size="14" lengthAdjust="spacing" textLength="173" x="818.5" y="707.6552">junit-platform-commons</text></g><!--entity console--><g id="elem_console"><rect fill="#F1F1F1" height="46.4883" rx="2.5" ry="2.5" style="stroke:#181818;stroke-width:0.5;" width="199" x="803.5" y="182.83"/><rect fill="#F1F1F1" height="10" style="stroke:#181818;stroke-width:0.5;" width="15" x="982.5" y="187.83"/><rect fill="#F1F1F1" height="2" style="stroke:#181818;stroke-width:0.5;" width="4" x="980.5" y="189.83"/><rect fill="#F1F1F1" height="2" style="stroke:#181818;stroke-width:0.5;" width="4" x="980.5" y="193.83"/><text fill="#000000" font-family="sans-serif" font-size="14" lengthAdjust="spacing" textLength="159" x="818.5" y="216.3652">junit-platform-console</text></g><!--entity engine--><g id="elem_engine"><rect fill="#F1F1F1" height="46.4883" rx="2.5" ry="2.5" style="stroke:#181818;stroke-width:0.5;" width="193" x="813.5" y="567.64"/><rect fill="#F1F1F1" height="10" style="stroke:#181818;stroke-width:0.5;" width="15" x="986.5" y="572.64"/><rect fill="#F1F1F1" height="2" style="stroke:#181818;stroke-width:0.5;" width="4" x="984.5" y="574.64"/><rect fill="#F1F1F1" height="2" style="stroke:#181818;stroke-width:0.5;" width="4" x="984.5" y="578.64"/><text fill="#000000" font-family="sans-serif" font-size="14" lengthAdjust="spacing" textLength="153" x="828.5" y="601.1752">junit-platform-engine</text></g><!--entity jfr--><g id="elem_jfr"><rect fill="#F1F1F1" height="46.4883" rx="2.5" ry="2.5" style="stroke:#181818;stroke-width:0.5;" width="161" x="571.5" y="339.66"/><rect fill="#F1F1F1" height="10" style="stroke:#181818;stroke-width:0.5;" width="15" x="712.5" y="344.66"/><rect fill="#F1F1F1" height="2" style="stroke:#181818;stroke-width:0.5;" width="4" x="710.5" y="346.66"/><rect fill="#F1F1F1" height="2" style="stroke:#181818;stroke-width:0.5;" width="4" x="710.5" y="350.66"/><text fill="#000000" font-family="sans-serif" font-size="14" lengthAdjust="spacing" textLength="121" x="586.5" y="373.1952">junit-platform-jfr</text></g><!--entity launcher--><g id="elem_launcher"><rect fill="#F1F1F1" height="46.4883" rx="2.5" ry="2.5" style="stroke:#181818;stroke-width:0.5;" width="206" x="607" y="446.15"/><rect fill="#F1F1F1" height="10" style="stroke:#181818;stroke-width:0.5;" width="15" x="793" y="451.15"/><rect fill="#F1F1F1" height="2" style="stroke:#181818;stroke-width:0.5;" width="4" x="791" y="453.15"/><rect fill="#F1F1F1" height="2" style="stroke:#181818;stroke-width:0.5;" width="4" x="791" y="457.15"/><text fill="#000000" font-family="sans-serif" font-size="14" lengthAdjust="spacing" textLength="166" x="622" y="479.6852">junit-platform-launcher</text></g><!--entity reporting--><g id="elem_reporting"><rect fill="#F1F1F1" height="46.4883" rx="2.5" ry="2.5" style="stroke:#181818;stroke-width:0.5;" width="211" x="804.5" y="339.66"/><rect fill="#F1F1F1" height="10" style="stroke:#181818;stroke-width:0.5;" width="15" x="995.5" y="344.66"/><rect fill="#F1F1F1" height="2" style="stroke:#181818;stroke-width:0.5;" width="4" x="993.5" y="346.66"/><rect fill="#F1F1F1" height="2" style="stroke:#181818;stroke-width:0.5;" width="4" x="993.5" y="350.66"/><text fill="#000000" font-family="sans-serif" font-size="14" lengthAdjust="spacing" textLength="171" x="819.5" y="373.1952">junit-platform-reporting</text></g><!--entity runner--><g id="elem_runner"><rect fill="#F1F1F1" height="46.4883" rx="2.5" ry="2.5" style="stroke:#181818;stroke-width:0.5;" width="193" x="569.5" y="182.83"/><rect fill="#F1F1F1" height="10" style="stroke:#181818;stroke-width:0.5;" width="15" x="742.5" y="187.83"/><rect fill="#F1F1F1" height="2" style="stroke:#181818;stroke-width:0.5;" width="4" x="740.5" y="189.83"/><rect fill="#F1F1F1" height="2" style="stroke:#181818;stroke-width:0.5;" width="4" x="740.5" y="193.83"/><text fill="#000000" font-family="sans-serif" font-size="14" lengthAdjust="spacing" textLength="153" x="584.5" y="216.3652">junit-platform-runner</text></g><!--entity suite--><g id="elem_suite"><rect fill="#F1F1F1" height="46.4883" rx="2.5" ry="2.5" style="stroke:#181818;stroke-width:0.5;" width="179" x="232.5" y="41"/><rect fill="#F1F1F1" height="10" style="stroke:#181818;stroke-width:0.5;" width="15" x="391.5" y="46"/><rect fill="#F1F1F1" height="2" style="stroke:#181818;stroke-width:0.5;" width="4" x="389.5" y="48"/><rect fill="#F1F1F1" height="2" style="stroke:#181818;stroke-width:0.5;" width="4" x="389.5" y="52"/><text fill="#000000" font-family="sans-serif" font-size="14" lengthAdjust="spacing" textLength="139" x="247.5" y="74.5352">junit-platform-suite</text></g><!--entity suite_api--><g id="elem_suite_api"><rect fill="#F1F1F1" height="46.4883" rx="2.5" ry="2.5" style="stroke:#181818;stroke-width:0.5;" width="208" x="237" y="446.15"/><rect fill="#F1F1F1" height="10" style="stroke:#181818;stroke-width:0.5;" width="15" x="425" y="451.15"/><rect fill="#F1F1F1" height="2" style="stroke:#181818;stroke-width:0.5;" width="4" x="423" y="453.15"/><rect fill="#F1F1F1" height="2" style="stroke:#181818;stroke-width:0.5;" width="4" x="423" y="457.15"/><text fill="#000000" font-family="sans-serif" font-size="14" lengthAdjust="spacing" textLength="168" x="252" y="479.6852">junit-platform-suite-api</text></g><!--entity suite_commons--><g id="elem_suite_commons"><rect fill="#F1F1F1" height="46.4883" rx="2.5" ry="2.5" style="stroke:#181818;stroke-width:0.5;" width="254" x="282" y="339.66"/><rect fill="#F1F1F1" height="10" style="stroke:#181818;stroke-width:0.5;" width="15" x="516" y="344.66"/><rect fill="#F1F1F1" height="2" style="stroke:#181818;stroke-width:0.5;" width="4" x="514" y="346.66"/><rect fill="#F1F1F1" height="2" style="stroke:#181818;stroke-width:0.5;" width="4" x="514" y="350.66"/><text fill="#000000" font-family="sans-serif" font-size="14" lengthAdjust="spacing" textLength="214" x="297" y="373.1952">junit-platform-suite-commons</text></g><!--entity suite_engine--><g id="elem_suite_engine"><rect fill="#F1F1F1" height="46.4883" rx="2.5" ry="2.5" style="stroke:#181818;stroke-width:0.5;" width="234" x="287" y="182.83"/><rect fill="#F1F1F1" height="10" style="stroke:#181818;stroke-width:0.5;" width="15" x="501" y="187.83"/><rect fill="#F1F1F1" height="2" style="stroke:#181818;stroke-width:0.5;" width="4" x="499" y="189.83"/><rect fill="#F1F1F1" height="2" style="stroke:#181818;stroke-width:0.5;" width="4" x="499" y="193.83"/><text fill="#000000" font-family="sans-serif" font-size="14" lengthAdjust="spacing" textLength="194" x="302" y="216.3652">junit-platform-suite-engine</text></g><!--entity testkit--><g id="elem_testkit"><rect fill="#F1F1F1" height="46.4883" rx="2.5" ry="2.5" style="stroke:#181818;stroke-width:0.5;" width="188" x="22" y="339.66"/><rect fill="#F1F1F1" height="10" style="stroke:#181818;stroke-width:0.5;" width="15" x="190" y="344.66"/><rect fill="#F1F1F1" height="2" style="stroke:#181818;stroke-width:0.5;" width="4" x="188" y="346.66"/><rect fill="#F1F1F1" height="2" style="stroke:#181818;stroke-width:0.5;" width="4" x="188" y="350.66"/><text fill="#000000" font-family="sans-serif" font-size="14" lengthAdjust="spacing" textLength="148" x="37" y="373.1952">junit-platform-testkit</text></g><!--entity junit4--><g id="elem_junit4"><rect fill="#F1F1F1" height="46.4883" rx="2.5" ry="2.5" style="stroke:#181818;stroke-width:0.5;" width="106" x="1256" y="567.64"/><rect fill="#F1F1F1" height="10" style="stroke:#181818;stroke-width:0.5;" width="15" x="1342" y="572.64"/><rect fill="#F1F1F1" height="2" style="stroke:#181818;stroke-width:0.5;" width="4" x="1340" y="574.64"/><rect fill="#F1F1F1" height="2" style="stroke:#181818;stroke-width:0.5;" width="4" x="1340" y="578.64"/><text fill="#000000" font-family="sans-serif" font-size="14" lengthAdjust="spacing" textLength="66" x="1271" y="601.1752">junit:junit</text></g><!--entity opentest4j--><g id="elem_opentest4j"><rect fill="#F1F1F1" height="46.4883" rx="2.5" ry="2.5" style="stroke:#181818;stroke-width:0.5;" width="113" x="694.5" y="841.61"/><rect fill="#F1F1F1" height="10" style="stroke:#181818;stroke-width:0.5;" width="15" x="787.5" y="846.61"/><rect fill="#F1F1F1" height="2" style="stroke:#181818;stroke-width:0.5;" width="4" x="785.5" y="848.61"/><rect fill="#F1F1F1" height="2" style="stroke:#181818;stroke-width:0.5;" width="4" x="785.5" y="852.61"/><text fill="#000000" font-family="sans-serif" font-size="14" lengthAdjust="spacing" textLength="73" x="709.5" y="875.1452">opentest4j</text></g><!--entity apiguardian--><g id="elem_apiguardian"><rect fill="#F1F1F1" height="46.4883" rx="2.5" ry="2.5" style="stroke:#181818;stroke-width:0.5;" width="152" x="2158" y="41"/><rect fill="#F1F1F1" height="10" style="stroke:#181818;stroke-width:0.5;" width="15" x="2290" y="46"/><rect fill="#F1F1F1" height="2" style="stroke:#181818;stroke-width:0.5;" width="4" x="2288" y="48"/><rect fill="#F1F1F1" height="2" style="stroke:#181818;stroke-width:0.5;" width="4" x="2288" y="52"/><text fill="#000000" font-family="sans-serif" font-size="14" lengthAdjust="spacing" textLength="112" x="2173" y="74.5352">apiguardian-api</text></g><g id="elem_GMN29"><path d="M2140,147.48 L2140,264.6538 A0,0 0 0 0 2140,264.6538 L2328,264.6538 A0,0 0 0 0 2328,264.6538 L2328,157.48 L2318,147.48 L2238,147.48 L2234,87.71 L2230,147.48 L2140,147.48 A0,0 0 0 0 2140,147.48 " fill="#FFFFFF" style="stroke:#181818;stroke-width:0.5;"/><path d="M2318,147.48 L2318,157.48 L2328,157.48 L2318,147.48 " fill="#FFFFFF" style="stroke:#181818;stroke-width:0.5;"/><text fill="#000000" font-family="sans-serif" font-size="13" lengthAdjust="spacing" textLength="119" x="2146" y="165.0484">All artifacts except</text><text fill="#000000" font-family="sans-serif" font-size="13" lengthAdjust="spacing" textLength="160" x="2146" y="180.3589">opentest4j and junit:junit</text><text fill="#000000" font-family="sans-serif" font-size="13" lengthAdjust="spacing" textLength="167" x="2146" y="195.6695">have a dependency on this</text><text fill="#000000" font-family="sans-serif" font-size="13" lengthAdjust="spacing" textLength="150" x="2146" y="210.98">artifact. The edges have</text><text fill="#000000" font-family="sans-serif" font-size="13" lengthAdjust="spacing" textLength="145" x="2146" y="226.2905">been omitted from this</text><text fill="#000000" font-family="sans-serif" font-size="13" lengthAdjust="spacing" textLength="147" x="2146" y="241.6011">diagram for the sake of</text><text fill="#000000" font-family="sans-serif" font-size="13" lengthAdjust="spacing" textLength="70" x="2146" y="256.9116">readability.</text></g><!--link jupiter to jupiter_api--><g id="link_jupiter_jupiter_api"><path d="M1998.06,229.71 C2022.29,245.04 2050.34,267.76 2064,296.66 C2085.55,342.26 2096.84,371.86 2064,410.15 C2026.01,454.44 1868.0281,465.2187 1768.9481,467.7187 " fill="none" id="jupiter-to-jupiter_api" style="stroke:#181818;stroke-width:1.0;stroke-dasharray:7.0,7.0;"/><polygon fill="#181818" points="1762.95,467.87,1772.048,471.6417,1767.9484,467.7439,1771.8462,463.6443,1762.95,467.87" style="stroke:#181818;stroke-width:1.0;"/></g><!--link jupiter to jupiter_params--><g id="link_jupiter_jupiter_params"><path d="M1955,229.59 C1955,258.94 1955,303.99 1955,333.36 " fill="none" id="jupiter-to-jupiter_params" style="stroke:#181818;stroke-width:1.0;stroke-dasharray:7.0,7.0;"/><polygon fill="#181818" points="1955,339.36,1959,330.36,1955,334.36,1951,330.36,1955,339.36" style="stroke:#181818;stroke-width:1.0;"/></g><!--link jupiter to jupiter_engine--><g id="link_jupiter_jupiter_engine"><path d="M1892.59,214.75 C1812.77,226 1671.3,250.78 1558,296.66 C1530.77,307.68 1507.4621,321.8322 1486.8221,335.9522 " fill="none" id="jupiter-to-jupiter_engine" style="stroke:#181818;stroke-width:1.0;stroke-dasharray:7.0,7.0;"/><polygon fill="#181818" points="1481.87,339.34,1491.5566,337.5597,1485.9967,336.5169,1487.0396,330.957,1481.87,339.34" style="stroke:#181818;stroke-width:1.0;"/></g><!--link jupiter_api to opentest4j--><g id="link_jupiter_api_opentest4j"><path d="M1669.14,492.94 C1641.09,528.9 1581.32,599.13 1515,638.12 C1275.06,779.2 946.151,837.1304 813.901,855.8204 " fill="none" id="jupiter_api-to-opentest4j" style="stroke:#181818;stroke-width:1.0;stroke-dasharray:7.0,7.0;"/><polygon fill="#181818" points="807.96,856.66,817.4312,859.3612,812.9108,855.9603,816.3117,851.44,807.96,856.66" style="stroke:#181818;stroke-width:1.0;"/></g><!--link jupiter_api to commons--><g id="link_jupiter_api_commons"><path d="M1654.13,493.08 C1600.16,530.22 1486.1,603.35 1378,638.12 C1258.16,676.68 1119.4537,689.6541 1022.9837,694.0941 " fill="none" id="jupiter_api-to-commons" style="stroke:#181818;stroke-width:1.0;stroke-dasharray:7.0,7.0;"/><polygon fill="#181818" points="1016.99,694.37,1026.1644,697.952,1021.9847,694.1401,1025.7966,689.9604,1016.99,694.37" style="stroke:#181818;stroke-width:1.0;"/></g><!--link jupiter_engine to engine--><g id="link_jupiter_engine_engine"><path d="M1396.65,386.6 C1292.95,429.92 1073.5165,521.5776 969.8465,564.8776 " fill="none" id="jupiter_engine-to-engine" style="stroke:#181818;stroke-width:1.0;stroke-dasharray:7.0,7.0;"/><polygon fill="#181818" points="964.31,567.19,974.1563,567.4123,968.9237,565.263,971.0731,560.0304,964.31,567.19" style="stroke:#181818;stroke-width:1.0;"/></g><!--link jupiter_engine to jupiter_api--><g id="link_jupiter_engine_jupiter_api"><path d="M1501.99,386.58 C1541.41,404.1 1590.2373,425.8128 1629.6273,443.3228 " fill="none" id="jupiter_engine-to-jupiter_api" style="stroke:#181818;stroke-width:1.0;stroke-dasharray:7.0,7.0;"/><polygon fill="#181818" points="1635.11,445.76,1628.5108,438.449,1630.5411,443.729,1625.2611,445.7593,1635.11,445.76" style="stroke:#181818;stroke-width:1.0;"/></g><!--link jupiter_params to jupiter_api--><g id="link_jupiter_params_jupiter_api"><path d="M1903.11,386.57 C1885.11,394.26 1864.74,402.76 1846,410.15 C1814.78,422.44 1785.4382,433.2557 1756.1682,443.7457 " fill="none" id="jupiter_params-to-jupiter_api" style="stroke:#181818;stroke-width:1.0;stroke-dasharray:7.0,7.0;"/><polygon fill="#181818" points="1750.52,445.77,1760.3418,446.4991,1755.2269,444.0831,1757.6428,438.9681,1750.52,445.77" style="stroke:#181818;stroke-width:1.0;"/></g><!--link jupiter_migration_support to jupiter_api--><g id="link_jupiter_migration_support_jupiter_api"><path d="M1698.53,386.58 C1695.84,404.1 1693.0611,422.3196 1690.3711,439.8296 " fill="none" id="jupiter_migration_support-to-jupiter_api" style="stroke:#181818;stroke-width:1.0;stroke-dasharray:7.0,7.0;"/><polygon fill="#181818" points="1689.46,445.76,1694.7802,437.4717,1690.2192,440.818,1686.873,436.257,1689.46,445.76" style="stroke:#181818;stroke-width:1.0;"/></g><!--link jupiter_migration_support to junit4--><g id="link_jupiter_migration_support_junit4"><path d="M1662.52,386.6 C1587.19,429.92 1428.9614,520.899 1353.6614,564.199 " fill="none" id="jupiter_migration_support-to-junit4" style="stroke:#181818;stroke-width:1.0;stroke-dasharray:7.0,7.0;"/><polygon fill="#181818" points="1348.46,567.19,1358.256,566.1711,1352.7945,564.6975,1354.2681,559.236,1348.46,567.19" style="stroke:#181818;stroke-width:1.0;"/></g><!--link console to launcher--><g id="link_console_launcher"><path d="M862.46,229.73 C837.51,245.55 806.65,268.79 787,296.66 C756.43,340.02 773.48,362.57 750,410.15 C743.87,422.58 738.8804,430.5286 731.2904,440.9586 " fill="none" id="console-to-launcher" style="stroke:#181818;stroke-width:1.0;stroke-dasharray:7.0,7.0;"/><polygon fill="#181818" points="727.76,445.81,736.2899,440.8865,730.702,441.7672,729.8213,436.1793,727.76,445.81" style="stroke:#181818;stroke-width:1.0;"/></g><!--link console to reporting--><g id="link_console_reporting"><path d="M904.02,229.59 C905.35,258.94 907.3786,303.9961 908.7086,333.3661 " fill="none" id="console-to-reporting" style="stroke:#181818;stroke-width:1.0;stroke-dasharray:7.0,7.0;"/><polygon fill="#181818" points="908.98,339.36,912.5688,330.1883,908.7538,334.3651,904.577,330.5502,908.98,339.36" style="stroke:#181818;stroke-width:1.0;"/></g><!--link launcher to engine--><g id="link_launcher_engine"><path d="M747.62,492.87 C783.26,514.16 831.3593,542.8926 867.0593,564.2226 " fill="none" id="launcher-to-engine" style="stroke:#181818;stroke-width:1.0;stroke-dasharray:7.0,7.0;"/><polygon fill="#181818" points="872.21,567.3,866.5356,559.2501,867.9178,564.7355,862.4324,566.1177,872.21,567.3" style="stroke:#181818;stroke-width:1.0;"/></g><!--link jfr to launcher--><g id="link_jfr_launcher"><path d="M664.59,386.58 C674.31,404.1 684.8079,423.0041 694.5279,440.5141 " fill="none" id="jfr-to-launcher" style="stroke:#181818;stroke-width:1.0;stroke-dasharray:7.0,7.0;"/><polygon fill="#181818" points="697.44,445.76,696.5692,435.9497,695.0133,441.3884,689.5746,439.8325,697.44,445.76" style="stroke:#181818;stroke-width:1.0;"/></g><!--link engine to opentest4j--><g id="link_engine_opentest4j"><path d="M857.29,614.61 C831.87,628.24 803.23,648.04 786,674.12 C751.48,726.39 748.5482,797.5322 749.5682,835.3322 " fill="none" id="engine-to-opentest4j" style="stroke:#181818;stroke-width:1.0;stroke-dasharray:7.0,7.0;"/><polygon fill="#181818" points="749.73,841.33,753.4858,832.2254,749.5951,836.3318,745.4887,832.4412,749.73,841.33" style="stroke:#181818;stroke-width:1.0;"/></g><!--link engine to commons--><g id="link_engine_commons"><path d="M910,614.55 C910,632.08 910,650.22 910,667.74 " fill="none" id="engine-to-commons" style="stroke:#181818;stroke-width:1.0;stroke-dasharray:7.0,7.0;"/><polygon fill="#181818" points="910,673.74,914,664.74,910,668.74,906,664.74,910,673.74" style="stroke:#181818;stroke-width:1.0;"/></g><!--link reporting to launcher--><g id="link_reporting_launcher"><path d="M866.6,386.58 C833.06,404.1 792.1585,425.4726 758.6285,442.9826 " fill="none" id="reporting-to-launcher" style="stroke:#181818;stroke-width:1.0;stroke-dasharray:7.0,7.0;"/><polygon fill="#181818" points="753.31,445.76,763.1393,445.1395,757.7421,443.4455,759.4361,438.0483,753.31,445.76" style="stroke:#181818;stroke-width:1.0;"/></g><!--link runner to suite_commons--><g id="link_runner_suite_commons"><path d="M631.84,229.78 C606.47,246.46 570.88,269.46 539,288.66 C509.82,306.23 481.5633,322.1813 455.8833,336.3513 " fill="none" id="runner-to-suite_commons" style="stroke:#181818;stroke-width:1.0;stroke-dasharray:7.0,7.0;"/><polygon fill="#181818" points="450.63,339.25,460.4425,338.4041,455.0078,336.8344,456.5775,331.3997,450.63,339.25" style="stroke:#181818;stroke-width:1.0;"/></g><!--link runner to junit4--><g id="link_runner_junit4"><path d="M689.91,229.64 C712.64,249.44 748.77,276.87 786,288.66 C798.87,292.74 1261.95,287.65 1272,296.66 C1349.94,366.53 1328.4661,505.3839 1315.9961,561.2939 " fill="none" id="runner-to-junit4" style="stroke:#181818;stroke-width:1.0;stroke-dasharray:7.0,7.0;"/><polygon fill="#181818" points="1314.69,567.15,1320.5533,559.2366,1315.7784,562.2699,1312.7451,557.4951,1314.69,567.15" style="stroke:#181818;stroke-width:1.0;"/></g><!--link suite to suite_api--><g id="link_suite_suite_api"><path d="M301.08,87.84 C289.63,101.73 276.47,120.52 270,139.83 C231.8,253.76 210.48,302.55 264,410.15 C271.24,424.7 279.1286,433.1578 292.2486,442.3078 " fill="none" id="suite-to-suite_api" style="stroke:#181818;stroke-width:1.0;stroke-dasharray:7.0,7.0;"/><polygon fill="#181818" points="297.17,445.74,292.0761,437.3108,293.0689,442.8798,287.4998,443.8726,297.17,445.74" style="stroke:#181818;stroke-width:1.0;"/></g><!--link suite to suite_engine--><g id="link_suite_suite_engine"><path d="M335.17,87.71 C350.48,113.8 372.5346,151.4145 387.8246,177.4845 " fill="none" id="suite-to-suite_engine" style="stroke:#181818;stroke-width:1.0;stroke-dasharray:7.0,7.0;"/><polygon fill="#181818" points="390.86,182.66,389.7572,172.8731,388.3305,178.3471,382.8565,176.9203,390.86,182.66" style="stroke:#181818;stroke-width:1.0;"/></g><!--link suite_engine to suite_commons--><g id="link_suite_engine_suite_commons"><path d="M404.73,229.59 C405.68,258.94 407.126,303.9931 408.076,333.3631 " fill="none" id="suite_engine-to-suite_commons" style="stroke:#181818;stroke-width:1.0;stroke-dasharray:7.0,7.0;"/><polygon fill="#181818" points="408.27,339.36,411.9769,330.2354,408.1084,334.3626,403.9811,330.494,408.27,339.36" style="stroke:#181818;stroke-width:1.0;"/></g><!--link suite_commons to launcher--><g id="link_suite_commons_launcher"><path d="M474.31,386.58 C524.71,404.07 588.4515,426.2033 638.8915,443.7033 " fill="none" id="suite_commons-to-launcher" style="stroke:#181818;stroke-width:1.0;stroke-dasharray:7.0,7.0;"/><polygon fill="#181818" points="644.56,445.67,637.3683,438.941,639.8362,444.0311,634.7461,446.499,644.56,445.67" style="stroke:#181818;stroke-width:1.0;"/></g><!--link suite_commons to suite_api--><g id="link_suite_commons_suite_api"><path d="M394.25,386.58 C382.84,404.1 370.3916,423.2205 359.0016,440.7305 " fill="none" id="suite_commons-to-suite_api" style="stroke:#181818;stroke-width:1.0;stroke-dasharray:7.0,7.0;"/><polygon fill="#181818" points="355.73,445.76,363.9905,440.3968,358.4564,441.5687,357.2844,436.0346,355.73,445.76" style="stroke:#181818;stroke-width:1.0;"/></g><!--link testkit to opentest4j--><g id="link_testkit_opentest4j"><path d="M121.69,386.51 C131.37,427 150,514.7 150,589.88 C150,589.88 150,589.88 150,698.37 C150,810.58 538.3854,849.1598 688.2054,859.9298 " fill="none" id="testkit-to-opentest4j" style="stroke:#181818;stroke-width:1.0;stroke-dasharray:7.0,7.0;"/><polygon fill="#181818" points="694.19,860.36,685.5,855.725,689.2029,860.0015,684.9264,863.7044,694.19,860.36" style="stroke:#181818;stroke-width:1.0;"/></g><!--link testkit to launcher--><g id="link_testkit_launcher"><path d="M180.19,386.62 C205.97,395.04 236.13,404.02 264,410.15 C380.12,435.67 509.8966,450.8659 600.8566,459.4559 " fill="none" id="testkit-to-launcher" style="stroke:#181818;stroke-width:1.0;stroke-dasharray:7.0,7.0;"/><polygon fill="#181818" points="606.83,460.02,598.2459,455.1915,601.8521,459.5499,597.4938,463.1561,606.83,460.02" style="stroke:#181818;stroke-width:1.0;"/></g><!--link vintage_engine to engine--><g id="link_vintage_engine_engine"><path d="M1138.72,386.4 C1090.16,429.6 988.8127,519.7618 940.0427,563.1518 " fill="none" id="vintage_engine-to-engine" style="stroke:#181818;stroke-width:1.0;stroke-dasharray:7.0,7.0;"/><polygon fill="#181818" points="935.56,567.14,944.9428,564.1462,939.2956,563.8165,939.6252,558.1693,935.56,567.14" style="stroke:#181818;stroke-width:1.0;"/></g><!--link vintage_engine to junit4--><g id="link_vintage_engine_junit4"><path d="M1178.43,386.4 C1206.16,429.6 1263.3299,518.7001 1291.1699,562.0901 " fill="none" id="vintage_engine-to-junit4" style="stroke:#181818;stroke-width:1.0;stroke-dasharray:7.0,7.0;"/><polygon fill="#181818" points="1294.41,567.14,1292.9164,557.4051,1291.7099,562.9317,1286.1832,561.7252,1294.41,567.14" style="stroke:#181818;stroke-width:1.0;"/></g><!--SRC=[bLKzZzim3DtrAuJh74-PEXpGfKE7JkrqE1mOcxQLs98XoVU1el-zj2p9agqSK0y6zTuZGr8qOsv2Jg1Xv7yOfwV15kR1VbVI_eGHkG5fJWQrQDbVnYQeRz0XLxghhhCKbjwJiAYzzvC3Jnvyvc2ujmlq2IQHIbxeN9AXx8J4JBb29R6hnMJY5Ig9Hz5fi499Cq-JqZPpY-IBPyiDU1NIBaZM00-cgNief5wCDGrWMwN7F5X0JxKQHyhLXVFs7PqqQa2lStPHbsHtR6XKNLj_aQqkyWFCikxzROT3KQbnQQEGdPF6KraxI-bZhcPHPMQwAYTordrDd3Ltsa_QJflsUTL_rktL9-dbwl99HoqQUnFhj7axdOU77xz9piyFsHXyTMy_eMITzoEa9fHBjFCr-6t8yrvC3UXcq8q06TG95BkLO4uabKL-KTQgaQisfVcNjpxSmF9y6mOETBqjr9R6wxt6oKOoIHLamvFwegI7L-H0wuYa3ShwWol9RIzCL8Je5V_L8yUcG-Eyek22ABaQXRNOy5PJofa_PTqjUu-kX8XbqzseDstaDK835p48-r4va19PwbzQ6RPULJrcswk4-_LJeloCi2G4yOjYwz2UV8oVFil3hAGFUQ3oF5cUtBqwZZlmlvHEwaQL-JNatEEEIC5j6x30ywGUHjidTsPRrNc_af9ZfsBqNOnrjJWm_z0ZaTJW58bsAN-FXNJJKo4youvvKaTg-pdcryMnwer8wyl_TB89EL2nq7y0]--></g></svg>