<?xml version="1.0" encoding="UTF-8" standalone="yes"?><svg xmlns="http://www.w3.org/2000/svg" xmlns:xlink="http://www.w3.org/1999/xlink" height="538px" style="width:1436px;height:538px;" version="1.1" viewBox="0 0 1436 538" width="1436px"><defs><filter height="300%" id="f1" width="300%" x="-1" y="-1"><feGaussianBlur result="blurOut" stdDeviation="2.0"/><feColorMatrix in="blurOut" result="blurOut2" type="matrix" values="0 0 0 0 0 0 0 0 0 0 0 0 0 0 0 0 0 0 .4 0"/><feOffset dx="4.0" dy="4.0" in="blurOut2" result="blurOut3"/><feBlend in="SourceGraphic" in2="blurOut3" mode="normal"/></filter></defs><g><polygon fill="#FFFFFF" filter="url(#f1)" points="22,222,137,222,144,247.0654,471,247.0654,471,414,22,414,22,222" style="stroke: #000000; stroke-width: 2.0;"/><line style="stroke: #000000; stroke-width: 2.0;" x1="22" x2="144" y1="247.0654" y2="247.0654"/><text fill="#000000" font-family="Open Sans" font-size="14" font-weight="bold" lengthAdjust="spacingAndGlyphs" textLength="109" x="26" y="238.9639">org.junit.jupiter</text><polygon fill="#FFFFFF" filter="url(#f1)" points="545,222,665,222,672,247.0654,733,247.0654,733,414,545,414,545,222" style="stroke: #000000; stroke-width: 2.0;"/><line style="stroke: #000000; stroke-width: 2.0;" x1="545" x2="672" y1="247.0654" y2="247.0654"/><text fill="#000000" font-family="Open Sans" font-size="14" font-weight="bold" lengthAdjust="spacingAndGlyphs" textLength="114" x="549" y="238.9639">org.junit.vintage</text><polygon fill="#FFFFFF" filter="url(#f1)" points="757,24,887,24,894,49.0654,1429,49.0654,1429,531,757,531,757,24" style="stroke: #000000; stroke-width: 2.0;"/><line style="stroke: #000000; stroke-width: 2.0;" x1="757" x2="894" y1="49.0654" y2="49.0654"/><text fill="#000000" font-family="Open Sans" font-size="14" font-weight="bold" lengthAdjust="spacingAndGlyphs" textLength="124" x="761" y="40.9639">org.junit.platform</text><polygon fill="#FFFFFF" filter="url(#f1)" points="466,438,573,438,580,463.0654,590,463.0654,590,531,466,531,466,438" style="stroke: #000000; stroke-width: 2.0;"/><line style="stroke: #000000; stroke-width: 2.0;" x1="466" x2="580" y1="463.0654" y2="463.0654"/><text fill="#000000" font-family="Open Sans" font-size="14" font-weight="bold" lengthAdjust="spacingAndGlyphs" textLength="101" x="470" y="454.9639">org.opentest4j</text><rect fill="#FEFECE" filter="url(#f1)" height="39.0654" style="stroke: #A80036; stroke-width: 1.5;" width="127" x="321.5" y="359"/><rect fill="#FEFECE" height="5" style="stroke: #A80036; stroke-width: 1.5;" width="10" x="316.5" y="364"/><rect fill="#FEFECE" height="5" style="stroke: #A80036; stroke-width: 1.5;" width="10" x="316.5" y="388.0654"/><text fill="#000000" font-family="Open Sans" font-size="14" lengthAdjust="spacingAndGlyphs" textLength="107" x="331.5" y="383.9639">junit-jupiter-api</text><rect fill="#FEFECE" filter="url(#f1)" height="39.0654" style="stroke: #A80036; stroke-width: 1.5;" width="152" x="303" y="260"/><rect fill="#FEFECE" height="5" style="stroke: #A80036; stroke-width: 1.5;" width="10" x="298" y="265"/><rect fill="#FEFECE" height="5" style="stroke: #A80036; stroke-width: 1.5;" width="10" x="298" y="289.0654"/><text fill="#000000" font-family="Open Sans" font-size="14" lengthAdjust="spacingAndGlyphs" textLength="132" x="313" y="284.9639">junit-jupiter-engine</text><rect fill="#FEFECE" filter="url(#f1)" height="39.0654" style="stroke: #A80036; stroke-width: 1.5;" width="229" x="38.5" y="260"/><rect fill="#FEFECE" height="5" style="stroke: #A80036; stroke-width: 1.5;" width="10" x="33.5" y="265"/><rect fill="#FEFECE" height="5" style="stroke: #A80036; stroke-width: 1.5;" width="10" x="33.5" y="289.0654"/><text fill="#000000" font-family="Open Sans" font-size="14" lengthAdjust="spacingAndGlyphs" textLength="209" x="48.5" y="284.9639">junit-jupiter-migration-support</text><rect fill="#FEFECE" filter="url(#f1)" height="39.0654" style="stroke: #A80036; stroke-width: 1.5;" width="156" x="561" y="260"/><rect fill="#FEFECE" height="5" style="stroke: #A80036; stroke-width: 1.5;" width="10" x="556" y="265"/><rect fill="#FEFECE" height="5" style="stroke: #A80036; stroke-width: 1.5;" width="10" x="556" y="289.0654"/><text fill="#000000" font-family="Open Sans" font-size="14" lengthAdjust="spacingAndGlyphs" textLength="136" x="571" y="284.9639">junit-vintage-engine</text><rect fill="#FEFECE" filter="url(#f1)" height="39.0654" style="stroke: #A80036; stroke-width: 1.5;" width="86" x="561" y="359"/><rect fill="#FEFECE" height="5" style="stroke: #A80036; stroke-width: 1.5;" width="10" x="556" y="364"/><rect fill="#FEFECE" height="5" style="stroke: #A80036; stroke-width: 1.5;" width="10" x="556" y="388.0654"/><text fill="#000000" font-family="Open Sans" font-size="14" lengthAdjust="spacingAndGlyphs" textLength="66" x="571" y="383.9639">junit:junit</text><rect fill="#FEFECE" filter="url(#f1)" height="39.0654" style="stroke: #A80036; stroke-width: 1.5;" width="184" x="773" y="476"/><rect fill="#FEFECE" height="5" style="stroke: #A80036; stroke-width: 1.5;" width="10" x="768" y="481"/><rect fill="#FEFECE" height="5" style="stroke: #A80036; stroke-width: 1.5;" width="10" x="768" y="505.0654"/><text fill="#000000" font-family="Open Sans" font-size="14" lengthAdjust="spacingAndGlyphs" textLength="164" x="783" y="500.9639">junit-platform-commons</text><rect fill="#FEFECE" filter="url(#f1)" height="39.0654" style="stroke: #A80036; stroke-width: 1.5;" width="170" x="1243" y="161"/><rect fill="#FEFECE" height="5" style="stroke: #A80036; stroke-width: 1.5;" width="10" x="1238" y="166"/><rect fill="#FEFECE" height="5" style="stroke: #A80036; stroke-width: 1.5;" width="10" x="1238" y="190.0654"/><text fill="#000000" font-family="Open Sans" font-size="14" lengthAdjust="spacingAndGlyphs" textLength="150" x="1253" y="185.9639">junit-platform-console</text><rect fill="#FEFECE" filter="url(#f1)" height="39.0654" style="stroke: #A80036; stroke-width: 1.5;" width="165" x="773.5" y="359"/><rect fill="#FEFECE" height="5" style="stroke: #A80036; stroke-width: 1.5;" width="10" x="768.5" y="364"/><rect fill="#FEFECE" height="5" style="stroke: #A80036; stroke-width: 1.5;" width="10" x="768.5" y="388.0654"/><text fill="#000000" font-family="Open Sans" font-size="14" lengthAdjust="spacingAndGlyphs" textLength="145" x="783.5" y="383.9639">junit-platform-engine</text><rect fill="#FEFECE" filter="url(#f1)" height="39.0654" style="stroke: #A80036; stroke-width: 1.5;" width="210" x="1203" y="62"/><rect fill="#FEFECE" height="5" style="stroke: #A80036; stroke-width: 1.5;" width="10" x="1198" y="67"/><rect fill="#FEFECE" height="5" style="stroke: #A80036; stroke-width: 1.5;" width="10" x="1198" y="91.0654"/><text fill="#000000" font-family="Open Sans" font-size="14" lengthAdjust="spacingAndGlyphs" textLength="190" x="1213" y="86.9639">junit-platform-gradle-plugin</text><rect fill="#FEFECE" filter="url(#f1)" height="39.0654" style="stroke: #A80036; stroke-width: 1.5;" width="179" x="887.5" y="260"/><rect fill="#FEFECE" height="5" style="stroke: #A80036; stroke-width: 1.5;" width="10" x="882.5" y="265"/><rect fill="#FEFECE" height="5" style="stroke: #A80036; stroke-width: 1.5;" width="10" x="882.5" y="289.0654"/><text fill="#000000" font-family="Open Sans" font-size="14" lengthAdjust="spacingAndGlyphs" textLength="159" x="897.5" y="284.9639">junit-platform-launcher</text><rect fill="#FEFECE" filter="url(#f1)" height="39.0654" style="stroke: #A80036; stroke-width: 1.5;" width="166" x="773" y="161"/><rect fill="#FEFECE" height="5" style="stroke: #A80036; stroke-width: 1.5;" width="10" x="768" y="166"/><rect fill="#FEFECE" height="5" style="stroke: #A80036; stroke-width: 1.5;" width="10" x="768" y="190.0654"/><text fill="#000000" font-family="Open Sans" font-size="14" lengthAdjust="spacingAndGlyphs" textLength="146" x="783" y="185.9639">junit-platform-runner</text><rect fill="#FEFECE" filter="url(#f1)" height="39.0654" style="stroke: #A80036; stroke-width: 1.5;" width="234" x="974" y="161"/><rect fill="#FEFECE" height="5" style="stroke: #A80036; stroke-width: 1.5;" width="10" x="969" y="166"/><rect fill="#FEFECE" height="5" style="stroke: #A80036; stroke-width: 1.5;" width="10" x="969" y="190.0654"/><text fill="#000000" font-family="Open Sans" font-size="14" lengthAdjust="spacingAndGlyphs" textLength="214" x="984" y="185.9639">junit-platform-surefire-provider</text><rect fill="#FEFECE" filter="url(#f1)" height="39.0654" style="stroke: #A80036; stroke-width: 1.5;" width="91" x="482.5" y="476"/><rect fill="#FEFECE" height="5" style="stroke: #A80036; stroke-width: 1.5;" width="10" x="477.5" y="481"/><rect fill="#FEFECE" height="5" style="stroke: #A80036; stroke-width: 1.5;" width="10" x="477.5" y="505.0654"/><text fill="#000000" font-family="Open Sans" font-size="14" lengthAdjust="spacingAndGlyphs" textLength="71" x="492.5" y="500.9639">opentest4j</text><path d="M408.294,398.233 C433.535,418.532 473.78,450.8963 500.541,472.4179 " fill="none" style="stroke: #A80036; stroke-width: 1.0; stroke-dasharray: 7.0,7.0;"/><polygon fill="#A80036" points="504.716,475.7753,500.2104,467.0175,500.82,472.6414,495.1961,473.251,504.716,475.7753" style="stroke: #A80036; stroke-width: 1.0;"/><path d="M448.544,397.688 C477.782,405.718 513.009,414.921 545,422 C564.834,426.389 570.104,425.901 590,430 C656.321,443.662 731.105,461.3515 785.926,474.7487 " fill="none" style="stroke: #A80036; stroke-width: 1.0; stroke-dasharray: 7.0,7.0;"/><polygon fill="#A80036" points="790.834,475.9497,783.0428,469.9249,785.9773,474.7611,781.1411,477.6956,790.834,475.9497" style="stroke: #A80036; stroke-width: 1.0;"/><path d="M455.11,295.977 C540.427,313.327 678.544,341.414 768.317,359.669 " fill="none" style="stroke: #A80036; stroke-width: 1.0; stroke-dasharray: 7.0,7.0;"/><polygon fill="#A80036" points="773.356,360.694,765.3331,354.9814,768.4562,359.698,763.7396,362.8211,773.356,360.694" style="stroke: #A80036; stroke-width: 1.0;"/><path d="M380.157,299.203 C381.12,314.769 382.496,337.021 383.536,353.827 " fill="none" style="stroke: #A80036; stroke-width: 1.0; stroke-dasharray: 7.0,7.0;"/><polygon fill="#A80036" points="383.847,358.855,387.2841,349.6253,383.5385,353.8645,379.2993,350.119,383.847,358.855" style="stroke: #A80036; stroke-width: 1.0;"/><path d="M197.457,299.088 C237.031,315.634 294.83,339.8 335.784,356.923 " fill="none" style="stroke: #A80036; stroke-width: 1.0; stroke-dasharray: 7.0,7.0;"/><polygon fill="#A80036" points="340.693,358.975,333.9324,351.813,336.0799,357.0463,330.8466,359.1939,340.693,358.975" style="stroke: #A80036; stroke-width: 1.0;"/><path d="M239.157,299.031 C333.037,319.222 479.91,350.811 555.482,367.065 " fill="none" style="stroke: #A80036; stroke-width: 1.0; stroke-dasharray: 7.0,7.0;"/><polygon fill="#A80036" points="560.798,368.208,552.8403,362.405,555.9098,367.1566,551.1581,370.2261,560.798,368.208" style="stroke: #A80036; stroke-width: 1.0;"/><path d="M1260.74,200.088 C1200.14,216.835 1111.28,241.39 1049.2,258.546 " fill="none" style="stroke: #A80036; stroke-width: 1.0; stroke-dasharray: 7.0,7.0;"/><polygon fill="#A80036" points="1044.03,259.975,1053.7693,261.4396,1048.8502,258.6464,1051.6435,253.7273,1044.03,259.975" style="stroke: #A80036; stroke-width: 1.0;"/><path d="M1311.86,101.203 C1315.07,116.769 1319.65,139.021 1323.12,155.827 " fill="none" style="stroke: #A80036; stroke-width: 1.0; stroke-dasharray: 7.0,7.0;"/><polygon fill="#A80036" points="1324.16,160.855,1326.2607,151.2328,1323.1506,155.9579,1318.4255,152.8478,1324.16,160.855" style="stroke: #A80036; stroke-width: 1.0;"/><path d="M953.67,299.203 C933.583,315.306 904.57,338.564 883.386,355.546 " fill="none" style="stroke: #A80036; stroke-width: 1.0; stroke-dasharray: 7.0,7.0;"/><polygon fill="#A80036" points="879.258,358.855,888.7823,356.3473,883.1594,355.7279,883.7788,350.105,879.258,358.855" style="stroke: #A80036; stroke-width: 1.0;"/><path d="M802.937,398.105 C741.037,419.807 639.443,455.4269 578.614,476.7543 " fill="none" style="stroke: #A80036; stroke-width: 1.0; stroke-dasharray: 7.0,7.0;"/><polygon fill="#A80036" points="573.582,478.5185,583.3988,479.3128,578.2999,476.8629,580.7498,471.7641,573.582,478.5185" style="stroke: #A80036; stroke-width: 1.0;"/><path d="M857.466,398.233 C859.009,417.947 861.442,449.0417 863.124,470.5315 " fill="none" style="stroke: #A80036; stroke-width: 1.0; stroke-dasharray: 7.0,7.0;"/><polygon fill="#A80036" points="863.535,475.7753,866.8205,466.4906,863.1448,470.7905,858.8449,467.1149,863.535,475.7753" style="stroke: #A80036; stroke-width: 1.0;"/><path d="M879.33,200.203 C899.417,216.306 928.43,239.564 949.614,256.546 " fill="none" style="stroke: #A80036; stroke-width: 1.0; stroke-dasharray: 7.0,7.0;"/><polygon fill="#A80036" points="953.742,259.855,949.2212,251.105,949.8406,256.7279,944.2177,257.3473,953.742,259.855" style="stroke: #A80036; stroke-width: 1.0;"/><path d="M772.773,184.482 C685.282,188.494 558.181,197.161 543,214 C517.704,242.058 530.748,263.264 543,299 C550.317,320.341 566.065,340.354 579.726,354.831 " fill="none" style="stroke: #A80036; stroke-width: 1.0; stroke-dasharray: 7.0,7.0;"/><polygon fill="#A80036" points="583.516,358.765,580.1538,349.5078,580.0475,355.1637,574.3917,355.0574,583.516,358.765" style="stroke: #A80036; stroke-width: 1.0;"/><path d="M1069.02,200.203 C1050.09,216.306 1022.76,239.564 1002.802,256.546 " fill="none" style="stroke: #A80036; stroke-width: 1.0; stroke-dasharray: 7.0,7.0;"/><polygon fill="#A80036" points="998.913,259.855,1008.3594,257.0683,1002.7208,256.6145,1003.1745,250.9759,998.913,259.855" style="stroke: #A80036; stroke-width: 1.0;"/><path d="M680.583,299.088 C717.598,315.634 771.66,339.8 809.966,356.923 " fill="none" style="stroke: #A80036; stroke-width: 1.0; stroke-dasharray: 7.0,7.0;"/><polygon fill="#A80036" points="814.558,358.975,807.9735,351.6507,809.9932,356.9348,804.7092,358.9544,814.558,358.975" style="stroke: #A80036; stroke-width: 1.0;"/><path d="M632.252,299.203 C626.635,314.769 618.606,337.021 612.542,353.827 " fill="none" style="stroke: #A80036; stroke-width: 1.0; stroke-dasharray: 7.0,7.0;"/><polygon fill="#A80036" points="610.728,358.855,617.5455,351.7472,612.4252,354.1519,610.0205,349.0316,610.728,358.855" style="stroke: #A80036; stroke-width: 1.0;"/></g></svg>