<?xml version="1.0" encoding="UTF-8" standalone="no"?><svg xmlns="http://www.w3.org/2000/svg" xmlns:xlink="http://www.w3.org/1999/xlink" contentScriptType="application/ecmascript" contentStyleType="text/css" height="613px" preserveAspectRatio="none" style="width:1925px;height:613px;" version="1.1" viewBox="0 0 1925 613" width="1925px" zoomAndPan="magnify"><defs><filter height="300%" id="fjlph2e" width="300%" x="-1" y="-1"><feGaussianBlur result="blurOut" stdDeviation="2.0"/><feColorMatrix in="blurOut" result="blurOut2" type="matrix" values="0 0 0 0 0 0 0 0 0 0 0 0 0 0 0 0 0 0 .4 0"/><feOffset dx="4.0" dy="4.0" in="blurOut2" result="blurOut3"/><feBlend in="SourceGraphic" in2="blurOut3" mode="normal"/></filter></defs><g><!--cluster org.junit.jupiter--><polygon fill="#FFFFFF" filter="url(#fjlph2e)" points="22,312,140,312,147,334.4883,680,334.4883,680,495,22,495,22,312" style="stroke: #000000; stroke-width: 2.0;"/><line style="stroke: #000000; stroke-width: 2.0;" x1="22" x2="147" y1="334.4883" y2="334.4883"/><text fill="#000000" font-family="Open Sans" font-size="14" font-weight="bold" lengthAdjust="spacingAndGlyphs" textLength="112" x="26" y="327.5352">org.junit.jupiter</text><!--cluster org.junit.vintage--><polygon fill="#FFFFFF" filter="url(#fjlph2e)" points="754,312,877,312,884,334.4883,950,334.4883,950,495,754,495,754,312" style="stroke: #000000; stroke-width: 2.0;"/><line style="stroke: #000000; stroke-width: 2.0;" x1="754" x2="884" y1="334.4883" y2="334.4883"/><text fill="#000000" font-family="Open Sans" font-size="14" font-weight="bold" lengthAdjust="spacingAndGlyphs" textLength="117" x="758" y="327.5352">org.junit.vintage</text><!--cluster org.junit.platform--><polygon fill="#FFFFFF" filter="url(#fjlph2e)" points="974,24,1107,24,1114,46.4883,1674,46.4883,1674,606,974,606,974,24" style="stroke: #000000; stroke-width: 2.0;"/><line style="stroke: #000000; stroke-width: 2.0;" x1="974" x2="1114" y1="46.4883" y2="46.4883"/><text fill="#000000" font-family="Open Sans" font-size="14" font-weight="bold" lengthAdjust="spacingAndGlyphs" textLength="127" x="978" y="39.5352">org.junit.platform</text><!--cluster org.opentest4j--><polygon fill="#FFFFFF" filter="url(#fjlph2e)" points="672,519,782,519,789,541.4883,798,541.4883,798,606,672,606,672,519" style="stroke: #000000; stroke-width: 2.0;"/><line style="stroke: #000000; stroke-width: 2.0;" x1="672" x2="789" y1="541.4883" y2="541.4883"/><text fill="#000000" font-family="Open Sans" font-size="14" font-weight="bold" lengthAdjust="spacingAndGlyphs" textLength="104" x="676" y="534.5352">org.opentest4j</text><!--cluster org.apiguardian--><polygon fill="#FFFFFF" filter="url(#fjlph2e)" points="1698,24,1816,24,1823,46.4883,1918,46.4883,1918,288,1698,288,1698,24" style="stroke: #000000; stroke-width: 2.0;"/><line style="stroke: #000000; stroke-width: 2.0;" x1="1698" x2="1823" y1="46.4883" y2="46.4883"/><text fill="#000000" font-family="Open Sans" font-size="14" font-weight="bold" lengthAdjust="spacingAndGlyphs" textLength="112" x="1702" y="39.5352">org.apiguardian</text><!--entity jupiter_api--><rect fill="#FEFECE" filter="url(#fjlph2e)" height="36.4883" style="stroke: #A80036; stroke-width: 1.5;" width="133" x="517.5" y="443"/><rect fill="#FEFECE" height="5" style="stroke: #A80036; stroke-width: 1.5;" width="10" x="512.5" y="448"/><rect fill="#FEFECE" height="5" style="stroke: #A80036; stroke-width: 1.5;" width="10" x="512.5" y="469.4883"/><text fill="#000000" font-family="Open Sans" font-size="14" lengthAdjust="spacingAndGlyphs" textLength="113" x="527.5" y="466.5352">junit-jupiter-api</text><!--entity jupiter_engine--><rect fill="#FEFECE" filter="url(#fjlph2e)" height="36.4883" style="stroke: #A80036; stroke-width: 1.5;" width="159" x="504.5" y="347"/><rect fill="#FEFECE" height="5" style="stroke: #A80036; stroke-width: 1.5;" width="10" x="499.5" y="352"/><rect fill="#FEFECE" height="5" style="stroke: #A80036; stroke-width: 1.5;" width="10" x="499.5" y="373.4883"/><text fill="#000000" font-family="Open Sans" font-size="14" lengthAdjust="spacingAndGlyphs" textLength="139" x="514.5" y="370.5352">junit-jupiter-engine</text><!--entity jupiter_params--><rect fill="#FEFECE" filter="url(#fjlph2e)" height="36.4883" style="stroke: #A80036; stroke-width: 1.5;" width="163" x="38.5" y="347"/><rect fill="#FEFECE" height="5" style="stroke: #A80036; stroke-width: 1.5;" width="10" x="33.5" y="352"/><rect fill="#FEFECE" height="5" style="stroke: #A80036; stroke-width: 1.5;" width="10" x="33.5" y="373.4883"/><text fill="#000000" font-family="Open Sans" font-size="14" lengthAdjust="spacingAndGlyphs" textLength="143" x="48.5" y="370.5352">junit-jupiter-params</text><!--entity jupiter_migration_support--><rect fill="#FEFECE" filter="url(#fjlph2e)" height="36.4883" style="stroke: #A80036; stroke-width: 1.5;" width="233" x="236.5" y="347"/><rect fill="#FEFECE" height="5" style="stroke: #A80036; stroke-width: 1.5;" width="10" x="231.5" y="352"/><rect fill="#FEFECE" height="5" style="stroke: #A80036; stroke-width: 1.5;" width="10" x="231.5" y="373.4883"/><text fill="#000000" font-family="Open Sans" font-size="14" lengthAdjust="spacingAndGlyphs" textLength="213" x="246.5" y="370.5352">junit-jupiter-migrationsupport</text><!--entity vintage_engine--><rect fill="#FEFECE" filter="url(#fjlph2e)" height="36.4883" style="stroke: #A80036; stroke-width: 1.5;" width="164" x="770" y="347"/><rect fill="#FEFECE" height="5" style="stroke: #A80036; stroke-width: 1.5;" width="10" x="765" y="352"/><rect fill="#FEFECE" height="5" style="stroke: #A80036; stroke-width: 1.5;" width="10" x="765" y="373.4883"/><text fill="#000000" font-family="Open Sans" font-size="14" lengthAdjust="spacingAndGlyphs" textLength="144" x="780" y="370.5352">junit-vintage-engine</text><!--entity junit4--><rect fill="#FEFECE" filter="url(#fjlph2e)" height="36.4883" style="stroke: #A80036; stroke-width: 1.5;" width="86" x="770" y="443"/><rect fill="#FEFECE" height="5" style="stroke: #A80036; stroke-width: 1.5;" width="10" x="765" y="448"/><rect fill="#FEFECE" height="5" style="stroke: #A80036; stroke-width: 1.5;" width="10" x="765" y="469.4883"/><text fill="#000000" font-family="Open Sans" font-size="14" lengthAdjust="spacingAndGlyphs" textLength="66" x="780" y="466.5352">junit:junit</text><!--entity commons--><rect fill="#FEFECE" filter="url(#fjlph2e)" height="36.4883" style="stroke: #A80036; stroke-width: 1.5;" width="193" x="990.5" y="554"/><rect fill="#FEFECE" height="5" style="stroke: #A80036; stroke-width: 1.5;" width="10" x="985.5" y="559"/><rect fill="#FEFECE" height="5" style="stroke: #A80036; stroke-width: 1.5;" width="10" x="985.5" y="580.4883"/><text fill="#000000" font-family="Open Sans" font-size="14" lengthAdjust="spacingAndGlyphs" textLength="173" x="1000.5" y="577.5352">junit-platform-commons</text><!--entity console--><rect fill="#FEFECE" filter="url(#fjlph2e)" height="36.4883" style="stroke: #A80036; stroke-width: 1.5;" width="179" x="1478.5" y="195.5"/><rect fill="#FEFECE" height="5" style="stroke: #A80036; stroke-width: 1.5;" width="10" x="1473.5" y="200.5"/><rect fill="#FEFECE" height="5" style="stroke: #A80036; stroke-width: 1.5;" width="10" x="1473.5" y="221.9883"/><text fill="#000000" font-family="Open Sans" font-size="14" lengthAdjust="spacingAndGlyphs" textLength="159" x="1488.5" y="219.0352">junit-platform-console</text><!--entity engine--><rect fill="#FEFECE" filter="url(#fjlph2e)" height="36.4883" style="stroke: #A80036; stroke-width: 1.5;" width="173" x="990.5" y="443"/><rect fill="#FEFECE" height="5" style="stroke: #A80036; stroke-width: 1.5;" width="10" x="985.5" y="448"/><rect fill="#FEFECE" height="5" style="stroke: #A80036; stroke-width: 1.5;" width="10" x="985.5" y="469.4883"/><text fill="#000000" font-family="Open Sans" font-size="14" lengthAdjust="spacingAndGlyphs" textLength="153" x="1000.5" y="466.5352">junit-platform-engine</text><!--entity gradle--><rect fill="#FEFECE" filter="url(#fjlph2e)" height="36.4883" style="stroke: #A80036; stroke-width: 1.5;" width="222" x="1436" y="59"/><rect fill="#FEFECE" height="5" style="stroke: #A80036; stroke-width: 1.5;" width="10" x="1431" y="64"/><rect fill="#FEFECE" height="5" style="stroke: #A80036; stroke-width: 1.5;" width="10" x="1431" y="85.4883"/><text fill="#000000" font-family="Open Sans" font-size="14" lengthAdjust="spacingAndGlyphs" textLength="202" x="1446" y="82.5352">junit-platform-gradle-plugin</text><!--entity launcher--><rect fill="#FEFECE" filter="url(#fjlph2e)" height="36.4883" style="stroke: #A80036; stroke-width: 1.5;" width="186" x="1199" y="347"/><rect fill="#FEFECE" height="5" style="stroke: #A80036; stroke-width: 1.5;" width="10" x="1194" y="352"/><rect fill="#FEFECE" height="5" style="stroke: #A80036; stroke-width: 1.5;" width="10" x="1194" y="373.4883"/><text fill="#000000" font-family="Open Sans" font-size="14" lengthAdjust="spacingAndGlyphs" textLength="166" x="1209" y="370.5352">junit-platform-launcher</text><!--entity runner--><rect fill="#FEFECE" filter="url(#fjlph2e)" height="36.4883" style="stroke: #A80036; stroke-width: 1.5;" width="173" x="990.5" y="195.5"/><rect fill="#FEFECE" height="5" style="stroke: #A80036; stroke-width: 1.5;" width="10" x="985.5" y="200.5"/><rect fill="#FEFECE" height="5" style="stroke: #A80036; stroke-width: 1.5;" width="10" x="985.5" y="221.9883"/><text fill="#000000" font-family="Open Sans" font-size="14" lengthAdjust="spacingAndGlyphs" textLength="153" x="1000.5" y="219.0352">junit-platform-runner</text><!--entity suite_api--><rect fill="#FEFECE" filter="url(#fjlph2e)" height="36.4883" style="stroke: #A80036; stroke-width: 1.5;" width="188" x="1199" y="443"/><rect fill="#FEFECE" height="5" style="stroke: #A80036; stroke-width: 1.5;" width="10" x="1194" y="448"/><rect fill="#FEFECE" height="5" style="stroke: #A80036; stroke-width: 1.5;" width="10" x="1194" y="469.4883"/><text fill="#000000" font-family="Open Sans" font-size="14" lengthAdjust="spacingAndGlyphs" textLength="168" x="1209" y="466.5352">junit-platform-suite-api</text><!--entity surefire--><rect fill="#FEFECE" filter="url(#fjlph2e)" height="36.4883" style="stroke: #A80036; stroke-width: 1.5;" width="245" x="1198.5" y="195.5"/><rect fill="#FEFECE" height="5" style="stroke: #A80036; stroke-width: 1.5;" width="10" x="1193.5" y="200.5"/><rect fill="#FEFECE" height="5" style="stroke: #A80036; stroke-width: 1.5;" width="10" x="1193.5" y="221.9883"/><text fill="#000000" font-family="Open Sans" font-size="14" lengthAdjust="spacingAndGlyphs" textLength="225" x="1208.5" y="219.0352">junit-platform-surefire-provider</text><!--entity opentest4j--><rect fill="#FEFECE" filter="url(#fjlph2e)" height="36.4883" style="stroke: #A80036; stroke-width: 1.5;" width="93" x="688.5" y="554"/><rect fill="#FEFECE" height="5" style="stroke: #A80036; stroke-width: 1.5;" width="10" x="683.5" y="559"/><rect fill="#FEFECE" height="5" style="stroke: #A80036; stroke-width: 1.5;" width="10" x="683.5" y="580.4883"/><text fill="#000000" font-family="Open Sans" font-size="14" lengthAdjust="spacingAndGlyphs" textLength="73" x="698.5" y="577.5352">opentest4j</text><!--entity apiguardian--><rect fill="#FEFECE" filter="url(#fjlph2e)" height="36.4883" style="stroke: #A80036; stroke-width: 1.5;" width="132" x="1742" y="59"/><rect fill="#FEFECE" height="5" style="stroke: #A80036; stroke-width: 1.5;" width="10" x="1737" y="64"/><rect fill="#FEFECE" height="5" style="stroke: #A80036; stroke-width: 1.5;" width="10" x="1737" y="85.4883"/><text fill="#000000" font-family="Open Sans" font-size="14" lengthAdjust="spacingAndGlyphs" textLength="112" x="1752" y="82.5352">apiguardian-api</text><polygon fill="#FFFFFF" filter="url(#fjlph2e)" points="1714,155,1714,272.1738,1902,272.1738,1902,165,1892,155,1714,155" style="stroke: #A80036; stroke-width: 1.0;"/><polygon fill="#FFFFFF" points="1714,155,1714,272.1738,1902,272.1738,1902,165,1892,155,1812,155,1808,95.1261,1804,155,1714,155" style="stroke: #A80036; stroke-width: 1.0;"/><line style="stroke: #A80036; stroke-width: 1.0;" x1="1892" x2="1892" y1="155" y2="165"/><line style="stroke: #A80036; stroke-width: 1.0;" x1="1902" x2="1892" y1="165" y2="165"/><text fill="#000000" font-family="Open Sans" font-size="13" lengthAdjust="spacingAndGlyphs" textLength="119" x="1720" y="172.5684">All artifacts except</text><text fill="#000000" font-family="Open Sans" font-size="13" lengthAdjust="spacingAndGlyphs" textLength="160" x="1720" y="187.8789">opentest4j and junit:junit</text><text fill="#000000" font-family="Open Sans" font-size="13" lengthAdjust="spacingAndGlyphs" textLength="167" x="1720" y="203.1895">have a dependency on this</text><text fill="#000000" font-family="Open Sans" font-size="13" lengthAdjust="spacingAndGlyphs" textLength="150" x="1720" y="218.5">artifact. The edges have</text><text fill="#000000" font-family="Open Sans" font-size="13" lengthAdjust="spacingAndGlyphs" textLength="145" x="1720" y="233.8105">been omitted from this</text><text fill="#000000" font-family="Open Sans" font-size="13" lengthAdjust="spacingAndGlyphs" textLength="147" x="1720" y="249.1211">diagram for the sake of</text><text fill="#000000" font-family="Open Sans" font-size="13" lengthAdjust="spacingAndGlyphs" textLength="70" x="1720" y="264.4316">readability.</text><path d="M608.5968,479.0811 C635.36,498.7547 678.0965,530.1703 706.3533,550.9419 " fill="none" style="stroke: #A80036; stroke-width: 1.0; stroke-dasharray: 7.0,7.0;"/><polygon fill="#A80036" points="710.4137,553.9266,705.5314,545.373,706.3851,550.9651,700.793,551.8188,710.4137,553.9266" style="stroke: #A80036; stroke-width: 1.0;"/><path d="M650.7928,478.5234 C682.0366,486.4574 719.8141,495.6767 754,503 C773.4352,507.1634 778.4965,507.1694 798,511 C865.7705,524.3105 942.2249,540.4998 999.4673,552.8545 " fill="none" style="stroke: #A80036; stroke-width: 1.0; stroke-dasharray: 7.0,7.0;"/><polygon fill="#A80036" points="1004.5969,553.9625,996.6444,548.1524,999.7096,552.9068,994.9552,555.972,1004.5969,553.9625" style="stroke: #A80036; stroke-width: 1.0;"/><path d="M663.7569,380.5308 C751.7057,397.6567 892.9668,425.1639 985.3894,443.161 " fill="none" style="stroke: #A80036; stroke-width: 1.0; stroke-dasharray: 7.0,7.0;"/><polygon fill="#A80036" points="990.303,444.1178,982.2337,438.4711,985.3952,443.162,980.7043,446.3235,990.303,444.1178" style="stroke: #A80036; stroke-width: 1.0;"/><path d="M584,383.0569 C584,398.5126 584,420.8647 584,437.6731 " fill="none" style="stroke: #A80036; stroke-width: 1.0; stroke-dasharray: 7.0,7.0;"/><polygon fill="#A80036" points="584,442.6977,588,433.6977,584,437.6977,580,433.6977,584,442.6977" style="stroke: #A80036; stroke-width: 1.0;"/><path d="M201.6195,381.8868 C289.7079,400.112 428.6195,428.8523 512.542,446.2156 " fill="none" style="stroke: #A80036; stroke-width: 1.0; stroke-dasharray: 7.0,7.0;"/><polygon fill="#A80036" points="517.491,447.2395,509.4881,441.499,512.5947,446.2265,507.8672,449.3331,517.491,447.2395" style="stroke: #A80036; stroke-width: 1.0;"/><path d="M396.4493,383.0569 C436.09,399.5309 494.5835,423.8399 535.6813,440.9195 " fill="none" style="stroke: #A80036; stroke-width: 1.0; stroke-dasharray: 7.0,7.0;"/><polygon fill="#A80036" points="540.3534,442.8612,533.5778,435.7134,535.7363,440.9422,530.5075,443.1007,540.3534,442.8612" style="stroke: #A80036; stroke-width: 1.0;"/><path d="M439.2525,383.0005 C535.4759,403.0819 687.7271,434.8561 764.8369,450.9486 " fill="none" style="stroke: #A80036; stroke-width: 1.0; stroke-dasharray: 7.0,7.0;"/><polygon fill="#A80036" points="769.8059,451.9856,761.813,446.2312,764.9114,450.964,760.1785,454.0624,769.8059,451.9856" style="stroke: #A80036; stroke-width: 1.0;"/><path d="M1547.8675,231.7056 C1527.1933,249.7328 1493.5286,277.2791 1461,296 C1426.3117,315.9638 1384.72,333.0226 1351.4777,345.1841 " fill="none" style="stroke: #A80036; stroke-width: 1.0; stroke-dasharray: 7.0,7.0;"/><polygon fill="#A80036" points="1346.6356,346.9427,1356.4604,347.63,1351.3352,345.2358,1353.7294,340.1106,1346.6356,346.9427" style="stroke: #A80036; stroke-width: 1.0;"/><path d="M1549.7886,95.1261 C1553.5541,119.6019 1560.2685,163.2454 1564.4079,190.1515 " fill="none" style="stroke: #A80036; stroke-width: 1.0; stroke-dasharray: 7.0,7.0;"/><polygon fill="#A80036" points="1565.1998,195.2989,1567.7845,185.7953,1564.4394,190.3571,1559.8776,187.0119,1565.1998,195.2989" style="stroke: #A80036; stroke-width: 1.0;"/><path d="M1251.5601,383.0569 C1214.7399,399.4975 1160.4439,423.7413 1122.2049,440.8155 " fill="none" style="stroke: #A80036; stroke-width: 1.0; stroke-dasharray: 7.0,7.0;"/><polygon fill="#A80036" points="1117.6234,442.8612,1127.4722,442.8442,1122.189,440.8226,1124.2105,435.5393,1117.6234,442.8612" style="stroke: #A80036; stroke-width: 1.0;"/><path d="M1022.6494,479.0913 C1000.1765,486.5412 973.8471,495.2303 950,503 C894.1912,521.1832 830.117,541.7003 786.5373,555.601 " fill="none" style="stroke: #A80036; stroke-width: 1.0; stroke-dasharray: 7.0,7.0;"/><polygon fill="#A80036" points="781.5917,557.1782,791.3816,558.2546,786.3553,555.659,788.9509,550.6328,781.5917,557.1782" style="stroke: #A80036; stroke-width: 1.0;"/><path d="M1078.6513,479.3294 C1080.3594,498.2891 1083.0324,527.9599 1084.8921,548.6019 " fill="none" style="stroke: #A80036; stroke-width: 1.0; stroke-dasharray: 7.0,7.0;"/><polygon fill="#A80036" points="1085.3463,553.6434,1088.5225,544.3207,1084.8976,548.6636,1080.5548,545.0387,1085.3463,553.6434" style="stroke: #A80036; stroke-width: 1.0;"/><path d="M1098.3562,231.6264 C1119.0005,248.8608 1151.413,275.1712 1181,296 C1205.5262,313.2661 1234.3192,331.0983 1256.4333,344.3085 " fill="none" style="stroke: #A80036; stroke-width: 1.0; stroke-dasharray: 7.0,7.0;"/><polygon fill="#A80036" points="1260.7639,346.8874,1255.0779,338.8457,1256.468,344.3291,1250.9846,345.7192,1260.7639,346.8874" style="stroke: #A80036; stroke-width: 1.0;"/><path d="M1085.2152,231.6915 C1100.6969,264.5983 1136.741,335.0404 1182,383 C1203.5199,405.804 1232.6749,425.9837 1255.7048,440.1019 " fill="none" style="stroke: #A80036; stroke-width: 1.0; stroke-dasharray: 7.0,7.0;"/><polygon fill="#A80036" points="1260.225,442.8437,1254.6045,434.756,1255.95,440.2506,1250.4555,441.596,1260.225,442.8437" style="stroke: #A80036; stroke-width: 1.0;"/><path d="M990.3906,225.7719 C904.504,239.9242 781.6877,266.2011 753,304 C731.7734,331.9682 741.694,349.759 753,383 C760.2914,404.4377 776.1156,424.585 789.6827,439.0318 " fill="none" style="stroke: #A80036; stroke-width: 1.0; stroke-dasharray: 7.0,7.0;"/><polygon fill="#A80036" points="793.4405,442.9517,790.0998,433.6867,789.9804,439.3423,784.3248,439.2229,793.4405,442.9517" style="stroke: #A80036; stroke-width: 1.0;"/><path d="M1259.4441,479.0811 C1222.6335,498.916 1163.6727,530.6861 1125.1369,551.4505 " fill="none" style="stroke: #A80036; stroke-width: 1.0; stroke-dasharray: 7.0,7.0;"/><polygon fill="#A80036" points="1120.5416,553.9266,1130.362,553.1786,1124.9432,551.5548,1126.5671,546.136,1120.5416,553.9266" style="stroke: #A80036; stroke-width: 1.0;"/><path d="M1317.5019,231.7744 C1312.2328,259.301 1302.2616,311.3918 1296.4717,341.6395 " fill="none" style="stroke: #A80036; stroke-width: 1.0; stroke-dasharray: 7.0,7.0;"/><polygon fill="#A80036" points="1295.5105,346.6607,1301.1312,338.5732,1296.4505,341.7499,1293.2738,337.0692,1295.5105,346.6607" style="stroke: #A80036; stroke-width: 1.0;"/><path d="M894.3208,383.0569 C932.8535,399.4975 989.675,423.7413 1029.6926,440.8155 " fill="none" style="stroke: #A80036; stroke-width: 1.0; stroke-dasharray: 7.0,7.0;"/><polygon fill="#A80036" points="1034.4871,442.8612,1027.779,435.65,1029.8882,440.8989,1024.6393,443.0082,1034.4871,442.8612" style="stroke: #A80036; stroke-width: 1.0;"/><path d="M844.6644,383.0569 C838.3855,398.5126 829.305,420.8647 822.4766,437.6731 " fill="none" style="stroke: #A80036; stroke-width: 1.0; stroke-dasharray: 7.0,7.0;"/><polygon fill="#A80036" points="820.4353,442.6977,827.5285,435.8649,822.3171,438.0653,820.1167,432.854,820.4353,442.6977" style="stroke: #A80036; stroke-width: 1.0;"/></g></svg>