<?xml version="1.0" encoding="UTF-8" standalone="no"?><svg xmlns="http://www.w3.org/2000/svg" xmlns:xlink="http://www.w3.org/1999/xlink" contentScriptType="application/ecmascript" contentStyleType="text/css" height="596px" preserveAspectRatio="none" style="width:1746px;height:596px;" version="1.1" viewBox="0 0 1746 596" width="1746px" zoomAndPan="magnify"><defs><filter height="300%" id="fz2xs20j49f9r" width="300%" x="-1" y="-1"><feGaussianBlur result="blurOut" stdDeviation="2.0"/><feColorMatrix in="blurOut" result="blurOut2" type="matrix" values="0 0 0 0 0 0 0 0 0 0 0 0 0 0 0 0 0 0 .4 0"/><feOffset dx="4.0" dy="4.0" in="blurOut2" result="blurOut3"/><feBlend in="SourceGraphic" in2="blurOut3" mode="normal"/></filter></defs><g><!--cluster org.junit.jupiter--><polygon fill="#FFFFFF" filter="url(#fz2xs20j49f9r)" points="861.6469,162.5,976.6469,162.5,983.6469,187.5654,1518.6469,187.5654,1518.6469,485,861.6469,485,861.6469,162.5" style="stroke: #000000; stroke-width: 1.5;"/><line style="stroke: #000000; stroke-width: 1.5;" x1="861.6469" x2="983.6469" y1="187.5654" y2="187.5654"/><text fill="#000000" font-family="Open Sans" font-size="14" font-weight="bold" lengthAdjust="spacingAndGlyphs" textLength="109" x="865.6469" y="179.4639">org.junit.jupiter</text><!--cluster org.junit.vintage--><polygon fill="#FFFFFF" filter="url(#fz2xs20j49f9r)" points="42.6469,309,162.6469,309,169.6469,334.0654,214.6469,334.0654,214.6469,485,42.6469,485,42.6469,309" style="stroke: #000000; stroke-width: 1.5;"/><line style="stroke: #000000; stroke-width: 1.5;" x1="42.6469" x2="169.6469" y1="334.0654" y2="334.0654"/><text fill="#000000" font-family="Open Sans" font-size="14" font-weight="bold" lengthAdjust="spacingAndGlyphs" textLength="114" x="46.6469" y="325.9639">org.junit.vintage</text><!--cluster org.junit.platform--><polygon fill="#FFFFFF" filter="url(#fz2xs20j49f9r)" points="222.6469,16,352.6469,16,359.6469,41.0654,853.6469,41.0654,853.6469,584,222.6469,584,222.6469,16" style="stroke: #000000; stroke-width: 1.5;"/><line style="stroke: #000000; stroke-width: 1.5;" x1="222.6469" x2="359.6469" y1="41.0654" y2="41.0654"/><text fill="#000000" font-family="Open Sans" font-size="14" font-weight="bold" lengthAdjust="spacingAndGlyphs" textLength="124" x="226.6469" y="32.9639">org.junit.platform</text><!--cluster org.opentest4j--><polygon fill="#FFFFFF" filter="url(#fz2xs20j49f9r)" points="97.6469,507,204.6469,507,211.6469,532.0654,214.6469,532.0654,214.6469,584,97.6469,584,97.6469,507" style="stroke: #000000; stroke-width: 1.5;"/><line style="stroke: #000000; stroke-width: 1.5;" x1="97.6469" x2="211.6469" y1="532.0654" y2="532.0654"/><text fill="#000000" font-family="Open Sans" font-size="14" font-weight="bold" lengthAdjust="spacingAndGlyphs" textLength="101" x="101.6469" y="523.9639">org.opentest4j</text><!--cluster org.apiguardian--><polygon fill="#FFFFFF" filter="url(#fz2xs20j49f9r)" points="1526.6469,16,1641.6469,16,1648.6469,41.0654,1724.6469,41.0654,1724.6469,287,1526.6469,287,1526.6469,16" style="stroke: #000000; stroke-width: 1.5;"/><line style="stroke: #000000; stroke-width: 1.5;" x1="1526.6469" x2="1648.6469" y1="41.0654" y2="41.0654"/><text fill="#000000" font-family="Open Sans" font-size="14" font-weight="bold" lengthAdjust="spacingAndGlyphs" textLength="109" x="1530.6469" y="32.9639">org.apiguardian</text><!--entity jupiter--><rect fill="#FEFECE" filter="url(#fz2xs20j49f9r)" height="39.0654" style="stroke: #A80036; stroke-width: 1.5;" width="101" x="1344.1469" y="192.5"/><rect fill="#FEFECE" height="5" style="stroke: #A80036; stroke-width: 1.5;" width="10" x="1339.1469" y="197.5"/><rect fill="#FEFECE" height="5" style="stroke: #A80036; stroke-width: 1.5;" width="10" x="1339.1469" y="221.5654"/><text fill="#000000" font-family="Open Sans" font-size="14" lengthAdjust="spacingAndGlyphs" textLength="81" x="1354.1469" y="217.4639">junit-jupiter</text><!--entity jupiter_api--><rect fill="#FEFECE" filter="url(#fz2xs20j49f9r)" height="39.0654" style="stroke: #A80036; stroke-width: 1.5;" width="127" x="1029.1469" y="438"/><rect fill="#FEFECE" height="5" style="stroke: #A80036; stroke-width: 1.5;" width="10" x="1024.1469" y="443"/><rect fill="#FEFECE" height="5" style="stroke: #A80036; stroke-width: 1.5;" width="10" x="1024.1469" y="467.0654"/><text fill="#000000" font-family="Open Sans" font-size="14" lengthAdjust="spacingAndGlyphs" textLength="107" x="1039.1469" y="462.9639">junit-jupiter-api</text><!--entity jupiter_engine--><rect fill="#FEFECE" filter="url(#fz2xs20j49f9r)" height="39.0654" style="stroke: #A80036; stroke-width: 1.5;" width="152" x="1128.6469" y="339"/><rect fill="#FEFECE" height="5" style="stroke: #A80036; stroke-width: 1.5;" width="10" x="1123.6469" y="344"/><rect fill="#FEFECE" height="5" style="stroke: #A80036; stroke-width: 1.5;" width="10" x="1123.6469" y="368.0654"/><text fill="#000000" font-family="Open Sans" font-size="14" lengthAdjust="spacingAndGlyphs" textLength="132" x="1138.6469" y="363.9639">junit-jupiter-engine</text><!--entity jupiter_params--><rect fill="#FEFECE" filter="url(#fz2xs20j49f9r)" height="39.0654" style="stroke: #A80036; stroke-width: 1.5;" width="157" x="1316.1469" y="339"/><rect fill="#FEFECE" height="5" style="stroke: #A80036; stroke-width: 1.5;" width="10" x="1311.1469" y="344"/><rect fill="#FEFECE" height="5" style="stroke: #A80036; stroke-width: 1.5;" width="10" x="1311.1469" y="368.0654"/><text fill="#000000" font-family="Open Sans" font-size="14" lengthAdjust="spacingAndGlyphs" textLength="137" x="1326.1469" y="363.9639">junit-jupiter-params</text><!--entity jupiter_migration_support--><rect fill="#FEFECE" filter="url(#fz2xs20j49f9r)" height="39.0654" style="stroke: #A80036; stroke-width: 1.5;" width="224" x="869.6469" y="339"/><rect fill="#FEFECE" height="5" style="stroke: #A80036; stroke-width: 1.5;" width="10" x="864.6469" y="344"/><rect fill="#FEFECE" height="5" style="stroke: #A80036; stroke-width: 1.5;" width="10" x="864.6469" y="368.0654"/><text fill="#000000" font-family="Open Sans" font-size="14" lengthAdjust="spacingAndGlyphs" textLength="204" x="879.6469" y="363.9639">junit-jupiter-migrationsupport</text><!--entity vintage_engine--><rect fill="#FEFECE" filter="url(#fz2xs20j49f9r)" height="39.0654" style="stroke: #A80036; stroke-width: 1.5;" width="156" x="50.6469" y="339"/><rect fill="#FEFECE" height="5" style="stroke: #A80036; stroke-width: 1.5;" width="10" x="45.6469" y="344"/><rect fill="#FEFECE" height="5" style="stroke: #A80036; stroke-width: 1.5;" width="10" x="45.6469" y="368.0654"/><text fill="#000000" font-family="Open Sans" font-size="14" lengthAdjust="spacingAndGlyphs" textLength="136" x="60.6469" y="363.9639">junit-vintage-engine</text><!--entity junit4--><rect fill="#FEFECE" filter="url(#fz2xs20j49f9r)" height="39.0654" style="stroke: #A80036; stroke-width: 1.5;" width="86" x="85.6469" y="438"/><rect fill="#FEFECE" height="5" style="stroke: #A80036; stroke-width: 1.5;" width="10" x="80.6469" y="443"/><rect fill="#FEFECE" height="5" style="stroke: #A80036; stroke-width: 1.5;" width="10" x="80.6469" y="467.0654"/><text fill="#000000" font-family="Open Sans" font-size="14" lengthAdjust="spacingAndGlyphs" textLength="66" x="95.6469" y="462.9639">junit:junit</text><!--entity commons--><rect fill="#FEFECE" filter="url(#fz2xs20j49f9r)" height="39.0654" style="stroke: #A80036; stroke-width: 1.5;" width="184" x="598.6469" y="537"/><rect fill="#FEFECE" height="5" style="stroke: #A80036; stroke-width: 1.5;" width="10" x="593.6469" y="542"/><rect fill="#FEFECE" height="5" style="stroke: #A80036; stroke-width: 1.5;" width="10" x="593.6469" y="566.0654"/><text fill="#000000" font-family="Open Sans" font-size="14" lengthAdjust="spacingAndGlyphs" textLength="164" x="608.6469" y="561.9639">junit-platform-commons</text><!--entity console--><rect fill="#FEFECE" filter="url(#fz2xs20j49f9r)" height="39.0654" style="stroke: #A80036; stroke-width: 1.5;" width="170" x="605.6469" y="46"/><rect fill="#FEFECE" height="5" style="stroke: #A80036; stroke-width: 1.5;" width="10" x="600.6469" y="51"/><rect fill="#FEFECE" height="5" style="stroke: #A80036; stroke-width: 1.5;" width="10" x="600.6469" y="75.0654"/><text fill="#000000" font-family="Open Sans" font-size="14" lengthAdjust="spacingAndGlyphs" textLength="150" x="615.6469" y="70.9639">junit-platform-console</text><!--entity engine--><rect fill="#FEFECE" filter="url(#fz2xs20j49f9r)" height="39.0654" style="stroke: #A80036; stroke-width: 1.5;" width="165" x="545.1469" y="438"/><rect fill="#FEFECE" height="5" style="stroke: #A80036; stroke-width: 1.5;" width="10" x="540.1469" y="443"/><rect fill="#FEFECE" height="5" style="stroke: #A80036; stroke-width: 1.5;" width="10" x="540.1469" y="467.0654"/><text fill="#000000" font-family="Open Sans" font-size="14" lengthAdjust="spacingAndGlyphs" textLength="145" x="555.1469" y="462.9639">junit-platform-engine</text><!--entity launcher--><rect fill="#FEFECE" filter="url(#fz2xs20j49f9r)" height="39.0654" style="stroke: #A80036; stroke-width: 1.5;" width="179" x="538.1469" y="339"/><rect fill="#FEFECE" height="5" style="stroke: #A80036; stroke-width: 1.5;" width="10" x="533.1469" y="344"/><rect fill="#FEFECE" height="5" style="stroke: #A80036; stroke-width: 1.5;" width="10" x="533.1469" y="368.0654"/><text fill="#000000" font-family="Open Sans" font-size="14" lengthAdjust="spacingAndGlyphs" textLength="159" x="548.1469" y="363.9639">junit-platform-launcher</text><!--entity reporting--><rect fill="#FEFECE" filter="url(#fz2xs20j49f9r)" height="39.0654" style="stroke: #A80036; stroke-width: 1.5;" width="182" x="663.6469" y="192.5"/><rect fill="#FEFECE" height="5" style="stroke: #A80036; stroke-width: 1.5;" width="10" x="658.6469" y="197.5"/><rect fill="#FEFECE" height="5" style="stroke: #A80036; stroke-width: 1.5;" width="10" x="658.6469" y="221.5654"/><text fill="#000000" font-family="Open Sans" font-size="14" lengthAdjust="spacingAndGlyphs" textLength="162" x="673.6469" y="217.4639">junit-platform-reporting</text><!--entity runner--><rect fill="#FEFECE" filter="url(#fz2xs20j49f9r)" height="39.0654" style="stroke: #A80036; stroke-width: 1.5;" width="166" x="425.6469" y="192.5"/><rect fill="#FEFECE" height="5" style="stroke: #A80036; stroke-width: 1.5;" width="10" x="420.6469" y="197.5"/><rect fill="#FEFECE" height="5" style="stroke: #A80036; stroke-width: 1.5;" width="10" x="420.6469" y="221.5654"/><text fill="#000000" font-family="Open Sans" font-size="14" lengthAdjust="spacingAndGlyphs" textLength="146" x="435.6469" y="217.4639">junit-platform-runner</text><!--entity suite_api--><rect fill="#FEFECE" filter="url(#fz2xs20j49f9r)" height="39.0654" style="stroke: #A80036; stroke-width: 1.5;" width="178" x="324.6469" y="339"/><rect fill="#FEFECE" height="5" style="stroke: #A80036; stroke-width: 1.5;" width="10" x="319.6469" y="344"/><rect fill="#FEFECE" height="5" style="stroke: #A80036; stroke-width: 1.5;" width="10" x="319.6469" y="368.0654"/><text fill="#000000" font-family="Open Sans" font-size="14" lengthAdjust="spacingAndGlyphs" textLength="158" x="334.6469" y="363.9639">junit-platform-suite-api</text><!--entity testkit--><rect fill="#FEFECE" filter="url(#fz2xs20j49f9r)" height="39.0654" style="stroke: #A80036; stroke-width: 1.5;" width="160" x="230.6469" y="192.5"/><rect fill="#FEFECE" height="5" style="stroke: #A80036; stroke-width: 1.5;" width="10" x="225.6469" y="197.5"/><rect fill="#FEFECE" height="5" style="stroke: #A80036; stroke-width: 1.5;" width="10" x="225.6469" y="221.5654"/><text fill="#000000" font-family="Open Sans" font-size="14" lengthAdjust="spacingAndGlyphs" textLength="140" x="240.6469" y="217.4639">junit-platform-testkit</text><!--entity opentest4j--><rect fill="#FEFECE" filter="url(#fz2xs20j49f9r)" height="39.0654" style="stroke: #A80036; stroke-width: 1.5;" width="91" x="115.1469" y="537"/><rect fill="#FEFECE" height="5" style="stroke: #A80036; stroke-width: 1.5;" width="10" x="110.1469" y="542"/><rect fill="#FEFECE" height="5" style="stroke: #A80036; stroke-width: 1.5;" width="10" x="110.1469" y="566.0654"/><text fill="#000000" font-family="Open Sans" font-size="14" lengthAdjust="spacingAndGlyphs" textLength="71" x="125.1469" y="561.9639">opentest4j</text><!--entity apiguardian--><rect fill="#FEFECE" filter="url(#fz2xs20j49f9r)" height="39.0654" style="stroke: #A80036; stroke-width: 1.5;" width="128" x="1561.6469" y="46"/><rect fill="#FEFECE" height="5" style="stroke: #A80036; stroke-width: 1.5;" width="10" x="1556.6469" y="51"/><rect fill="#FEFECE" height="5" style="stroke: #A80036; stroke-width: 1.5;" width="10" x="1556.6469" y="75.0654"/><text fill="#000000" font-family="Open Sans" font-size="14" lengthAdjust="spacingAndGlyphs" textLength="108" x="1571.6469" y="70.9639">apiguardian-api</text><path d="M1535.1469,145 L1535.1469,278.9253 A0,0 0 0 0 1535.1469,278.9253 L1716.1469,278.9253 A0,0 0 0 0 1716.1469,278.9253 L1716.1469,155 L1706.1469,145 L1629.6469,145 L1625.6469,85.2576 L1621.6469,145 L1535.1469,145 A0,0 0 0 0 1535.1469,145 " fill="#FFFFFF" filter="url(#fz2xs20j49f9r)" style="stroke: #A80036; stroke-width: 1.0;"/><path d="M1706.1469,145 L1706.1469,155 L1716.1469,155 L1706.1469,145 " fill="#FFFFFF" style="stroke: #A80036; stroke-width: 1.0;"/><text fill="#000000" font-family="Open Sans" font-size="13" lengthAdjust="spacingAndGlyphs" textLength="108" x="1541.1469" y="163.895">All artifacts except</text><text fill="#000000" font-family="Open Sans" font-size="13" lengthAdjust="spacingAndGlyphs" textLength="150" x="1541.1469" y="181.5986">opentest4j and junit:junit</text><text fill="#000000" font-family="Open Sans" font-size="13" lengthAdjust="spacingAndGlyphs" textLength="160" x="1541.1469" y="199.3022">have a dependency on this</text><text fill="#000000" font-family="Open Sans" font-size="13" lengthAdjust="spacingAndGlyphs" textLength="140" x="1541.1469" y="217.0059">artifact. The edges have</text><text fill="#000000" font-family="Open Sans" font-size="13" lengthAdjust="spacingAndGlyphs" textLength="138" x="1541.1469" y="234.7095">been omitted from this</text><text fill="#000000" font-family="Open Sans" font-size="13" lengthAdjust="spacingAndGlyphs" textLength="137" x="1541.1469" y="252.4131">diagram for the sake of</text><text fill="#000000" font-family="Open Sans" font-size="13" lengthAdjust="spacingAndGlyphs" textLength="66" x="1541.1469" y="270.1167">readability.</text><!--link jupiter to jupiter_api--><path d="M1421.0619,231.7067 C1461.4417,264.184 1529.911,330.1174 1490.6469,378 C1449.7854,427.8307 1264.1317,447.0389 1161.4542,453.9451 " fill="none" id="jupiter-jupiter_api" style="stroke: #A80036; stroke-width: 1.0; stroke-dasharray: 7.0,7.0;"/><polygon fill="#A80036" points="1156.3261,454.2844,1165.5707,457.6812,1161.3152,453.9541,1165.0422,449.6986,1156.3261,454.2844" style="stroke: #A80036; stroke-width: 1.0;"/><!--link jupiter to jupiter_params--><path d="M1394.6469,231.7576 C1394.6469,258.0799 1394.6469,304.6653 1394.6469,333.4323 " fill="none" id="jupiter-jupiter_params" style="stroke: #A80036; stroke-width: 1.0; stroke-dasharray: 7.0,7.0;"/><polygon fill="#A80036" points="1394.6469,338.5875,1398.6469,329.5875,1394.6469,333.5875,1390.6469,329.5875,1394.6469,338.5875" style="stroke: #A80036; stroke-width: 1.0;"/><!--link jupiter to jupiter_engine--><path d="M1369.0227,231.7576 C1334.0791,258.701 1271.6005,306.8753 1234.5559,335.4386 " fill="none" id="jupiter-jupiter_engine" style="stroke: #A80036; stroke-width: 1.0; stroke-dasharray: 7.0,7.0;"/><polygon fill="#A80036" points="1230.1679,338.822,1239.7377,336.494,1234.1275,335.7689,1234.8526,330.1587,1230.1679,338.822" style="stroke: #A80036; stroke-width: 1.0;"/><!--link jupiter_api to opentest4j--><path d="M1029.0568,466.5367 C982.737,472.7607 918.4277,480.6626 861.6469,485 C789.9254,490.4787 281.2315,479.7881 214.6469,507 C201.136,512.5217 188.8864,523.0409 179.4825,532.9671 " fill="none" id="jupiter_api-opentest4j" style="stroke: #A80036; stroke-width: 1.0; stroke-dasharray: 7.0,7.0;"/><polygon fill="#A80036" points="175.8918,536.8756,184.9263,532.9542,179.2745,533.1936,179.0351,527.5418,175.8918,536.8756" style="stroke: #A80036; stroke-width: 1.0;"/><!--link jupiter_api to commons--><path d="M1028.9488,473.1868 C960.2751,490.099 850.6413,517.0984 774.8838,535.7551 " fill="none" id="jupiter_api-commons" style="stroke: #A80036; stroke-width: 1.0; stroke-dasharray: 7.0,7.0;"/><polygon fill="#A80036" points="769.9436,536.9717,779.639,538.7034,774.7985,535.776,777.7259,530.9355,769.9436,536.9717" style="stroke: #A80036; stroke-width: 1.0;"/><!--link jupiter_engine to engine--><path d="M1128.5712,374.735 C1122.8499,375.8691 1117.1605,376.9697 1111.6469,378 C973.7004,403.7786 812.7819,429.3134 715.6359,444.2351 " fill="none" id="jupiter_engine-engine" style="stroke: #A80036; stroke-width: 1.0; stroke-dasharray: 7.0,7.0;"/><polygon fill="#A80036" points="710.4831,445.0259,719.9857,447.6144,715.4252,444.2675,718.7722,439.707,710.4831,445.0259" style="stroke: #A80036; stroke-width: 1.0;"/><!--link jupiter_engine to jupiter_api--><path d="M1182.5193,378.0592 C1164.1114,394.3305 1137.8818,417.5156 1118.5076,434.641 " fill="none" id="jupiter_engine-jupiter_api" style="stroke: #A80036; stroke-width: 1.0; stroke-dasharray: 7.0,7.0;"/><polygon fill="#A80036" points="1114.7286,437.9814,1124.121,435.0177,1118.4748,434.6699,1118.8226,429.0238,1114.7286,437.9814" style="stroke: #A80036; stroke-width: 1.0;"/><!--link jupiter_params to jupiter_api--><path d="M1334.9815,378.0592 C1283.6912,394.8729 1209.8811,419.0689 1157.2175,436.3328 " fill="none" id="jupiter_params-jupiter_api" style="stroke: #A80036; stroke-width: 1.0; stroke-dasharray: 7.0,7.0;"/><polygon fill="#A80036" points="1152.1885,437.9814,1161.9868,438.9785,1156.9397,436.4237,1159.4945,431.3766,1152.1885,437.9814" style="stroke: #A80036; stroke-width: 1.0;"/><!--link jupiter_migration_support to jupiter_api--><path d="M1003.577,378.0592 C1021.8205,394.3305 1047.8159,417.5156 1067.0171,434.641 " fill="none" id="jupiter_migration_support-jupiter_api" style="stroke: #A80036; stroke-width: 1.0; stroke-dasharray: 7.0,7.0;"/><polygon fill="#A80036" points="1070.7625,437.9814,1066.7085,429.0056,1067.0311,434.6533,1061.3834,434.9759,1070.7625,437.9814" style="stroke: #A80036; stroke-width: 1.0;"/><!--link jupiter_migration_support to junit4--><path d="M869.5807,376.9596 C866.9118,377.3189 864.2641,377.6664 861.6469,378 C575.1754,414.5152 499.8517,392.64 214.6469,438 C202.3434,439.9568 189.1722,442.6399 176.928,445.3898 " fill="none" id="jupiter_migration_support-junit4" style="stroke: #A80036; stroke-width: 1.0; stroke-dasharray: 7.0,7.0;"/><polygon fill="#A80036" points="171.7425,446.5705,181.406,448.4724,176.6177,445.4603,179.6297,440.6721,171.7425,446.5705" style="stroke: #A80036; stroke-width: 1.0;"/><!--link console to launcher--><path d="M676.7811,85.0419 C666.5703,100.5285 653.3438,123.1286 646.6469,145 C626.4712,210.8925 625.5427,293.1745 626.5727,333.6541 " fill="none" id="console-launcher" style="stroke: #A80036; stroke-width: 1.0; stroke-dasharray: 7.0,7.0;"/><polygon fill="#A80036" points="626.7218,338.8484,630.4617,329.7373,626.5782,333.8505,622.465,329.967,626.7218,338.8484" style="stroke: #A80036; stroke-width: 1.0;"/><!--link console to reporting--><path d="M699.2783,85.2576 C710.8251,111.6891 731.2978,158.5523 743.8519,187.2895 " fill="none" id="console-reporting" style="stroke: #A80036; stroke-width: 1.0; stroke-dasharray: 7.0,7.0;"/><polygon fill="#A80036" points="745.948,192.0875,746.0104,182.2388,743.9463,187.5057,738.6795,185.4416,745.948,192.0875" style="stroke: #A80036; stroke-width: 1.0;"/><!--link launcher to engine--><path d="M627.6469,378.0592 C627.6469,393.7881 627.6469,415.9776 627.6469,432.9087 " fill="none" id="launcher-engine" style="stroke: #A80036; stroke-width: 1.0; stroke-dasharray: 7.0,7.0;"/><polygon fill="#A80036" points="627.6469,437.9814,631.6469,428.9814,627.6469,432.9814,623.6469,428.9814,627.6469,437.9814" style="stroke: #A80036; stroke-width: 1.0;"/><!--link engine to opentest4j--><path d="M544.7985,461.4358 C441.5276,467.37 271.656,480.8119 214.6469,507 C201.5878,512.999 189.536,523.3465 180.1469,533.0348 " fill="none" id="engine-opentest4j" style="stroke: #A80036; stroke-width: 1.0; stroke-dasharray: 7.0,7.0;"/><polygon fill="#A80036" points="176.5524,536.8465,185.6372,533.043,179.9828,533.2088,179.8169,527.5544,176.5524,536.8465" style="stroke: #A80036; stroke-width: 1.0;"/><!--link engine to commons--><path d="M640.0937,477.0592 C650.1893,492.9237 664.4674,515.3606 675.2758,532.3454 " fill="none" id="engine-commons" style="stroke: #A80036; stroke-width: 1.0; stroke-dasharray: 7.0,7.0;"/><polygon fill="#A80036" points="678.226,536.9814,676.7687,527.241,675.5416,532.7631,670.0194,531.536,678.226,536.9814" style="stroke: #A80036; stroke-width: 1.0;"/><!--link reporting to launcher--><path d="M737.5192,231.7576 C714.4165,258.4075 673.3078,305.8283 648.4539,334.4983 " fill="none" id="reporting-launcher" style="stroke: #A80036; stroke-width: 1.0; stroke-dasharray: 7.0,7.0;"/><polygon fill="#A80036" points="644.909,338.5875,653.8266,334.407,648.1841,334.8094,647.7817,329.1669,644.909,338.5875" style="stroke: #A80036; stroke-width: 1.0;"/><!--link runner to launcher--><path d="M524.6958,231.7576 C546.3431,258.4075 584.8624,305.8283 608.1506,334.4983 " fill="none" id="runner-launcher" style="stroke: #A80036; stroke-width: 1.0; stroke-dasharray: 7.0,7.0;"/><polygon fill="#A80036" points="611.4723,338.5875,608.9025,329.0798,608.3198,334.7066,602.693,334.1238,611.4723,338.5875" style="stroke: #A80036; stroke-width: 1.0;"/><!--link runner to suite_api--><path d="M495.8348,231.7576 C478.6242,258.2983 448.0545,305.4399 429.4404,334.1448 " fill="none" id="runner-suite_api" style="stroke: #A80036; stroke-width: 1.0; stroke-dasharray: 7.0,7.0;"/><polygon fill="#A80036" points="426.5595,338.5875,434.8124,333.2126,429.2799,334.3924,428.1002,328.8599,426.5595,338.5875" style="stroke: #A80036; stroke-width: 1.0;"/><!--link runner to junit4--><path d="M489.7023,231.7172 C471.0031,249.7294 440.6402,275.2835 408.6469,287 C369.4542,301.3531 62.2831,278.6346 33.6469,309 C12.6069,331.3106 20.6682,350.2152 33.6469,378 C44.8635,402.0125 67.2956,421.3291 87.546,434.9065 " fill="none" id="runner-junit4" style="stroke: #A80036; stroke-width: 1.0; stroke-dasharray: 7.0,7.0;"/><polygon fill="#A80036" points="91.8292,437.7163,86.4978,429.4352,87.6484,434.9738,82.1098,436.1244,91.8292,437.7163" style="stroke: #A80036; stroke-width: 1.0;"/><!--link testkit to opentest4j--><path d="M230.4576,227.1288 C151.3451,243.8773 38.5814,273.2844 12.6469,309 C-9.9907,340.1754 34.3172,484.5466 34.6469,485 C53.1673,510.4699 83.7117,528.1291 110.0883,539.5252 " fill="none" id="testkit-opentest4j" style="stroke: #A80036; stroke-width: 1.0; stroke-dasharray: 7.0,7.0;"/><polygon fill="#A80036" points="114.9611,541.5807,108.2235,534.397,110.3542,539.6373,105.114,541.768,114.9611,541.5807" style="stroke: #A80036; stroke-width: 1.0;"/><!--link testkit to launcher--><path d="M330.5978,231.7725 C349.2147,249.0522 378.5691,273.4383 408.6469,287 C454.8924,307.8515 472.3925,293.3495 520.6469,309 C542.903,316.2184 566.6178,326.8601 586.051,336.4287 " fill="none" id="testkit-launcher" style="stroke: #A80036; stroke-width: 1.0; stroke-dasharray: 7.0,7.0;"/><polygon fill="#A80036" points="590.8959,338.8356,584.6153,331.2492,586.418,336.6111,581.0561,338.4138,590.8959,338.8356" style="stroke: #A80036; stroke-width: 1.0;"/><!--link vintage_engine to engine--><path d="M206.8989,376.3576 C209.5114,376.9173 212.0996,377.4662 214.6469,378 C326.583,401.4574 456.1497,425.9709 539.8705,441.4671 " fill="none" id="vintage_engine-engine" style="stroke: #A80036; stroke-width: 1.0; stroke-dasharray: 7.0,7.0;"/><polygon fill="#A80036" points="544.8186,442.3823,536.6963,436.812,539.902,441.4729,535.2412,444.6786,544.8186,442.3823" style="stroke: #A80036; stroke-width: 1.0;"/><!--link vintage_engine to junit4--><path d="M128.6469,378.0592 C128.6469,393.7881 128.6469,415.9776 128.6469,432.9087 " fill="none" id="vintage_engine-junit4" style="stroke: #A80036; stroke-width: 1.0; stroke-dasharray: 7.0,7.0;"/><polygon fill="#A80036" points="128.6469,437.9814,132.6469,428.9814,128.6469,432.9814,124.6469,428.9814,128.6469,437.9814" style="stroke: #A80036; stroke-width: 1.0;"/><!--
@startuml
skinparam {
    defaultFontName Open Sans
}

package org.junit.jupiter {
    [junit-jupiter] as jupiter
    [junit-jupiter-api] as jupiter_api
    [junit-jupiter-engine] as jupiter_engine
    [junit-jupiter-params] as jupiter_params
    [junit-jupiter-migrationsupport] as jupiter_migration_support
}

package org.junit.vintage {
    [junit-vintage-engine] as vintage_engine
    [junit:junit] as junit4
}

package org.junit.platform {
    [junit-platform-commons] as commons
    [junit-platform-console] as console
    [junit-platform-engine] as engine
    [junit-platform-launcher] as launcher
    [junit-platform-reporting] as reporting
    [junit-platform-runner] as runner
    [junit-platform-suite-api] as suite_api
    [junit-platform-testkit] as testkit
}

package org.opentest4j {
    [opentest4j]
}

package org.apiguardian {
    [apiguardian-api] as apiguardian
    note bottom of apiguardian #white
        All artifacts except
        opentest4j and junit:junit
        have a dependency on this
        artifact. The edges have
        been omitted from this
        diagram for the sake of
        readability.
    endnote
}

jupiter ..> jupiter_api
jupiter ..> jupiter_params
jupiter ..> jupiter_engine

jupiter_api ..> opentest4j
jupiter_api ..> commons

jupiter_engine ..> engine
jupiter_engine ..> jupiter_api

jupiter_params ..> jupiter_api
jupiter_migration_support ..> jupiter_api
jupiter_migration_support ..> junit4

console ..> launcher
console ..> reporting

launcher ..> engine

engine ..> opentest4j
engine ..> commons

reporting ..> launcher

runner ..> launcher
runner ..> suite_api
runner ..> junit4

testkit ..> opentest4j
testkit ..> launcher

vintage_engine ..> engine
vintage_engine ..> junit4
@enduml

PlantUML version 1.2018.01(Sun Jan 28 19:08:22 CET 2018)
(APACHE source distribution)
Java Runtime: OpenJDK Runtime Environment
JVM: OpenJDK 64-Bit Server VM
Java Version: 11.0.8+10
Operating System: Mac OS X
OS Version: 10.15.7
Default Encoding: UTF-8
Language: en
Country: DE
--></g></svg>