<?xml version="1.0" encoding="UTF-8" standalone="no"?>
<svg
   xmlns:dc="http://purl.org/dc/elements/1.1/"
   xmlns:cc="http://creativecommons.org/ns#"
   xmlns:rdf="http://www.w3.org/1999/02/22-rdf-syntax-ns#"
   xmlns:svg="http://www.w3.org/2000/svg"
   xmlns="http://www.w3.org/2000/svg"
   version="1.1"
   id="svg2"
   viewBox="0 0 105.9956 106"
   height="106"
   width="105.9956">
  <defs
     id="defs4" />
  <metadata
     id="metadata7">
    <rdf:RDF>
      <cc:Work
         rdf:about="">
        <dc:format>image/svg+xml</dc:format>
        <dc:type
           rdf:resource="http://purl.org/dc/dcmitype/StillImage" />
        <dc:title></dc:title>
      </cc:Work>
    </rdf:RDF>
  </metadata>
  <g
     transform="translate(-1690.9939,-660.30924)"
     id="layer1">
    <path
       id="path3498"
       transform="translate(1690.9939,660.30924)"
       d="M 53 0 A 53 53 0 0 0 0 53 A 53 53 0 0 0 27.822266 99.623047 C 28.332283 99.898853 28.845501 100.16348 29.363281 100.42188 L 29.363281 100.42383 C 36.696281 104.08213 44.785394 105.9958 52.996094 106 C 82.267194 106 105.99609 82.2711 105.99609 53 C 105.97209 31.1642 92.559584 11.577609 72.208984 3.6621094 C 71.838586 3.5330599 71.465045 3.4099589 71.091797 3.2890625 L 71.091797 3.2851562 A 53 53 0 0 0 71.087891 3.2851562 A 53 53 0 0 0 53.003906 0 L 53 0 z M 33.587891 16.042969 L 71.107422 16.042969 L 71.107422 26.359375 L 43.806641 26.359375 L 42.177734 44.230469 C 43.32962 44.033003 44.729449 43.802351 46.375 43.539062 C 48.053462 43.275774 50.09359 43.144531 52.496094 43.144531 C 59.769428 43.144531 65.527917 45.069333 69.773438 48.919922 C 74.018958 52.77051 76.142578 58.019944 76.142578 64.667969 C 76.142578 72.369146 73.722684 78.392074 68.884766 82.736328 C 64.079758 87.047671 57.235583 89.203125 48.349609 89.203125 C 40.286411 89.203125 33.951292 87.904657 29.34375 85.304688 L 29.34375 74.789062 C 32.009542 76.302969 35.069734 77.470193 38.525391 78.292969 C 41.981047 79.115744 45.190353 79.527344 48.152344 79.527344 C 53.385195 79.527344 57.366042 78.360119 60.097656 76.023438 C 62.82927 73.686756 64.195312 70.262715 64.195312 65.753906 C 64.195312 57.131221 58.699309 52.820312 47.707031 52.820312 C 46.160214 52.820312 44.251329 52.985343 41.980469 53.314453 C 39.709609 53.610652 37.719185 53.95663 36.007812 54.351562 L 30.824219 51.291016 L 33.587891 16.042969 z M 34.576172 48.353516 C 34.415169 48.400255 34.414158 48.418911 34.414062 48.419922 L 34.414062 48.421875 C 34.414062 48.421875 34.415072 48.401417 34.580078 48.353516 C 34.579538 48.353672 34.576709 48.35336 34.576172 48.353516 z M 29.986328 84.195312 C 30.005017 84.206307 37.189614 87.845495 45.945312 88.802734 C 37.191695 87.844166 30.008748 84.204569 29.990234 84.195312 L 29.986328 84.195312 z "
       style="opacity:1;fill:#000000;fill-opacity:1;stroke:none;stroke-width:0.2;stroke-miterlimit:4;stroke-dasharray:none;stroke-opacity:1" />
  </g>
</svg>
