<?xml version="1.0" encoding="UTF-8" standalone="yes"?><svg xmlns="http://www.w3.org/2000/svg" xmlns:xlink="http://www.w3.org/1999/xlink" height="503px" style="width:1030px;height:503px;" version="1.1" viewBox="0 0 1030 503" width="1030px"><defs><filter height="300%" id="f1" width="300%" x="-1" y="-1"><feGaussianBlur result="blurOut" stdDeviation="2.0"/><feColorMatrix in="blurOut" result="blurOut2" type="matrix" values="0 0 0 0 0 0 0 0 0 0 0 0 0 0 0 0 0 0 .4 0"/><feOffset dx="4.0" dy="4.0" in="blurOut2" result="blurOut3"/><feBlend in="SourceGraphic" in2="blurOut3" mode="normal"/></filter></defs><g><polygon fill="#FFFFFF" filter="url(#f1)" points="855,212,969,212,976,231.9923,1023,231.9923,1023,389,855,389,855,212" style="stroke: #000000; stroke-width: 2.0;"/><line style="stroke: #000000; stroke-width: 2.0;" x1="855" x2="976" y1="231.9923" y2="231.9923"/><text fill="#000000" font-family="Open Sans" font-size="14" font-weight="bold" lengthAdjust="spacingAndGlyphs" textLength="108" x="859" y="225.3128">org.junit.jupiter</text><polygon fill="#FFFFFF" filter="url(#f1)" points="22,212,142,212,149,231.9923,198,231.9923,198,389,22,389,22,212" style="stroke: #000000; stroke-width: 2.0;"/><line style="stroke: #000000; stroke-width: 2.0;" x1="22" x2="149" y1="231.9923" y2="231.9923"/><text fill="#000000" font-family="Open Sans" font-size="14" font-weight="bold" lengthAdjust="spacingAndGlyphs" textLength="114" x="26" y="225.3128">org.junit.vintage</text><polygon fill="#FFFFFF" filter="url(#f1)" points="222,24,349,24,356,43.9923,831,43.9923,831,496,222,496,222,24" style="stroke: #000000; stroke-width: 2.0;"/><line style="stroke: #000000; stroke-width: 2.0;" x1="222" x2="356" y1="43.9923" y2="43.9923"/><text fill="#000000" font-family="Open Sans" font-size="14" font-weight="bold" lengthAdjust="spacingAndGlyphs" textLength="121" x="226" y="37.3128">org.junit.platform</text><polygon fill="#FFFFFF" filter="url(#f1)" points="861,413,968,413,975,432.9923,979,432.9923,979,496,861,496,861,413" style="stroke: #000000; stroke-width: 2.0;"/><line style="stroke: #000000; stroke-width: 2.0;" x1="861" x2="975" y1="432.9923" y2="432.9923"/><text fill="#000000" font-family="Open Sans" font-size="14" font-weight="bold" lengthAdjust="spacingAndGlyphs" textLength="101" x="865" y="426.3128">org.opentest4j</text><rect fill="#FEFECE" filter="url(#f1)" height="33.9923" style="stroke: #A80036; stroke-width: 1.5;" width="110" x="871" y="339"/><rect fill="#FEFECE" height="5" style="stroke: #A80036; stroke-width: 1.5;" width="10" x="866" y="344"/><rect fill="#FEFECE" height="5" style="stroke: #A80036; stroke-width: 1.5;" width="10" x="866" y="362.9923"/><text fill="#000000" font-family="Open Sans" font-size="14" lengthAdjust="spacingAndGlyphs" textLength="90" x="881" y="360.3128">junit-jupiter-api</text><rect fill="#FEFECE" filter="url(#f1)" height="33.9923" style="stroke: #A80036; stroke-width: 1.5;" width="135" x="871.75" y="245"/><rect fill="#FEFECE" height="5" style="stroke: #A80036; stroke-width: 1.5;" width="10" x="866.75" y="250"/><rect fill="#FEFECE" height="5" style="stroke: #A80036; stroke-width: 1.5;" width="10" x="866.75" y="268.9923"/><text fill="#000000" font-family="Open Sans" font-size="14" lengthAdjust="spacingAndGlyphs" textLength="115" x="881.75" y="266.3128">junit-jupiter-engine</text><rect fill="#FEFECE" filter="url(#f1)" height="33.9923" style="stroke: #A80036; stroke-width: 1.5;" width="143" x="38.75" y="245"/><rect fill="#FEFECE" height="5" style="stroke: #A80036; stroke-width: 1.5;" width="10" x="33.75" y="250"/><rect fill="#FEFECE" height="5" style="stroke: #A80036; stroke-width: 1.5;" width="10" x="33.75" y="268.9923"/><text fill="#000000" font-family="Open Sans" font-size="14" lengthAdjust="spacingAndGlyphs" textLength="123" x="48.75" y="266.3128">junit-vintage-engine</text><rect fill="#FEFECE" filter="url(#f1)" height="33.9923" style="stroke: #A80036; stroke-width: 1.5;" width="74" x="55" y="339"/><rect fill="#FEFECE" height="5" style="stroke: #A80036; stroke-width: 1.5;" width="10" x="50" y="344"/><rect fill="#FEFECE" height="5" style="stroke: #A80036; stroke-width: 1.5;" width="10" x="50" y="362.9923"/><text fill="#000000" font-family="Open Sans" font-size="14" lengthAdjust="spacingAndGlyphs" textLength="54" x="65" y="360.3128">junit:junit</text><rect fill="#FEFECE" filter="url(#f1)" height="33.9923" style="stroke: #A80036; stroke-width: 1.5;" width="166" x="649" y="446"/><rect fill="#FEFECE" height="5" style="stroke: #A80036; stroke-width: 1.5;" width="10" x="644" y="451"/><rect fill="#FEFECE" height="5" style="stroke: #A80036; stroke-width: 1.5;" width="10" x="644" y="469.9923"/><text fill="#000000" font-family="Open Sans" font-size="14" lengthAdjust="spacingAndGlyphs" textLength="146" x="659" y="467.3128">junit-platform-commons</text><rect fill="#FEFECE" filter="url(#f1)" height="33.9923" style="stroke: #A80036; stroke-width: 1.5;" width="153" x="661.75" y="151"/><rect fill="#FEFECE" height="5" style="stroke: #A80036; stroke-width: 1.5;" width="10" x="656.75" y="156"/><rect fill="#FEFECE" height="5" style="stroke: #A80036; stroke-width: 1.5;" width="10" x="656.75" y="174.9923"/><text fill="#000000" font-family="Open Sans" font-size="14" lengthAdjust="spacingAndGlyphs" textLength="133" x="671.75" y="172.3128">junit-platform-console</text><rect fill="#FEFECE" filter="url(#f1)" height="33.9923" style="stroke: #A80036; stroke-width: 1.5;" width="147" x="658.75" y="339"/><rect fill="#FEFECE" height="5" style="stroke: #A80036; stroke-width: 1.5;" width="10" x="653.75" y="344"/><rect fill="#FEFECE" height="5" style="stroke: #A80036; stroke-width: 1.5;" width="10" x="653.75" y="362.9923"/><text fill="#000000" font-family="Open Sans" font-size="14" lengthAdjust="spacingAndGlyphs" textLength="127" x="668.75" y="360.3128">junit-platform-engine</text><rect fill="#FEFECE" filter="url(#f1)" height="33.9923" style="stroke: #A80036; stroke-width: 1.5;" width="186" x="629.5" y="57"/><rect fill="#FEFECE" height="5" style="stroke: #A80036; stroke-width: 1.5;" width="10" x="624.5" y="62"/><rect fill="#FEFECE" height="5" style="stroke: #A80036; stroke-width: 1.5;" width="10" x="624.5" y="80.9923"/><text fill="#000000" font-family="Open Sans" font-size="14" lengthAdjust="spacingAndGlyphs" textLength="166" x="639.5" y="78.3128">junit-platform-gradle-plugin</text><rect fill="#FEFECE" filter="url(#f1)" height="33.9923" style="stroke: #A80036; stroke-width: 1.5;" width="159" x="548.75" y="245"/><rect fill="#FEFECE" height="5" style="stroke: #A80036; stroke-width: 1.5;" width="10" x="543.75" y="250"/><rect fill="#FEFECE" height="5" style="stroke: #A80036; stroke-width: 1.5;" width="10" x="543.75" y="268.9923"/><text fill="#000000" font-family="Open Sans" font-size="14" lengthAdjust="spacingAndGlyphs" textLength="139" x="558.75" y="266.3128">junit-platform-launcher</text><rect fill="#FEFECE" filter="url(#f1)" height="33.9923" style="stroke: #A80036; stroke-width: 1.5;" width="146" x="238" y="151"/><rect fill="#FEFECE" height="5" style="stroke: #A80036; stroke-width: 1.5;" width="10" x="233" y="156"/><rect fill="#FEFECE" height="5" style="stroke: #A80036; stroke-width: 1.5;" width="10" x="233" y="174.9923"/><text fill="#000000" font-family="Open Sans" font-size="14" lengthAdjust="spacingAndGlyphs" textLength="126" x="248" y="172.3128">junit-platform-runner</text><rect fill="#FEFECE" filter="url(#f1)" height="33.9923" style="stroke: #A80036; stroke-width: 1.5;" width="207" x="419.75" y="151"/><rect fill="#FEFECE" height="5" style="stroke: #A80036; stroke-width: 1.5;" width="10" x="414.75" y="156"/><rect fill="#FEFECE" height="5" style="stroke: #A80036; stroke-width: 1.5;" width="10" x="414.75" y="174.9923"/><text fill="#000000" font-family="Open Sans" font-size="14" lengthAdjust="spacingAndGlyphs" textLength="187" x="429.75" y="172.3128">junit-platform-surefire-provider</text><rect fill="#FEFECE" filter="url(#f1)" height="33.9923" style="stroke: #A80036; stroke-width: 1.5;" width="83" x="878.75" y="446"/><rect fill="#FEFECE" height="5" style="stroke: #A80036; stroke-width: 1.5;" width="10" x="873.75" y="451"/><rect fill="#FEFECE" height="5" style="stroke: #A80036; stroke-width: 1.5;" width="10" x="873.75" y="469.9923"/><text fill="#000000" font-family="Open Sans" font-size="14" lengthAdjust="spacingAndGlyphs" textLength="63" x="888.75" y="467.3128">opentest4j</text><path d="M925.062,373.406 C924.028,391.514 922.359,420.7251 921.222,440.6147 " fill="none" style="stroke: #A80036; stroke-width: 1.0; stroke-dasharray: 7.0,7.0;"/><polygon fill="#A80036" points="920.931,445.709,925.4383,436.952,921.2165,440.7172,917.4513,436.4953,920.931,445.709" style="stroke: #A80036; stroke-width: 1.0;"/><path d="M896.113,373.176 C861.121,392.115 803.276,423.4229 766.434,443.3629 " fill="none" style="stroke: #A80036; stroke-width: 1.0; stroke-dasharray: 7.0,7.0;"/><polygon fill="#A80036" points="761.603,445.9778,771.422,445.2116,766.0002,443.5978,767.6141,438.1761,761.603,445.9778" style="stroke: #A80036; stroke-width: 1.0;"/><path d="M902.943,279.025 C866.804,295.087 811.234,319.785 773.333,336.63 " fill="none" style="stroke: #A80036; stroke-width: 1.0; stroke-dasharray: 7.0,7.0;"/><polygon fill="#A80036" points="768.338,338.85,778.1869,338.8483,772.9067,336.8185,774.9365,331.5384,768.338,338.85" style="stroke: #A80036; stroke-width: 1.0;"/><path d="M936.736,279.025 C934.586,294.235 931.343,317.188 928.984,333.885 " fill="none" style="stroke: #A80036; stroke-width: 1.0; stroke-dasharray: 7.0,7.0;"/><polygon fill="#A80036" points="928.282,338.85,933.5024,330.4985,928.9819,333.8992,925.5812,329.3787,928.282,338.85" style="stroke: #A80036; stroke-width: 1.0;"/><path d="M718.839,185.025 C700.027,200.759 671.306,224.78 651.209,241.589 " fill="none" style="stroke: #A80036; stroke-width: 1.0; stroke-dasharray: 7.0,7.0;"/><polygon fill="#A80036" points="647.31,244.85,656.7798,242.1439,651.1452,241.6421,651.6471,236.0075,647.31,244.85" style="stroke: #A80036; stroke-width: 1.0;"/><path d="M724.787,91.025 C727.432,106.235 731.424,129.188 734.328,145.885 " fill="none" style="stroke: #A80036; stroke-width: 1.0; stroke-dasharray: 7.0,7.0;"/><polygon fill="#A80036" points="735.191,150.85,737.5893,141.2976,734.3341,145.924,729.7077,142.6687,735.191,150.85" style="stroke: #A80036; stroke-width: 1.0;"/><path d="M646.115,279.025 C663.754,294.628 690.604,318.381 709.58,335.167 " fill="none" style="stroke: #A80036; stroke-width: 1.0; stroke-dasharray: 7.0,7.0;"/><polygon fill="#A80036" points="713.743,338.85,709.6514,329.8913,709.9977,335.5375,704.3514,335.8837,713.743,338.85" style="stroke: #A80036; stroke-width: 1.0;"/><path d="M767.801,373.109 C786.847,381.99 810.502,393.519 831,405 C852.104,416.8198 875.074,431.5814 892.391,443.1207 " fill="none" style="stroke: #A80036; stroke-width: 1.0; stroke-dasharray: 7.0,7.0;"/><polygon fill="#A80036" points="896.668,445.9812,891.4113,437.6525,892.5121,443.2012,886.9633,444.302,896.668,445.9812" style="stroke: #A80036; stroke-width: 1.0;"/><path d="M732,373.406 C732,391.514 732,420.7251 732,440.6147 " fill="none" style="stroke: #A80036; stroke-width: 1.0; stroke-dasharray: 7.0,7.0;"/><polygon fill="#A80036" points="732,445.709,736,436.709,732,440.709,728,436.709,732,445.709" style="stroke: #A80036; stroke-width: 1.0;"/><path d="M366.217,185.025 C422.551,201.374 509.715,226.671 567.791,243.526 " fill="none" style="stroke: #A80036; stroke-width: 1.0; stroke-dasharray: 7.0,7.0;"/><polygon fill="#A80036" points="572.619,244.927,565.0898,238.5779,567.817,243.534,562.8609,246.2612,572.619,244.927" style="stroke: #A80036; stroke-width: 1.0;"/><path d="M237.85,172.847 C156.685,177.88 35.1929,187.991 21,204 C-1.1131,228.942 8.7692,247.992 21,279 C29.9783,301.763 49.3468,321.723 65.5892,335.469 " fill="none" style="stroke: #A80036; stroke-width: 1.0; stroke-dasharray: 7.0,7.0;"/><polygon fill="#A80036" points="69.6431,338.828,65.2652,330.0057,65.7931,335.6378,60.1609,336.1657,69.6431,338.828" style="stroke: #A80036; stroke-width: 1.0;"/><path d="M541.29,185.025 C559.097,200.628 586.206,224.381 605.365,241.167 " fill="none" style="stroke: #A80036; stroke-width: 1.0; stroke-dasharray: 7.0,7.0;"/><polygon fill="#A80036" points="609.568,244.85,605.4329,235.9113,605.8066,241.5558,600.1621,241.9295,609.568,244.85" style="stroke: #A80036; stroke-width: 1.0;"/><path d="M181.351,273.554 C298.748,290.918 531.745,325.38 653.597,343.403 " fill="none" style="stroke: #A80036; stroke-width: 1.0; stroke-dasharray: 7.0,7.0;"/><polygon fill="#A80036" points="658.599,344.143,650.2808,338.8697,653.6528,343.4117,649.1107,346.7837,658.599,344.143" style="stroke: #A80036; stroke-width: 1.0;"/><path d="M106.865,279.025 C103.8888,294.235 99.398,317.188 96.1313,333.885 " fill="none" style="stroke: #A80036; stroke-width: 1.0; stroke-dasharray: 7.0,7.0;"/><polygon fill="#A80036" points="95.1598,338.85,100.8134,330.7854,96.1198,333.943,92.9622,329.2494,95.1598,338.85" style="stroke: #A80036; stroke-width: 1.0;"/></g></svg>