<?xml version="1.0" encoding="UTF-8" standalone="no"?><svg xmlns="http://www.w3.org/2000/svg" xmlns:xlink="http://www.w3.org/1999/xlink" contentScriptType="application/ecmascript" contentStyleType="text/css" height="617px" preserveAspectRatio="none" style="width:1847px;height:617px;" version="1.1" viewBox="0 0 1847 617" width="1847px" zoomAndPan="magnify"><defs><filter height="300%" id="fz2xs20j49f9r" width="300%" x="-1" y="-1"><feGaussianBlur result="blurOut" stdDeviation="2.0"/><feColorMatrix in="blurOut" result="blurOut2" type="matrix" values="0 0 0 0 0 0 0 0 0 0 0 0 0 0 0 0 0 0 .4 0"/><feOffset dx="4.0" dy="4.0" in="blurOut2" result="blurOut3"/><feBlend in="SourceGraphic" in2="blurOut3" mode="normal"/></filter></defs><g><!--cluster org.junit.jupiter--><polygon fill="#FFFFFF" filter="url(#fz2xs20j49f9r)" points="912.694,160,1040.694,160,1047.694,182.2969,1575.69,182.2969,1575.69,494,912.694,494,912.694,160" style="stroke: #000000; stroke-width: 1.5;"/><line style="stroke: #000000; stroke-width: 1.5;" x1="912.694" x2="1047.694" y1="182.2969" y2="182.2969"/><text fill="#000000" font-family="Open Sans" font-size="14" font-weight="bold" lengthAdjust="spacingAndGlyphs" textLength="122" x="916.694" y="174.9951">org.junit.jupiter</text><!--cluster org.junit.vintage--><polygon fill="#FFFFFF" filter="url(#fz2xs20j49f9r)" points="37.6943,311,172.6943,311,179.6943,333.2969,227.694,333.2969,227.694,494,37.6943,494,37.6943,311" style="stroke: #000000; stroke-width: 1.5;"/><line style="stroke: #000000; stroke-width: 1.5;" x1="37.6943" x2="179.6943" y1="333.2969" y2="333.2969"/><text fill="#000000" font-family="Open Sans" font-size="14" font-weight="bold" lengthAdjust="spacingAndGlyphs" textLength="129" x="41.6943" y="325.9951">org.junit.vintage</text><!--cluster org.junit.platform--><polygon fill="#FFFFFF" filter="url(#fz2xs20j49f9r)" points="251.694,24,394.694,24,401.694,46.2969,888.694,46.2969,888.694,605,251.694,605,251.694,24" style="stroke: #000000; stroke-width: 1.5;"/><line style="stroke: #000000; stroke-width: 1.5;" x1="251.694" x2="401.694" y1="46.2969" y2="46.2969"/><text fill="#000000" font-family="Open Sans" font-size="14" font-weight="bold" lengthAdjust="spacingAndGlyphs" textLength="137" x="255.694" y="38.9951">org.junit.platform</text><!--cluster org.opentest4j--><polygon fill="#FFFFFF" filter="url(#fz2xs20j49f9r)" points="94.6943,518,217.6943,518,224.6943,540.2969,227.694,540.2969,227.694,605,94.6943,605,94.6943,518" style="stroke: #000000; stroke-width: 1.5;"/><line style="stroke: #000000; stroke-width: 1.5;" x1="94.6943" x2="224.6943" y1="540.2969" y2="540.2969"/><text fill="#000000" font-family="Open Sans" font-size="14" font-weight="bold" lengthAdjust="spacingAndGlyphs" textLength="117" x="98.6943" y="532.9951">org.opentest4j</text><!--cluster org.apiguardian--><polygon fill="#FFFFFF" filter="url(#fz2xs20j49f9r)" points="1599.69,24,1729.69,24,1736.69,46.2969,1825.69,46.2969,1825.69,287,1599.69,287,1599.69,24" style="stroke: #000000; stroke-width: 1.5;"/><line style="stroke: #000000; stroke-width: 1.5;" x1="1599.69" x2="1736.69" y1="46.2969" y2="46.2969"/><text fill="#000000" font-family="Open Sans" font-size="14" font-weight="bold" lengthAdjust="spacingAndGlyphs" textLength="124" x="1603.69" y="38.9951">org.apiguardian</text><!--entity jupiter--><rect fill="#FEFECE" filter="url(#fz2xs20j49f9r)" height="36.2969" style="stroke: #A80036; stroke-width: 1.5;" width="97" x="1397.19" y="195"/><rect fill="#FEFECE" height="5" style="stroke: #A80036; stroke-width: 1.5;" width="10" x="1392.19" y="200"/><rect fill="#FEFECE" height="5" style="stroke: #A80036; stroke-width: 1.5;" width="10" x="1392.19" y="221.2969"/><text fill="#000000" font-family="Open Sans" font-size="14" lengthAdjust="spacingAndGlyphs" textLength="77" x="1407.19" y="217.9951">junit-jupiter</text><!--entity jupiter_api--><rect fill="#FEFECE" filter="url(#fz2xs20j49f9r)" height="36.2969" style="stroke: #A80036; stroke-width: 1.5;" width="122" x="1087.69" y="442"/><rect fill="#FEFECE" height="5" style="stroke: #A80036; stroke-width: 1.5;" width="10" x="1082.69" y="447"/><rect fill="#FEFECE" height="5" style="stroke: #A80036; stroke-width: 1.5;" width="10" x="1082.69" y="468.2969"/><text fill="#000000" font-family="Open Sans" font-size="14" lengthAdjust="spacingAndGlyphs" textLength="102" x="1097.69" y="464.9951">junit-jupiter-api</text><!--entity jupiter_engine--><rect fill="#FEFECE" filter="url(#fz2xs20j49f9r)" height="36.2969" style="stroke: #A80036; stroke-width: 1.5;" width="150" x="1183.69" y="346"/><rect fill="#FEFECE" height="5" style="stroke: #A80036; stroke-width: 1.5;" width="10" x="1178.69" y="351"/><rect fill="#FEFECE" height="5" style="stroke: #A80036; stroke-width: 1.5;" width="10" x="1178.69" y="372.2969"/><text fill="#000000" font-family="Open Sans" font-size="14" lengthAdjust="spacingAndGlyphs" textLength="130" x="1193.69" y="368.9951">junit-jupiter-engine</text><!--entity jupiter_params--><rect fill="#FEFECE" filter="url(#fz2xs20j49f9r)" height="36.2969" style="stroke: #A80036; stroke-width: 1.5;" width="153" x="1369.19" y="346"/><rect fill="#FEFECE" height="5" style="stroke: #A80036; stroke-width: 1.5;" width="10" x="1364.19" y="351"/><rect fill="#FEFECE" height="5" style="stroke: #A80036; stroke-width: 1.5;" width="10" x="1364.19" y="372.2969"/><text fill="#000000" font-family="Open Sans" font-size="14" lengthAdjust="spacingAndGlyphs" textLength="133" x="1379.19" y="368.9951">junit-jupiter-params</text><!--entity jupiter_migration_support--><rect fill="#FEFECE" filter="url(#fz2xs20j49f9r)" height="36.2969" style="stroke: #A80036; stroke-width: 1.5;" width="220" x="928.694" y="346"/><rect fill="#FEFECE" height="5" style="stroke: #A80036; stroke-width: 1.5;" width="10" x="923.694" y="351"/><rect fill="#FEFECE" height="5" style="stroke: #A80036; stroke-width: 1.5;" width="10" x="923.694" y="372.2969"/><text fill="#000000" font-family="Open Sans" font-size="14" lengthAdjust="spacingAndGlyphs" textLength="200" x="938.694" y="368.9951">junit-jupiter-migrationsupport</text><!--entity vintage_engine--><rect fill="#FEFECE" filter="url(#fz2xs20j49f9r)" height="36.2969" style="stroke: #A80036; stroke-width: 1.5;" width="157" x="54.1943" y="346"/><rect fill="#FEFECE" height="5" style="stroke: #A80036; stroke-width: 1.5;" width="10" x="49.1943" y="351"/><rect fill="#FEFECE" height="5" style="stroke: #A80036; stroke-width: 1.5;" width="10" x="49.1943" y="372.2969"/><text fill="#000000" font-family="Open Sans" font-size="14" lengthAdjust="spacingAndGlyphs" textLength="137" x="64.1943" y="368.9951">junit-vintage-engine</text><!--entity junit4--><rect fill="#FEFECE" filter="url(#fz2xs20j49f9r)" height="36.2969" style="stroke: #A80036; stroke-width: 1.5;" width="83" x="91.1943" y="442"/><rect fill="#FEFECE" height="5" style="stroke: #A80036; stroke-width: 1.5;" width="10" x="86.1943" y="447"/><rect fill="#FEFECE" height="5" style="stroke: #A80036; stroke-width: 1.5;" width="10" x="86.1943" y="468.2969"/><text fill="#000000" font-family="Open Sans" font-size="14" lengthAdjust="spacingAndGlyphs" textLength="63" x="101.1943" y="464.9951">junit:junit</text><!--entity commons--><rect fill="#FEFECE" filter="url(#fz2xs20j49f9r)" height="36.2969" style="stroke: #A80036; stroke-width: 1.5;" width="184" x="627.694" y="553"/><rect fill="#FEFECE" height="5" style="stroke: #A80036; stroke-width: 1.5;" width="10" x="622.694" y="558"/><rect fill="#FEFECE" height="5" style="stroke: #A80036; stroke-width: 1.5;" width="10" x="622.694" y="579.2969"/><text fill="#000000" font-family="Open Sans" font-size="14" lengthAdjust="spacingAndGlyphs" textLength="164" x="637.694" y="575.9951">junit-platform-commons</text><!--entity console--><rect fill="#FEFECE" filter="url(#fz2xs20j49f9r)" height="36.2969" style="stroke: #A80036; stroke-width: 1.5;" width="170" x="635.694" y="59"/><rect fill="#FEFECE" height="5" style="stroke: #A80036; stroke-width: 1.5;" width="10" x="630.694" y="64"/><rect fill="#FEFECE" height="5" style="stroke: #A80036; stroke-width: 1.5;" width="10" x="630.694" y="85.2969"/><text fill="#000000" font-family="Open Sans" font-size="14" lengthAdjust="spacingAndGlyphs" textLength="150" x="645.694" y="81.9951">junit-platform-console</text><!--entity engine--><rect fill="#FEFECE" filter="url(#fz2xs20j49f9r)" height="36.2969" style="stroke: #A80036; stroke-width: 1.5;" width="163" x="577.194" y="442"/><rect fill="#FEFECE" height="5" style="stroke: #A80036; stroke-width: 1.5;" width="10" x="572.194" y="447"/><rect fill="#FEFECE" height="5" style="stroke: #A80036; stroke-width: 1.5;" width="10" x="572.194" y="468.2969"/><text fill="#000000" font-family="Open Sans" font-size="14" lengthAdjust="spacingAndGlyphs" textLength="143" x="587.194" y="464.9951">junit-platform-engine</text><!--entity launcher--><rect fill="#FEFECE" filter="url(#fz2xs20j49f9r)" height="36.2969" style="stroke: #A80036; stroke-width: 1.5;" width="175" x="571.194" y="346"/><rect fill="#FEFECE" height="5" style="stroke: #A80036; stroke-width: 1.5;" width="10" x="566.194" y="351"/><rect fill="#FEFECE" height="5" style="stroke: #A80036; stroke-width: 1.5;" width="10" x="566.194" y="372.2969"/><text fill="#000000" font-family="Open Sans" font-size="14" lengthAdjust="spacingAndGlyphs" textLength="155" x="581.194" y="368.9951">junit-platform-launcher</text><!--entity reporting--><rect fill="#FEFECE" filter="url(#fz2xs20j49f9r)" height="36.2969" style="stroke: #A80036; stroke-width: 1.5;" width="178" x="694.694" y="195"/><rect fill="#FEFECE" height="5" style="stroke: #A80036; stroke-width: 1.5;" width="10" x="689.694" y="200"/><rect fill="#FEFECE" height="5" style="stroke: #A80036; stroke-width: 1.5;" width="10" x="689.694" y="221.2969"/><text fill="#000000" font-family="Open Sans" font-size="14" lengthAdjust="spacingAndGlyphs" textLength="158" x="704.694" y="217.9951">junit-platform-reporting</text><!--entity runner--><rect fill="#FEFECE" filter="url(#fz2xs20j49f9r)" height="36.2969" style="stroke: #A80036; stroke-width: 1.5;" width="161" x="461.194" y="195"/><rect fill="#FEFECE" height="5" style="stroke: #A80036; stroke-width: 1.5;" width="10" x="456.194" y="200"/><rect fill="#FEFECE" height="5" style="stroke: #A80036; stroke-width: 1.5;" width="10" x="456.194" y="221.2969"/><text fill="#000000" font-family="Open Sans" font-size="14" lengthAdjust="spacingAndGlyphs" textLength="141" x="471.194" y="217.9951">junit-platform-runner</text><!--entity suite_api--><rect fill="#FEFECE" filter="url(#fz2xs20j49f9r)" height="36.2969" style="stroke: #A80036; stroke-width: 1.5;" width="174" x="361.694" y="346"/><rect fill="#FEFECE" height="5" style="stroke: #A80036; stroke-width: 1.5;" width="10" x="356.694" y="351"/><rect fill="#FEFECE" height="5" style="stroke: #A80036; stroke-width: 1.5;" width="10" x="356.694" y="372.2969"/><text fill="#000000" font-family="Open Sans" font-size="14" lengthAdjust="spacingAndGlyphs" textLength="154" x="371.694" y="368.9951">junit-platform-suite-api</text><!--entity testkit--><rect fill="#FEFECE" filter="url(#fz2xs20j49f9r)" height="36.2969" style="stroke: #A80036; stroke-width: 1.5;" width="158" x="267.694" y="195"/><rect fill="#FEFECE" height="5" style="stroke: #A80036; stroke-width: 1.5;" width="10" x="262.694" y="200"/><rect fill="#FEFECE" height="5" style="stroke: #A80036; stroke-width: 1.5;" width="10" x="262.694" y="221.2969"/><text fill="#000000" font-family="Open Sans" font-size="14" lengthAdjust="spacingAndGlyphs" textLength="138" x="277.694" y="217.9951">junit-platform-testkit</text><!--entity opentest4j--><rect fill="#FEFECE" filter="url(#fz2xs20j49f9r)" height="36.2969" style="stroke: #A80036; stroke-width: 1.5;" width="95" x="116.194" y="553"/><rect fill="#FEFECE" height="5" style="stroke: #A80036; stroke-width: 1.5;" width="10" x="111.194" y="558"/><rect fill="#FEFECE" height="5" style="stroke: #A80036; stroke-width: 1.5;" width="10" x="111.194" y="579.2969"/><text fill="#000000" font-family="Open Sans" font-size="14" lengthAdjust="spacingAndGlyphs" textLength="75" x="126.194" y="575.9951">opentest4j</text><!--entity apiguardian--><rect fill="#FEFECE" filter="url(#fz2xs20j49f9r)" height="36.2969" style="stroke: #A80036; stroke-width: 1.5;" width="125" x="1650.19" y="59"/><rect fill="#FEFECE" height="5" style="stroke: #A80036; stroke-width: 1.5;" width="10" x="1645.19" y="64"/><rect fill="#FEFECE" height="5" style="stroke: #A80036; stroke-width: 1.5;" width="10" x="1645.19" y="85.2969"/><text fill="#000000" font-family="Open Sans" font-size="14" lengthAdjust="spacingAndGlyphs" textLength="105" x="1660.19" y="81.9951">apiguardian-api</text><path d="M1616.19,155 L1616.19,270.9297 A0,0 0 0 0 1616.19,270.9297 L1809.19,270.9297 A0,0 0 0 0 1809.19,270.9297 L1809.19,165 L1799.19,155 L1716.69,155 L1712.69,95.244 L1708.69,155 L1616.19,155 A0,0 0 0 0 1616.19,155 " fill="#FFFFFF" filter="url(#fz2xs20j49f9r)" style="stroke: #A80036; stroke-width: 1.0;"/><path d="M1799.19,155 L1799.19,165 L1809.19,165 L1799.19,155 " fill="#FFFFFF" style="stroke: #A80036; stroke-width: 1.0;"/><text fill="#000000" font-family="Open Sans" font-size="13" lengthAdjust="spacingAndGlyphs" textLength="118" x="1622.19" y="172.0669">All artifacts except</text><text fill="#000000" font-family="Open Sans" font-size="13" lengthAdjust="spacingAndGlyphs" textLength="158" x="1622.19" y="187.1997">opentest4j and junit:junit</text><text fill="#000000" font-family="Open Sans" font-size="13" lengthAdjust="spacingAndGlyphs" textLength="172" x="1622.19" y="202.3325">have a dependency on this</text><text fill="#000000" font-family="Open Sans" font-size="13" lengthAdjust="spacingAndGlyphs" textLength="154" x="1622.19" y="217.4653">artifact. The edges have</text><text fill="#000000" font-family="Open Sans" font-size="13" lengthAdjust="spacingAndGlyphs" textLength="147" x="1622.19" y="232.5981">been omitted from this</text><text fill="#000000" font-family="Open Sans" font-size="13" lengthAdjust="spacingAndGlyphs" textLength="149" x="1622.19" y="247.731">diagram for the sake of</text><text fill="#000000" font-family="Open Sans" font-size="13" lengthAdjust="spacingAndGlyphs" textLength="70" x="1622.19" y="262.8638">readability.</text><!--link jupiter to jupiter_api--><path d="M1473.84,231.213 C1496.39,246.801 1526.37,272.035 1539.69,303 C1553.57,335.252 1561.99,354.88 1539.69,382 C1499.34,431.071 1315.66,449.364 1215.06,455.784 " fill="none" id="jupiter-jupiter_api" style="stroke: #A80036; stroke-width: 1.0; stroke-dasharray: 7.0,7.0;"/><polygon fill="#A80036" points="1210.04,456.099,1219.2736,459.5254,1215.0301,455.7847,1218.7708,451.5412,1210.04,456.099" style="stroke: #A80036; stroke-width: 1.0;"/><!--link jupiter to jupiter_params--><path d="M1445.69,231.092 C1445.69,258.006 1445.69,310.282 1445.69,340.311 " fill="none" id="jupiter-jupiter_params" style="stroke: #A80036; stroke-width: 1.0; stroke-dasharray: 7.0,7.0;"/><polygon fill="#A80036" points="1445.69,345.648,1449.69,336.648,1445.69,340.648,1441.69,336.648,1445.69,345.648" style="stroke: #A80036; stroke-width: 1.0;"/><!--link jupiter to jupiter_engine--><path d="M1424.24,231.092 C1389.53,258.75 1321.21,313.19 1284.11,342.749 " fill="none" id="jupiter-jupiter_engine" style="stroke: #A80036; stroke-width: 1.0; stroke-dasharray: 7.0,7.0;"/><polygon fill="#A80036" points="1280.18,345.878,1289.7119,343.3996,1284.091,342.7629,1284.7278,337.142,1280.18,345.878" style="stroke: #A80036; stroke-width: 1.0;"/><!--link jupiter_api to opentest4j--><path d="M1087.53,473.194 C1035.04,483.047 957.223,496.197 888.694,502 C853.429,504.986 285.447,499.356 251.694,510 C226.821,517.844 202.643,535.2583 185.944,549.3158 " fill="none" id="jupiter_api-opentest4j" style="stroke: #A80036; stroke-width: 1.0; stroke-dasharray: 7.0,7.0;"/><polygon fill="#A80036" points="181.864,552.8096,191.3022,549.9952,185.6623,549.5579,186.0995,543.918,181.864,552.8096" style="stroke: #A80036; stroke-width: 1.0;"/><!--link jupiter_api to commons--><path d="M1087.68,476.501 C1009.66,496.325 874.744,530.6052 791.748,551.6926 " fill="none" id="jupiter_api-commons" style="stroke: #A80036; stroke-width: 1.0; stroke-dasharray: 7.0,7.0;"/><polygon fill="#A80036" points="786.851,552.9369,796.5589,554.5971,791.697,551.7055,794.5886,546.8435,786.851,552.9369" style="stroke: #A80036; stroke-width: 1.0;"/><!--link jupiter_engine to engine--><path d="M1183.61,378.926 C1177.55,379.988 1171.52,381.025 1165.69,382 C1018.46,406.631 846.605,432.028 745.536,446.622 " fill="none" id="jupiter_engine-engine" style="stroke: #A80036; stroke-width: 1.0; stroke-dasharray: 7.0,7.0;"/><polygon fill="#A80036" points="740.479,447.352,749.9581,450.0252,745.4277,446.6377,748.8152,442.1073,740.479,447.352" style="stroke: #A80036; stroke-width: 1.0;"/><!--link jupiter_engine to jupiter_api--><path d="M1238.77,382.023 C1220.2,397.895 1192.47,421.595 1172.68,438.5 " fill="none" id="jupiter_engine-jupiter_api" style="stroke: #A80036; stroke-width: 1.0; stroke-dasharray: 7.0,7.0;"/><polygon fill="#A80036" points="1168.84,441.786,1178.2765,438.9659,1172.6363,438.532,1173.0701,432.8919,1168.84,441.786" style="stroke: #A80036; stroke-width: 1.0;"/><!--link jupiter_params to jupiter_api--><path d="M1391.91,382.023 C1339.82,398.508 1261.05,423.439 1207.37,440.429 " fill="none" id="jupiter_params-jupiter_api" style="stroke: #A80036; stroke-width: 1.0; stroke-dasharray: 7.0,7.0;"/><polygon fill="#A80036" points="1202.58,441.945,1212.3656,443.0593,1207.3495,440.4443,1209.9645,435.4281,1202.58,441.945" style="stroke: #A80036; stroke-width: 1.0;"/><!--link jupiter_migration_support to jupiter_api--><path d="M1058.61,382.023 C1077.19,397.895 1104.92,421.595 1124.71,438.5 " fill="none" id="jupiter_migration_support-jupiter_api" style="stroke: #A80036; stroke-width: 1.0; stroke-dasharray: 7.0,7.0;"/><polygon fill="#A80036" points="1128.55,441.786,1124.3199,432.8919,1124.7537,438.532,1119.1135,438.9659,1128.55,441.786" style="stroke: #A80036; stroke-width: 1.0;"/><!--link jupiter_migration_support to junit4--><path d="M928.538,377.726 C915.12,379.205 901.598,380.661 888.694,382 C605.848,411.346 534.084,408.549 251.694,442 C227.807,444.83 201.307,448.557 179.389,451.801 " fill="none" id="jupiter_migration_support-junit4" style="stroke: #A80036; stroke-width: 1.0; stroke-dasharray: 7.0,7.0;"/><polygon fill="#A80036" points="174.21,452.571,183.7006,455.2032,179.1556,451.8353,182.5235,447.2903,174.21,452.571" style="stroke: #A80036; stroke-width: 1.0;"/><!--link console to launcher--><path d="M707.42,95.153 C697.108,109.496 683.459,130.939 676.694,152 C655.445,218.162 655.761,301.649 657.382,340.81 " fill="none" id="console-launcher" style="stroke: #A80036; stroke-width: 1.0; stroke-dasharray: 7.0,7.0;"/><polygon fill="#A80036" points="657.606,345.811,661.1982,336.6406,657.3817,340.816,653.2063,336.9995,657.606,345.811" style="stroke: #A80036; stroke-width: 1.0;"/><!--link console to reporting--><path d="M728.801,95.244 C740.189,119.466 760.922,163.565 773.39,190.084 " fill="none" id="console-reporting" style="stroke: #A80036; stroke-width: 1.0; stroke-dasharray: 7.0,7.0;"/><polygon fill="#A80036" points="775.618,194.822,775.4097,184.9753,773.4911,190.2969,768.1696,188.3783,775.618,194.822" style="stroke: #A80036; stroke-width: 1.0;"/><!--link launcher to engine--><path d="M658.694,382.241 C658.694,397.479 658.694,419.807 658.694,436.458 " fill="none" id="launcher-engine" style="stroke: #A80036; stroke-width: 1.0; stroke-dasharray: 7.0,7.0;"/><polygon fill="#A80036" points="658.694,441.868,662.694,432.868,658.694,436.868,654.694,432.868,658.694,441.868" style="stroke: #A80036; stroke-width: 1.0;"/><!--link engine to opentest4j--><path d="M577.14,466.226 C475.894,473.508 309.496,488.302 251.694,510 C227.596,519.046 203.686,535.9952 186.884,549.5776 " fill="none" id="engine-opentest4j" style="stroke: #A80036; stroke-width: 1.0; stroke-dasharray: 7.0,7.0;"/><polygon fill="#A80036" points="182.77,552.9513,192.2659,550.3383,186.6366,549.7812,187.1937,544.1518,182.77,552.9513" style="stroke: #A80036; stroke-width: 1.0;"/><!--link engine to commons--><path d="M668.226,478.031 C678.817,496.958 695.948,527.5683 707.507,548.2226 " fill="none" id="engine-commons" style="stroke: #A80036; stroke-width: 1.0; stroke-dasharray: 7.0,7.0;"/><polygon fill="#A80036" points="710.029,552.7286,709.1241,542.9214,707.5871,548.3654,702.1431,546.8284,710.029,552.7286" style="stroke: #A80036; stroke-width: 1.0;"/><!--link reporting to launcher--><path d="M769.355,231.092 C746.402,258.452 701.459,312.024 676.49,341.788 " fill="none" id="reporting-launcher" style="stroke: #A80036; stroke-width: 1.0; stroke-dasharray: 7.0,7.0;"/><polygon fill="#A80036" points="673.251,345.648,682.0997,341.3235,676.4644,341.8173,675.9706,336.1821,673.251,345.648" style="stroke: #A80036; stroke-width: 1.0;"/><!--link runner to launcher--><path d="M555.116,231.092 C576.512,258.341 618.323,311.587 641.751,341.422 " fill="none" id="runner-launcher" style="stroke: #A80036; stroke-width: 1.0; stroke-dasharray: 7.0,7.0;"/><polygon fill="#A80036" points="645.069,345.648,642.6566,336.0992,641.981,341.7155,636.3647,341.0399,645.069,345.648" style="stroke: #A80036; stroke-width: 1.0;"/><!--link runner to suite_api--><path d="M531.026,231.092 C514.088,258.229 481.056,311.151 462.392,341.054 " fill="none" id="runner-suite_api" style="stroke: #A80036; stroke-width: 1.0; stroke-dasharray: 7.0,7.0;"/><polygon fill="#A80036" points="459.525,345.648,467.6835,340.1308,462.1723,341.4063,460.8968,335.8951,459.525,345.648" style="stroke: #A80036; stroke-width: 1.0;"/><!--link runner to junit4--><path d="M527.367,231.214 C509.778,250.888 477.914,282.035 442.694,295 C421.523,302.793 52.4886,286.891 36.6943,303 C12.1128,328.071 21.5046,350.345 36.6943,382 C48.6027,406.817 72.8394,426.157 93.9795,439.248 " fill="none" id="runner-junit4" style="stroke: #A80036; stroke-width: 1.0; stroke-dasharray: 7.0,7.0;"/><polygon fill="#A80036" points="98.438,441.946,92.8096,433.8639,94.1605,439.357,88.6673,440.7079,98.438,441.946" style="stroke: #A80036; stroke-width: 1.0;"/><!--link testkit to opentest4j--><path d="M267.341,224.07 C178.95,237.107 44.3987,263.012 13.6943,303 C-11.9796,336.437 36.8096,500.803 37.6943,502 C55.7798,526.4613 85.3695,543.0755 111.331,553.7549 " fill="none" id="testkit-opentest4j" style="stroke: #A80036; stroke-width: 1.0; stroke-dasharray: 7.0,7.0;"/><polygon fill="#A80036" points="116.132,555.6804,109.268,548.6174,111.4914,553.819,106.2898,556.0424,116.132,555.6804" style="stroke: #A80036; stroke-width: 1.0;"/><!--link testkit to launcher--><path d="M361.088,231.232 C378.43,250.611 409.527,281.174 443.694,295 C488.722,313.221 506.206,288.916 552.694,303 C581.413,311.701 610.864,329.192 631.411,343.054 " fill="none" id="testkit-launcher" style="stroke: #A80036; stroke-width: 1.0; stroke-dasharray: 7.0,7.0;"/><polygon fill="#A80036" points="635.657,345.953,630.48,337.5746,631.5278,343.1335,625.9688,344.1813,635.657,345.953" style="stroke: #A80036; stroke-width: 1.0;"/><!--link vintage_engine to engine--><path d="M211.442,379.073 C308.112,396.348 471.525,425.551 571.784,443.468 " fill="none" id="vintage_engine-engine" style="stroke: #A80036; stroke-width: 1.0; stroke-dasharray: 7.0,7.0;"/><polygon fill="#A80036" points="576.807,444.366,568.6516,438.8443,571.8851,443.4859,567.2434,446.7194,576.807,444.366" style="stroke: #A80036; stroke-width: 1.0;"/><!--link vintage_engine to junit4--><path d="M132.694,382.241 C132.694,397.479 132.694,419.807 132.694,436.458 " fill="none" id="vintage_engine-junit4" style="stroke: #A80036; stroke-width: 1.0; stroke-dasharray: 7.0,7.0;"/><polygon fill="#A80036" points="132.694,441.868,136.694,432.868,132.694,436.868,128.694,432.868,132.694,441.868" style="stroke: #A80036; stroke-width: 1.0;"/><!--
@startuml
skinparam {
    defaultFontName Open Sans
}

package org.junit.jupiter {
    [junit-jupiter] as jupiter
    [junit-jupiter-api] as jupiter_api
    [junit-jupiter-engine] as jupiter_engine
    [junit-jupiter-params] as jupiter_params
    [junit-jupiter-migrationsupport] as jupiter_migration_support
}

package org.junit.vintage {
    [junit-vintage-engine] as vintage_engine
    [junit:junit] as junit4
}

package org.junit.platform {
    [junit-platform-commons] as commons
    [junit-platform-console] as console
    [junit-platform-engine] as engine
    [junit-platform-launcher] as launcher
    [junit-platform-reporting] as reporting
    [junit-platform-runner] as runner
    [junit-platform-suite-api] as suite_api
    [junit-platform-testkit] as testkit
}

package org.opentest4j {
    [opentest4j]
}

package org.apiguardian {
    [apiguardian-api] as apiguardian
    note bottom of apiguardian #white
        All artifacts except
        opentest4j and junit:junit
        have a dependency on this
        artifact. The edges have
        been omitted from this
        diagram for the sake of
        readability.
    endnote
}

jupiter ..> jupiter_api
jupiter ..> jupiter_params
jupiter ..> jupiter_engine

jupiter_api ..> opentest4j
jupiter_api ..> commons

jupiter_engine ..> engine
jupiter_engine ..> jupiter_api

jupiter_params ..> jupiter_api
jupiter_migration_support ..> jupiter_api
jupiter_migration_support ..> junit4

console ..> launcher
console ..> reporting

launcher ..> engine

engine ..> opentest4j
engine ..> commons

reporting ..> launcher

runner ..> launcher
runner ..> suite_api
runner ..> junit4

testkit ..> opentest4j
testkit ..> launcher

vintage_engine ..> engine
vintage_engine ..> junit4
@enduml

PlantUML version 1.2018.01(Sun Jan 28 18:08:22 UTC 2018)
(APACHE source distribution)
Java Runtime: OpenJDK Runtime Environment
JVM: OpenJDK 64-Bit Server VM
Java Version: 11.0.2+7-LTS
Operating System: Linux
OS Version: 4.15.0-1040-azure
Default Encoding: UTF-8
Language: en
Country: US
--></g></svg>