<?xml version="1.0" encoding="UTF-8" standalone="no"?><svg xmlns="http://www.w3.org/2000/svg" xmlns:xlink="http://www.w3.org/1999/xlink" contentScriptType="application/ecmascript" contentStyleType="text/css" height="503px" preserveAspectRatio="none" style="width:1484px;height:503px;" version="1.1" viewBox="0 0 1484 503" width="1484px" zoomAndPan="magnify"><defs><filter height="300%" id="fiyzzzz" width="300%" x="-1" y="-1"><feGaussianBlur result="blurOut" stdDeviation="2.0"/><feColorMatrix in="blurOut" result="blurOut2" type="matrix" values="0 0 0 0 0 0 0 0 0 0 0 0 0 0 0 0 0 0 .4 0"/><feOffset dx="4.0" dy="4.0" in="blurOut2" result="blurOut3"/><feBlend in="SourceGraphic" in2="blurOut3" mode="normal"/></filter></defs><g><!--cluster org.junit.jupiter--><polygon fill="#FFFFFF" filter="url(#fiyzzzz)" points="22,212,136,212,143,231.9923,594,231.9923,594,389,22,389,22,212" style="stroke: #000000; stroke-width: 2.0;"/><line style="stroke: #000000; stroke-width: 2.0;" x1="22" x2="143" y1="231.9923" y2="231.9923"/><text fill="#000000" font-family="Open Sans" font-size="14" font-weight="bold" lengthAdjust="spacingAndGlyphs" textLength="108" x="26" y="225.3128">org.junit.jupiter</text><!--cluster org.junit.vintage--><polygon fill="#FFFFFF" filter="url(#fiyzzzz)" points="668,212,788,212,795,231.9923,844,231.9923,844,389,668,389,668,212" style="stroke: #000000; stroke-width: 2.0;"/><line style="stroke: #000000; stroke-width: 2.0;" x1="668" x2="795" y1="231.9923" y2="231.9923"/><text fill="#000000" font-family="Open Sans" font-size="14" font-weight="bold" lengthAdjust="spacingAndGlyphs" textLength="114" x="672" y="225.3128">org.junit.vintage</text><!--cluster org.junit.platform--><polygon fill="#FFFFFF" filter="url(#fiyzzzz)" points="868,24,995,24,1002,43.9923,1477,43.9923,1477,496,868,496,868,24" style="stroke: #000000; stroke-width: 2.0;"/><line style="stroke: #000000; stroke-width: 2.0;" x1="868" x2="1002" y1="43.9923" y2="43.9923"/><text fill="#000000" font-family="Open Sans" font-size="14" font-weight="bold" lengthAdjust="spacingAndGlyphs" textLength="121" x="872" y="37.3128">org.junit.platform</text><!--cluster org.opentest4j--><polygon fill="#FFFFFF" filter="url(#fiyzzzz)" points="588,413,695,413,702,432.9923,706,432.9923,706,496,588,496,588,413" style="stroke: #000000; stroke-width: 2.0;"/><line style="stroke: #000000; stroke-width: 2.0;" x1="588" x2="702" y1="432.9923" y2="432.9923"/><text fill="#000000" font-family="Open Sans" font-size="14" font-weight="bold" lengthAdjust="spacingAndGlyphs" textLength="101" x="592" y="426.3128">org.opentest4j</text><!--entity jupiter_api--><rect fill="#FEFECE" filter="url(#fiyzzzz)" height="33.9923" style="stroke: #A80036; stroke-width: 1.5;" width="110" x="455" y="339"/><rect fill="#FEFECE" height="5" style="stroke: #A80036; stroke-width: 1.5;" width="10" x="450" y="344"/><rect fill="#FEFECE" height="5" style="stroke: #A80036; stroke-width: 1.5;" width="10" x="450" y="362.9923"/><text fill="#000000" font-family="Open Sans" font-size="14" lengthAdjust="spacingAndGlyphs" textLength="90" x="465" y="360.3128">junit-jupiter-api</text><!--entity jupiter_engine--><rect fill="#FEFECE" filter="url(#fiyzzzz)" height="33.9923" style="stroke: #A80036; stroke-width: 1.5;" width="135" x="442.75" y="245"/><rect fill="#FEFECE" height="5" style="stroke: #A80036; stroke-width: 1.5;" width="10" x="437.75" y="250"/><rect fill="#FEFECE" height="5" style="stroke: #A80036; stroke-width: 1.5;" width="10" x="437.75" y="268.9923"/><text fill="#000000" font-family="Open Sans" font-size="14" lengthAdjust="spacingAndGlyphs" textLength="115" x="452.75" y="266.3128">junit-jupiter-engine</text><!--entity jupiter_params--><rect fill="#FEFECE" filter="url(#fiyzzzz)" height="33.9923" style="stroke: #A80036; stroke-width: 1.5;" width="139" x="38.75" y="245"/><rect fill="#FEFECE" height="5" style="stroke: #A80036; stroke-width: 1.5;" width="10" x="33.75" y="250"/><rect fill="#FEFECE" height="5" style="stroke: #A80036; stroke-width: 1.5;" width="10" x="33.75" y="268.9923"/><text fill="#000000" font-family="Open Sans" font-size="14" lengthAdjust="spacingAndGlyphs" textLength="119" x="48.75" y="266.3128">junit-jupiter-params</text><!--entity jupiter_migration_support--><rect fill="#FEFECE" filter="url(#fiyzzzz)" height="33.9923" style="stroke: #A80036; stroke-width: 1.5;" width="195" x="212.75" y="245"/><rect fill="#FEFECE" height="5" style="stroke: #A80036; stroke-width: 1.5;" width="10" x="207.75" y="250"/><rect fill="#FEFECE" height="5" style="stroke: #A80036; stroke-width: 1.5;" width="10" x="207.75" y="268.9923"/><text fill="#000000" font-family="Open Sans" font-size="14" lengthAdjust="spacingAndGlyphs" textLength="175" x="222.75" y="266.3128">junit-jupiter-migrationsupport</text><!--entity vintage_engine--><rect fill="#FEFECE" filter="url(#fiyzzzz)" height="33.9923" style="stroke: #A80036; stroke-width: 1.5;" width="143" x="684.75" y="245"/><rect fill="#FEFECE" height="5" style="stroke: #A80036; stroke-width: 1.5;" width="10" x="679.75" y="250"/><rect fill="#FEFECE" height="5" style="stroke: #A80036; stroke-width: 1.5;" width="10" x="679.75" y="268.9923"/><text fill="#000000" font-family="Open Sans" font-size="14" lengthAdjust="spacingAndGlyphs" textLength="123" x="694.75" y="266.3128">junit-vintage-engine</text><!--entity junit4--><rect fill="#FEFECE" filter="url(#fiyzzzz)" height="33.9923" style="stroke: #A80036; stroke-width: 1.5;" width="74" x="684" y="339"/><rect fill="#FEFECE" height="5" style="stroke: #A80036; stroke-width: 1.5;" width="10" x="679" y="344"/><rect fill="#FEFECE" height="5" style="stroke: #A80036; stroke-width: 1.5;" width="10" x="679" y="362.9923"/><text fill="#000000" font-family="Open Sans" font-size="14" lengthAdjust="spacingAndGlyphs" textLength="54" x="694" y="360.3128">junit:junit</text><!--entity commons--><rect fill="#FEFECE" filter="url(#fiyzzzz)" height="33.9923" style="stroke: #A80036; stroke-width: 1.5;" width="166" x="884" y="446"/><rect fill="#FEFECE" height="5" style="stroke: #A80036; stroke-width: 1.5;" width="10" x="879" y="451"/><rect fill="#FEFECE" height="5" style="stroke: #A80036; stroke-width: 1.5;" width="10" x="879" y="469.9923"/><text fill="#000000" font-family="Open Sans" font-size="14" lengthAdjust="spacingAndGlyphs" textLength="146" x="894" y="467.3128">junit-platform-commons</text><!--entity console--><rect fill="#FEFECE" filter="url(#fiyzzzz)" height="33.9923" style="stroke: #A80036; stroke-width: 1.5;" width="153" x="1307.75" y="151"/><rect fill="#FEFECE" height="5" style="stroke: #A80036; stroke-width: 1.5;" width="10" x="1302.75" y="156"/><rect fill="#FEFECE" height="5" style="stroke: #A80036; stroke-width: 1.5;" width="10" x="1302.75" y="174.9923"/><text fill="#000000" font-family="Open Sans" font-size="14" lengthAdjust="spacingAndGlyphs" textLength="133" x="1317.75" y="172.3128">junit-platform-console</text><!--entity engine--><rect fill="#FEFECE" filter="url(#fiyzzzz)" height="33.9923" style="stroke: #A80036; stroke-width: 1.5;" width="147" x="884.75" y="339"/><rect fill="#FEFECE" height="5" style="stroke: #A80036; stroke-width: 1.5;" width="10" x="879.75" y="344"/><rect fill="#FEFECE" height="5" style="stroke: #A80036; stroke-width: 1.5;" width="10" x="879.75" y="362.9923"/><text fill="#000000" font-family="Open Sans" font-size="14" lengthAdjust="spacingAndGlyphs" textLength="127" x="894.75" y="360.3128">junit-platform-engine</text><!--entity gradle--><rect fill="#FEFECE" filter="url(#fiyzzzz)" height="33.9923" style="stroke: #A80036; stroke-width: 1.5;" width="186" x="1275.5" y="57"/><rect fill="#FEFECE" height="5" style="stroke: #A80036; stroke-width: 1.5;" width="10" x="1270.5" y="62"/><rect fill="#FEFECE" height="5" style="stroke: #A80036; stroke-width: 1.5;" width="10" x="1270.5" y="80.9923"/><text fill="#000000" font-family="Open Sans" font-size="14" lengthAdjust="spacingAndGlyphs" textLength="166" x="1285.5" y="78.3128">junit-platform-gradle-plugin</text><!--entity launcher--><rect fill="#FEFECE" filter="url(#fiyzzzz)" height="33.9923" style="stroke: #A80036; stroke-width: 1.5;" width="159" x="1064.75" y="245"/><rect fill="#FEFECE" height="5" style="stroke: #A80036; stroke-width: 1.5;" width="10" x="1059.75" y="250"/><rect fill="#FEFECE" height="5" style="stroke: #A80036; stroke-width: 1.5;" width="10" x="1059.75" y="268.9923"/><text fill="#000000" font-family="Open Sans" font-size="14" lengthAdjust="spacingAndGlyphs" textLength="139" x="1074.75" y="266.3128">junit-platform-launcher</text><!--entity runner--><rect fill="#FEFECE" filter="url(#fiyzzzz)" height="33.9923" style="stroke: #A80036; stroke-width: 1.5;" width="146" x="884" y="151"/><rect fill="#FEFECE" height="5" style="stroke: #A80036; stroke-width: 1.5;" width="10" x="879" y="156"/><rect fill="#FEFECE" height="5" style="stroke: #A80036; stroke-width: 1.5;" width="10" x="879" y="174.9923"/><text fill="#000000" font-family="Open Sans" font-size="14" lengthAdjust="spacingAndGlyphs" textLength="126" x="894" y="172.3128">junit-platform-runner</text><!--entity suite_api--><rect fill="#FEFECE" filter="url(#fiyzzzz)" height="33.9923" style="stroke: #A80036; stroke-width: 1.5;" width="156" x="1067" y="339"/><rect fill="#FEFECE" height="5" style="stroke: #A80036; stroke-width: 1.5;" width="10" x="1062" y="344"/><rect fill="#FEFECE" height="5" style="stroke: #A80036; stroke-width: 1.5;" width="10" x="1062" y="362.9923"/><text fill="#000000" font-family="Open Sans" font-size="14" lengthAdjust="spacingAndGlyphs" textLength="136" x="1077" y="360.3128">junit-platform-suite-api</text><!--entity surefire--><rect fill="#FEFECE" filter="url(#fiyzzzz)" height="33.9923" style="stroke: #A80036; stroke-width: 1.5;" width="207" x="1065.75" y="151"/><rect fill="#FEFECE" height="5" style="stroke: #A80036; stroke-width: 1.5;" width="10" x="1060.75" y="156"/><rect fill="#FEFECE" height="5" style="stroke: #A80036; stroke-width: 1.5;" width="10" x="1060.75" y="174.9923"/><text fill="#000000" font-family="Open Sans" font-size="14" lengthAdjust="spacingAndGlyphs" textLength="187" x="1075.75" y="172.3128">junit-platform-surefire-provider</text><!--entity opentest4j--><rect fill="#FEFECE" filter="url(#fiyzzzz)" height="33.9923" style="stroke: #A80036; stroke-width: 1.5;" width="83" x="605.75" y="446"/><rect fill="#FEFECE" height="5" style="stroke: #A80036; stroke-width: 1.5;" width="10" x="600.75" y="451"/><rect fill="#FEFECE" height="5" style="stroke: #A80036; stroke-width: 1.5;" width="10" x="600.75" y="469.9923"/><text fill="#000000" font-family="Open Sans" font-size="14" lengthAdjust="spacingAndGlyphs" textLength="63" x="615.75" y="467.3128">opentest4j</text><path d="M531.106,373.176 C555.615,391.96 596,422.9126 622.043,442.8723 " fill="none" style="stroke: #A80036; stroke-width: 1.0; stroke-dasharray: 7.0,7.0;"/><polygon fill="#A80036" points="626.095,445.9778,621.3847,437.3283,622.1264,442.9364,616.5184,443.6781,626.095,445.9778" style="stroke: #A80036; stroke-width: 1.0;"/><path d="M565.091,371.451 C595.396,379.273 633.703,388.953 668,397 C684.38,400.843 688.558,401.434 705,405 C766.589,418.3578 836.31,433.5286 888.338,444.859 " fill="none" style="stroke: #A80036; stroke-width: 1.0; stroke-dasharray: 7.0,7.0;"/><polygon fill="#A80036" points="893.317,445.9433,885.3747,440.1193,888.4316,444.879,883.6718,447.9359,893.317,445.9433" style="stroke: #A80036; stroke-width: 1.0;"/><path d="M577.555,276.873 C658.562,293.508 794.09,321.34 879.623,338.905 " fill="none" style="stroke: #A80036; stroke-width: 1.0; stroke-dasharray: 7.0,7.0;"/><polygon fill="#A80036" points="884.674,339.942,876.6627,334.2133,879.7762,338.9362,875.0533,342.0497,884.674,339.942" style="stroke: #A80036; stroke-width: 1.0;"/><path d="M510,279.025 C510,294.104 510,316.793 510,333.451 " fill="none" style="stroke: #A80036; stroke-width: 1.0; stroke-dasharray: 7.0,7.0;"/><polygon fill="#A80036" points="510,338.85,514,329.85,510,333.85,506,329.85,510,338.85" style="stroke: #A80036; stroke-width: 1.0;"/><path d="M177.564,278.92 C254.373,296.498 376.782,324.512 449.678,341.195 " fill="none" style="stroke: #A80036; stroke-width: 1.0; stroke-dasharray: 7.0,7.0;"/><polygon fill="#A80036" points="454.84,342.376,446.9594,336.4687,449.9661,341.2604,445.1744,344.267,454.84,342.376" style="stroke: #A80036; stroke-width: 1.0;"/><path d="M344.837,279.025 C379.754,295.087 433.445,319.785 470.065,336.63 " fill="none" style="stroke: #A80036; stroke-width: 1.0; stroke-dasharray: 7.0,7.0;"/><polygon fill="#A80036" points="474.891,338.85,468.3866,331.4546,470.3487,336.7602,465.043,338.7223,474.891,338.85" style="stroke: #A80036; stroke-width: 1.0;"/><path d="M381.591,279.025 C467.612,298.281 609.08,329.947 679.08,345.616 " fill="none" style="stroke: #A80036; stroke-width: 1.0; stroke-dasharray: 7.0,7.0;"/><polygon fill="#A80036" points="683.995,346.717,676.087,340.8464,679.1159,345.624,674.3383,348.6529,683.995,346.717" style="stroke: #A80036; stroke-width: 1.0;"/><path d="M1342.2,185.025 C1299.95,201.218 1234.81,226.189 1190.85,243.041 " fill="none" style="stroke: #A80036; stroke-width: 1.0; stroke-dasharray: 7.0,7.0;"/><polygon fill="#A80036" points="1186.13,244.85,1195.9664,245.3445,1190.7953,243.0513,1193.0885,237.8801,1186.13,244.85" style="stroke: #A80036; stroke-width: 1.0;"/><path d="M1370.79,91.025 C1373.43,106.235 1377.42,129.188 1380.33,145.885 " fill="none" style="stroke: #A80036; stroke-width: 1.0; stroke-dasharray: 7.0,7.0;"/><polygon fill="#A80036" points="1381.19,150.85,1383.5888,141.2977,1380.3333,145.9239,1375.7071,142.6685,1381.19,150.85" style="stroke: #A80036; stroke-width: 1.0;"/><path d="M1111.6,279.025 C1079.13,295.087 1029.2,319.785 995.14,336.63 " fill="none" style="stroke: #A80036; stroke-width: 1.0; stroke-dasharray: 7.0,7.0;"/><polygon fill="#A80036" points="990.652,338.85,1000.4925,338.4455,995.1338,336.6334,996.946,331.2746,990.652,338.85" style="stroke: #A80036; stroke-width: 1.0;"/><path d="M912.854,373.06 C891.938,380.443 866.735,389.261 844,397 C792.563,414.508 733.334,433.955 693.36,446.9749 " fill="none" style="stroke: #A80036; stroke-width: 1.0; stroke-dasharray: 7.0,7.0;"/><polygon fill="#A80036" points="688.583,448.5303,698.3793,449.5463,693.3372,446.9818,695.9017,441.9396,688.583,448.5303" style="stroke: #A80036; stroke-width: 1.0;"/><path d="M959.406,373.406 C960.958,391.514 963.462,420.7251 965.167,440.6147 " fill="none" style="stroke: #A80036; stroke-width: 1.0; stroke-dasharray: 7.0,7.0;"/><polygon fill="#A80036" points="965.604,445.709,968.8205,436.4002,965.1768,440.7273,960.8497,437.0836,965.604,445.709" style="stroke: #A80036; stroke-width: 1.0;"/><path d="M989.573,185.025 C1022.22,201.087 1072.42,225.785 1106.66,242.63 " fill="none" style="stroke: #A80036; stroke-width: 1.0; stroke-dasharray: 7.0,7.0;"/><polygon fill="#A80036" points="1111.17,244.85,1104.8693,237.2802,1106.6862,242.6374,1101.3291,244.4543,1111.17,244.85" style="stroke: #A80036; stroke-width: 1.0;"/><path d="M968.485,185.254 C984.669,207.605 1015.72,248.523 1047,279 C1068.88,300.321 1096.62,321.357 1116.99,335.873 " fill="none" style="stroke: #A80036; stroke-width: 1.0; stroke-dasharray: 7.0,7.0;"/><polygon fill="#A80036" points="1121.23,338.869,1116.2117,330.3946,1117.1546,335.9723,1111.5769,336.9152,1121.23,338.869" style="stroke: #A80036; stroke-width: 1.0;"/><path d="M883.85,172.847 C802.685,177.88 681.193,187.991 667,204 C633.062,242.28 675.664,303.402 702.415,334.854 " fill="none" style="stroke: #A80036; stroke-width: 1.0; stroke-dasharray: 7.0,7.0;"/><polygon fill="#A80036" points="705.913,338.906,703.0593,329.4796,702.6455,335.1213,697.0038,334.7076,705.913,338.906" style="stroke: #A80036; stroke-width: 1.0;"/><path d="M1117.58,373.176 C1085.47,392.115 1032.4,423.4229 998.594,443.3629 " fill="none" style="stroke: #A80036; stroke-width: 1.0; stroke-dasharray: 7.0,7.0;"/><polygon fill="#A80036" points="994.161,445.9778,1003.9452,444.851,998.4677,443.4377,999.881,437.9602,994.161,445.9778" style="stroke: #A80036; stroke-width: 1.0;"/><path d="M1164.65,185.025 C1160.51,200.235 1154.27,223.188 1149.74,239.885 " fill="none" style="stroke: #A80036; stroke-width: 1.0; stroke-dasharray: 7.0,7.0;"/><polygon fill="#A80036" points="1148.39,244.85,1154.6091,237.2131,1149.7005,240.0248,1146.8888,235.1162,1148.39,244.85" style="stroke: #A80036; stroke-width: 1.0;"/><path d="M791.186,279.025 C826.452,295.087 880.68,319.785 917.666,336.63 " fill="none" style="stroke: #A80036; stroke-width: 1.0; stroke-dasharray: 7.0,7.0;"/><polygon fill="#A80036" points="922.54,338.85,916.0082,331.4787,917.9899,336.7771,912.6916,338.7589,922.54,338.85" style="stroke: #A80036; stroke-width: 1.0;"/><path d="M749.903,279.025 C744.117,294.235 735.385,317.188 729.033,333.885 " fill="none" style="stroke: #A80036; stroke-width: 1.0; stroke-dasharray: 7.0,7.0;"/><polygon fill="#A80036" points="727.144,338.85,734.0832,331.8609,728.9221,334.1769,726.6061,329.0158,727.144,338.85" style="stroke: #A80036; stroke-width: 1.0;"/></g></svg>