<?xml version="1.0" encoding="UTF-8" standalone="no"?><svg xmlns="http://www.w3.org/2000/svg" xmlns:xlink="http://www.w3.org/1999/xlink" contentScriptType="application/ecmascript" contentStyleType="text/css" height="620px" preserveAspectRatio="none" style="width:1652px;height:620px;" version="1.1" viewBox="0 0 1652 620" width="1652px" zoomAndPan="magnify"><defs><filter height="300%" id="f1sb218zb57w0p" width="300%" x="-1" y="-1"><feGaussianBlur result="blurOut" stdDeviation="2.0"/><feColorMatrix in="blurOut" result="blurOut2" type="matrix" values="0 0 0 0 0 0 0 0 0 0 0 0 0 0 0 0 0 0 .4 0"/><feOffset dx="4.0" dy="4.0" in="blurOut2" result="blurOut3"/><feBlend in="SourceGraphic" in2="blurOut3" mode="normal"/></filter></defs><g><!--cluster org.junit.jupiter--><polygon fill="#FFFFFF" filter="url(#f1sb218zb57w0p)" points="22,312,150,312,157,334.2969,648,334.2969,648,496,22,496,22,312" style="stroke: #000000; stroke-width: 1.5;"/><line style="stroke: #000000; stroke-width: 1.5;" x1="22" x2="157" y1="334.2969" y2="334.2969"/><text fill="#000000" font-family="Open Sans" font-size="14" font-weight="bold" lengthAdjust="spacingAndGlyphs" textLength="122" x="26" y="326.9951">org.junit.jupiter</text><!--cluster org.junit.vintage--><polygon fill="#FFFFFF" filter="url(#f1sb218zb57w0p)" points="722,312,857,312,864,334.2969,912,334.2969,912,496,722,496,722,312" style="stroke: #000000; stroke-width: 1.5;"/><line style="stroke: #000000; stroke-width: 1.5;" x1="722" x2="864" y1="334.2969" y2="334.2969"/><text fill="#000000" font-family="Open Sans" font-size="14" font-weight="bold" lengthAdjust="spacingAndGlyphs" textLength="129" x="726" y="326.9951">org.junit.vintage</text><!--cluster org.junit.platform--><polygon fill="#FFFFFF" filter="url(#f1sb218zb57w0p)" points="936,24,1079,24,1086,46.2969,1380,46.2969,1380,608,936,608,936,24" style="stroke: #000000; stroke-width: 1.5;"/><line style="stroke: #000000; stroke-width: 1.5;" x1="936" x2="1086" y1="46.2969" y2="46.2969"/><text fill="#000000" font-family="Open Sans" font-size="14" font-weight="bold" lengthAdjust="spacingAndGlyphs" textLength="137" x="940" y="38.9951">org.junit.platform</text><!--cluster org.opentest4j--><polygon fill="#FFFFFF" filter="url(#f1sb218zb57w0p)" points="634,520,757,520,764,542.2969,768,542.2969,768,608,634,608,634,520" style="stroke: #000000; stroke-width: 1.5;"/><line style="stroke: #000000; stroke-width: 1.5;" x1="634" x2="764" y1="542.2969" y2="542.2969"/><text fill="#000000" font-family="Open Sans" font-size="14" font-weight="bold" lengthAdjust="spacingAndGlyphs" textLength="117" x="638" y="534.9951">org.opentest4j</text><!--cluster org.apiguardian--><polygon fill="#FFFFFF" filter="url(#f1sb218zb57w0p)" points="1404,24,1534,24,1541,46.2969,1630,46.2969,1630,288,1404,288,1404,24" style="stroke: #000000; stroke-width: 1.5;"/><line style="stroke: #000000; stroke-width: 1.5;" x1="1404" x2="1541" y1="46.2969" y2="46.2969"/><text fill="#000000" font-family="Open Sans" font-size="14" font-weight="bold" lengthAdjust="spacingAndGlyphs" textLength="124" x="1408" y="38.9951">org.apiguardian</text><!--entity jupiter_api--><rect fill="#FEFECE" filter="url(#f1sb218zb57w0p)" height="36.2969" style="stroke: #A80036; stroke-width: 1.5;" width="122" x="496" y="444"/><rect fill="#FEFECE" height="5" style="stroke: #A80036; stroke-width: 1.5;" width="10" x="491" y="449"/><rect fill="#FEFECE" height="5" style="stroke: #A80036; stroke-width: 1.5;" width="10" x="491" y="470.2969"/><text fill="#000000" font-family="Open Sans" font-size="14" lengthAdjust="spacingAndGlyphs" textLength="102" x="506" y="466.9951">junit-jupiter-api</text><!--entity jupiter_engine--><rect fill="#FEFECE" filter="url(#f1sb218zb57w0p)" height="36.2969" style="stroke: #A80036; stroke-width: 1.5;" width="150" x="482.5" y="348"/><rect fill="#FEFECE" height="5" style="stroke: #A80036; stroke-width: 1.5;" width="10" x="477.5" y="353"/><rect fill="#FEFECE" height="5" style="stroke: #A80036; stroke-width: 1.5;" width="10" x="477.5" y="374.2969"/><text fill="#000000" font-family="Open Sans" font-size="14" lengthAdjust="spacingAndGlyphs" textLength="130" x="492.5" y="370.9951">junit-jupiter-engine</text><!--entity jupiter_params--><rect fill="#FEFECE" filter="url(#f1sb218zb57w0p)" height="36.2969" style="stroke: #A80036; stroke-width: 1.5;" width="153" x="38.75" y="348"/><rect fill="#FEFECE" height="5" style="stroke: #A80036; stroke-width: 1.5;" width="10" x="33.75" y="353"/><rect fill="#FEFECE" height="5" style="stroke: #A80036; stroke-width: 1.5;" width="10" x="33.75" y="374.2969"/><text fill="#000000" font-family="Open Sans" font-size="14" lengthAdjust="spacingAndGlyphs" textLength="133" x="48.75" y="370.9951">junit-jupiter-params</text><!--entity jupiter_migration_support--><rect fill="#FEFECE" filter="url(#f1sb218zb57w0p)" height="36.2969" style="stroke: #A80036; stroke-width: 1.5;" width="220" x="227" y="348"/><rect fill="#FEFECE" height="5" style="stroke: #A80036; stroke-width: 1.5;" width="10" x="222" y="353"/><rect fill="#FEFECE" height="5" style="stroke: #A80036; stroke-width: 1.5;" width="10" x="222" y="374.2969"/><text fill="#000000" font-family="Open Sans" font-size="14" lengthAdjust="spacingAndGlyphs" textLength="200" x="237" y="370.9951">junit-jupiter-migrationsupport</text><!--entity vintage_engine--><rect fill="#FEFECE" filter="url(#f1sb218zb57w0p)" height="36.2969" style="stroke: #A80036; stroke-width: 1.5;" width="157" x="738.75" y="348"/><rect fill="#FEFECE" height="5" style="stroke: #A80036; stroke-width: 1.5;" width="10" x="733.75" y="353"/><rect fill="#FEFECE" height="5" style="stroke: #A80036; stroke-width: 1.5;" width="10" x="733.75" y="374.2969"/><text fill="#000000" font-family="Open Sans" font-size="14" lengthAdjust="spacingAndGlyphs" textLength="137" x="748.75" y="370.9951">junit-vintage-engine</text><!--entity junit4--><rect fill="#FEFECE" filter="url(#f1sb218zb57w0p)" height="36.2969" style="stroke: #A80036; stroke-width: 1.5;" width="83" x="738.75" y="444"/><rect fill="#FEFECE" height="5" style="stroke: #A80036; stroke-width: 1.5;" width="10" x="733.75" y="449"/><rect fill="#FEFECE" height="5" style="stroke: #A80036; stroke-width: 1.5;" width="10" x="733.75" y="470.2969"/><text fill="#000000" font-family="Open Sans" font-size="14" lengthAdjust="spacingAndGlyphs" textLength="63" x="748.75" y="466.9951">junit:junit</text><!--entity commons--><rect fill="#FEFECE" filter="url(#f1sb218zb57w0p)" height="36.2969" style="stroke: #A80036; stroke-width: 1.5;" width="184" x="952" y="556"/><rect fill="#FEFECE" height="5" style="stroke: #A80036; stroke-width: 1.5;" width="10" x="947" y="561"/><rect fill="#FEFECE" height="5" style="stroke: #A80036; stroke-width: 1.5;" width="10" x="947" y="582.2969"/><text fill="#000000" font-family="Open Sans" font-size="14" lengthAdjust="spacingAndGlyphs" textLength="164" x="962" y="578.9951">junit-platform-commons</text><!--entity console--><rect fill="#FEFECE" filter="url(#f1sb218zb57w0p)" height="36.2969" style="stroke: #A80036; stroke-width: 1.5;" width="170" x="1173" y="60"/><rect fill="#FEFECE" height="5" style="stroke: #A80036; stroke-width: 1.5;" width="10" x="1168" y="65"/><rect fill="#FEFECE" height="5" style="stroke: #A80036; stroke-width: 1.5;" width="10" x="1168" y="86.2969"/><text fill="#000000" font-family="Open Sans" font-size="14" lengthAdjust="spacingAndGlyphs" textLength="150" x="1183" y="82.9951">junit-platform-console</text><!--entity engine--><rect fill="#FEFECE" filter="url(#f1sb218zb57w0p)" height="36.2969" style="stroke: #A80036; stroke-width: 1.5;" width="163" x="952.75" y="444"/><rect fill="#FEFECE" height="5" style="stroke: #A80036; stroke-width: 1.5;" width="10" x="947.75" y="449"/><rect fill="#FEFECE" height="5" style="stroke: #A80036; stroke-width: 1.5;" width="10" x="947.75" y="470.2969"/><text fill="#000000" font-family="Open Sans" font-size="14" lengthAdjust="spacingAndGlyphs" textLength="143" x="962.75" y="466.9951">junit-platform-engine</text><!--entity launcher--><rect fill="#FEFECE" filter="url(#f1sb218zb57w0p)" height="36.2969" style="stroke: #A80036; stroke-width: 1.5;" width="175" x="1161.75" y="348"/><rect fill="#FEFECE" height="5" style="stroke: #A80036; stroke-width: 1.5;" width="10" x="1156.75" y="353"/><rect fill="#FEFECE" height="5" style="stroke: #A80036; stroke-width: 1.5;" width="10" x="1156.75" y="374.2969"/><text fill="#000000" font-family="Open Sans" font-size="14" lengthAdjust="spacingAndGlyphs" textLength="155" x="1171.75" y="370.9951">junit-platform-launcher</text><!--entity reporting--><rect fill="#FEFECE" filter="url(#f1sb218zb57w0p)" height="36.2969" style="stroke: #A80036; stroke-width: 1.5;" width="178" x="1149.5" y="196"/><rect fill="#FEFECE" height="5" style="stroke: #A80036; stroke-width: 1.5;" width="10" x="1144.5" y="201"/><rect fill="#FEFECE" height="5" style="stroke: #A80036; stroke-width: 1.5;" width="10" x="1144.5" y="222.2969"/><text fill="#000000" font-family="Open Sans" font-size="14" lengthAdjust="spacingAndGlyphs" textLength="158" x="1159.5" y="218.9951">junit-platform-reporting</text><!--entity runner--><rect fill="#FEFECE" filter="url(#f1sb218zb57w0p)" height="36.2969" style="stroke: #A80036; stroke-width: 1.5;" width="161" x="952.75" y="196"/><rect fill="#FEFECE" height="5" style="stroke: #A80036; stroke-width: 1.5;" width="10" x="947.75" y="201"/><rect fill="#FEFECE" height="5" style="stroke: #A80036; stroke-width: 1.5;" width="10" x="947.75" y="222.2969"/><text fill="#000000" font-family="Open Sans" font-size="14" lengthAdjust="spacingAndGlyphs" textLength="141" x="962.75" y="218.9951">junit-platform-runner</text><!--entity suite_api--><rect fill="#FEFECE" filter="url(#f1sb218zb57w0p)" height="36.2969" style="stroke: #A80036; stroke-width: 1.5;" width="174" x="952" y="348"/><rect fill="#FEFECE" height="5" style="stroke: #A80036; stroke-width: 1.5;" width="10" x="947" y="353"/><rect fill="#FEFECE" height="5" style="stroke: #A80036; stroke-width: 1.5;" width="10" x="947" y="374.2969"/><text fill="#000000" font-family="Open Sans" font-size="14" lengthAdjust="spacingAndGlyphs" textLength="154" x="962" y="370.9951">junit-platform-suite-api</text><!--entity opentest4j--><rect fill="#FEFECE" filter="url(#f1sb218zb57w0p)" height="36.2969" style="stroke: #A80036; stroke-width: 1.5;" width="95" x="653.75" y="556"/><rect fill="#FEFECE" height="5" style="stroke: #A80036; stroke-width: 1.5;" width="10" x="648.75" y="561"/><rect fill="#FEFECE" height="5" style="stroke: #A80036; stroke-width: 1.5;" width="10" x="648.75" y="582.2969"/><text fill="#000000" font-family="Open Sans" font-size="14" lengthAdjust="spacingAndGlyphs" textLength="75" x="663.75" y="578.9951">opentest4j</text><!--entity apiguardian--><rect fill="#FEFECE" filter="url(#f1sb218zb57w0p)" height="36.2969" style="stroke: #A80036; stroke-width: 1.5;" width="125" x="1454.75" y="60"/><rect fill="#FEFECE" height="5" style="stroke: #A80036; stroke-width: 1.5;" width="10" x="1449.75" y="65"/><rect fill="#FEFECE" height="5" style="stroke: #A80036; stroke-width: 1.5;" width="10" x="1449.75" y="86.2969"/><text fill="#000000" font-family="Open Sans" font-size="14" lengthAdjust="spacingAndGlyphs" textLength="105" x="1464.75" y="82.9951">apiguardian-api</text><path d="M1420.75,156 L1420.75,271.9297 A0,0 0 0 0 1420.75,271.9297 L1613.75,271.9297 A0,0 0 0 0 1613.75,271.9297 L1613.75,166 L1603.75,156 L1521,156 L1517,96.244 L1513,156 L1420.75,156 A0,0 0 0 0 1420.75,156 " fill="#FFFFFF" filter="url(#f1sb218zb57w0p)" style="stroke: #A80036; stroke-width: 1.0;"/><path d="M1603.75,156 L1603.75,166 L1613.75,166 L1603.75,156 " fill="#FFFFFF" style="stroke: #A80036; stroke-width: 1.0;"/><text fill="#000000" font-family="Open Sans" font-size="13" lengthAdjust="spacingAndGlyphs" textLength="118" x="1426.75" y="173.0669">All artifacts except</text><text fill="#000000" font-family="Open Sans" font-size="13" lengthAdjust="spacingAndGlyphs" textLength="158" x="1426.75" y="188.1997">opentest4j and junit:junit</text><text fill="#000000" font-family="Open Sans" font-size="13" lengthAdjust="spacingAndGlyphs" textLength="172" x="1426.75" y="203.3325">have a dependency on this</text><text fill="#000000" font-family="Open Sans" font-size="13" lengthAdjust="spacingAndGlyphs" textLength="154" x="1426.75" y="218.4653">artifact. The edges have</text><text fill="#000000" font-family="Open Sans" font-size="13" lengthAdjust="spacingAndGlyphs" textLength="147" x="1426.75" y="233.5981">been omitted from this</text><text fill="#000000" font-family="Open Sans" font-size="13" lengthAdjust="spacingAndGlyphs" textLength="149" x="1426.75" y="248.731">diagram for the sake of</text><text fill="#000000" font-family="Open Sans" font-size="13" lengthAdjust="spacingAndGlyphs" textLength="70" x="1426.75" y="263.8638">readability.</text><!--link jupiter_api to opentest4j--><path d="M579.5,480.188 C605.179,499.803 647.14,531.8567 674.412,552.6896 " fill="none" id="jupiter_api-opentest4j" style="stroke: #A80036; stroke-width: 1.0; stroke-dasharray: 7.0,7.0;"/><polygon fill="#A80036" points="678.658,555.9332,673.9349,547.2907,674.6849,552.8976,669.078,553.6477,678.658,555.9332" style="stroke: #A80036; stroke-width: 1.0;"/><!--link jupiter_api to commons--><path d="M618.306,479.157 C649.288,487.087 687.53,496.518 722,504 C740.997,508.123 745.947,508.146 765,512 C832.34,525.6223 908.523,542.3697 964.247,554.868 " fill="none" id="jupiter_api-commons" style="stroke: #A80036; stroke-width: 1.0; stroke-dasharray: 7.0,7.0;"/><polygon fill="#A80036" points="969.235,555.9878,961.3303,550.1128,964.3565,554.8921,959.5772,557.9183,969.235,555.9878" style="stroke: #A80036; stroke-width: 1.0;"/><!--link jupiter_engine to engine--><path d="M631.531,381.688 C717.038,398.538 857.043,426.128 947.34,443.922 " fill="none" id="jupiter_engine-engine" style="stroke: #A80036; stroke-width: 1.0; stroke-dasharray: 7.0,7.0;"/><polygon fill="#A80036" points="952.407,444.921,944.3507,439.2557,947.5014,443.9539,942.8033,447.1047,952.407,444.921" style="stroke: #A80036; stroke-width: 1.0;"/><!--link jupiter_engine to jupiter_api--><path d="M557,384.241 C557,399.479 557,421.807 557,438.458 " fill="none" id="jupiter_engine-jupiter_api" style="stroke: #A80036; stroke-width: 1.0; stroke-dasharray: 7.0,7.0;"/><polygon fill="#A80036" points="557,443.868,561,434.868,557,438.868,553,434.868,557,443.868" style="stroke: #A80036; stroke-width: 1.0;"/><!--link jupiter_params to jupiter_api--><path d="M191.486,383.266 C275.865,401.211 410.294,429.8 490.468,446.851 " fill="none" id="jupiter_params-jupiter_api" style="stroke: #A80036; stroke-width: 1.0; stroke-dasharray: 7.0,7.0;"/><polygon fill="#A80036" points="495.67,447.957,487.699,442.1723,490.7794,446.9169,486.0348,449.9973,495.67,447.957" style="stroke: #A80036; stroke-width: 1.0;"/><!--link jupiter_migration_support to jupiter_api--><path d="M376.84,384.023 C415.035,400.342 472.599,424.938 512.331,441.914 " fill="none" id="jupiter_migration_support-jupiter_api" style="stroke: #A80036; stroke-width: 1.0; stroke-dasharray: 7.0,7.0;"/><polygon fill="#A80036" points="517.085,443.945,510.3824,436.7287,512.4877,441.9792,507.2371,444.0844,517.085,443.945" style="stroke: #A80036; stroke-width: 1.0;"/><!--link jupiter_migration_support to junit4--><path d="M417.224,384.023 C509.63,403.63 658.335,435.184 733.422,451.117 " fill="none" id="jupiter_migration_support-junit4" style="stroke: #A80036; stroke-width: 1.0; stroke-dasharray: 7.0,7.0;"/><polygon fill="#A80036" points="738.699,452.236,730.7248,446.4557,733.8078,451.1986,729.0649,454.2816,738.699,452.236" style="stroke: #A80036; stroke-width: 1.0;"/><!--link console to launcher--><path d="M1287.16,96.117 C1306.99,109.583 1331.62,130.335 1343,156 C1368.22,212.881 1371.11,240.491 1343,296 C1332.12,317.491 1311.04,333.912 1291.6,345.332 " fill="none" id="console-launcher" style="stroke: #A80036; stroke-width: 1.0; stroke-dasharray: 7.0,7.0;"/><polygon fill="#A80036" points="1287.22,347.838,1297.0178,346.836,1291.5588,345.353,1293.0418,339.894,1287.22,347.838" style="stroke: #A80036; stroke-width: 1.0;"/><!--link console to reporting--><path d="M1255.43,96.244 C1251.83,120.365 1245.28,164.199 1241.32,190.753 " fill="none" id="console-reporting" style="stroke: #A80036; stroke-width: 1.0; stroke-dasharray: 7.0,7.0;"/><polygon fill="#A80036" points="1240.56,195.822,1245.8438,187.5105,1241.2975,190.8767,1237.9313,186.3304,1240.56,195.822" style="stroke: #A80036; stroke-width: 1.0;"/><!--link launcher to engine--><path d="M1210.07,384.023 C1172.74,400.342 1116.48,424.938 1077.65,441.914 " fill="none" id="launcher-engine" style="stroke: #A80036; stroke-width: 1.0; stroke-dasharray: 7.0,7.0;"/><polygon fill="#A80036" points="1073.01,443.945,1082.8586,444.0102,1077.5924,441.9446,1079.658,436.6783,1073.01,443.945" style="stroke: #A80036; stroke-width: 1.0;"/><!--link engine to opentest4j--><path d="M983.577,480.048 C961.606,487.45 935.542,496.195 912,504 C857.929,521.926 795.96,542.1534 753.236,556.049 " fill="none" id="engine-opentest4j" style="stroke: #A80036; stroke-width: 1.0; stroke-dasharray: 7.0,7.0;"/><polygon fill="#A80036" points="748.384,557.6269,758.1797,558.6485,753.1391,556.0811,755.7065,551.0405,748.384,557.6269" style="stroke: #A80036; stroke-width: 1.0;"/><!--link engine to commons--><path d="M1035.56,480.188 C1037.29,499.238 1040.09,530.0203 1041.99,550.8619 " fill="none" id="engine-commons" style="stroke: #A80036; stroke-width: 1.0; stroke-dasharray: 7.0,7.0;"/><polygon fill="#A80036" points="1042.45,555.9332,1045.6197,546.6084,1041.9978,550.9537,1037.6525,547.3318,1042.45,555.9332" style="stroke: #A80036; stroke-width: 1.0;"/><!--link reporting to launcher--><path d="M1239.26,232.207 C1241.26,259.446 1245.15,312.491 1247.36,342.642 " fill="none" id="reporting-launcher" style="stroke: #A80036; stroke-width: 1.0; stroke-dasharray: 7.0,7.0;"/><polygon fill="#A80036" points="1247.75,347.994,1251.0809,338.7255,1247.3842,343.0074,1243.1023,339.3107,1247.75,347.994" style="stroke: #A80036; stroke-width: 1.0;"/><!--link runner to launcher--><path d="M1051.79,232.095 C1071.01,249.187 1102.05,275.77 1131,296 C1145.82,306.355 1184.79,328.822 1213.92,345.318 " fill="none" id="runner-launcher" style="stroke: #A80036; stroke-width: 1.0; stroke-dasharray: 7.0,7.0;"/><polygon fill="#A80036" points="1218.51,347.912,1212.6399,340.0036,1214.1562,345.4535,1208.7063,346.9698,1218.51,347.912" style="stroke: #A80036; stroke-width: 1.0;"/><!--link runner to suite_api--><path d="M1033.69,232.207 C1034.78,259.446 1036.9,312.491 1038.11,342.642 " fill="none" id="runner-suite_api" style="stroke: #A80036; stroke-width: 1.0; stroke-dasharray: 7.0,7.0;"/><polygon fill="#A80036" points="1038.32,347.994,1041.9571,338.8413,1038.1202,342.998,1033.9635,339.1611,1038.32,347.994" style="stroke: #A80036; stroke-width: 1.0;"/><!--link runner to junit4--><path d="M952.613,226.809 C869.776,240.816 748.907,267.019 721,304 C699.583,332.381 709.583,350.327 721,384 C728.266,405.431 744.159,425.577 757.62,439.884 " fill="none" id="runner-junit4" style="stroke: #A80036; stroke-width: 1.0; stroke-dasharray: 7.0,7.0;"/><polygon fill="#A80036" points="761.344,443.761,757.993,434.4997,757.8799,440.1555,752.2242,440.0423,761.344,443.761" style="stroke: #A80036; stroke-width: 1.0;"/><!--link vintage_engine to engine--><path d="M856.297,384.023 C893.971,400.342 950.75,424.938 989.94,441.914 " fill="none" id="vintage_engine-engine" style="stroke: #A80036; stroke-width: 1.0; stroke-dasharray: 7.0,7.0;"/><polygon fill="#A80036" points="994.629,443.945,987.9598,436.6978,990.0408,441.958,984.7806,444.039,994.629,443.945" style="stroke: #A80036; stroke-width: 1.0;"/><!--link vintage_engine to junit4--><path d="M810.214,384.241 C804.164,399.612 795.274,422.196 788.703,438.891 " fill="none" id="vintage_engine-junit4" style="stroke: #A80036; stroke-width: 1.0; stroke-dasharray: 7.0,7.0;"/><polygon fill="#A80036" points="786.743,443.868,793.7614,436.9584,788.5743,439.2154,786.3173,434.0283,786.743,443.868" style="stroke: #A80036; stroke-width: 1.0;"/><!--
@startuml
skinparam {
    defaultFontName Open Sans
}

package org.junit.jupiter {
    [junit-jupiter-api] as jupiter_api
    [junit-jupiter-engine] as jupiter_engine
    [junit-jupiter-params] as jupiter_params
    [junit-jupiter-migrationsupport] as jupiter_migration_support
}

package org.junit.vintage {
    [junit-vintage-engine] as vintage_engine
    [junit:junit] as junit4
}

package org.junit.platform {
    [junit-platform-commons] as commons
    [junit-platform-console] as console
    [junit-platform-engine] as engine
    [junit-platform-launcher] as launcher
    [junit-platform-reporting] as reporting
    [junit-platform-runner] as runner
    [junit-platform-suite-api] as suite_api
}

package org.opentest4j {
    [opentest4j]
}

package org.apiguardian {
    [apiguardian-api] as apiguardian
    note bottom of apiguardian #white
        All artifacts except
        opentest4j and junit:junit
        have a dependency on this
        artifact. The edges have
        been omitted from this
        diagram for the sake of
        readability.
    endnote
}

jupiter_api ..> opentest4j
jupiter_api ..> commons

jupiter_engine ..> engine
jupiter_engine ..> jupiter_api

jupiter_params ..> jupiter_api
jupiter_migration_support ..> jupiter_api
jupiter_migration_support ..> junit4

console ..> launcher
console ..> reporting

launcher ..> engine

engine ..> opentest4j
engine ..> commons

reporting ..> launcher

runner ..> launcher
runner ..> suite_api
runner ..> junit4

vintage_engine ..> engine
vintage_engine ..> junit4
@enduml

PlantUML version 1.2018.01(Sun Jan 28 18:08:22 UTC 2018)
(APACHE source distribution)
Java Runtime: OpenJDK Runtime Environment
JVM: OpenJDK 64-Bit Server VM
Java Version: 11.0.1+13
Operating System: Linux
OS Version: 4.4.0-101-generic
Default Encoding: UTF-8
Language: en
Country: US
--></g></svg>