<?xml version="1.0" encoding="UTF-8" standalone="no"?><svg xmlns="http://www.w3.org/2000/svg" xmlns:xlink="http://www.w3.org/1999/xlink" contentScriptType="application/ecmascript" contentStyleType="text/css" height="580px" preserveAspectRatio="none" style="width:1720px;height:580px;" version="1.1" viewBox="0 0 1720 580" width="1720px" zoomAndPan="magnify"><defs><filter height="300%" id="fget90z" width="300%" x="-1" y="-1"><feGaussianBlur result="blurOut" stdDeviation="2.0"/><feColorMatrix in="blurOut" result="blurOut2" type="matrix" values="0 0 0 0 0 0 0 0 0 0 0 0 0 0 0 0 0 0 .4 0"/><feOffset dx="4.0" dy="4.0" in="blurOut2" result="blurOut3"/><feBlend in="SourceGraphic" in2="blurOut3" mode="normal"/></filter></defs><g><!--cluster org.junit.jupiter--><polygon fill="#FFFFFF" filter="url(#fget90z)" points="22,291,136,291,143,310.9923,594,310.9923,594,467,22,467,22,291" style="stroke: #000000; stroke-width: 2.0;"/><line style="stroke: #000000; stroke-width: 2.0;" x1="22" x2="143" y1="310.9923" y2="310.9923"/><text fill="#000000" font-family="Open Sans" font-size="14" font-weight="bold" lengthAdjust="spacingAndGlyphs" textLength="108" x="26" y="304.3128">org.junit.jupiter</text><!--cluster org.junit.vintage--><polygon fill="#FFFFFF" filter="url(#fget90z)" points="668,291,788,291,795,310.9923,844,310.9923,844,467,668,467,668,291" style="stroke: #000000; stroke-width: 2.0;"/><line style="stroke: #000000; stroke-width: 2.0;" x1="668" x2="795" y1="310.9923" y2="310.9923"/><text fill="#000000" font-family="Open Sans" font-size="14" font-weight="bold" lengthAdjust="spacingAndGlyphs" textLength="114" x="672" y="304.3128">org.junit.vintage</text><!--cluster org.junit.platform--><polygon fill="#FFFFFF" filter="url(#fget90z)" points="868,24,995,24,1002,43.9923,1477,43.9923,1477,573,868,573,868,24" style="stroke: #000000; stroke-width: 2.0;"/><line style="stroke: #000000; stroke-width: 2.0;" x1="868" x2="1002" y1="43.9923" y2="43.9923"/><text fill="#000000" font-family="Open Sans" font-size="14" font-weight="bold" lengthAdjust="spacingAndGlyphs" textLength="121" x="872" y="37.3128">org.junit.platform</text><!--cluster org.opentest4j--><polygon fill="#FFFFFF" filter="url(#fget90z)" points="589,491,696,491,703,510.9923,706,510.9923,706,573,589,573,589,491" style="stroke: #000000; stroke-width: 2.0;"/><line style="stroke: #000000; stroke-width: 2.0;" x1="589" x2="703" y1="510.9923" y2="510.9923"/><text fill="#000000" font-family="Open Sans" font-size="14" font-weight="bold" lengthAdjust="spacingAndGlyphs" textLength="101" x="593" y="504.3128">org.opentest4j</text><!--cluster org.apiguardian--><polygon fill="#FFFFFF" filter="url(#fget90z)" points="1501,24,1618,24,1625,43.9923,1713,43.9923,1713,267,1501,267,1501,24" style="stroke: #000000; stroke-width: 2.0;"/><line style="stroke: #000000; stroke-width: 2.0;" x1="1501" x2="1625" y1="43.9923" y2="43.9923"/><text fill="#000000" font-family="Open Sans" font-size="14" font-weight="bold" lengthAdjust="spacingAndGlyphs" textLength="111" x="1505" y="37.3128">org.apiguardian</text><!--entity jupiter_api--><rect fill="#FEFECE" filter="url(#fget90z)" height="33.9923" style="stroke: #A80036; stroke-width: 1.5;" width="110" x="455" y="417"/><rect fill="#FEFECE" height="5" style="stroke: #A80036; stroke-width: 1.5;" width="10" x="450" y="422"/><rect fill="#FEFECE" height="5" style="stroke: #A80036; stroke-width: 1.5;" width="10" x="450" y="440.9923"/><text fill="#000000" font-family="Open Sans" font-size="14" lengthAdjust="spacingAndGlyphs" textLength="90" x="465" y="438.3128">junit-jupiter-api</text><!--entity jupiter_engine--><rect fill="#FEFECE" filter="url(#fget90z)" height="33.9923" style="stroke: #A80036; stroke-width: 1.5;" width="135" x="442.5" y="323"/><rect fill="#FEFECE" height="5" style="stroke: #A80036; stroke-width: 1.5;" width="10" x="437.5" y="328"/><rect fill="#FEFECE" height="5" style="stroke: #A80036; stroke-width: 1.5;" width="10" x="437.5" y="346.9923"/><text fill="#000000" font-family="Open Sans" font-size="14" lengthAdjust="spacingAndGlyphs" textLength="115" x="452.5" y="344.3128">junit-jupiter-engine</text><!--entity jupiter_params--><rect fill="#FEFECE" filter="url(#fget90z)" height="33.9923" style="stroke: #A80036; stroke-width: 1.5;" width="139" x="38.5" y="323"/><rect fill="#FEFECE" height="5" style="stroke: #A80036; stroke-width: 1.5;" width="10" x="33.5" y="328"/><rect fill="#FEFECE" height="5" style="stroke: #A80036; stroke-width: 1.5;" width="10" x="33.5" y="346.9923"/><text fill="#000000" font-family="Open Sans" font-size="14" lengthAdjust="spacingAndGlyphs" textLength="119" x="48.5" y="344.3128">junit-jupiter-params</text><!--entity jupiter_migration_support--><rect fill="#FEFECE" filter="url(#fget90z)" height="33.9923" style="stroke: #A80036; stroke-width: 1.5;" width="195" x="212.5" y="323"/><rect fill="#FEFECE" height="5" style="stroke: #A80036; stroke-width: 1.5;" width="10" x="207.5" y="328"/><rect fill="#FEFECE" height="5" style="stroke: #A80036; stroke-width: 1.5;" width="10" x="207.5" y="346.9923"/><text fill="#000000" font-family="Open Sans" font-size="14" lengthAdjust="spacingAndGlyphs" textLength="175" x="222.5" y="344.3128">junit-jupiter-migrationsupport</text><!--entity vintage_engine--><rect fill="#FEFECE" filter="url(#fget90z)" height="33.9923" style="stroke: #A80036; stroke-width: 1.5;" width="143" x="684.5" y="323"/><rect fill="#FEFECE" height="5" style="stroke: #A80036; stroke-width: 1.5;" width="10" x="679.5" y="328"/><rect fill="#FEFECE" height="5" style="stroke: #A80036; stroke-width: 1.5;" width="10" x="679.5" y="346.9923"/><text fill="#000000" font-family="Open Sans" font-size="14" lengthAdjust="spacingAndGlyphs" textLength="123" x="694.5" y="344.3128">junit-vintage-engine</text><!--entity junit4--><rect fill="#FEFECE" filter="url(#fget90z)" height="33.9923" style="stroke: #A80036; stroke-width: 1.5;" width="74" x="684" y="417"/><rect fill="#FEFECE" height="5" style="stroke: #A80036; stroke-width: 1.5;" width="10" x="679" y="422"/><rect fill="#FEFECE" height="5" style="stroke: #A80036; stroke-width: 1.5;" width="10" x="679" y="440.9923"/><text fill="#000000" font-family="Open Sans" font-size="14" lengthAdjust="spacingAndGlyphs" textLength="54" x="694" y="438.3128">junit:junit</text><!--entity commons--><rect fill="#FEFECE" filter="url(#fget90z)" height="33.9923" style="stroke: #A80036; stroke-width: 1.5;" width="166" x="884" y="523"/><rect fill="#FEFECE" height="5" style="stroke: #A80036; stroke-width: 1.5;" width="10" x="879" y="528"/><rect fill="#FEFECE" height="5" style="stroke: #A80036; stroke-width: 1.5;" width="10" x="879" y="546.9923"/><text fill="#000000" font-family="Open Sans" font-size="14" lengthAdjust="spacingAndGlyphs" textLength="146" x="894" y="544.3128">junit-platform-commons</text><!--entity console--><rect fill="#FEFECE" filter="url(#fget90z)" height="33.9923" style="stroke: #A80036; stroke-width: 1.5;" width="153" x="1307.5" y="183.5"/><rect fill="#FEFECE" height="5" style="stroke: #A80036; stroke-width: 1.5;" width="10" x="1302.5" y="188.5"/><rect fill="#FEFECE" height="5" style="stroke: #A80036; stroke-width: 1.5;" width="10" x="1302.5" y="207.4923"/><text fill="#000000" font-family="Open Sans" font-size="14" lengthAdjust="spacingAndGlyphs" textLength="133" x="1317.5" y="204.8128">junit-platform-console</text><!--entity engine--><rect fill="#FEFECE" filter="url(#fget90z)" height="33.9923" style="stroke: #A80036; stroke-width: 1.5;" width="147" x="884.5" y="417"/><rect fill="#FEFECE" height="5" style="stroke: #A80036; stroke-width: 1.5;" width="10" x="879.5" y="422"/><rect fill="#FEFECE" height="5" style="stroke: #A80036; stroke-width: 1.5;" width="10" x="879.5" y="440.9923"/><text fill="#000000" font-family="Open Sans" font-size="14" lengthAdjust="spacingAndGlyphs" textLength="127" x="894.5" y="438.3128">junit-platform-engine</text><!--entity gradle--><rect fill="#FEFECE" filter="url(#fget90z)" height="33.9923" style="stroke: #A80036; stroke-width: 1.5;" width="186" x="1275" y="56"/><rect fill="#FEFECE" height="5" style="stroke: #A80036; stroke-width: 1.5;" width="10" x="1270" y="61"/><rect fill="#FEFECE" height="5" style="stroke: #A80036; stroke-width: 1.5;" width="10" x="1270" y="79.9923"/><text fill="#000000" font-family="Open Sans" font-size="14" lengthAdjust="spacingAndGlyphs" textLength="166" x="1285" y="77.3128">junit-platform-gradle-plugin</text><!--entity launcher--><rect fill="#FEFECE" filter="url(#fget90z)" height="33.9923" style="stroke: #A80036; stroke-width: 1.5;" width="159" x="1065.5" y="323"/><rect fill="#FEFECE" height="5" style="stroke: #A80036; stroke-width: 1.5;" width="10" x="1060.5" y="328"/><rect fill="#FEFECE" height="5" style="stroke: #A80036; stroke-width: 1.5;" width="10" x="1060.5" y="346.9923"/><text fill="#000000" font-family="Open Sans" font-size="14" lengthAdjust="spacingAndGlyphs" textLength="139" x="1075.5" y="344.3128">junit-platform-launcher</text><!--entity runner--><rect fill="#FEFECE" filter="url(#fget90z)" height="33.9923" style="stroke: #A80036; stroke-width: 1.5;" width="146" x="884" y="183.5"/><rect fill="#FEFECE" height="5" style="stroke: #A80036; stroke-width: 1.5;" width="10" x="879" y="188.5"/><rect fill="#FEFECE" height="5" style="stroke: #A80036; stroke-width: 1.5;" width="10" x="879" y="207.4923"/><text fill="#000000" font-family="Open Sans" font-size="14" lengthAdjust="spacingAndGlyphs" textLength="126" x="894" y="204.8128">junit-platform-runner</text><!--entity suite_api--><rect fill="#FEFECE" filter="url(#fget90z)" height="33.9923" style="stroke: #A80036; stroke-width: 1.5;" width="156" x="1067" y="417"/><rect fill="#FEFECE" height="5" style="stroke: #A80036; stroke-width: 1.5;" width="10" x="1062" y="422"/><rect fill="#FEFECE" height="5" style="stroke: #A80036; stroke-width: 1.5;" width="10" x="1062" y="440.9923"/><text fill="#000000" font-family="Open Sans" font-size="14" lengthAdjust="spacingAndGlyphs" textLength="136" x="1077" y="438.3128">junit-platform-suite-api</text><!--entity surefire--><rect fill="#FEFECE" filter="url(#fget90z)" height="33.9923" style="stroke: #A80036; stroke-width: 1.5;" width="207" x="1065.5" y="183.5"/><rect fill="#FEFECE" height="5" style="stroke: #A80036; stroke-width: 1.5;" width="10" x="1060.5" y="188.5"/><rect fill="#FEFECE" height="5" style="stroke: #A80036; stroke-width: 1.5;" width="10" x="1060.5" y="207.4923"/><text fill="#000000" font-family="Open Sans" font-size="14" lengthAdjust="spacingAndGlyphs" textLength="187" x="1075.5" y="204.8128">junit-platform-surefire-provider</text><!--entity opentest4j--><rect fill="#FEFECE" filter="url(#fget90z)" height="33.9923" style="stroke: #A80036; stroke-width: 1.5;" width="83" x="605.5" y="523"/><rect fill="#FEFECE" height="5" style="stroke: #A80036; stroke-width: 1.5;" width="10" x="600.5" y="528"/><rect fill="#FEFECE" height="5" style="stroke: #A80036; stroke-width: 1.5;" width="10" x="600.5" y="546.9923"/><text fill="#000000" font-family="Open Sans" font-size="14" lengthAdjust="spacingAndGlyphs" textLength="63" x="615.5" y="544.3128">opentest4j</text><!--entity apiguardian--><rect fill="#FEFECE" filter="url(#fget90z)" height="33.9923" style="stroke: #A80036; stroke-width: 1.5;" width="117" x="1548.5" y="56"/><rect fill="#FEFECE" height="5" style="stroke: #A80036; stroke-width: 1.5;" width="10" x="1543.5" y="61"/><rect fill="#FEFECE" height="5" style="stroke: #A80036; stroke-width: 1.5;" width="10" x="1543.5" y="79.9923"/><text fill="#000000" font-family="Open Sans" font-size="14" lengthAdjust="spacingAndGlyphs" textLength="97" x="1558.5" y="77.3128">apiguardian-api</text><polygon fill="#FFFFFF" filter="url(#fget90z)" points="1517,150,1517,250.8966,1697,250.8966,1697,160,1687,150,1517,150" style="stroke: #A80036; stroke-width: 1.0;"/><polygon fill="#FFFFFF" points="1517,150,1517,250.8966,1697,250.8966,1697,160,1687,150,1611,150,1607,90.15,1603,150,1517,150" style="stroke: #A80036; stroke-width: 1.0;"/><line style="stroke: #A80036; stroke-width: 1.0;" x1="1687" x2="1687" y1="150" y2="160"/><line style="stroke: #A80036; stroke-width: 1.0;" x1="1697" x2="1687" y1="160" y2="160"/><text fill="#000000" font-family="Open Sans" font-size="13" lengthAdjust="spacingAndGlyphs" textLength="105" x="1523" y="165.4986">All artifacts except</text><text fill="#000000" font-family="Open Sans" font-size="13" lengthAdjust="spacingAndGlyphs" textLength="140" x="1523" y="178.4838">opentest4j and junit:junit</text><text fill="#000000" font-family="Open Sans" font-size="13" lengthAdjust="spacingAndGlyphs" textLength="159" x="1523" y="191.469">have a dependency on this</text><text fill="#000000" font-family="Open Sans" font-size="13" lengthAdjust="spacingAndGlyphs" textLength="140" x="1523" y="204.4542">artifact. The edges have</text><text fill="#000000" font-family="Open Sans" font-size="13" lengthAdjust="spacingAndGlyphs" textLength="131" x="1523" y="217.4395">been omitted from this</text><text fill="#000000" font-family="Open Sans" font-size="13" lengthAdjust="spacingAndGlyphs" textLength="135" x="1523" y="230.4247">diagram for the sake of</text><text fill="#000000" font-family="Open Sans" font-size="13" lengthAdjust="spacingAndGlyphs" textLength="62" x="1523" y="243.4099">readability.</text><path d="M531.106,451.022 C555.472,469.519 595.531,499.9287 621.587,519.7086 " fill="none" style="stroke: #A80036; stroke-width: 1.0; stroke-dasharray: 7.0,7.0;"/><polygon fill="#A80036" points="625.644,522.7884,620.8935,514.1609,621.6613,519.7655,616.0568,520.5332,625.644,522.7884" style="stroke: #A80036; stroke-width: 1.0;"/><path d="M565.084,449.479 C595.387,457.309 633.695,466.989 668,475 C673.417,476.265 799.987,503.3241 886.694,521.8485 " fill="none" style="stroke: #A80036; stroke-width: 1.0; stroke-dasharray: 7.0,7.0;"/><polygon fill="#A80036" points="891.827,522.9451,883.8609,517.1536,886.9373,521.9008,882.1901,524.9772,891.827,522.9451" style="stroke: #A80036; stroke-width: 1.0;"/><path d="M577.555,354.873 C658.442,371.484 793.689,399.258 879.243,416.827 " fill="none" style="stroke: #A80036; stroke-width: 1.0; stroke-dasharray: 7.0,7.0;"/><polygon fill="#A80036" points="884.296,417.864,876.2843,412.1357,879.3982,416.8584,874.6754,419.9723,884.296,417.864" style="stroke: #A80036; stroke-width: 1.0;"/><path d="M510,357.025 C510,372.104 510,394.793 510,411.451 " fill="none" style="stroke: #A80036; stroke-width: 1.0; stroke-dasharray: 7.0,7.0;"/><polygon fill="#A80036" points="510,416.85,514,407.85,510,411.85,506,407.85,510,416.85" style="stroke: #A80036; stroke-width: 1.0;"/><path d="M177.564,356.92 C254.373,374.498 376.782,402.512 449.678,419.195 " fill="none" style="stroke: #A80036; stroke-width: 1.0; stroke-dasharray: 7.0,7.0;"/><polygon fill="#A80036" points="454.84,420.376,446.9594,414.4687,449.9661,419.2604,445.1744,422.267,454.84,420.376" style="stroke: #A80036; stroke-width: 1.0;"/><path d="M344.837,357.025 C379.754,373.087 433.445,397.785 470.065,414.63 " fill="none" style="stroke: #A80036; stroke-width: 1.0; stroke-dasharray: 7.0,7.0;"/><polygon fill="#A80036" points="474.891,416.85,468.3866,409.4546,470.3487,414.7602,465.043,416.7223,474.891,416.85" style="stroke: #A80036; stroke-width: 1.0;"/><path d="M381.591,357.025 C467.612,376.281 609.08,407.947 679.08,423.616 " fill="none" style="stroke: #A80036; stroke-width: 1.0; stroke-dasharray: 7.0,7.0;"/><polygon fill="#A80036" points="683.995,424.717,676.087,418.8464,679.1159,423.624,674.3383,426.6529,683.995,424.717" style="stroke: #A80036; stroke-width: 1.0;"/><path d="M1366.25,217.571 C1348.05,233.516 1318.44,257.969 1290,275 C1259.43,293.311 1222.68,309.474 1193.83,320.977 " fill="none" style="stroke: #A80036; stroke-width: 1.0; stroke-dasharray: 7.0,7.0;"/><polygon fill="#A80036" points="1188.9,322.926,1198.7396,323.3538,1193.553,321.0957,1195.8111,315.9091,1188.9,322.926" style="stroke: #A80036; stroke-width: 1.0;"/><path d="M1370.06,90.15 C1372.93,112.647 1378.13,153.453 1381.3,178.352 " fill="none" style="stroke: #A80036; stroke-width: 1.0; stroke-dasharray: 7.0,7.0;"/><polygon fill="#A80036" points="1381.95,183.412,1384.7807,173.9787,1381.3182,178.4521,1376.8449,174.9896,1381.95,183.412" style="stroke: #A80036; stroke-width: 1.0;"/><path d="M1112.43,357.025 C1079.78,373.087 1029.58,397.785 995.339,414.63 " fill="none" style="stroke: #A80036; stroke-width: 1.0; stroke-dasharray: 7.0,7.0;"/><polygon fill="#A80036" points="990.827,416.85,1000.6684,416.4669,995.3136,414.6431,997.1374,409.2883,990.827,416.85" style="stroke: #A80036; stroke-width: 1.0;"/><path d="M913.143,451.011 C892.178,458.424 866.852,467.28 844,475 C792.6,492.364 733.364,511.4894 693.379,524.2695 " fill="none" style="stroke: #A80036; stroke-width: 1.0; stroke-dasharray: 7.0,7.0;"/><polygon fill="#A80036" points="688.6,525.796,698.3907,526.8651,693.3625,524.2733,695.9543,519.2451,688.6,525.796" style="stroke: #A80036; stroke-width: 1.0;"/><path d="M959.406,451.25 C960.958,469.185 963.462,498.1182 965.167,517.8184 " fill="none" style="stroke: #A80036; stroke-width: 1.0; stroke-dasharray: 7.0,7.0;"/><polygon fill="#A80036" points="965.604,522.8641,968.8131,513.5527,965.1729,517.8827,960.8428,514.2425,965.604,522.8641" style="stroke: #A80036; stroke-width: 1.0;"/><path d="M975.754,217.532 C993.867,232.801 1022.26,256.182 1048,275 C1069.8,290.942 1095.33,307.712 1114.72,320.085 " fill="none" style="stroke: #A80036; stroke-width: 1.0; stroke-dasharray: 7.0,7.0;"/><polygon fill="#A80036" points="1119.01,322.815,1113.5464,314.6206,1114.7858,320.14,1109.2663,321.3794,1119.01,322.815" style="stroke: #A80036; stroke-width: 1.0;"/><path d="M964.021,217.78 C977.389,247.588 1008.7,311.999 1048,357 C1067.57,379.416 1094.52,399.911 1115.04,413.954 " fill="none" style="stroke: #A80036; stroke-width: 1.0; stroke-dasharray: 7.0,7.0;"/><polygon fill="#A80036" points="1119.32,416.851,1114.1059,408.4956,1115.1783,414.0499,1109.624,415.1223,1119.32,416.851" style="stroke: #A80036; stroke-width: 1.0;"/><path d="M883.696,211.922 C806.682,224.55 693.136,248.507 667,283 C636.606,323.114 676.633,381.92 702.377,412.627 " fill="none" style="stroke: #A80036; stroke-width: 1.0; stroke-dasharray: 7.0,7.0;"/><polygon fill="#A80036" points="705.75,416.588,702.9612,407.1422,702.5086,412.7809,696.8699,412.3284,705.75,416.588" style="stroke: #A80036; stroke-width: 1.0;"/><path d="M1117.58,451.022 C1085.57,469.726 1032.71,500.6101 998.89,520.3679 " fill="none" style="stroke: #A80036; stroke-width: 1.0; stroke-dasharray: 7.0,7.0;"/><polygon fill="#A80036" points="994.454,522.9597,1004.2426,521.8723,998.7709,520.437,1000.2063,514.9652,994.454,522.9597" style="stroke: #A80036; stroke-width: 1.0;"/><path d="M1166.2,217.542 C1161.89,242.248 1153.61,289.65 1148.78,317.366 " fill="none" style="stroke: #A80036; stroke-width: 1.0; stroke-dasharray: 7.0,7.0;"/><polygon fill="#A80036" points="1147.86,322.634,1153.3475,314.4555,1148.7195,317.7084,1145.4666,313.0804,1147.86,322.634" style="stroke: #A80036; stroke-width: 1.0;"/><path d="M791.186,357.025 C826.452,373.087 880.68,397.785 917.666,414.63 " fill="none" style="stroke: #A80036; stroke-width: 1.0; stroke-dasharray: 7.0,7.0;"/><polygon fill="#A80036" points="922.54,416.85,916.0082,409.4787,917.9899,414.7771,912.6916,416.7589,922.54,416.85" style="stroke: #A80036; stroke-width: 1.0;"/><path d="M749.903,357.025 C744.117,372.235 735.385,395.188 729.033,411.885 " fill="none" style="stroke: #A80036; stroke-width: 1.0; stroke-dasharray: 7.0,7.0;"/><polygon fill="#A80036" points="727.144,416.85,734.0832,409.8609,728.9221,412.1769,726.6061,407.0158,727.144,416.85" style="stroke: #A80036; stroke-width: 1.0;"/></g></svg>