<?xml version="1.0" encoding="UTF-8" standalone="no"?><svg xmlns="http://www.w3.org/2000/svg" xmlns:xlink="http://www.w3.org/1999/xlink" contentScriptType="application/ecmascript" contentStyleType="text/css" height="620px" preserveAspectRatio="none" style="width:1847px;height:620px;" version="1.1" viewBox="0 0 1847 620" width="1847px" zoomAndPan="magnify"><defs><filter height="300%" id="fz2xs20j49f9r" width="300%" x="-1" y="-1"><feGaussianBlur result="blurOut" stdDeviation="2.0"/><feColorMatrix in="blurOut" result="blurOut2" type="matrix" values="0 0 0 0 0 0 0 0 0 0 0 0 0 0 0 0 0 0 .4 0"/><feOffset dx="4.0" dy="4.0" in="blurOut2" result="blurOut3"/><feBlend in="SourceGraphic" in2="blurOut3" mode="normal"/></filter></defs><g><!--cluster org.junit.jupiter--><polygon fill="#FFFFFF" filter="url(#fz2xs20j49f9r)" points="912.628,160,1040.628,160,1047.628,182.2969,1575.63,182.2969,1575.63,496,912.628,496,912.628,160" style="stroke: #000000; stroke-width: 1.5;"/><line style="stroke: #000000; stroke-width: 1.5;" x1="912.628" x2="1047.628" y1="182.2969" y2="182.2969"/><text fill="#000000" font-family="Open Sans" font-size="14" font-weight="bold" lengthAdjust="spacingAndGlyphs" textLength="122" x="916.628" y="174.9951">org.junit.jupiter</text><!--cluster org.junit.vintage--><polygon fill="#FFFFFF" filter="url(#fz2xs20j49f9r)" points="37.6276,312,172.6276,312,179.6276,334.2969,227.628,334.2969,227.628,496,37.6276,496,37.6276,312" style="stroke: #000000; stroke-width: 1.5;"/><line style="stroke: #000000; stroke-width: 1.5;" x1="37.6276" x2="179.6276" y1="334.2969" y2="334.2969"/><text fill="#000000" font-family="Open Sans" font-size="14" font-weight="bold" lengthAdjust="spacingAndGlyphs" textLength="129" x="41.6276" y="326.9951">org.junit.vintage</text><!--cluster org.junit.platform--><polygon fill="#FFFFFF" filter="url(#fz2xs20j49f9r)" points="251.628,24,394.628,24,401.628,46.2969,888.628,46.2969,888.628,608,251.628,608,251.628,24" style="stroke: #000000; stroke-width: 1.5;"/><line style="stroke: #000000; stroke-width: 1.5;" x1="251.628" x2="401.628" y1="46.2969" y2="46.2969"/><text fill="#000000" font-family="Open Sans" font-size="14" font-weight="bold" lengthAdjust="spacingAndGlyphs" textLength="137" x="255.628" y="38.9951">org.junit.platform</text><!--cluster org.opentest4j--><polygon fill="#FFFFFF" filter="url(#fz2xs20j49f9r)" points="93.6276,520,216.6276,520,223.6276,542.2969,227.628,542.2969,227.628,608,93.6276,608,93.6276,520" style="stroke: #000000; stroke-width: 1.5;"/><line style="stroke: #000000; stroke-width: 1.5;" x1="93.6276" x2="223.6276" y1="542.2969" y2="542.2969"/><text fill="#000000" font-family="Open Sans" font-size="14" font-weight="bold" lengthAdjust="spacingAndGlyphs" textLength="117" x="97.6276" y="534.9951">org.opentest4j</text><!--cluster org.apiguardian--><polygon fill="#FFFFFF" filter="url(#fz2xs20j49f9r)" points="1599.63,24,1729.63,24,1736.63,46.2969,1825.63,46.2969,1825.63,288,1599.63,288,1599.63,24" style="stroke: #000000; stroke-width: 1.5;"/><line style="stroke: #000000; stroke-width: 1.5;" x1="1599.63" x2="1736.63" y1="46.2969" y2="46.2969"/><text fill="#000000" font-family="Open Sans" font-size="14" font-weight="bold" lengthAdjust="spacingAndGlyphs" textLength="124" x="1603.63" y="38.9951">org.apiguardian</text><!--entity jupiter--><rect fill="#FEFECE" filter="url(#fz2xs20j49f9r)" height="36.2969" style="stroke: #A80036; stroke-width: 1.5;" width="97" x="1397.38" y="196"/><rect fill="#FEFECE" height="5" style="stroke: #A80036; stroke-width: 1.5;" width="10" x="1392.38" y="201"/><rect fill="#FEFECE" height="5" style="stroke: #A80036; stroke-width: 1.5;" width="10" x="1392.38" y="222.2969"/><text fill="#000000" font-family="Open Sans" font-size="14" lengthAdjust="spacingAndGlyphs" textLength="77" x="1407.38" y="218.9951">junit-jupiter</text><!--entity jupiter_api--><rect fill="#FEFECE" filter="url(#fz2xs20j49f9r)" height="36.2969" style="stroke: #A80036; stroke-width: 1.5;" width="122" x="1087.63" y="444"/><rect fill="#FEFECE" height="5" style="stroke: #A80036; stroke-width: 1.5;" width="10" x="1082.63" y="449"/><rect fill="#FEFECE" height="5" style="stroke: #A80036; stroke-width: 1.5;" width="10" x="1082.63" y="470.2969"/><text fill="#000000" font-family="Open Sans" font-size="14" lengthAdjust="spacingAndGlyphs" textLength="102" x="1097.63" y="466.9951">junit-jupiter-api</text><!--entity jupiter_engine--><rect fill="#FEFECE" filter="url(#fz2xs20j49f9r)" height="36.2969" style="stroke: #A80036; stroke-width: 1.5;" width="150" x="1184.13" y="348"/><rect fill="#FEFECE" height="5" style="stroke: #A80036; stroke-width: 1.5;" width="10" x="1179.13" y="353"/><rect fill="#FEFECE" height="5" style="stroke: #A80036; stroke-width: 1.5;" width="10" x="1179.13" y="374.2969"/><text fill="#000000" font-family="Open Sans" font-size="14" lengthAdjust="spacingAndGlyphs" textLength="130" x="1194.13" y="370.9951">junit-jupiter-engine</text><!--entity jupiter_params--><rect fill="#FEFECE" filter="url(#fz2xs20j49f9r)" height="36.2969" style="stroke: #A80036; stroke-width: 1.5;" width="153" x="1369.38" y="348"/><rect fill="#FEFECE" height="5" style="stroke: #A80036; stroke-width: 1.5;" width="10" x="1364.38" y="353"/><rect fill="#FEFECE" height="5" style="stroke: #A80036; stroke-width: 1.5;" width="10" x="1364.38" y="374.2969"/><text fill="#000000" font-family="Open Sans" font-size="14" lengthAdjust="spacingAndGlyphs" textLength="133" x="1379.38" y="370.9951">junit-jupiter-params</text><!--entity jupiter_migration_support--><rect fill="#FEFECE" filter="url(#fz2xs20j49f9r)" height="36.2969" style="stroke: #A80036; stroke-width: 1.5;" width="220" x="928.628" y="348"/><rect fill="#FEFECE" height="5" style="stroke: #A80036; stroke-width: 1.5;" width="10" x="923.628" y="353"/><rect fill="#FEFECE" height="5" style="stroke: #A80036; stroke-width: 1.5;" width="10" x="923.628" y="374.2969"/><text fill="#000000" font-family="Open Sans" font-size="14" lengthAdjust="spacingAndGlyphs" textLength="200" x="938.628" y="370.9951">junit-jupiter-migrationsupport</text><!--entity vintage_engine--><rect fill="#FEFECE" filter="url(#fz2xs20j49f9r)" height="36.2969" style="stroke: #A80036; stroke-width: 1.5;" width="157" x="54.3776" y="348"/><rect fill="#FEFECE" height="5" style="stroke: #A80036; stroke-width: 1.5;" width="10" x="49.3776" y="353"/><rect fill="#FEFECE" height="5" style="stroke: #A80036; stroke-width: 1.5;" width="10" x="49.3776" y="374.2969"/><text fill="#000000" font-family="Open Sans" font-size="14" lengthAdjust="spacingAndGlyphs" textLength="137" x="64.3776" y="370.9951">junit-vintage-engine</text><!--entity junit4--><rect fill="#FEFECE" filter="url(#fz2xs20j49f9r)" height="36.2969" style="stroke: #A80036; stroke-width: 1.5;" width="83" x="91.3776" y="444"/><rect fill="#FEFECE" height="5" style="stroke: #A80036; stroke-width: 1.5;" width="10" x="86.3776" y="449"/><rect fill="#FEFECE" height="5" style="stroke: #A80036; stroke-width: 1.5;" width="10" x="86.3776" y="470.2969"/><text fill="#000000" font-family="Open Sans" font-size="14" lengthAdjust="spacingAndGlyphs" textLength="63" x="101.3776" y="466.9951">junit:junit</text><!--entity commons--><rect fill="#FEFECE" filter="url(#fz2xs20j49f9r)" height="36.2969" style="stroke: #A80036; stroke-width: 1.5;" width="184" x="627.628" y="556"/><rect fill="#FEFECE" height="5" style="stroke: #A80036; stroke-width: 1.5;" width="10" x="622.628" y="561"/><rect fill="#FEFECE" height="5" style="stroke: #A80036; stroke-width: 1.5;" width="10" x="622.628" y="582.2969"/><text fill="#000000" font-family="Open Sans" font-size="14" lengthAdjust="spacingAndGlyphs" textLength="164" x="637.628" y="578.9951">junit-platform-commons</text><!--entity console--><rect fill="#FEFECE" filter="url(#fz2xs20j49f9r)" height="36.2969" style="stroke: #A80036; stroke-width: 1.5;" width="170" x="635.628" y="60"/><rect fill="#FEFECE" height="5" style="stroke: #A80036; stroke-width: 1.5;" width="10" x="630.628" y="65"/><rect fill="#FEFECE" height="5" style="stroke: #A80036; stroke-width: 1.5;" width="10" x="630.628" y="86.2969"/><text fill="#000000" font-family="Open Sans" font-size="14" lengthAdjust="spacingAndGlyphs" textLength="150" x="645.628" y="82.9951">junit-platform-console</text><!--entity engine--><rect fill="#FEFECE" filter="url(#fz2xs20j49f9r)" height="36.2969" style="stroke: #A80036; stroke-width: 1.5;" width="163" x="577.378" y="444"/><rect fill="#FEFECE" height="5" style="stroke: #A80036; stroke-width: 1.5;" width="10" x="572.378" y="449"/><rect fill="#FEFECE" height="5" style="stroke: #A80036; stroke-width: 1.5;" width="10" x="572.378" y="470.2969"/><text fill="#000000" font-family="Open Sans" font-size="14" lengthAdjust="spacingAndGlyphs" textLength="143" x="587.378" y="466.9951">junit-platform-engine</text><!--entity launcher--><rect fill="#FEFECE" filter="url(#fz2xs20j49f9r)" height="36.2969" style="stroke: #A80036; stroke-width: 1.5;" width="175" x="571.378" y="348"/><rect fill="#FEFECE" height="5" style="stroke: #A80036; stroke-width: 1.5;" width="10" x="566.378" y="353"/><rect fill="#FEFECE" height="5" style="stroke: #A80036; stroke-width: 1.5;" width="10" x="566.378" y="374.2969"/><text fill="#000000" font-family="Open Sans" font-size="14" lengthAdjust="spacingAndGlyphs" textLength="155" x="581.378" y="370.9951">junit-platform-launcher</text><!--entity reporting--><rect fill="#FEFECE" filter="url(#fz2xs20j49f9r)" height="36.2969" style="stroke: #A80036; stroke-width: 1.5;" width="178" x="695.128" y="196"/><rect fill="#FEFECE" height="5" style="stroke: #A80036; stroke-width: 1.5;" width="10" x="690.128" y="201"/><rect fill="#FEFECE" height="5" style="stroke: #A80036; stroke-width: 1.5;" width="10" x="690.128" y="222.2969"/><text fill="#000000" font-family="Open Sans" font-size="14" lengthAdjust="spacingAndGlyphs" textLength="158" x="705.128" y="218.9951">junit-platform-reporting</text><!--entity runner--><rect fill="#FEFECE" filter="url(#fz2xs20j49f9r)" height="36.2969" style="stroke: #A80036; stroke-width: 1.5;" width="161" x="461.378" y="196"/><rect fill="#FEFECE" height="5" style="stroke: #A80036; stroke-width: 1.5;" width="10" x="456.378" y="201"/><rect fill="#FEFECE" height="5" style="stroke: #A80036; stroke-width: 1.5;" width="10" x="456.378" y="222.2969"/><text fill="#000000" font-family="Open Sans" font-size="14" lengthAdjust="spacingAndGlyphs" textLength="141" x="471.378" y="218.9951">junit-platform-runner</text><!--entity suite_api--><rect fill="#FEFECE" filter="url(#fz2xs20j49f9r)" height="36.2969" style="stroke: #A80036; stroke-width: 1.5;" width="174" x="361.628" y="348"/><rect fill="#FEFECE" height="5" style="stroke: #A80036; stroke-width: 1.5;" width="10" x="356.628" y="353"/><rect fill="#FEFECE" height="5" style="stroke: #A80036; stroke-width: 1.5;" width="10" x="356.628" y="374.2969"/><text fill="#000000" font-family="Open Sans" font-size="14" lengthAdjust="spacingAndGlyphs" textLength="154" x="371.628" y="370.9951">junit-platform-suite-api</text><!--entity testkit--><rect fill="#FEFECE" filter="url(#fz2xs20j49f9r)" height="36.2969" style="stroke: #A80036; stroke-width: 1.5;" width="158" x="268.128" y="196"/><rect fill="#FEFECE" height="5" style="stroke: #A80036; stroke-width: 1.5;" width="10" x="263.128" y="201"/><rect fill="#FEFECE" height="5" style="stroke: #A80036; stroke-width: 1.5;" width="10" x="263.128" y="222.2969"/><text fill="#000000" font-family="Open Sans" font-size="14" lengthAdjust="spacingAndGlyphs" textLength="138" x="278.128" y="218.9951">junit-platform-testkit</text><!--entity opentest4j--><rect fill="#FEFECE" filter="url(#fz2xs20j49f9r)" height="36.2969" style="stroke: #A80036; stroke-width: 1.5;" width="95" x="116.378" y="556"/><rect fill="#FEFECE" height="5" style="stroke: #A80036; stroke-width: 1.5;" width="10" x="111.378" y="561"/><rect fill="#FEFECE" height="5" style="stroke: #A80036; stroke-width: 1.5;" width="10" x="111.378" y="582.2969"/><text fill="#000000" font-family="Open Sans" font-size="14" lengthAdjust="spacingAndGlyphs" textLength="75" x="126.378" y="578.9951">opentest4j</text><!--entity apiguardian--><rect fill="#FEFECE" filter="url(#fz2xs20j49f9r)" height="36.2969" style="stroke: #A80036; stroke-width: 1.5;" width="125" x="1650.38" y="60"/><rect fill="#FEFECE" height="5" style="stroke: #A80036; stroke-width: 1.5;" width="10" x="1645.38" y="65"/><rect fill="#FEFECE" height="5" style="stroke: #A80036; stroke-width: 1.5;" width="10" x="1645.38" y="86.2969"/><text fill="#000000" font-family="Open Sans" font-size="14" lengthAdjust="spacingAndGlyphs" textLength="105" x="1660.38" y="82.9951">apiguardian-api</text><path d="M1616.38,156 L1616.38,271.9297 A0,0 0 0 0 1616.38,271.9297 L1809.38,271.9297 A0,0 0 0 0 1809.38,271.9297 L1809.38,166 L1799.38,156 L1716.63,156 L1712.63,96.244 L1708.63,156 L1616.38,156 A0,0 0 0 0 1616.38,156 " fill="#FFFFFF" filter="url(#fz2xs20j49f9r)" style="stroke: #A80036; stroke-width: 1.0;"/><path d="M1799.38,156 L1799.38,166 L1809.38,166 L1799.38,156 " fill="#FFFFFF" style="stroke: #A80036; stroke-width: 1.0;"/><text fill="#000000" font-family="Open Sans" font-size="13" lengthAdjust="spacingAndGlyphs" textLength="118" x="1622.38" y="173.0669">All artifacts except</text><text fill="#000000" font-family="Open Sans" font-size="13" lengthAdjust="spacingAndGlyphs" textLength="158" x="1622.38" y="188.1997">opentest4j and junit:junit</text><text fill="#000000" font-family="Open Sans" font-size="13" lengthAdjust="spacingAndGlyphs" textLength="172" x="1622.38" y="203.3325">have a dependency on this</text><text fill="#000000" font-family="Open Sans" font-size="13" lengthAdjust="spacingAndGlyphs" textLength="154" x="1622.38" y="218.4653">artifact. The edges have</text><text fill="#000000" font-family="Open Sans" font-size="13" lengthAdjust="spacingAndGlyphs" textLength="147" x="1622.38" y="233.5981">been omitted from this</text><text fill="#000000" font-family="Open Sans" font-size="13" lengthAdjust="spacingAndGlyphs" textLength="149" x="1622.38" y="248.731">diagram for the sake of</text><text fill="#000000" font-family="Open Sans" font-size="13" lengthAdjust="spacingAndGlyphs" textLength="70" x="1622.38" y="263.8638">readability.</text><!--link jupiter to jupiter_api--><path d="M1473.48,232.284 C1495.79,247.915 1525.46,273.173 1538.63,304 C1552.59,336.698 1561.2,356.531 1538.63,384 C1498.39,432.96 1315.18,451.301 1214.83,457.757 " fill="none" id="jupiter-jupiter_api" style="stroke: #A80036; stroke-width: 1.0; stroke-dasharray: 7.0,7.0;"/><polygon fill="#A80036" points="1209.82,458.074,1219.0536,461.5004,1214.8101,457.7597,1218.5508,453.5162,1209.82,458.074" style="stroke: #A80036; stroke-width: 1.0;"/><!--link jupiter to jupiter_params--><path d="M1445.63,232.207 C1445.63,259.446 1445.63,312.491 1445.63,342.642 " fill="none" id="jupiter-jupiter_params" style="stroke: #A80036; stroke-width: 1.0; stroke-dasharray: 7.0,7.0;"/><polygon fill="#A80036" points="1445.63,347.994,1449.63,338.994,1445.63,342.994,1441.63,338.994,1445.63,347.994" style="stroke: #A80036; stroke-width: 1.0;"/><!--link jupiter to jupiter_engine--><path d="M1424.18,232.207 C1389.37,260.124 1320.78,315.149 1283.75,344.85 " fill="none" id="jupiter-jupiter_engine" style="stroke: #A80036; stroke-width: 1.0; stroke-dasharray: 7.0,7.0;"/><polygon fill="#A80036" points="1279.83,347.994,1289.3532,345.4825,1283.7302,344.8653,1284.3473,339.2422,1279.83,347.994" style="stroke: #A80036; stroke-width: 1.0;"/><!--link jupiter_api to opentest4j--><path d="M1087.47,475.194 C1034.97,485.047 957.156,498.197 888.628,504 C853.362,506.986 285.339,501.225 251.628,512 C226.489,520.034 202.169,537.9177 185.49,552.2553 " fill="none" id="jupiter_api-opentest4j" style="stroke: #A80036; stroke-width: 1.0; stroke-dasharray: 7.0,7.0;"/><polygon fill="#A80036" points="181.419,555.8159,190.8271,552.9024,185.1828,552.5245,185.5608,546.8803,181.419,555.8159" style="stroke: #A80036; stroke-width: 1.0;"/><!--link jupiter_api to commons--><path d="M1087.62,478.643 C1009.37,498.707 873.892,533.445 790.959,554.7099 " fill="none" id="jupiter_api-commons" style="stroke: #A80036; stroke-width: 1.0; stroke-dasharray: 7.0,7.0;"/><polygon fill="#A80036" points="786.066,555.9645,795.7773,557.6046,790.9094,554.723,793.791,549.8551,786.066,555.9645" style="stroke: #A80036; stroke-width: 1.0;"/><!--link jupiter_engine to engine--><path d="M1184.04,380.837 C1177.82,381.93 1171.62,382.998 1165.63,384 C1018.18,408.667 846.034,434.103 745.026,448.686 " fill="none" id="jupiter_engine-engine" style="stroke: #A80036; stroke-width: 1.0; stroke-dasharray: 7.0,7.0;"/><polygon fill="#A80036" points="739.971,449.415,749.4501,452.0882,744.9197,448.7007,748.3072,444.1703,739.971,449.415" style="stroke: #A80036; stroke-width: 1.0;"/><!--link jupiter_engine to jupiter_api--><path d="M1238.71,384.023 C1220.13,399.895 1192.4,423.595 1172.62,440.5 " fill="none" id="jupiter_engine-jupiter_api" style="stroke: #A80036; stroke-width: 1.0; stroke-dasharray: 7.0,7.0;"/><polygon fill="#A80036" points="1168.77,443.786,1178.2126,440.9864,1172.5733,440.5403,1173.0194,434.9011,1168.77,443.786" style="stroke: #A80036; stroke-width: 1.0;"/><!--link jupiter_params to jupiter_api--><path d="M1391.84,384.023 C1339.76,400.508 1260.99,425.439 1207.3,442.429 " fill="none" id="jupiter_params-jupiter_api" style="stroke: #A80036; stroke-width: 1.0; stroke-dasharray: 7.0,7.0;"/><polygon fill="#A80036" points="1202.51,443.945,1212.2986,445.0326,1207.2754,442.4313,1209.8767,437.408,1202.51,443.945" style="stroke: #A80036; stroke-width: 1.0;"/><!--link jupiter_migration_support to jupiter_api--><path d="M1058.55,384.023 C1077.12,399.895 1104.86,423.595 1124.64,440.5 " fill="none" id="jupiter_migration_support-jupiter_api" style="stroke: #A80036; stroke-width: 1.0; stroke-dasharray: 7.0,7.0;"/><polygon fill="#A80036" points="1128.48,443.786,1124.2306,434.9011,1124.6767,440.5403,1119.0374,440.9864,1128.48,443.786" style="stroke: #A80036; stroke-width: 1.0;"/><!--link jupiter_migration_support to junit4--><path d="M928.472,379.726 C915.053,381.205 901.531,382.661 888.628,384 C605.782,413.346 534.018,410.549 251.628,444 C227.741,446.83 201.24,450.557 179.322,453.801 " fill="none" id="jupiter_migration_support-junit4" style="stroke: #A80036; stroke-width: 1.0; stroke-dasharray: 7.0,7.0;"/><polygon fill="#A80036" points="174.143,454.571,183.6336,457.2032,179.0886,453.8353,182.4565,449.2903,174.143,454.571" style="stroke: #A80036; stroke-width: 1.0;"/><!--link console to launcher--><path d="M707.137,96.178 C696.846,110.308 683.333,131.307 676.628,152 C654.95,218.898 655.502,303.463 657.252,342.887 " fill="none" id="console-launcher" style="stroke: #A80036; stroke-width: 1.0; stroke-dasharray: 7.0,7.0;"/><polygon fill="#A80036" points="657.493,347.918,661.0564,338.7364,657.253,342.9238,653.0656,339.1204,657.493,347.918" style="stroke: #A80036; stroke-width: 1.0;"/><!--link console to reporting--><path d="M728.735,96.244 C740.123,120.466 760.856,164.565 773.324,191.084 " fill="none" id="console-reporting" style="stroke: #A80036; stroke-width: 1.0; stroke-dasharray: 7.0,7.0;"/><polygon fill="#A80036" points="775.552,195.822,775.3437,185.9753,773.4251,191.2969,768.1036,189.3783,775.552,195.822" style="stroke: #A80036; stroke-width: 1.0;"/><!--link launcher to engine--><path d="M658.628,384.241 C658.628,399.479 658.628,421.807 658.628,438.458 " fill="none" id="launcher-engine" style="stroke: #A80036; stroke-width: 1.0; stroke-dasharray: 7.0,7.0;"/><polygon fill="#A80036" points="658.628,443.868,662.628,434.868,658.628,438.868,654.628,434.868,658.628,443.868" style="stroke: #A80036; stroke-width: 1.0;"/><!--link engine to opentest4j--><path d="M577.047,468.157 C475.773,475.364 309.345,490.079 251.628,512 C227.276,521.249 203.218,538.6486 186.427,552.5054 " fill="none" id="engine-opentest4j" style="stroke: #A80036; stroke-width: 1.0; stroke-dasharray: 7.0,7.0;"/><polygon fill="#A80036" points="182.319,555.9448,191.7874,553.2339,186.1526,552.7349,186.6516,547.1001,182.319,555.9448" style="stroke: #A80036; stroke-width: 1.0;"/><!--link engine to commons--><path d="M668.159,480.188 C678.813,499.4 696.083,530.5429 707.644,551.3896 " fill="none" id="engine-commons" style="stroke: #A80036; stroke-width: 1.0; stroke-dasharray: 7.0,7.0;"/><polygon fill="#A80036" points="710.163,555.9332,709.2966,546.1225,707.7382,551.5605,702.3003,550.0022,710.163,555.9332" style="stroke: #A80036; stroke-width: 1.0;"/><!--link reporting to launcher--><path d="M769.289,232.207 C746.213,259.898 700.911,314.259 676.024,344.124 " fill="none" id="reporting-launcher" style="stroke: #A80036; stroke-width: 1.0; stroke-dasharray: 7.0,7.0;"/><polygon fill="#A80036" points="672.799,347.994,681.6337,343.6411,676.0001,344.153,675.4881,338.5194,672.799,347.994" style="stroke: #A80036; stroke-width: 1.0;"/><!--link runner to launcher--><path d="M555.049,232.207 C576.56,259.785 618.704,313.816 642.058,343.757 " fill="none" id="runner-launcher" style="stroke: #A80036; stroke-width: 1.0; stroke-dasharray: 7.0,7.0;"/><polygon fill="#A80036" points="645.363,347.994,642.9796,338.4379,642.287,344.0522,636.6727,343.3595,645.363,347.994" style="stroke: #A80036; stroke-width: 1.0;"/><!--link runner to suite_api--><path d="M530.959,232.207 C513.931,259.672 480.636,313.374 462.027,343.388 " fill="none" id="runner-suite_api" style="stroke: #A80036; stroke-width: 1.0; stroke-dasharray: 7.0,7.0;"/><polygon fill="#A80036" points="459.171,347.994,467.3124,342.4516,461.8052,343.7442,460.5127,338.237,459.171,347.994" style="stroke: #A80036; stroke-width: 1.0;"/><!--link runner to junit4--><path d="M527.117,232.217 C509.313,251.893 477.093,283.043 441.628,296 C420.49,303.723 52.3827,287.931 36.6276,304 C11.7355,329.389 21.2457,351.944 36.6276,384 C48.536,408.817 72.7727,428.157 93.9128,441.248 " fill="none" id="runner-junit4" style="stroke: #A80036; stroke-width: 1.0; stroke-dasharray: 7.0,7.0;"/><polygon fill="#A80036" points="98.3713,443.946,92.7431,435.8637,94.0938,441.3569,88.6006,442.7077,98.3713,443.946" style="stroke: #A80036; stroke-width: 1.0;"/><!--link testkit to opentest4j--><path d="M268.06,224.954 C179.682,237.953 44.4232,263.893 13.6276,304 C-12.033,337.42 37.3474,503.619 37.6276,504 C55.7677,528.693 85.515,545.5766 111.551,556.4593 " fill="none" id="testkit-opentest4j" style="stroke: #A80036; stroke-width: 1.0; stroke-dasharray: 7.0,7.0;"/><polygon fill="#A80036" points="116.366,558.4221,109.5433,551.3193,111.7363,556.5337,106.5219,558.7268,116.366,558.4221" style="stroke: #A80036; stroke-width: 1.0;"/><!--link testkit to launcher--><path d="M361.021,232.232 C378.363,251.611 409.46,282.174 443.628,296 C488.656,314.221 506.19,289.751 552.628,304 C581.622,312.897 611.261,330.856 631.799,344.995 " fill="none" id="testkit-launcher" style="stroke: #A80036; stroke-width: 1.0; stroke-dasharray: 7.0,7.0;"/><polygon fill="#A80036" points="636.04,347.95,630.9422,339.5231,631.9375,345.0917,626.3689,346.087,636.04,347.95" style="stroke: #A80036; stroke-width: 1.0;"/><!--link vintage_engine to engine--><path d="M211.091,381.022 C307.833,398.31 471.727,427.6 572.055,445.529 " fill="none" id="vintage_engine-engine" style="stroke: #A80036; stroke-width: 1.0; stroke-dasharray: 7.0,7.0;"/><polygon fill="#A80036" points="577.081,446.427,568.9256,440.9053,572.1591,445.5469,567.5174,448.7804,577.081,446.427" style="stroke: #A80036; stroke-width: 1.0;"/><!--link vintage_engine to junit4--><path d="M132.628,384.241 C132.628,399.479 132.628,421.807 132.628,438.458 " fill="none" id="vintage_engine-junit4" style="stroke: #A80036; stroke-width: 1.0; stroke-dasharray: 7.0,7.0;"/><polygon fill="#A80036" points="132.628,443.868,136.628,434.868,132.628,438.868,128.628,434.868,132.628,443.868" style="stroke: #A80036; stroke-width: 1.0;"/><!--
@startuml
skinparam {
    defaultFontName Open Sans
}

package org.junit.jupiter {
    [junit-jupiter] as jupiter
    [junit-jupiter-api] as jupiter_api
    [junit-jupiter-engine] as jupiter_engine
    [junit-jupiter-params] as jupiter_params
    [junit-jupiter-migrationsupport] as jupiter_migration_support
}

package org.junit.vintage {
    [junit-vintage-engine] as vintage_engine
    [junit:junit] as junit4
}

package org.junit.platform {
    [junit-platform-commons] as commons
    [junit-platform-console] as console
    [junit-platform-engine] as engine
    [junit-platform-launcher] as launcher
    [junit-platform-reporting] as reporting
    [junit-platform-runner] as runner
    [junit-platform-suite-api] as suite_api
    [junit-platform-testkit] as testkit
}

package org.opentest4j {
    [opentest4j]
}

package org.apiguardian {
    [apiguardian-api] as apiguardian
    note bottom of apiguardian #white
        All artifacts except
        opentest4j and junit:junit
        have a dependency on this
        artifact. The edges have
        been omitted from this
        diagram for the sake of
        readability.
    endnote
}

jupiter ..> jupiter_api
jupiter ..> jupiter_params
jupiter ..> jupiter_engine

jupiter_api ..> opentest4j
jupiter_api ..> commons

jupiter_engine ..> engine
jupiter_engine ..> jupiter_api

jupiter_params ..> jupiter_api
jupiter_migration_support ..> jupiter_api
jupiter_migration_support ..> junit4

console ..> launcher
console ..> reporting

launcher ..> engine

engine ..> opentest4j
engine ..> commons

reporting ..> launcher

runner ..> launcher
runner ..> suite_api
runner ..> junit4

testkit ..> opentest4j
testkit ..> launcher

vintage_engine ..> engine
vintage_engine ..> junit4
@enduml

PlantUML version 1.2018.01(Sun Jan 28 18:08:22 UTC 2018)
(APACHE source distribution)
Java Runtime: OpenJDK Runtime Environment
JVM: OpenJDK 64-Bit Server VM
Java Version: 11.0.2+9
Operating System: Linux
OS Version: 4.4.0-101-generic
Default Encoding: UTF-8
Language: en
Country: US
--></g></svg>