<?xml version="1.0" encoding="UTF-8" standalone="yes"?><svg xmlns="http://www.w3.org/2000/svg" xmlns:xlink="http://www.w3.org/1999/xlink" height="503px" style="width:1315px;height:503px;" version="1.1" viewBox="0 0 1315 503" width="1315px"><defs><filter height="300%" id="f1" width="300%" x="-1" y="-1"><feGaussianBlur result="blurOut" stdDeviation="2.0"/><feColorMatrix in="blurOut" result="blurOut2" type="matrix" values="0 0 0 0 0 0 0 0 0 0 0 0 0 0 0 0 0 0 .4 0"/><feOffset dx="4.0" dy="4.0" in="blurOut2" result="blurOut3"/><feBlend in="SourceGraphic" in2="blurOut3" mode="normal"/></filter></defs><g><polygon fill="#FFFFFF" filter="url(#f1)" points="22,212,136,212,143,231.9923,425,231.9923,425,389,22,389,22,212" style="stroke: #000000; stroke-width: 2.0;"/><line style="stroke: #000000; stroke-width: 2.0;" x1="22" x2="143" y1="231.9923" y2="231.9923"/><text fill="#000000" font-family="Open Sans" font-size="14" font-weight="bold" lengthAdjust="spacingAndGlyphs" textLength="108" x="26" y="225.3128">org.junit.jupiter</text><polygon fill="#FFFFFF" filter="url(#f1)" points="499,212,619,212,626,231.9923,675,231.9923,675,389,499,389,499,212" style="stroke: #000000; stroke-width: 2.0;"/><line style="stroke: #000000; stroke-width: 2.0;" x1="499" x2="626" y1="231.9923" y2="231.9923"/><text fill="#000000" font-family="Open Sans" font-size="14" font-weight="bold" lengthAdjust="spacingAndGlyphs" textLength="114" x="503" y="225.3128">org.junit.vintage</text><polygon fill="#FFFFFF" filter="url(#f1)" points="699,24,826,24,833,43.9923,1308,43.9923,1308,496,699,496,699,24" style="stroke: #000000; stroke-width: 2.0;"/><line style="stroke: #000000; stroke-width: 2.0;" x1="699" x2="833" y1="43.9923" y2="43.9923"/><text fill="#000000" font-family="Open Sans" font-size="14" font-weight="bold" lengthAdjust="spacingAndGlyphs" textLength="121" x="703" y="37.3128">org.junit.platform</text><polygon fill="#FFFFFF" filter="url(#f1)" points="422,413,529,413,536,432.9923,540,432.9923,540,496,422,496,422,413" style="stroke: #000000; stroke-width: 2.0;"/><line style="stroke: #000000; stroke-width: 2.0;" x1="422" x2="536" y1="432.9923" y2="432.9923"/><text fill="#000000" font-family="Open Sans" font-size="14" font-weight="bold" lengthAdjust="spacingAndGlyphs" textLength="101" x="426" y="426.3128">org.opentest4j</text><rect fill="#FEFECE" filter="url(#f1)" height="33.9923" style="stroke: #A80036; stroke-width: 1.5;" width="110" x="292" y="339"/><rect fill="#FEFECE" height="5" style="stroke: #A80036; stroke-width: 1.5;" width="10" x="287" y="344"/><rect fill="#FEFECE" height="5" style="stroke: #A80036; stroke-width: 1.5;" width="10" x="287" y="362.9923"/><text fill="#000000" font-family="Open Sans" font-size="14" lengthAdjust="spacingAndGlyphs" textLength="90" x="302" y="360.3128">junit-jupiter-api</text><rect fill="#FEFECE" filter="url(#f1)" height="33.9923" style="stroke: #A80036; stroke-width: 1.5;" width="135" x="273.75" y="245"/><rect fill="#FEFECE" height="5" style="stroke: #A80036; stroke-width: 1.5;" width="10" x="268.75" y="250"/><rect fill="#FEFECE" height="5" style="stroke: #A80036; stroke-width: 1.5;" width="10" x="268.75" y="268.9923"/><text fill="#000000" font-family="Open Sans" font-size="14" lengthAdjust="spacingAndGlyphs" textLength="115" x="283.75" y="266.3128">junit-jupiter-engine</text><rect fill="#FEFECE" filter="url(#f1)" height="33.9923" style="stroke: #A80036; stroke-width: 1.5;" width="200" x="38" y="245"/><rect fill="#FEFECE" height="5" style="stroke: #A80036; stroke-width: 1.5;" width="10" x="33" y="250"/><rect fill="#FEFECE" height="5" style="stroke: #A80036; stroke-width: 1.5;" width="10" x="33" y="268.9923"/><text fill="#000000" font-family="Open Sans" font-size="14" lengthAdjust="spacingAndGlyphs" textLength="180" x="48" y="266.3128">junit-jupiter-migration-support</text><rect fill="#FEFECE" filter="url(#f1)" height="33.9923" style="stroke: #A80036; stroke-width: 1.5;" width="143" x="515.75" y="245"/><rect fill="#FEFECE" height="5" style="stroke: #A80036; stroke-width: 1.5;" width="10" x="510.75" y="250"/><rect fill="#FEFECE" height="5" style="stroke: #A80036; stroke-width: 1.5;" width="10" x="510.75" y="268.9923"/><text fill="#000000" font-family="Open Sans" font-size="14" lengthAdjust="spacingAndGlyphs" textLength="123" x="525.75" y="266.3128">junit-vintage-engine</text><rect fill="#FEFECE" filter="url(#f1)" height="33.9923" style="stroke: #A80036; stroke-width: 1.5;" width="74" x="515" y="339"/><rect fill="#FEFECE" height="5" style="stroke: #A80036; stroke-width: 1.5;" width="10" x="510" y="344"/><rect fill="#FEFECE" height="5" style="stroke: #A80036; stroke-width: 1.5;" width="10" x="510" y="362.9923"/><text fill="#000000" font-family="Open Sans" font-size="14" lengthAdjust="spacingAndGlyphs" textLength="54" x="525" y="360.3128">junit:junit</text><rect fill="#FEFECE" filter="url(#f1)" height="33.9923" style="stroke: #A80036; stroke-width: 1.5;" width="166" x="715" y="446"/><rect fill="#FEFECE" height="5" style="stroke: #A80036; stroke-width: 1.5;" width="10" x="710" y="451"/><rect fill="#FEFECE" height="5" style="stroke: #A80036; stroke-width: 1.5;" width="10" x="710" y="469.9923"/><text fill="#000000" font-family="Open Sans" font-size="14" lengthAdjust="spacingAndGlyphs" textLength="146" x="725" y="467.3128">junit-platform-commons</text><rect fill="#FEFECE" filter="url(#f1)" height="33.9923" style="stroke: #A80036; stroke-width: 1.5;" width="153" x="1138.75" y="151"/><rect fill="#FEFECE" height="5" style="stroke: #A80036; stroke-width: 1.5;" width="10" x="1133.75" y="156"/><rect fill="#FEFECE" height="5" style="stroke: #A80036; stroke-width: 1.5;" width="10" x="1133.75" y="174.9923"/><text fill="#000000" font-family="Open Sans" font-size="14" lengthAdjust="spacingAndGlyphs" textLength="133" x="1148.75" y="172.3128">junit-platform-console</text><rect fill="#FEFECE" filter="url(#f1)" height="33.9923" style="stroke: #A80036; stroke-width: 1.5;" width="147" x="715.75" y="339"/><rect fill="#FEFECE" height="5" style="stroke: #A80036; stroke-width: 1.5;" width="10" x="710.75" y="344"/><rect fill="#FEFECE" height="5" style="stroke: #A80036; stroke-width: 1.5;" width="10" x="710.75" y="362.9923"/><text fill="#000000" font-family="Open Sans" font-size="14" lengthAdjust="spacingAndGlyphs" textLength="127" x="725.75" y="360.3128">junit-platform-engine</text><rect fill="#FEFECE" filter="url(#f1)" height="33.9923" style="stroke: #A80036; stroke-width: 1.5;" width="186" x="1106.5" y="57"/><rect fill="#FEFECE" height="5" style="stroke: #A80036; stroke-width: 1.5;" width="10" x="1101.5" y="62"/><rect fill="#FEFECE" height="5" style="stroke: #A80036; stroke-width: 1.5;" width="10" x="1101.5" y="80.9923"/><text fill="#000000" font-family="Open Sans" font-size="14" lengthAdjust="spacingAndGlyphs" textLength="166" x="1116.5" y="78.3128">junit-platform-gradle-plugin</text><rect fill="#FEFECE" filter="url(#f1)" height="33.9923" style="stroke: #A80036; stroke-width: 1.5;" width="159" x="895.75" y="245"/><rect fill="#FEFECE" height="5" style="stroke: #A80036; stroke-width: 1.5;" width="10" x="890.75" y="250"/><rect fill="#FEFECE" height="5" style="stroke: #A80036; stroke-width: 1.5;" width="10" x="890.75" y="268.9923"/><text fill="#000000" font-family="Open Sans" font-size="14" lengthAdjust="spacingAndGlyphs" textLength="139" x="905.75" y="266.3128">junit-platform-launcher</text><rect fill="#FEFECE" filter="url(#f1)" height="33.9923" style="stroke: #A80036; stroke-width: 1.5;" width="146" x="715" y="151"/><rect fill="#FEFECE" height="5" style="stroke: #A80036; stroke-width: 1.5;" width="10" x="710" y="156"/><rect fill="#FEFECE" height="5" style="stroke: #A80036; stroke-width: 1.5;" width="10" x="710" y="174.9923"/><text fill="#000000" font-family="Open Sans" font-size="14" lengthAdjust="spacingAndGlyphs" textLength="126" x="725" y="172.3128">junit-platform-runner</text><rect fill="#FEFECE" filter="url(#f1)" height="33.9923" style="stroke: #A80036; stroke-width: 1.5;" width="156" x="898" y="339"/><rect fill="#FEFECE" height="5" style="stroke: #A80036; stroke-width: 1.5;" width="10" x="893" y="344"/><rect fill="#FEFECE" height="5" style="stroke: #A80036; stroke-width: 1.5;" width="10" x="893" y="362.9923"/><text fill="#000000" font-family="Open Sans" font-size="14" lengthAdjust="spacingAndGlyphs" textLength="136" x="908" y="360.3128">junit-platform-suite-api</text><rect fill="#FEFECE" filter="url(#f1)" height="33.9923" style="stroke: #A80036; stroke-width: 1.5;" width="207" x="896.75" y="151"/><rect fill="#FEFECE" height="5" style="stroke: #A80036; stroke-width: 1.5;" width="10" x="891.75" y="156"/><rect fill="#FEFECE" height="5" style="stroke: #A80036; stroke-width: 1.5;" width="10" x="891.75" y="174.9923"/><text fill="#000000" font-family="Open Sans" font-size="14" lengthAdjust="spacingAndGlyphs" textLength="187" x="906.75" y="172.3128">junit-platform-surefire-provider</text><rect fill="#FEFECE" filter="url(#f1)" height="33.9923" style="stroke: #A80036; stroke-width: 1.5;" width="83" x="439.75" y="446"/><rect fill="#FEFECE" height="5" style="stroke: #A80036; stroke-width: 1.5;" width="10" x="434.75" y="451"/><rect fill="#FEFECE" height="5" style="stroke: #A80036; stroke-width: 1.5;" width="10" x="434.75" y="469.9923"/><text fill="#000000" font-family="Open Sans" font-size="14" lengthAdjust="spacingAndGlyphs" textLength="63" x="449.75" y="467.3128">opentest4j</text><path d="M367.644,373.176 C391.616,391.96 431.117,422.9126 456.589,442.8723 " fill="none" style="stroke: #A80036; stroke-width: 1.0; stroke-dasharray: 7.0,7.0;"/><polygon fill="#A80036" points="460.553,445.9778,455.9344,437.279,456.6168,442.8946,451.0013,443.5769,460.553,445.9778" style="stroke: #A80036; stroke-width: 1.0;"/><path d="M402.036,372.334 C430.82,380.137 466.699,389.527 499,397 C516.663,401.087 521.257,401.274 539,405 C600.656,417.9489 670.398,433.3403 721.966,444.8635 " fill="none" style="stroke: #A80036; stroke-width: 1.0; stroke-dasharray: 7.0,7.0;"/><polygon fill="#A80036" points="726.899,445.9664,718.9891,440.0983,722.0196,444.875,717.2429,447.9054,726.899,445.9664" style="stroke: #A80036; stroke-width: 1.0;"/><path d="M408.555,276.873 C489.562,293.508 625.09,321.34 710.623,338.905 " fill="none" style="stroke: #A80036; stroke-width: 1.0; stroke-dasharray: 7.0,7.0;"/><polygon fill="#A80036" points="715.674,339.942,707.6627,334.2133,710.7762,338.9362,706.0533,342.0497,715.674,339.942" style="stroke: #A80036; stroke-width: 1.0;"/><path d="M342.045,279.025 C343.029,294.104 344.508,316.793 345.595,333.451 " fill="none" style="stroke: #A80036; stroke-width: 1.0; stroke-dasharray: 7.0,7.0;"/><polygon fill="#A80036" points="345.947,338.85,349.3523,329.6086,345.6213,333.8606,341.3693,330.1297,345.947,338.85" style="stroke: #A80036; stroke-width: 1.0;"/><path d="M174.405,279.025 C210.893,295.087 267.001,319.785 305.268,336.63 " fill="none" style="stroke: #A80036; stroke-width: 1.0; stroke-dasharray: 7.0,7.0;"/><polygon fill="#A80036" points="310.311,338.85,303.6854,331.5629,305.7348,336.8355,300.4622,338.8849,310.311,338.85" style="stroke: #A80036; stroke-width: 1.0;"/><path d="M210.113,279.025 C296.875,298.306 439.635,330.03 510.05,345.678 " fill="none" style="stroke: #A80036; stroke-width: 1.0; stroke-dasharray: 7.0,7.0;"/><polygon fill="#A80036" points="514.993,346.776,507.0761,340.9174,510.1123,345.6904,505.3392,348.7266,514.993,346.776" style="stroke: #A80036; stroke-width: 1.0;"/><path d="M1173.2,185.025 C1130.95,201.218 1065.81,226.189 1021.85,243.041 " fill="none" style="stroke: #A80036; stroke-width: 1.0; stroke-dasharray: 7.0,7.0;"/><polygon fill="#A80036" points="1017.13,244.85,1026.9664,245.3445,1021.7953,243.0513,1024.0885,237.8801,1017.13,244.85" style="stroke: #A80036; stroke-width: 1.0;"/><path d="M1201.79,91.025 C1204.43,106.235 1208.42,129.188 1211.33,145.885 " fill="none" style="stroke: #A80036; stroke-width: 1.0; stroke-dasharray: 7.0,7.0;"/><polygon fill="#A80036" points="1212.19,150.85,1214.5888,141.2977,1211.3333,145.9239,1206.7071,142.6685,1212.19,150.85" style="stroke: #A80036; stroke-width: 1.0;"/><path d="M942.601,279.025 C910.128,295.087 860.196,319.785 826.14,336.63 " fill="none" style="stroke: #A80036; stroke-width: 1.0; stroke-dasharray: 7.0,7.0;"/><polygon fill="#A80036" points="821.652,338.85,831.4925,338.4455,826.1338,336.6334,827.946,331.2746,821.652,338.85" style="stroke: #A80036; stroke-width: 1.0;"/><path d="M743.837,373.012 C722.918,380.386 697.717,389.209 675,397 C624.676,414.2585 566.832,433.5716 527.493,446.6278 " fill="none" style="stroke: #A80036; stroke-width: 1.0; stroke-dasharray: 7.0,7.0;"/><polygon fill="#A80036" points="522.308,448.3478,532.1097,449.3107,527.0537,446.7735,529.5908,441.7175,522.308,448.3478" style="stroke: #A80036; stroke-width: 1.0;"/><path d="M790.406,373.406 C791.958,391.514 794.462,420.7251 796.167,440.6147 " fill="none" style="stroke: #A80036; stroke-width: 1.0; stroke-dasharray: 7.0,7.0;"/><polygon fill="#A80036" points="796.604,445.709,799.8205,436.4002,796.1768,440.7273,791.8497,437.0836,796.604,445.709" style="stroke: #A80036; stroke-width: 1.0;"/><path d="M820.573,185.025 C853.22,201.087 903.422,225.785 937.661,242.63 " fill="none" style="stroke: #A80036; stroke-width: 1.0; stroke-dasharray: 7.0,7.0;"/><polygon fill="#A80036" points="942.173,244.85,935.8626,237.2883,937.6864,242.6431,932.3316,244.4669,942.173,244.85" style="stroke: #A80036; stroke-width: 1.0;"/><path d="M799.485,185.254 C815.669,207.605 846.717,248.523 878,279 C899.884,300.321 927.62,321.357 947.995,335.873 " fill="none" style="stroke: #A80036; stroke-width: 1.0; stroke-dasharray: 7.0,7.0;"/><polygon fill="#A80036" points="952.226,338.869,947.1938,330.4027,948.1459,335.9789,942.5697,336.9309,952.226,338.869" style="stroke: #A80036; stroke-width: 1.0;"/><path d="M714.85,172.847 C633.685,177.88 512.193,187.991 498,204 C464.062,242.28 506.664,303.402 533.415,334.854 " fill="none" style="stroke: #A80036; stroke-width: 1.0; stroke-dasharray: 7.0,7.0;"/><polygon fill="#A80036" points="536.913,338.906,534.0593,329.4796,533.6455,335.1213,528.0038,334.7076,536.913,338.906" style="stroke: #A80036; stroke-width: 1.0;"/><path d="M948.578,373.176 C916.472,392.115 863.397,423.4229 829.594,443.3629 " fill="none" style="stroke: #A80036; stroke-width: 1.0; stroke-dasharray: 7.0,7.0;"/><polygon fill="#A80036" points="825.161,445.9778,834.9452,444.851,829.4677,443.4377,830.881,437.9602,825.161,445.9778" style="stroke: #A80036; stroke-width: 1.0;"/><path d="M995.645,185.025 C991.512,200.235 985.275,223.188 980.738,239.885 " fill="none" style="stroke: #A80036; stroke-width: 1.0; stroke-dasharray: 7.0,7.0;"/><polygon fill="#A80036" points="979.389,244.85,985.6092,237.214,980.7002,240.025,977.8892,235.116,979.389,244.85" style="stroke: #A80036; stroke-width: 1.0;"/><path d="M622.186,279.025 C657.452,295.087 711.68,319.785 748.666,336.63 " fill="none" style="stroke: #A80036; stroke-width: 1.0; stroke-dasharray: 7.0,7.0;"/><polygon fill="#A80036" points="753.54,338.85,747.0082,331.4787,748.9899,336.7771,743.6916,338.7589,753.54,338.85" style="stroke: #A80036; stroke-width: 1.0;"/><path d="M580.903,279.025 C575.117,294.235 566.385,317.188 560.033,333.885 " fill="none" style="stroke: #A80036; stroke-width: 1.0; stroke-dasharray: 7.0,7.0;"/><polygon fill="#A80036" points="558.144,338.85,565.0832,331.8609,559.9221,334.1769,557.6061,329.0158,558.144,338.85" style="stroke: #A80036; stroke-width: 1.0;"/></g></svg>