<?xml version="1.0" encoding="UTF-8" standalone="no"?><svg xmlns="http://www.w3.org/2000/svg" xmlns:xlink="http://www.w3.org/1999/xlink" contentScriptType="application/ecmascript" contentStyleType="text/css" height="479px" preserveAspectRatio="none" style="width:1497px;height:479px;" version="1.1" viewBox="0 0 1497 479" width="1497px" zoomAndPan="magnify"><defs><filter height="300%" id="f8g8dbmkhzgc8" width="300%" x="-1" y="-1"><feGaussianBlur result="blurOut" stdDeviation="2.0"/><feColorMatrix in="blurOut" result="blurOut2" type="matrix" values="0 0 0 0 0 0 0 0 0 0 0 0 0 0 0 0 0 0 .4 0"/><feOffset dx="4.0" dy="4.0" in="blurOut2" result="blurOut3"/><feBlend in="SourceGraphic" in2="blurOut3" mode="normal"/></filter></defs><g><!--cluster org.junit.jupiter--><polygon fill="#FFFFFF" filter="url(#f8g8dbmkhzgc8)" points="22,151.5,136,151.5,143,171.4923,594,171.4923,594,361,22,361,22,151.5" style="stroke: #000000; stroke-width: 1.5;"/><line style="stroke: #000000; stroke-width: 1.5;" x1="22" x2="143" y1="171.4923" y2="171.4923"/><text fill="#000000" font-family="Open Sans" font-size="14" font-weight="bold" lengthAdjust="spacingAndGlyphs" textLength="108" x="26" y="164.8128">org.junit.jupiter</text><!--cluster org.junit.vintage--><polygon fill="#FFFFFF" filter="url(#f8g8dbmkhzgc8)" points="668,151.5,788,151.5,795,171.4923,844,171.4923,844,361,668,361,668,151.5" style="stroke: #000000; stroke-width: 1.5;"/><line style="stroke: #000000; stroke-width: 1.5;" x1="668" x2="795" y1="171.4923" y2="171.4923"/><text fill="#000000" font-family="Open Sans" font-size="14" font-weight="bold" lengthAdjust="spacingAndGlyphs" textLength="114" x="672" y="164.8128">org.junit.vintage</text><!--cluster org.junit.platform--><polygon fill="#FFFFFF" filter="url(#f8g8dbmkhzgc8)" points="868,24,995,24,1002,43.9923,1239,43.9923,1239,467,868,467,868,24" style="stroke: #000000; stroke-width: 1.5;"/><line style="stroke: #000000; stroke-width: 1.5;" x1="868" x2="1002" y1="43.9923" y2="43.9923"/><text fill="#000000" font-family="Open Sans" font-size="14" font-weight="bold" lengthAdjust="spacingAndGlyphs" textLength="121" x="872" y="37.3128">org.junit.platform</text><!--cluster org.opentest4j--><polygon fill="#FFFFFF" filter="url(#f8g8dbmkhzgc8)" points="589,385,696,385,703,404.9923,706,404.9923,706,467,589,467,589,385" style="stroke: #000000; stroke-width: 1.5;"/><line style="stroke: #000000; stroke-width: 1.5;" x1="589" x2="703" y1="404.9923" y2="404.9923"/><text fill="#000000" font-family="Open Sans" font-size="14" font-weight="bold" lengthAdjust="spacingAndGlyphs" textLength="101" x="593" y="398.3128">org.opentest4j</text><!--cluster org.apiguardian--><polygon fill="#FFFFFF" filter="url(#f8g8dbmkhzgc8)" points="1263,24,1380,24,1387,43.9923,1475,43.9923,1475,267,1263,267,1263,24" style="stroke: #000000; stroke-width: 1.5;"/><line style="stroke: #000000; stroke-width: 1.5;" x1="1263" x2="1387" y1="43.9923" y2="43.9923"/><text fill="#000000" font-family="Open Sans" font-size="14" font-weight="bold" lengthAdjust="spacingAndGlyphs" textLength="111" x="1267" y="37.3128">org.apiguardian</text><!--entity jupiter_api--><rect fill="#FEFECE" filter="url(#f8g8dbmkhzgc8)" height="33.9923" style="stroke: #A80036; stroke-width: 1.5;" width="110" x="455" y="311"/><rect fill="#FEFECE" height="5" style="stroke: #A80036; stroke-width: 1.5;" width="10" x="450" y="316"/><rect fill="#FEFECE" height="5" style="stroke: #A80036; stroke-width: 1.5;" width="10" x="450" y="334.9923"/><text fill="#000000" font-family="Open Sans" font-size="14" lengthAdjust="spacingAndGlyphs" textLength="90" x="465" y="332.3128">junit-jupiter-api</text><!--entity jupiter_engine--><rect fill="#FEFECE" filter="url(#f8g8dbmkhzgc8)" height="33.9923" style="stroke: #A80036; stroke-width: 1.5;" width="135" x="442.5" y="183.5"/><rect fill="#FEFECE" height="5" style="stroke: #A80036; stroke-width: 1.5;" width="10" x="437.5" y="188.5"/><rect fill="#FEFECE" height="5" style="stroke: #A80036; stroke-width: 1.5;" width="10" x="437.5" y="207.4923"/><text fill="#000000" font-family="Open Sans" font-size="14" lengthAdjust="spacingAndGlyphs" textLength="115" x="452.5" y="204.8128">junit-jupiter-engine</text><!--entity jupiter_params--><rect fill="#FEFECE" filter="url(#f8g8dbmkhzgc8)" height="33.9923" style="stroke: #A80036; stroke-width: 1.5;" width="139" x="38.5" y="183.5"/><rect fill="#FEFECE" height="5" style="stroke: #A80036; stroke-width: 1.5;" width="10" x="33.5" y="188.5"/><rect fill="#FEFECE" height="5" style="stroke: #A80036; stroke-width: 1.5;" width="10" x="33.5" y="207.4923"/><text fill="#000000" font-family="Open Sans" font-size="14" lengthAdjust="spacingAndGlyphs" textLength="119" x="48.5" y="204.8128">junit-jupiter-params</text><!--entity jupiter_migration_support--><rect fill="#FEFECE" filter="url(#f8g8dbmkhzgc8)" height="33.9923" style="stroke: #A80036; stroke-width: 1.5;" width="195" x="212.5" y="183.5"/><rect fill="#FEFECE" height="5" style="stroke: #A80036; stroke-width: 1.5;" width="10" x="207.5" y="188.5"/><rect fill="#FEFECE" height="5" style="stroke: #A80036; stroke-width: 1.5;" width="10" x="207.5" y="207.4923"/><text fill="#000000" font-family="Open Sans" font-size="14" lengthAdjust="spacingAndGlyphs" textLength="175" x="222.5" y="204.8128">junit-jupiter-migrationsupport</text><!--entity vintage_engine--><rect fill="#FEFECE" filter="url(#f8g8dbmkhzgc8)" height="33.9923" style="stroke: #A80036; stroke-width: 1.5;" width="143" x="684.5" y="183.5"/><rect fill="#FEFECE" height="5" style="stroke: #A80036; stroke-width: 1.5;" width="10" x="679.5" y="188.5"/><rect fill="#FEFECE" height="5" style="stroke: #A80036; stroke-width: 1.5;" width="10" x="679.5" y="207.4923"/><text fill="#000000" font-family="Open Sans" font-size="14" lengthAdjust="spacingAndGlyphs" textLength="123" x="694.5" y="204.8128">junit-vintage-engine</text><!--entity junit4--><rect fill="#FEFECE" filter="url(#f8g8dbmkhzgc8)" height="33.9923" style="stroke: #A80036; stroke-width: 1.5;" width="74" x="684" y="311"/><rect fill="#FEFECE" height="5" style="stroke: #A80036; stroke-width: 1.5;" width="10" x="679" y="316"/><rect fill="#FEFECE" height="5" style="stroke: #A80036; stroke-width: 1.5;" width="10" x="679" y="334.9923"/><text fill="#000000" font-family="Open Sans" font-size="14" lengthAdjust="spacingAndGlyphs" textLength="54" x="694" y="332.3128">junit:junit</text><!--entity commons--><rect fill="#FEFECE" filter="url(#f8g8dbmkhzgc8)" height="33.9923" style="stroke: #A80036; stroke-width: 1.5;" width="166" x="884" y="417"/><rect fill="#FEFECE" height="5" style="stroke: #A80036; stroke-width: 1.5;" width="10" x="879" y="422"/><rect fill="#FEFECE" height="5" style="stroke: #A80036; stroke-width: 1.5;" width="10" x="879" y="440.9923"/><text fill="#000000" font-family="Open Sans" font-size="14" lengthAdjust="spacingAndGlyphs" textLength="146" x="894" y="438.3128">junit-platform-commons</text><!--entity console--><rect fill="#FEFECE" filter="url(#f8g8dbmkhzgc8)" height="33.9923" style="stroke: #A80036; stroke-width: 1.5;" width="153" x="884.5" y="56"/><rect fill="#FEFECE" height="5" style="stroke: #A80036; stroke-width: 1.5;" width="10" x="879.5" y="61"/><rect fill="#FEFECE" height="5" style="stroke: #A80036; stroke-width: 1.5;" width="10" x="879.5" y="79.9923"/><text fill="#000000" font-family="Open Sans" font-size="14" lengthAdjust="spacingAndGlyphs" textLength="133" x="894.5" y="77.3128">junit-platform-console</text><!--entity engine--><rect fill="#FEFECE" filter="url(#f8g8dbmkhzgc8)" height="33.9923" style="stroke: #A80036; stroke-width: 1.5;" width="147" x="884.5" y="311"/><rect fill="#FEFECE" height="5" style="stroke: #A80036; stroke-width: 1.5;" width="10" x="879.5" y="316"/><rect fill="#FEFECE" height="5" style="stroke: #A80036; stroke-width: 1.5;" width="10" x="879.5" y="334.9923"/><text fill="#000000" font-family="Open Sans" font-size="14" lengthAdjust="spacingAndGlyphs" textLength="127" x="894.5" y="332.3128">junit-platform-engine</text><!--entity launcher--><rect fill="#FEFECE" filter="url(#f8g8dbmkhzgc8)" height="33.9923" style="stroke: #A80036; stroke-width: 1.5;" width="159" x="884.5" y="183.5"/><rect fill="#FEFECE" height="5" style="stroke: #A80036; stroke-width: 1.5;" width="10" x="879.5" y="188.5"/><rect fill="#FEFECE" height="5" style="stroke: #A80036; stroke-width: 1.5;" width="10" x="879.5" y="207.4923"/><text fill="#000000" font-family="Open Sans" font-size="14" lengthAdjust="spacingAndGlyphs" textLength="139" x="894.5" y="204.8128">junit-platform-launcher</text><!--entity runner--><rect fill="#FEFECE" filter="url(#f8g8dbmkhzgc8)" height="33.9923" style="stroke: #A80036; stroke-width: 1.5;" width="146" x="1073" y="56"/><rect fill="#FEFECE" height="5" style="stroke: #A80036; stroke-width: 1.5;" width="10" x="1068" y="61"/><rect fill="#FEFECE" height="5" style="stroke: #A80036; stroke-width: 1.5;" width="10" x="1068" y="79.9923"/><text fill="#000000" font-family="Open Sans" font-size="14" lengthAdjust="spacingAndGlyphs" textLength="126" x="1083" y="77.3128">junit-platform-runner</text><!--entity suite_api--><rect fill="#FEFECE" filter="url(#f8g8dbmkhzgc8)" height="33.9923" style="stroke: #A80036; stroke-width: 1.5;" width="156" x="1067" y="311"/><rect fill="#FEFECE" height="5" style="stroke: #A80036; stroke-width: 1.5;" width="10" x="1062" y="316"/><rect fill="#FEFECE" height="5" style="stroke: #A80036; stroke-width: 1.5;" width="10" x="1062" y="334.9923"/><text fill="#000000" font-family="Open Sans" font-size="14" lengthAdjust="spacingAndGlyphs" textLength="136" x="1077" y="332.3128">junit-platform-suite-api</text><!--entity opentest4j--><rect fill="#FEFECE" filter="url(#f8g8dbmkhzgc8)" height="33.9923" style="stroke: #A80036; stroke-width: 1.5;" width="83" x="605.5" y="417"/><rect fill="#FEFECE" height="5" style="stroke: #A80036; stroke-width: 1.5;" width="10" x="600.5" y="422"/><rect fill="#FEFECE" height="5" style="stroke: #A80036; stroke-width: 1.5;" width="10" x="600.5" y="440.9923"/><text fill="#000000" font-family="Open Sans" font-size="14" lengthAdjust="spacingAndGlyphs" textLength="63" x="615.5" y="438.3128">opentest4j</text><!--entity apiguardian--><rect fill="#FEFECE" filter="url(#f8g8dbmkhzgc8)" height="33.9923" style="stroke: #A80036; stroke-width: 1.5;" width="117" x="1310.5" y="56"/><rect fill="#FEFECE" height="5" style="stroke: #A80036; stroke-width: 1.5;" width="10" x="1305.5" y="61"/><rect fill="#FEFECE" height="5" style="stroke: #A80036; stroke-width: 1.5;" width="10" x="1305.5" y="79.9923"/><text fill="#000000" font-family="Open Sans" font-size="14" lengthAdjust="spacingAndGlyphs" textLength="97" x="1320.5" y="77.3128">apiguardian-api</text><path d="M1279,150 L1279,250.8966 A0,0 0 0 0 1279,250.8966 L1459,250.8966 A0,0 0 0 0 1459,250.8966 L1459,160 L1449,150 L1373,150 L1369,90.15 L1365,150 L1279,150 A0,0 0 0 0 1279,150 " fill="#FFFFFF" filter="url(#f8g8dbmkhzgc8)" style="stroke: #A80036; stroke-width: 1.0;"/><path d="M1449,150 L1449,160 L1459,160 L1449,150 " fill="#FFFFFF" style="stroke: #A80036; stroke-width: 1.0;"/><text fill="#000000" font-family="Open Sans" font-size="13" lengthAdjust="spacingAndGlyphs" textLength="105" x="1285" y="165.4986">All artifacts except</text><text fill="#000000" font-family="Open Sans" font-size="13" lengthAdjust="spacingAndGlyphs" textLength="140" x="1285" y="178.4838">opentest4j and junit:junit</text><text fill="#000000" font-family="Open Sans" font-size="13" lengthAdjust="spacingAndGlyphs" textLength="159" x="1285" y="191.469">have a dependency on this</text><text fill="#000000" font-family="Open Sans" font-size="13" lengthAdjust="spacingAndGlyphs" textLength="140" x="1285" y="204.4542">artifact. The edges have</text><text fill="#000000" font-family="Open Sans" font-size="13" lengthAdjust="spacingAndGlyphs" textLength="131" x="1285" y="217.4395">been omitted from this</text><text fill="#000000" font-family="Open Sans" font-size="13" lengthAdjust="spacingAndGlyphs" textLength="135" x="1285" y="230.4247">diagram for the sake of</text><text fill="#000000" font-family="Open Sans" font-size="13" lengthAdjust="spacingAndGlyphs" textLength="62" x="1285" y="243.4099">readability.</text><!--link jupiter_api to opentest4j--><path d="M531.106,345.022 C555.472,363.519 595.531,393.9287 621.587,413.7086 " fill="none" id="jupiter_api-opentest4j" style="stroke: #A80036; stroke-width: 1.0; stroke-dasharray: 7.0,7.0;"/><polygon fill="#A80036" points="625.644,416.7884,620.8935,408.1609,621.6613,413.7655,616.0568,414.5332,625.644,416.7884" style="stroke: #A80036; stroke-width: 1.0;"/><!--link jupiter_api to commons--><path d="M565.084,343.479 C595.387,351.309 633.695,360.989 668,369 C673.417,370.265 799.987,397.3241 886.694,415.8485 " fill="none" id="jupiter_api-commons" style="stroke: #A80036; stroke-width: 1.0; stroke-dasharray: 7.0,7.0;"/><polygon fill="#A80036" points="891.827,416.9451,883.8609,411.1536,886.9373,415.9008,882.1901,418.9772,891.827,416.9451" style="stroke: #A80036; stroke-width: 1.0;"/><!--link jupiter_engine to engine--><path d="M538.506,217.509 C569.471,234.237 620.84,260.079 668,275 C706.397,287.148 807.285,304.027 879.256,315.219 " fill="none" id="jupiter_engine-engine" style="stroke: #A80036; stroke-width: 1.0; stroke-dasharray: 7.0,7.0;"/><polygon fill="#A80036" points="884.387,316.015,876.1057,310.684,879.446,315.2493,874.8806,318.5896,884.387,316.015" style="stroke: #A80036; stroke-width: 1.0;"/><!--link jupiter_engine to jupiter_api--><path d="M510,217.65 C510,240.147 510,280.953 510,305.852 " fill="none" id="jupiter_engine-jupiter_api" style="stroke: #A80036; stroke-width: 1.0; stroke-dasharray: 7.0,7.0;"/><polygon fill="#A80036" points="510,310.912,514,301.912,510,305.912,506,301.912,510,310.912" style="stroke: #A80036; stroke-width: 1.0;"/><!--link jupiter_params to jupiter_api--><path d="M121.936,217.575 C137.8,234.744 165.38,261.324 195,275 C277.764,313.212 384.196,323.788 449.727,326.466 " fill="none" id="jupiter_params-jupiter_api" style="stroke: #A80036; stroke-width: 1.0; stroke-dasharray: 7.0,7.0;"/><polygon fill="#A80036" points="454.764,326.66,445.925,322.3158,449.7677,326.4671,445.6164,330.3098,454.764,326.66" style="stroke: #A80036; stroke-width: 1.0;"/><!--link jupiter_migration_support to jupiter_api--><path d="M335.036,217.701 C358.271,232.69 393.861,255.527 425,275 C442.831,286.151 462.896,298.438 479.051,308.267 " fill="none" id="jupiter_migration_support-jupiter_api" style="stroke: #A80036; stroke-width: 1.0; stroke-dasharray: 7.0,7.0;"/><polygon fill="#A80036" points="483.499,310.971,477.887,302.8774,479.2267,308.3734,473.7308,309.713,483.499,310.971" style="stroke: #A80036; stroke-width: 1.0;"/><!--link jupiter_migration_support to junit4--><path d="M329.852,217.692 C351.777,234.702 388.789,260.901 425,275 C470.55,292.735 607.987,312.365 678.405,321.616 " fill="none" id="jupiter_migration_support-junit4" style="stroke: #A80036; stroke-width: 1.0; stroke-dasharray: 7.0,7.0;"/><polygon fill="#A80036" points="683.77,322.317,675.365,317.1832,678.8123,321.6683,674.3271,325.1156,683.77,322.317" style="stroke: #A80036; stroke-width: 1.0;"/><!--link console to launcher--><path d="M961.386,90.15 C961.924,112.647 962.899,153.453 963.494,178.352 " fill="none" id="console-launcher" style="stroke: #A80036; stroke-width: 1.0; stroke-dasharray: 7.0,7.0;"/><polygon fill="#A80036" points="963.615,183.412,967.4004,174.3197,963.4964,178.4134,959.4027,174.5094,963.615,183.412" style="stroke: #A80036; stroke-width: 1.0;"/><!--link launcher to engine--><path d="M963.228,217.65 C962.152,240.147 960.201,280.953 959.011,305.852 " fill="none" id="launcher-engine" style="stroke: #A80036; stroke-width: 1.0; stroke-dasharray: 7.0,7.0;"/><polygon fill="#A80036" points="958.769,310.912,963.1939,302.1131,959.0076,305.9177,955.203,301.7314,958.769,310.912" style="stroke: #A80036; stroke-width: 1.0;"/><!--link engine to opentest4j--><path d="M913.143,345.011 C892.178,352.424 866.852,361.28 844,369 C792.6,386.364 733.364,405.4894 693.379,418.2695 " fill="none" id="engine-opentest4j" style="stroke: #A80036; stroke-width: 1.0; stroke-dasharray: 7.0,7.0;"/><polygon fill="#A80036" points="688.6,419.796,698.3907,420.8651,693.3625,418.2733,695.9543,413.2451,688.6,419.796" style="stroke: #A80036; stroke-width: 1.0;"/><!--link engine to commons--><path d="M959.406,345.25 C960.958,363.185 963.462,392.1182 965.167,411.8184 " fill="none" id="engine-commons" style="stroke: #A80036; stroke-width: 1.0; stroke-dasharray: 7.0,7.0;"/><polygon fill="#A80036" points="965.604,416.8641,968.8131,407.5527,965.1729,411.8827,960.8428,408.2425,965.604,416.8641" style="stroke: #A80036; stroke-width: 1.0;"/><!--link runner to launcher--><path d="M1122.58,90.15 C1089,113.306 1027.29,155.859 991.556,180.498 " fill="none" id="runner-launcher" style="stroke: #A80036; stroke-width: 1.0; stroke-dasharray: 7.0,7.0;"/><polygon fill="#A80036" points="987.331,183.412,997.0108,181.595,991.447,180.5732,992.4688,175.0094,987.331,183.412" style="stroke: #A80036; stroke-width: 1.0;"/><!--link runner to suite_api--><path d="M1145.94,90.211 C1145.76,134.302 1145.28,256.392 1145.08,305.818 " fill="none" id="runner-suite_api" style="stroke: #A80036; stroke-width: 1.0; stroke-dasharray: 7.0,7.0;"/><polygon fill="#A80036" points="1145.06,310.924,1149.096,301.9401,1145.08,305.924,1141.096,301.9081,1145.06,310.924" style="stroke: #A80036; stroke-width: 1.0;"/><!--link runner to junit4--><path d="M1072.53,87.158 C1066.61,88.146 1060.71,89.105 1055,90 C969.013,103.483 724.188,77.886 667,143.5 C628.6,187.559 644.126,221.218 667,275 C672.441,287.794 682.744,298.964 692.903,307.639 " fill="none" id="runner-junit4" style="stroke: #A80036; stroke-width: 1.0; stroke-dasharray: 7.0,7.0;"/><polygon fill="#A80036" points="696.929,310.96,692.5277,302.1493,693.0705,307.7801,687.4398,308.3229,696.929,310.96" style="stroke: #A80036; stroke-width: 1.0;"/><!--link suite_api to commons--><path d="M1117.58,345.022 C1085.57,363.726 1032.71,394.6101 998.89,414.3679 " fill="none" id="suite_api-commons" style="stroke: #A80036; stroke-width: 1.0; stroke-dasharray: 7.0,7.0;"/><polygon fill="#A80036" points="994.454,416.9597,1004.2426,415.8723,998.7709,414.437,1000.2063,408.9652,994.454,416.9597" style="stroke: #A80036; stroke-width: 1.0;"/><!--link vintage_engine to engine--><path d="M779.779,217.67 C802.28,232.835 837.113,255.964 868,275 C886.395,286.337 907.272,298.445 924.285,308.123 " fill="none" id="vintage_engine-engine" style="stroke: #A80036; stroke-width: 1.0; stroke-dasharray: 7.0,7.0;"/><polygon fill="#A80036" points="928.976,310.785,923.1219,302.8648,924.6272,308.3177,919.1742,309.8229,928.976,310.785" style="stroke: #A80036; stroke-width: 1.0;"/><!--link vintage_engine to junit4--><path d="M751.496,217.65 C745.222,240.147 733.842,280.953 726.898,305.852 " fill="none" id="vintage_engine-junit4" style="stroke: #A80036; stroke-width: 1.0; stroke-dasharray: 7.0,7.0;"/><polygon fill="#A80036" points="725.487,310.912,731.7568,303.3167,726.8296,306.0956,724.0507,301.1684,725.487,310.912" style="stroke: #A80036; stroke-width: 1.0;"/><!--
@startuml
skinparam {
    defaultFontName Open Sans
}

package org.junit.jupiter {
    [junit-jupiter-api] as jupiter_api
    [junit-jupiter-engine] as jupiter_engine
    [junit-jupiter-params] as jupiter_params
    [junit-jupiter-migrationsupport] as jupiter_migration_support
}

package org.junit.vintage {
    [junit-vintage-engine] as vintage_engine
    [junit:junit] as junit4
}

package org.junit.platform {
    [junit-platform-commons] as commons
    [junit-platform-console] as console
    [junit-platform-engine] as engine
    [junit-platform-launcher] as launcher
    [junit-platform-runner] as runner
    [junit-platform-suite-api] as suite_api
}

package org.opentest4j {
    [opentest4j]
}

package org.apiguardian {
    [apiguardian-api] as apiguardian
    note bottom of apiguardian #white
        All artifacts except
        opentest4j and junit:junit
        have a dependency on this
        artifact. The edges have
        been omitted from this
        diagram for the sake of
        readability.
    endnote
}

jupiter_api ..> opentest4j
jupiter_api ..> commons

jupiter_engine ..> engine
jupiter_engine ..> jupiter_api

jupiter_params ..> jupiter_api
jupiter_migration_support ..> jupiter_api
jupiter_migration_support ..> junit4

console ..> launcher

launcher ..> engine

engine ..> opentest4j
engine ..> commons

runner ..> launcher
runner ..> suite_api
runner ..> junit4

suite_api ..> commons

vintage_engine ..> engine
vintage_engine ..> junit4
@enduml

PlantUML version 1.2018.01(Sun Jan 28 13:08:22 EST 2018)
(APACHE source distribution)
Java Runtime: Java(TM) SE Runtime Environment
JVM: Java HotSpot(TM) 64-Bit Server VM
Java Version: 10.0.1+10
Operating System: Linux
OS Version: 3.13.0-143-generic
Default Encoding: UTF-8
Language: en
Country: US
--></g></svg>