<?xml version="1.0" encoding="UTF-8" standalone="no"?><svg xmlns="http://www.w3.org/2000/svg" xmlns:xlink="http://www.w3.org/1999/xlink" contentScriptType="application/ecmascript" contentStyleType="text/css" height="563px" preserveAspectRatio="none" style="width:1739px;height:563px;" version="1.1" viewBox="0 0 1739 563" width="1739px" zoomAndPan="magnify"><defs><filter height="300%" id="fz2xs20j49f9r" width="300%" x="-1" y="-1"><feGaussianBlur result="blurOut" stdDeviation="2.0"/><feColorMatrix in="blurOut" result="blurOut2" type="matrix" values="0 0 0 0 0 0 0 0 0 0 0 0 0 0 0 0 0 0 .4 0"/><feOffset dx="4.0" dy="4.0" in="blurOut2" result="blurOut3"/><feBlend in="SourceGraphic" in2="blurOut3" mode="normal"/></filter></defs><g><!--MD5=[423490a38fdf15f9d701d98f9f242cfc]
cluster org.junit.jupiter--><polygon fill="#FFFFFF" filter="url(#fz2xs20j49f9r)" points="852.8147,152,980.8147,152,987.8147,174.2969,1499.8147,174.2969,1499.8147,455,852.8147,455,852.8147,152" style="stroke: #000000; stroke-width: 1.5;"/><line style="stroke: #000000; stroke-width: 1.5;" x1="852.8147" x2="987.8147" y1="174.2969" y2="174.2969"/><text fill="#000000" font-family="Open Sans" font-size="14" font-weight="bold" lengthAdjust="spacingAndGlyphs" textLength="122" x="856.8147" y="166.9951">org.junit.jupiter</text><!--MD5=[899e7549d75556ed53cabbb57638df67]
cluster org.junit.vintage--><polygon fill="#FFFFFF" filter="url(#fz2xs20j49f9r)" points="41.8147,288,176.8147,288,183.8147,310.2969,215.8147,310.2969,215.8147,455,41.8147,455,41.8147,288" style="stroke: #000000; stroke-width: 1.5;"/><line style="stroke: #000000; stroke-width: 1.5;" x1="41.8147" x2="183.8147" y1="310.2969" y2="310.2969"/><text fill="#000000" font-family="Open Sans" font-size="14" font-weight="bold" lengthAdjust="spacingAndGlyphs" textLength="129" x="45.8147" y="302.9951">org.junit.vintage</text><!--MD5=[7eecee75087ecb6f70a379822261fafe]
cluster org.junit.platform--><polygon fill="#FFFFFF" filter="url(#fz2xs20j49f9r)" points="223.8147,16,366.8147,16,373.8147,38.2969,844.8147,38.2969,844.8147,551,223.8147,551,223.8147,16" style="stroke: #000000; stroke-width: 1.5;"/><line style="stroke: #000000; stroke-width: 1.5;" x1="223.8147" x2="373.8147" y1="38.2969" y2="38.2969"/><text fill="#000000" font-family="Open Sans" font-size="14" font-weight="bold" lengthAdjust="spacingAndGlyphs" textLength="137" x="227.8147" y="30.9951">org.junit.platform</text><!--MD5=[310a961075fb7375dfa4f21827c94e35]
cluster org.opentest4j--><polygon fill="#FFFFFF" filter="url(#fz2xs20j49f9r)" points="82.8147,480,205.8147,480,212.8147,502.2969,215.8147,502.2969,215.8147,551,82.8147,551,82.8147,480" style="stroke: #000000; stroke-width: 1.5;"/><line style="stroke: #000000; stroke-width: 1.5;" x1="82.8147" x2="212.8147" y1="502.2969" y2="502.2969"/><text fill="#000000" font-family="Open Sans" font-size="14" font-weight="bold" lengthAdjust="spacingAndGlyphs" textLength="117" x="86.8147" y="494.9951">org.opentest4j</text><!--MD5=[8acdc85b3afaf40a8a892cda9d8153cf]
cluster org.apiguardian--><polygon fill="#FFFFFF" filter="url(#fz2xs20j49f9r)" points="1507.8147,16,1637.8147,16,1644.8147,38.2969,1717.8147,38.2969,1717.8147,263,1507.8147,263,1507.8147,16" style="stroke: #000000; stroke-width: 1.5;"/><line style="stroke: #000000; stroke-width: 1.5;" x1="1507.8147" x2="1644.8147" y1="38.2969" y2="38.2969"/><text fill="#000000" font-family="Open Sans" font-size="14" font-weight="bold" lengthAdjust="spacingAndGlyphs" textLength="124" x="1511.8147" y="30.9951">org.apiguardian</text><!--MD5=[7639c34473ec179827bcbba76712a2e4]
entity jupiter--><rect fill="#FEFECE" filter="url(#fz2xs20j49f9r)" height="36.2969" style="stroke: #A80036; stroke-width: 1.5;" width="97" x="1329.3147" y="179"/><rect fill="#FEFECE" height="5" style="stroke: #A80036; stroke-width: 1.5;" width="10" x="1324.3147" y="184"/><rect fill="#FEFECE" height="5" style="stroke: #A80036; stroke-width: 1.5;" width="10" x="1324.3147" y="205.2969"/><text fill="#000000" font-family="Open Sans" font-size="14" lengthAdjust="spacingAndGlyphs" textLength="77" x="1339.3147" y="201.9951">junit-jupiter</text><!--MD5=[ed6f8020ec715bb224e5be01e90531f5]
entity jupiter_api--><rect fill="#FEFECE" filter="url(#fz2xs20j49f9r)" height="36.2969" style="stroke: #A80036; stroke-width: 1.5;" width="122" x="1019.8147" y="411"/><rect fill="#FEFECE" height="5" style="stroke: #A80036; stroke-width: 1.5;" width="10" x="1014.8147" y="416"/><rect fill="#FEFECE" height="5" style="stroke: #A80036; stroke-width: 1.5;" width="10" x="1014.8147" y="437.2969"/><text fill="#000000" font-family="Open Sans" font-size="14" lengthAdjust="spacingAndGlyphs" textLength="102" x="1029.8147" y="433.9951">junit-jupiter-api</text><!--MD5=[441ea3cc830cfeb0964e05e1fab31d32]
entity jupiter_engine--><rect fill="#FEFECE" filter="url(#fz2xs20j49f9r)" height="36.2969" style="stroke: #A80036; stroke-width: 1.5;" width="150" x="1115.8147" y="315"/><rect fill="#FEFECE" height="5" style="stroke: #A80036; stroke-width: 1.5;" width="10" x="1110.8147" y="320"/><rect fill="#FEFECE" height="5" style="stroke: #A80036; stroke-width: 1.5;" width="10" x="1110.8147" y="341.2969"/><text fill="#000000" font-family="Open Sans" font-size="14" lengthAdjust="spacingAndGlyphs" textLength="130" x="1125.8147" y="337.9951">junit-jupiter-engine</text><!--MD5=[0e07f1ea6d76de99774c7466f06ace44]
entity jupiter_params--><rect fill="#FEFECE" filter="url(#fz2xs20j49f9r)" height="36.2969" style="stroke: #A80036; stroke-width: 1.5;" width="153" x="1301.3147" y="315"/><rect fill="#FEFECE" height="5" style="stroke: #A80036; stroke-width: 1.5;" width="10" x="1296.3147" y="320"/><rect fill="#FEFECE" height="5" style="stroke: #A80036; stroke-width: 1.5;" width="10" x="1296.3147" y="341.2969"/><text fill="#000000" font-family="Open Sans" font-size="14" lengthAdjust="spacingAndGlyphs" textLength="133" x="1311.3147" y="337.9951">junit-jupiter-params</text><!--MD5=[18ea6b98240b8025530ab9473dcf2373]
entity jupiter_migration_support--><rect fill="#FEFECE" filter="url(#fz2xs20j49f9r)" height="36.2969" style="stroke: #A80036; stroke-width: 1.5;" width="220" x="860.8147" y="315"/><rect fill="#FEFECE" height="5" style="stroke: #A80036; stroke-width: 1.5;" width="10" x="855.8147" y="320"/><rect fill="#FEFECE" height="5" style="stroke: #A80036; stroke-width: 1.5;" width="10" x="855.8147" y="341.2969"/><text fill="#000000" font-family="Open Sans" font-size="14" lengthAdjust="spacingAndGlyphs" textLength="200" x="870.8147" y="337.9951">junit-jupiter-migrationsupport</text><!--MD5=[afcb64d8fae65ccf72870f209580e7a2]
entity vintage_engine--><rect fill="#FEFECE" filter="url(#fz2xs20j49f9r)" height="36.2969" style="stroke: #A80036; stroke-width: 1.5;" width="157" x="50.3147" y="315"/><rect fill="#FEFECE" height="5" style="stroke: #A80036; stroke-width: 1.5;" width="10" x="45.3147" y="320"/><rect fill="#FEFECE" height="5" style="stroke: #A80036; stroke-width: 1.5;" width="10" x="45.3147" y="341.2969"/><text fill="#000000" font-family="Open Sans" font-size="14" lengthAdjust="spacingAndGlyphs" textLength="137" x="60.3147" y="337.9951">junit-vintage-engine</text><!--MD5=[7d5ade99636a31ce3293aec6f1ccaf79]
entity junit4--><rect fill="#FEFECE" filter="url(#fz2xs20j49f9r)" height="36.2969" style="stroke: #A80036; stroke-width: 1.5;" width="83" x="87.3147" y="411"/><rect fill="#FEFECE" height="5" style="stroke: #A80036; stroke-width: 1.5;" width="10" x="82.3147" y="416"/><rect fill="#FEFECE" height="5" style="stroke: #A80036; stroke-width: 1.5;" width="10" x="82.3147" y="437.2969"/><text fill="#000000" font-family="Open Sans" font-size="14" lengthAdjust="spacingAndGlyphs" textLength="63" x="97.3147" y="433.9951">junit:junit</text><!--MD5=[5cb3c982fc9f237863c6af934ec05e1f]
entity commons--><rect fill="#FEFECE" filter="url(#fz2xs20j49f9r)" height="36.2969" style="stroke: #A80036; stroke-width: 1.5;" width="184" x="591.8147" y="507"/><rect fill="#FEFECE" height="5" style="stroke: #A80036; stroke-width: 1.5;" width="10" x="586.8147" y="512"/><rect fill="#FEFECE" height="5" style="stroke: #A80036; stroke-width: 1.5;" width="10" x="586.8147" y="533.2969"/><text fill="#000000" font-family="Open Sans" font-size="14" lengthAdjust="spacingAndGlyphs" textLength="164" x="601.8147" y="529.9951">junit-platform-commons</text><!--MD5=[5ff5fa45ad236cb7c8993bec112332ca]
entity console--><rect fill="#FEFECE" filter="url(#fz2xs20j49f9r)" height="36.2969" style="stroke: #A80036; stroke-width: 1.5;" width="170" x="599.8147" y="43"/><rect fill="#FEFECE" height="5" style="stroke: #A80036; stroke-width: 1.5;" width="10" x="594.8147" y="48"/><rect fill="#FEFECE" height="5" style="stroke: #A80036; stroke-width: 1.5;" width="10" x="594.8147" y="69.2969"/><text fill="#000000" font-family="Open Sans" font-size="14" lengthAdjust="spacingAndGlyphs" textLength="150" x="609.8147" y="65.9951">junit-platform-console</text><!--MD5=[cb028c5091c687ec367cd0cbfd70389f]
entity engine--><rect fill="#FEFECE" filter="url(#fz2xs20j49f9r)" height="36.2969" style="stroke: #A80036; stroke-width: 1.5;" width="163" x="541.3147" y="411"/><rect fill="#FEFECE" height="5" style="stroke: #A80036; stroke-width: 1.5;" width="10" x="536.3147" y="416"/><rect fill="#FEFECE" height="5" style="stroke: #A80036; stroke-width: 1.5;" width="10" x="536.3147" y="437.2969"/><text fill="#000000" font-family="Open Sans" font-size="14" lengthAdjust="spacingAndGlyphs" textLength="143" x="551.3147" y="433.9951">junit-platform-engine</text><!--MD5=[1cacb5a8490e30b3bd5ac3ecbdc4ac78]
entity launcher--><rect fill="#FEFECE" filter="url(#fz2xs20j49f9r)" height="36.2969" style="stroke: #A80036; stroke-width: 1.5;" width="175" x="535.3147" y="315"/><rect fill="#FEFECE" height="5" style="stroke: #A80036; stroke-width: 1.5;" width="10" x="530.3147" y="320"/><rect fill="#FEFECE" height="5" style="stroke: #A80036; stroke-width: 1.5;" width="10" x="530.3147" y="341.2969"/><text fill="#000000" font-family="Open Sans" font-size="14" lengthAdjust="spacingAndGlyphs" textLength="155" x="545.3147" y="337.9951">junit-platform-launcher</text><!--MD5=[bb652fc1ce3da2060c9c3c7211dc4a65]
entity reporting--><rect fill="#FEFECE" filter="url(#fz2xs20j49f9r)" height="36.2969" style="stroke: #A80036; stroke-width: 1.5;" width="178" x="658.8147" y="179"/><rect fill="#FEFECE" height="5" style="stroke: #A80036; stroke-width: 1.5;" width="10" x="653.8147" y="184"/><rect fill="#FEFECE" height="5" style="stroke: #A80036; stroke-width: 1.5;" width="10" x="653.8147" y="205.2969"/><text fill="#000000" font-family="Open Sans" font-size="14" lengthAdjust="spacingAndGlyphs" textLength="158" x="668.8147" y="201.9951">junit-platform-reporting</text><!--MD5=[a9fdbcd7a6cbc124882de1da71397e01]
entity runner--><rect fill="#FEFECE" filter="url(#fz2xs20j49f9r)" height="36.2969" style="stroke: #A80036; stroke-width: 1.5;" width="161" x="425.3147" y="179"/><rect fill="#FEFECE" height="5" style="stroke: #A80036; stroke-width: 1.5;" width="10" x="420.3147" y="184"/><rect fill="#FEFECE" height="5" style="stroke: #A80036; stroke-width: 1.5;" width="10" x="420.3147" y="205.2969"/><text fill="#000000" font-family="Open Sans" font-size="14" lengthAdjust="spacingAndGlyphs" textLength="141" x="435.3147" y="201.9951">junit-platform-runner</text><!--MD5=[26c3d440917bb993db7e0b4582132327]
entity suite_api--><rect fill="#FEFECE" filter="url(#fz2xs20j49f9r)" height="36.2969" style="stroke: #A80036; stroke-width: 1.5;" width="174" x="325.8147" y="315"/><rect fill="#FEFECE" height="5" style="stroke: #A80036; stroke-width: 1.5;" width="10" x="320.8147" y="320"/><rect fill="#FEFECE" height="5" style="stroke: #A80036; stroke-width: 1.5;" width="10" x="320.8147" y="341.2969"/><text fill="#000000" font-family="Open Sans" font-size="14" lengthAdjust="spacingAndGlyphs" textLength="154" x="335.8147" y="337.9951">junit-platform-suite-api</text><!--MD5=[fcdac87879aaef72fc0ff5ea6583b90a]
entity testkit--><rect fill="#FEFECE" filter="url(#fz2xs20j49f9r)" height="36.2969" style="stroke: #A80036; stroke-width: 1.5;" width="158" x="231.8147" y="179"/><rect fill="#FEFECE" height="5" style="stroke: #A80036; stroke-width: 1.5;" width="10" x="226.8147" y="184"/><rect fill="#FEFECE" height="5" style="stroke: #A80036; stroke-width: 1.5;" width="10" x="226.8147" y="205.2969"/><text fill="#000000" font-family="Open Sans" font-size="14" lengthAdjust="spacingAndGlyphs" textLength="138" x="241.8147" y="201.9951">junit-platform-testkit</text><!--MD5=[ba030213f11f5a3d5b319bb69903d2f9]
entity opentest4j--><rect fill="#FEFECE" filter="url(#fz2xs20j49f9r)" height="36.2969" style="stroke: #A80036; stroke-width: 1.5;" width="95" x="112.3147" y="507"/><rect fill="#FEFECE" height="5" style="stroke: #A80036; stroke-width: 1.5;" width="10" x="107.3147" y="512"/><rect fill="#FEFECE" height="5" style="stroke: #A80036; stroke-width: 1.5;" width="10" x="107.3147" y="533.2969"/><text fill="#000000" font-family="Open Sans" font-size="14" lengthAdjust="spacingAndGlyphs" textLength="75" x="122.3147" y="529.9951">opentest4j</text><!--MD5=[55218f8824bbe5d39f8ba58cd4b6343d]
entity apiguardian--><rect fill="#FEFECE" filter="url(#fz2xs20j49f9r)" height="36.2969" style="stroke: #A80036; stroke-width: 1.5;" width="125" x="1550.3147" y="43"/><rect fill="#FEFECE" height="5" style="stroke: #A80036; stroke-width: 1.5;" width="10" x="1545.3147" y="48"/><rect fill="#FEFECE" height="5" style="stroke: #A80036; stroke-width: 1.5;" width="10" x="1545.3147" y="69.2969"/><text fill="#000000" font-family="Open Sans" font-size="14" lengthAdjust="spacingAndGlyphs" textLength="105" x="1560.3147" y="65.9951">apiguardian-api</text><path d="M1516.3147,139 L1516.3147,254.9297 A0,0 0 0 0 1516.3147,254.9297 L1709.3147,254.9297 A0,0 0 0 0 1709.3147,254.9297 L1709.3147,149 L1699.3147,139 L1616.8147,139 L1612.8147,79.0597 L1608.8147,139 L1516.3147,139 A0,0 0 0 0 1516.3147,139 " fill="#FFFFFF" filter="url(#fz2xs20j49f9r)" style="stroke: #A80036; stroke-width: 1.0;"/><path d="M1699.3147,139 L1699.3147,149 L1709.3147,149 L1699.3147,139 " fill="#FFFFFF" style="stroke: #A80036; stroke-width: 1.0;"/><text fill="#000000" font-family="Open Sans" font-size="13" lengthAdjust="spacingAndGlyphs" textLength="118" x="1522.3147" y="156.0669">All artifacts except</text><text fill="#000000" font-family="Open Sans" font-size="13" lengthAdjust="spacingAndGlyphs" textLength="158" x="1522.3147" y="171.1997">opentest4j and junit:junit</text><text fill="#000000" font-family="Open Sans" font-size="13" lengthAdjust="spacingAndGlyphs" textLength="172" x="1522.3147" y="186.3325">have a dependency on this</text><text fill="#000000" font-family="Open Sans" font-size="13" lengthAdjust="spacingAndGlyphs" textLength="154" x="1522.3147" y="201.4653">artifact. The edges have</text><text fill="#000000" font-family="Open Sans" font-size="13" lengthAdjust="spacingAndGlyphs" textLength="147" x="1522.3147" y="216.5981">been omitted from this</text><text fill="#000000" font-family="Open Sans" font-size="13" lengthAdjust="spacingAndGlyphs" textLength="149" x="1522.3147" y="231.731">diagram for the sake of</text><text fill="#000000" font-family="Open Sans" font-size="13" lengthAdjust="spacingAndGlyphs" textLength="70" x="1522.3147" y="246.8638">readability.</text><!--MD5=[4009dd525e6f9a7f47142ed360ba0d57]
link jupiter to jupiter_api--><path d="M1403.3433,215.1418 C1442.3987,245.0695 1508.7627,305.9533 1471.8147,351 C1431.5058,400.1442 1247.8079,418.9198 1147.1946,425.6071 " fill="none" id="jupiter-&gt;jupiter_api" style="stroke: #A80036; stroke-width: 1.0; stroke-dasharray: 7.0,7.0;"/><polygon fill="#A80036" points="1142.1711,425.9355,1151.4129,429.3397,1147.1604,425.6092,1150.8909,421.3567,1142.1711,425.9355" style="stroke: #A80036; stroke-width: 1.0;"/><!--MD5=[b24b86d13fe18d486aee36e6caa1f3c6]
link jupiter to jupiter_params--><path d="M1377.8147,215.0597 C1377.8147,239.4459 1377.8147,282.9295 1377.8147,309.737 " fill="none" id="jupiter-&gt;jupiter_params" style="stroke: #A80036; stroke-width: 1.0; stroke-dasharray: 7.0,7.0;"/><polygon fill="#A80036" points="1377.8147,314.8656,1381.8147,305.8656,1377.8147,309.8656,1373.8147,305.8656,1377.8147,314.8656" style="stroke: #A80036; stroke-width: 1.0;"/><!--MD5=[3673af4386eb99ef3e448e853cc2ed05]
link jupiter to jupiter_engine--><path d="M1352.9825,215.0597 C1318.6133,240.0555 1256.6558,285.1156 1220.0805,311.7157 " fill="none" id="jupiter-&gt;jupiter_engine" style="stroke: #A80036; stroke-width: 1.0; stroke-dasharray: 7.0,7.0;"/><polygon fill="#A80036" points="1215.7495,314.8656,1225.3808,312.8068,1219.7931,311.9247,1220.6753,306.337,1215.7495,314.8656" style="stroke: #A80036; stroke-width: 1.0;"/><!--MD5=[ab0c9ae47c398095103bf89a3c28c4c9]
link jupiter_api to opentest4j--><path d="M1019.4838,437.2457 C973.6541,443.1024 909.421,450.6677 852.8147,455 C782.189,460.4053 282.1544,455.1756 215.8147,480 C202.6149,484.9394 190.1571,494.286 180.358,503.1867 " fill="none" id="jupiter_api-&gt;opentest4j" style="stroke: #A80036; stroke-width: 1.0; stroke-dasharray: 7.0,7.0;"/><polygon fill="#A80036" points="176.6008,506.6963,185.9083,503.4759,180.2547,503.2832,180.4474,497.6297,176.6008,506.6963" style="stroke: #A80036; stroke-width: 1.0;"/><!--MD5=[c6dba83660e232a3eacf0989abc01e97]
link jupiter_api to commons--><path d="M1019.6535,443.7896 C950.9093,460.4129 839.0606,487.4594 763.5208,505.726 " fill="none" id="jupiter_api-&gt;commons" style="stroke: #A80036; stroke-width: 1.0; stroke-dasharray: 7.0,7.0;"/><polygon fill="#A80036" points="758.5985,506.9163,768.2865,508.689,763.4584,505.7412,766.4063,500.9131,758.5985,506.9163" style="stroke: #A80036; stroke-width: 1.0;"/><!--MD5=[5515becd8ae5974390a505b42c5bf28b]
link jupiter_engine to engine--><path d="M1115.5391,347.9237 C1109.8834,348.9849 1104.261,350.0212 1098.8147,351 C963.1869,375.3743 805.2444,400.6418 709.7143,415.583 " fill="none" id="jupiter_engine-&gt;engine" style="stroke: #A80036; stroke-width: 1.0; stroke-dasharray: 7.0,7.0;"/><polygon fill="#A80036" points="704.6468,416.375,714.1566,418.9372,709.5868,415.6029,712.9211,411.0331,704.6468,416.375" style="stroke: #A80036; stroke-width: 1.0;"/><!--MD5=[774fec1a04f57a7fa1a43bd46173ba1b]
link jupiter_engine to jupiter_api--><path d="M1170.1245,351.0569 C1151.8041,367.0456 1125.0273,390.4144 1105.5743,407.3916 " fill="none" id="jupiter_engine-&gt;jupiter_api" style="stroke: #A80036; stroke-width: 1.0; stroke-dasharray: 7.0,7.0;"/><polygon fill="#A80036" points="1101.7861,410.6977,1111.197,407.7936,1105.5532,407.41,1105.9367,401.7662,1101.7861,410.6977" style="stroke: #A80036; stroke-width: 1.0;"/><!--MD5=[03dfa84e06aaa30e604468ad77330edd]
link jupiter_params to jupiter_api--><path d="M1321.9513,351.0569 C1270.5931,367.6575 1194.6218,392.2139 1141.7249,409.3119 " fill="none" id="jupiter_params-&gt;jupiter_api" style="stroke: #A80036; stroke-width: 1.0; stroke-dasharray: 7.0,7.0;"/><polygon fill="#A80036" points="1136.6795,410.9427,1146.4735,411.9807,1141.4371,409.4049,1144.013,404.3685,1136.6795,410.9427" style="stroke: #A80036; stroke-width: 1.0;"/><!--MD5=[96ef0e985d276c4c20d5e08ddc711db3]
link jupiter_migration_support to jupiter_api--><path d="M991.5048,351.0569 C1009.8253,367.0456 1036.602,390.4144 1056.055,407.3916 " fill="none" id="jupiter_migration_support-&gt;jupiter_api" style="stroke: #A80036; stroke-width: 1.0; stroke-dasharray: 7.0,7.0;"/><polygon fill="#A80036" points="1059.8433,410.6977,1055.6927,401.7662,1056.0762,407.41,1050.4324,407.7936,1059.8433,410.6977" style="stroke: #A80036; stroke-width: 1.0;"/><!--MD5=[4a92a44fd24ddedab72875e8b5ce5922]
link jupiter_migration_support to junit4--><path d="M860.6092,350.0153 C857.9868,350.3542 855.3856,350.6831 852.8147,351 C570.5865,385.7885 497.0296,368.7958 215.8147,411 C202.7529,412.9603 188.6949,415.6232 175.7687,418.2993 " fill="none" id="jupiter_migration_support-&gt;junit4" style="stroke: #A80036; stroke-width: 1.0; stroke-dasharray: 7.0,7.0;"/><polygon fill="#A80036" points="170.6859,419.3641,180.3149,421.4336,175.5797,418.3388,178.6744,413.6036,170.6859,419.3641" style="stroke: #A80036; stroke-width: 1.0;"/><!--MD5=[f05aa6405411279f5c68282f5216bc3f]
link console to launcher--><path d="M671.9323,79.2628 C661.9063,94.4872 648.5937,117.1417 641.8147,139 C623.3745,198.459 621.6249,272.6371 622.1007,309.68 " fill="none" id="console-&gt;launcher" style="stroke: #A80036; stroke-width: 1.0; stroke-dasharray: 7.0,7.0;"/><polygon fill="#A80036" points="622.1853,314.8698,626.0379,305.8057,622.1037,309.8705,618.039,305.9363,622.1853,314.8698" style="stroke: #A80036; stroke-width: 1.0;"/><!--MD5=[959093e92f79cfa82ab2e6d1e4accd10]
link console to reporting--><path d="M693.1806,79.0597 C704.5242,103.5475 724.7883,147.2922 737.1933,174.0712 " fill="none" id="console-&gt;reporting" style="stroke: #A80036; stroke-width: 1.0; stroke-dasharray: 7.0,7.0;"/><polygon fill="#A80036" points="739.4142,178.8656,739.2606,169.0179,737.3125,174.3288,732.0017,172.3807,739.4142,178.8656" style="stroke: #A80036; stroke-width: 1.0;"/><!--MD5=[b36ac9ee04bee0cbdb8c8aff1f788bd3]
link launcher to engine--><path d="M622.8147,351.0569 C622.8147,366.5126 622.8147,388.8647 622.8147,405.6731 " fill="none" id="launcher-&gt;engine" style="stroke: #A80036; stroke-width: 1.0; stroke-dasharray: 7.0,7.0;"/><polygon fill="#A80036" points="622.8147,410.6977,626.8147,401.6977,622.8147,405.6977,618.8147,401.6977,622.8147,410.6977" style="stroke: #A80036; stroke-width: 1.0;"/><!--MD5=[c9628446b22c9a0cc0be936a2c86c68e]
link engine to opentest4j--><path d="M540.9735,433.9667 C439.4212,441.0402 272.6958,455.8983 215.8147,480 C203.0407,485.4126 190.7948,494.6175 181.0298,503.2972 " fill="none" id="engine-&gt;opentest4j" style="stroke: #A80036; stroke-width: 1.0; stroke-dasharray: 7.0,7.0;"/><polygon fill="#A80036" points="177.2768,506.7158,186.6239,503.6122,180.9731,503.3487,181.2366,497.698,177.2768,506.7158" style="stroke: #A80036; stroke-width: 1.0;"/><!--MD5=[ea2060f86e85beb92a12609e16c4fe65]
link engine to commons--><path d="M634.2883,447.0569 C644.1938,462.6459 658.5573,485.2506 669.2678,502.1065 " fill="none" id="engine-&gt;commons" style="stroke: #A80036; stroke-width: 1.0; stroke-dasharray: 7.0,7.0;"/><polygon fill="#A80036" points="672.1851,506.6977,670.7344,496.9563,669.5036,502.4776,663.9822,501.2467,672.1851,506.6977" style="stroke: #A80036; stroke-width: 1.0;"/><!--MD5=[41dea4201c585a09229cbd97f511c3cd]
link reporting to launcher--><path d="M731.2157,215.0597 C708.4284,239.8523 667.4983,284.3842 642.9771,311.0633 " fill="none" id="reporting-&gt;launcher" style="stroke: #A80036; stroke-width: 1.0; stroke-dasharray: 7.0,7.0;"/><polygon fill="#A80036" points="639.4824,314.8656,648.5178,310.9462,642.8659,311.1843,642.6278,305.5325,639.4824,314.8656" style="stroke: #A80036; stroke-width: 1.0;"/><!--MD5=[5817c755e21cdd5c7ae5782c2bb20346]
link runner to launcher--><path d="M521.3514,215.0597 C542.6803,239.8523 580.9908,284.3842 603.9427,311.0633 " fill="none" id="runner-&gt;launcher" style="stroke: #A80036; stroke-width: 1.0; stroke-dasharray: 7.0,7.0;"/><polygon fill="#A80036" points="607.2137,314.8656,604.3765,305.4342,603.9529,311.0752,598.3119,310.6516,607.2137,314.8656" style="stroke: #A80036; stroke-width: 1.0;"/><!--MD5=[83dd4bf5e25301a76323c84b2d8fe61a]
link runner to suite_api--><path d="M493.465,215.0597 C476.5807,239.7507 446.3087,284.0195 428.0404,310.7344 " fill="none" id="runner-&gt;suite_api" style="stroke: #A80036; stroke-width: 1.0; stroke-dasharray: 7.0,7.0;"/><polygon fill="#A80036" points="425.2154,314.8656,433.5975,309.6945,428.0378,310.7384,426.9939,305.1787,425.2154,314.8656" style="stroke: #A80036; stroke-width: 1.0;"/><!--MD5=[d164b78841eb186049a4bbb03c13ac85]
link runner to junit4--><path d="M485.7737,215.2137 C467.0962,230.9678 437.7033,252.7747 407.8147,263 C368.3038,276.5173 61.3439,257.5055 32.8147,288 C13.6855,308.4469 20.7811,325.7177 32.8147,351 C44.4466,375.4384 67.894,394.7195 88.7034,407.9979 " fill="none" id="runner-&gt;junit4" style="stroke: #A80036; stroke-width: 1.0; stroke-dasharray: 7.0,7.0;"/><polygon fill="#A80036" points="93.0987,410.74,87.5801,402.5825,88.8566,408.0934,83.3456,409.3699,93.0987,410.74" style="stroke: #A80036; stroke-width: 1.0;"/><!--MD5=[f9a4ffd5dbe47c724a72c261cd0dbcc1]
link testkit to opentest4j--><path d="M231.7898,210.2734 C152.6847,225.3616 39.0445,252.5646 12.8147,288 C-9.1671,317.6964 30.337,450.2449 33.8147,455 C51.8937,479.7194 81.4831,496.802 107.4458,507.9 " fill="none" id="testkit-&gt;opentest4j" style="stroke: #A80036; stroke-width: 1.0; stroke-dasharray: 7.0,7.0;"/><polygon fill="#A80036" points="112.2478,509.9031,105.4815,502.7465,107.6332,507.9781,102.4016,510.1299,112.2478,509.9031" style="stroke: #A80036; stroke-width: 1.0;"/><!--MD5=[a03d5193873264966af50dc3cedb1169]
link testkit to launcher--><path d="M332.15,215.0071 C350.9324,229.9697 379.6126,250.7268 407.8147,263 C453.7858,283.006 470.1333,272.5061 517.8147,288 C538.8546,294.8368 561.4944,304.2594 580.3452,312.7162 " fill="none" id="testkit-&gt;launcher" style="stroke: #A80036; stroke-width: 1.0; stroke-dasharray: 7.0,7.0;"/><polygon fill="#A80036" points="585.0529,314.8433,578.4983,307.4923,580.4964,312.7845,575.2042,314.7826,585.0529,314.8433" style="stroke: #A80036; stroke-width: 1.0;"/><!--MD5=[689563d167406738417b7162b24b4b21]
link vintage_engine to engine--><path d="M207.5247,349.3387 C210.3219,349.9022 213.0919,350.4575 215.8147,351 C326.1102,372.9775 453.4603,397.1979 535.9132,412.7277 " fill="none" id="vintage_engine-&gt;engine" style="stroke: #A80036; stroke-width: 1.0; stroke-dasharray: 7.0,7.0;"/><polygon fill="#A80036" points="541.2787,413.7379,533.1744,408.1415,536.3651,412.8126,531.6939,416.0033,541.2787,413.7379" style="stroke: #A80036; stroke-width: 1.0;"/><!--MD5=[39cae807274abf57b2b086cda786b46e]
link vintage_engine to junit4--><path d="M128.8147,351.0569 C128.8147,366.5126 128.8147,388.8647 128.8147,405.6731 " fill="none" id="vintage_engine-&gt;junit4" style="stroke: #A80036; stroke-width: 1.0; stroke-dasharray: 7.0,7.0;"/><polygon fill="#A80036" points="128.8147,410.6977,132.8147,401.6977,128.8147,405.6977,124.8147,401.6977,128.8147,410.6977" style="stroke: #A80036; stroke-width: 1.0;"/><!--MD5=[267aede67842d74b09f4e90c37613a24]
@startuml
skinparam {
    defaultFontName Open Sans
}

package org.junit.jupiter {
    [junit-jupiter] as jupiter
    [junit-jupiter-api] as jupiter_api
    [junit-jupiter-engine] as jupiter_engine
    [junit-jupiter-params] as jupiter_params
    [junit-jupiter-migrationsupport] as jupiter_migration_support
}

package org.junit.vintage {
    [junit-vintage-engine] as vintage_engine
    [junit:junit] as junit4
}

package org.junit.platform {
    [junit-platform-commons] as commons
    [junit-platform-console] as console
    [junit-platform-engine] as engine
    [junit-platform-launcher] as launcher
    [junit-platform-reporting] as reporting
    [junit-platform-runner] as runner
    [junit-platform-suite-api] as suite_api
    [junit-platform-testkit] as testkit
}

package org.opentest4j {
    [opentest4j]
}

package org.apiguardian {
    [apiguardian-api] as apiguardian
    note bottom of apiguardian #white
        All artifacts except
        opentest4j and junit:junit
        have a dependency on this
        artifact. The edges have
        been omitted from this
        diagram for the sake of
        readability.
    endnote
}

jupiter ..> jupiter_api
jupiter ..> jupiter_params
jupiter ..> jupiter_engine

jupiter_api ..> opentest4j
jupiter_api ..> commons

jupiter_engine ..> engine
jupiter_engine ..> jupiter_api

jupiter_params ..> jupiter_api
jupiter_migration_support ..> jupiter_api
jupiter_migration_support ..> junit4

console ..> launcher
console ..> reporting

launcher ..> engine

engine ..> opentest4j
engine ..> commons

reporting ..> launcher

runner ..> launcher
runner ..> suite_api
runner ..> junit4

testkit ..> opentest4j
testkit ..> launcher

vintage_engine ..> engine
vintage_engine ..> junit4
@enduml

PlantUML version 1.2019.12(Sun Nov 03 10:24:54 UTC 2019)
(APACHE source distribution)
Java Runtime: OpenJDK Runtime Environment
JVM: OpenJDK 64-Bit Server VM
Java Version: 11.0.8+10-LTS
Operating System: Linux
Default Encoding: UTF-8
Language: en
Country: 
--></g></svg>