<?xml version="1.0" encoding="UTF-8" standalone="no"?><svg xmlns="http://www.w3.org/2000/svg" xmlns:xlink="http://www.w3.org/1999/xlink" contentScriptType="application/ecmascript" contentStyleType="text/css" height="508px" preserveAspectRatio="none" style="width:1870px;height:508px;" version="1.1" viewBox="0 0 1870 508" width="1870px" zoomAndPan="magnify"><defs><filter height="300%" id="fkdbpve35g6ob" width="300%" x="-1" y="-1"><feGaussianBlur result="blurOut" stdDeviation="2.0"/><feColorMatrix in="blurOut" result="blurOut2" type="matrix" values="0 0 0 0 0 0 0 0 0 0 0 0 0 0 0 0 0 0 .4 0"/><feOffset dx="4.0" dy="4.0" in="blurOut2" result="blurOut3"/><feBlend in="SourceGraphic" in2="blurOut3" mode="normal"/></filter></defs><g><!--cluster org.junit.jupiter--><polygon fill="#FFFFFF" filter="url(#fkdbpve35g6ob)" points="22,160,150,160,157,182.2969,648,182.2969,648,384,22,384,22,160" style="stroke: #000000; stroke-width: 1.5;"/><line style="stroke: #000000; stroke-width: 1.5;" x1="22" x2="157" y1="182.2969" y2="182.2969"/><text fill="#000000" font-family="Open Sans" font-size="14" font-weight="bold" lengthAdjust="spacingAndGlyphs" textLength="122" x="26" y="174.9951">org.junit.jupiter</text><!--cluster org.junit.vintage--><polygon fill="#FFFFFF" filter="url(#fkdbpve35g6ob)" points="722,160,857,160,864,182.2969,912,182.2969,912,384,722,384,722,160" style="stroke: #000000; stroke-width: 1.5;"/><line style="stroke: #000000; stroke-width: 1.5;" x1="722" x2="864" y1="182.2969" y2="182.2969"/><text fill="#000000" font-family="Open Sans" font-size="14" font-weight="bold" lengthAdjust="spacingAndGlyphs" textLength="129" x="726" y="174.9951">org.junit.vintage</text><!--cluster org.junit.platform--><polygon fill="#FFFFFF" filter="url(#fkdbpve35g6ob)" points="936,24,1079,24,1086,46.2969,1598,46.2969,1598,496,936,496,936,24" style="stroke: #000000; stroke-width: 1.5;"/><line style="stroke: #000000; stroke-width: 1.5;" x1="936" x2="1086" y1="46.2969" y2="46.2969"/><text fill="#000000" font-family="Open Sans" font-size="14" font-weight="bold" lengthAdjust="spacingAndGlyphs" textLength="137" x="940" y="38.9951">org.junit.platform</text><!--cluster org.opentest4j--><polygon fill="#FFFFFF" filter="url(#fkdbpve35g6ob)" points="634,408,757,408,764,430.2969,768,430.2969,768,496,634,496,634,408" style="stroke: #000000; stroke-width: 1.5;"/><line style="stroke: #000000; stroke-width: 1.5;" x1="634" x2="764" y1="430.2969" y2="430.2969"/><text fill="#000000" font-family="Open Sans" font-size="14" font-weight="bold" lengthAdjust="spacingAndGlyphs" textLength="117" x="638" y="422.9951">org.opentest4j</text><!--cluster org.apiguardian--><polygon fill="#FFFFFF" filter="url(#fkdbpve35g6ob)" points="1622,24,1752,24,1759,46.2969,1848,46.2969,1848,288,1622,288,1622,24" style="stroke: #000000; stroke-width: 1.5;"/><line style="stroke: #000000; stroke-width: 1.5;" x1="1622" x2="1759" y1="46.2969" y2="46.2969"/><text fill="#000000" font-family="Open Sans" font-size="14" font-weight="bold" lengthAdjust="spacingAndGlyphs" textLength="124" x="1626" y="38.9951">org.apiguardian</text><!--entity jupiter_api--><rect fill="#FEFECE" filter="url(#fkdbpve35g6ob)" height="36.2969" style="stroke: #A80036; stroke-width: 1.5;" width="122" x="496" y="332"/><rect fill="#FEFECE" height="5" style="stroke: #A80036; stroke-width: 1.5;" width="10" x="491" y="337"/><rect fill="#FEFECE" height="5" style="stroke: #A80036; stroke-width: 1.5;" width="10" x="491" y="358.2969"/><text fill="#000000" font-family="Open Sans" font-size="14" lengthAdjust="spacingAndGlyphs" textLength="102" x="506" y="354.9951">junit-jupiter-api</text><!--entity jupiter_engine--><rect fill="#FEFECE" filter="url(#fkdbpve35g6ob)" height="36.2969" style="stroke: #A80036; stroke-width: 1.5;" width="150" x="482.5" y="196"/><rect fill="#FEFECE" height="5" style="stroke: #A80036; stroke-width: 1.5;" width="10" x="477.5" y="201"/><rect fill="#FEFECE" height="5" style="stroke: #A80036; stroke-width: 1.5;" width="10" x="477.5" y="222.2969"/><text fill="#000000" font-family="Open Sans" font-size="14" lengthAdjust="spacingAndGlyphs" textLength="130" x="492.5" y="218.9951">junit-jupiter-engine</text><!--entity jupiter_params--><rect fill="#FEFECE" filter="url(#fkdbpve35g6ob)" height="36.2969" style="stroke: #A80036; stroke-width: 1.5;" width="153" x="38.75" y="196"/><rect fill="#FEFECE" height="5" style="stroke: #A80036; stroke-width: 1.5;" width="10" x="33.75" y="201"/><rect fill="#FEFECE" height="5" style="stroke: #A80036; stroke-width: 1.5;" width="10" x="33.75" y="222.2969"/><text fill="#000000" font-family="Open Sans" font-size="14" lengthAdjust="spacingAndGlyphs" textLength="133" x="48.75" y="218.9951">junit-jupiter-params</text><!--entity jupiter_migration_support--><rect fill="#FEFECE" filter="url(#fkdbpve35g6ob)" height="36.2969" style="stroke: #A80036; stroke-width: 1.5;" width="220" x="227" y="196"/><rect fill="#FEFECE" height="5" style="stroke: #A80036; stroke-width: 1.5;" width="10" x="222" y="201"/><rect fill="#FEFECE" height="5" style="stroke: #A80036; stroke-width: 1.5;" width="10" x="222" y="222.2969"/><text fill="#000000" font-family="Open Sans" font-size="14" lengthAdjust="spacingAndGlyphs" textLength="200" x="237" y="218.9951">junit-jupiter-migrationsupport</text><!--entity vintage_engine--><rect fill="#FEFECE" filter="url(#fkdbpve35g6ob)" height="36.2969" style="stroke: #A80036; stroke-width: 1.5;" width="157" x="738.75" y="196"/><rect fill="#FEFECE" height="5" style="stroke: #A80036; stroke-width: 1.5;" width="10" x="733.75" y="201"/><rect fill="#FEFECE" height="5" style="stroke: #A80036; stroke-width: 1.5;" width="10" x="733.75" y="222.2969"/><text fill="#000000" font-family="Open Sans" font-size="14" lengthAdjust="spacingAndGlyphs" textLength="137" x="748.75" y="218.9951">junit-vintage-engine</text><!--entity junit4--><rect fill="#FEFECE" filter="url(#fkdbpve35g6ob)" height="36.2969" style="stroke: #A80036; stroke-width: 1.5;" width="83" x="738.75" y="332"/><rect fill="#FEFECE" height="5" style="stroke: #A80036; stroke-width: 1.5;" width="10" x="733.75" y="337"/><rect fill="#FEFECE" height="5" style="stroke: #A80036; stroke-width: 1.5;" width="10" x="733.75" y="358.2969"/><text fill="#000000" font-family="Open Sans" font-size="14" lengthAdjust="spacingAndGlyphs" textLength="63" x="748.75" y="354.9951">junit:junit</text><!--entity commons--><rect fill="#FEFECE" filter="url(#fkdbpve35g6ob)" height="36.2969" style="stroke: #A80036; stroke-width: 1.5;" width="184" x="952" y="444"/><rect fill="#FEFECE" height="5" style="stroke: #A80036; stroke-width: 1.5;" width="10" x="947" y="449"/><rect fill="#FEFECE" height="5" style="stroke: #A80036; stroke-width: 1.5;" width="10" x="947" y="470.2969"/><text fill="#000000" font-family="Open Sans" font-size="14" lengthAdjust="spacingAndGlyphs" textLength="164" x="962" y="466.9951">junit-platform-commons</text><!--entity console--><rect fill="#FEFECE" filter="url(#fkdbpve35g6ob)" height="36.2969" style="stroke: #A80036; stroke-width: 1.5;" width="170" x="1412" y="60"/><rect fill="#FEFECE" height="5" style="stroke: #A80036; stroke-width: 1.5;" width="10" x="1407" y="65"/><rect fill="#FEFECE" height="5" style="stroke: #A80036; stroke-width: 1.5;" width="10" x="1407" y="86.2969"/><text fill="#000000" font-family="Open Sans" font-size="14" lengthAdjust="spacingAndGlyphs" textLength="150" x="1422" y="82.9951">junit-platform-console</text><!--entity engine--><rect fill="#FEFECE" filter="url(#fkdbpve35g6ob)" height="36.2969" style="stroke: #A80036; stroke-width: 1.5;" width="163" x="952.75" y="332"/><rect fill="#FEFECE" height="5" style="stroke: #A80036; stroke-width: 1.5;" width="10" x="947.75" y="337"/><rect fill="#FEFECE" height="5" style="stroke: #A80036; stroke-width: 1.5;" width="10" x="947.75" y="358.2969"/><text fill="#000000" font-family="Open Sans" font-size="14" lengthAdjust="spacingAndGlyphs" textLength="143" x="962.75" y="354.9951">junit-platform-engine</text><!--entity launcher--><rect fill="#FEFECE" filter="url(#fkdbpve35g6ob)" height="36.2969" style="stroke: #A80036; stroke-width: 1.5;" width="175" x="1148.75" y="196"/><rect fill="#FEFECE" height="5" style="stroke: #A80036; stroke-width: 1.5;" width="10" x="1143.75" y="201"/><rect fill="#FEFECE" height="5" style="stroke: #A80036; stroke-width: 1.5;" width="10" x="1143.75" y="222.2969"/><text fill="#000000" font-family="Open Sans" font-size="14" lengthAdjust="spacingAndGlyphs" textLength="155" x="1158.75" y="218.9951">junit-platform-launcher</text><!--entity runner--><rect fill="#FEFECE" filter="url(#fkdbpve35g6ob)" height="36.2969" style="stroke: #A80036; stroke-width: 1.5;" width="161" x="952.75" y="60"/><rect fill="#FEFECE" height="5" style="stroke: #A80036; stroke-width: 1.5;" width="10" x="947.75" y="65"/><rect fill="#FEFECE" height="5" style="stroke: #A80036; stroke-width: 1.5;" width="10" x="947.75" y="86.2969"/><text fill="#000000" font-family="Open Sans" font-size="14" lengthAdjust="spacingAndGlyphs" textLength="141" x="962.75" y="82.9951">junit-platform-runner</text><!--entity suite_api--><rect fill="#FEFECE" filter="url(#fkdbpve35g6ob)" height="36.2969" style="stroke: #A80036; stroke-width: 1.5;" width="174" x="1151" y="332"/><rect fill="#FEFECE" height="5" style="stroke: #A80036; stroke-width: 1.5;" width="10" x="1146" y="337"/><rect fill="#FEFECE" height="5" style="stroke: #A80036; stroke-width: 1.5;" width="10" x="1146" y="358.2969"/><text fill="#000000" font-family="Open Sans" font-size="14" lengthAdjust="spacingAndGlyphs" textLength="154" x="1161" y="354.9951">junit-platform-suite-api</text><!--entity surefire--><rect fill="#FEFECE" filter="url(#fkdbpve35g6ob)" height="36.2969" style="stroke: #A80036; stroke-width: 1.5;" width="228" x="1149" y="60"/><rect fill="#FEFECE" height="5" style="stroke: #A80036; stroke-width: 1.5;" width="10" x="1144" y="65"/><rect fill="#FEFECE" height="5" style="stroke: #A80036; stroke-width: 1.5;" width="10" x="1144" y="86.2969"/><text fill="#000000" font-family="Open Sans" font-size="14" lengthAdjust="spacingAndGlyphs" textLength="208" x="1159" y="82.9951">junit-platform-surefire-provider</text><!--entity opentest4j--><rect fill="#FEFECE" filter="url(#fkdbpve35g6ob)" height="36.2969" style="stroke: #A80036; stroke-width: 1.5;" width="95" x="653.75" y="444"/><rect fill="#FEFECE" height="5" style="stroke: #A80036; stroke-width: 1.5;" width="10" x="648.75" y="449"/><rect fill="#FEFECE" height="5" style="stroke: #A80036; stroke-width: 1.5;" width="10" x="648.75" y="470.2969"/><text fill="#000000" font-family="Open Sans" font-size="14" lengthAdjust="spacingAndGlyphs" textLength="75" x="663.75" y="466.9951">opentest4j</text><!--entity apiguardian--><rect fill="#FEFECE" filter="url(#fkdbpve35g6ob)" height="36.2969" style="stroke: #A80036; stroke-width: 1.5;" width="125" x="1672.75" y="60"/><rect fill="#FEFECE" height="5" style="stroke: #A80036; stroke-width: 1.5;" width="10" x="1667.75" y="65"/><rect fill="#FEFECE" height="5" style="stroke: #A80036; stroke-width: 1.5;" width="10" x="1667.75" y="86.2969"/><text fill="#000000" font-family="Open Sans" font-size="14" lengthAdjust="spacingAndGlyphs" textLength="105" x="1682.75" y="82.9951">apiguardian-api</text><path d="M1638.75,156 L1638.75,271.9297 A0,0 0 0 0 1638.75,271.9297 L1831.75,271.9297 A0,0 0 0 0 1831.75,271.9297 L1831.75,166 L1821.75,156 L1739,156 L1735,96.244 L1731,156 L1638.75,156 A0,0 0 0 0 1638.75,156 " fill="#FFFFFF" filter="url(#fkdbpve35g6ob)" style="stroke: #A80036; stroke-width: 1.0;"/><path d="M1821.75,156 L1821.75,166 L1831.75,166 L1821.75,156 " fill="#FFFFFF" style="stroke: #A80036; stroke-width: 1.0;"/><text fill="#000000" font-family="Open Sans" font-size="13" lengthAdjust="spacingAndGlyphs" textLength="118" x="1644.75" y="173.0669">All artifacts except</text><text fill="#000000" font-family="Open Sans" font-size="13" lengthAdjust="spacingAndGlyphs" textLength="158" x="1644.75" y="188.1997">opentest4j and junit:junit</text><text fill="#000000" font-family="Open Sans" font-size="13" lengthAdjust="spacingAndGlyphs" textLength="172" x="1644.75" y="203.3325">have a dependency on this</text><text fill="#000000" font-family="Open Sans" font-size="13" lengthAdjust="spacingAndGlyphs" textLength="154" x="1644.75" y="218.4653">artifact. The edges have</text><text fill="#000000" font-family="Open Sans" font-size="13" lengthAdjust="spacingAndGlyphs" textLength="147" x="1644.75" y="233.5981">been omitted from this</text><text fill="#000000" font-family="Open Sans" font-size="13" lengthAdjust="spacingAndGlyphs" textLength="149" x="1644.75" y="248.731">diagram for the sake of</text><text fill="#000000" font-family="Open Sans" font-size="13" lengthAdjust="spacingAndGlyphs" textLength="70" x="1644.75" y="263.8638">readability.</text><!--link jupiter_api to opentest4j--><path d="M579.5,368.188 C605.179,387.803 647.14,419.8567 674.412,440.6896 " fill="none" id="jupiter_api-opentest4j" style="stroke: #A80036; stroke-width: 1.0; stroke-dasharray: 7.0,7.0;"/><polygon fill="#A80036" points="678.658,443.9332,673.9349,435.2907,674.6849,440.8976,669.078,441.6477,678.658,443.9332" style="stroke: #A80036; stroke-width: 1.0;"/><!--link jupiter_api to commons--><path d="M618.306,367.157 C649.288,375.087 687.53,384.518 722,392 C740.997,396.123 745.947,396.146 765,400 C832.34,413.6223 908.523,430.3697 964.247,442.868 " fill="none" id="jupiter_api-commons" style="stroke: #A80036; stroke-width: 1.0; stroke-dasharray: 7.0,7.0;"/><polygon fill="#A80036" points="969.235,443.9878,961.3303,438.1128,964.3565,442.8921,959.5772,445.9183,969.235,443.9878" style="stroke: #A80036; stroke-width: 1.0;"/><!--link jupiter_engine to engine--><path d="M585.439,232.127 C617.505,250.674 671.741,279.773 722,296 C762.865,309.194 870.155,326.036 947.512,337.152 " fill="none" id="jupiter_engine-engine" style="stroke: #A80036; stroke-width: 1.0; stroke-dasharray: 7.0,7.0;"/><polygon fill="#A80036" points="952.563,337.876,944.2221,332.6387,947.6137,337.1661,943.0863,340.5576,952.563,337.876" style="stroke: #A80036; stroke-width: 1.0;"/><!--link jupiter_engine to jupiter_api--><path d="M557,232.244 C557,256.365 557,300.199 557,326.753 " fill="none" id="jupiter_engine-jupiter_api" style="stroke: #A80036; stroke-width: 1.0; stroke-dasharray: 7.0,7.0;"/><polygon fill="#A80036" points="557,331.822,561,322.822,557,326.822,553,322.822,557,331.822" style="stroke: #A80036; stroke-width: 1.0;"/><!--link jupiter_params to jupiter_api--><path d="M129.334,232.111 C146.273,251.075 176.317,280.964 209,296 C300.493,338.093 418.4,347.955 490.8,349.64 " fill="none" id="jupiter_params-jupiter_api" style="stroke: #A80036; stroke-width: 1.0; stroke-dasharray: 7.0,7.0;"/><polygon fill="#A80036" points="495.933,349.748,487.0196,345.5586,490.9341,349.6423,486.8504,353.5568,495.933,349.748" style="stroke: #A80036; stroke-width: 1.0;"/><!--link jupiter_migration_support to jupiter_api--><path d="M363.031,232.138 C388.536,248.803 428.621,274.655 464,296 C482.923,307.417 504.334,319.664 521.838,329.506 " fill="none" id="jupiter_migration_support-jupiter_api" style="stroke: #A80036; stroke-width: 1.0; stroke-dasharray: 7.0,7.0;"/><polygon fill="#A80036" points="526.2,331.954,520.3115,324.0594,521.8404,329.5057,516.3941,331.0347,526.2,331.954" style="stroke: #A80036; stroke-width: 1.0;"/><!--link jupiter_migration_support to junit4--><path d="M358.029,232.22 C382.109,250.991 423.479,280.425 464,296 C488.737,305.508 651.75,330.229 733.467,342.246 " fill="none" id="jupiter_migration_support-junit4" style="stroke: #A80036; stroke-width: 1.0; stroke-dasharray: 7.0,7.0;"/><polygon fill="#A80036" points="738.73,343.019,730.4059,337.7551,733.7829,342.2933,729.2447,345.6704,738.73,343.019" style="stroke: #A80036; stroke-width: 1.0;"/><!--link console to launcher--><path d="M1463.68,96.107 C1414.99,121.106 1324.66,167.483 1273.63,193.679 " fill="none" id="console-launcher" style="stroke: #A80036; stroke-width: 1.0; stroke-dasharray: 7.0,7.0;"/><polygon fill="#A80036" points="1269.12,195.995,1278.9532,195.4397,1273.5673,193.7099,1275.2971,188.324,1269.12,195.995" style="stroke: #A80036; stroke-width: 1.0;"/><!--link launcher to engine--><path d="M1210.01,232.244 C1172.58,257.069 1103.69,302.773 1064.1,329.031 " fill="none" id="launcher-engine" style="stroke: #A80036; stroke-width: 1.0; stroke-dasharray: 7.0,7.0;"/><polygon fill="#A80036" points="1059.89,331.822,1069.5991,330.1687,1064.0533,329.0531,1065.1689,323.5073,1059.89,331.822" style="stroke: #A80036; stroke-width: 1.0;"/><!--link engine to opentest4j--><path d="M983.577,368.048 C961.606,375.45 935.542,384.195 912,392 C857.929,409.926 795.96,430.1534 753.236,444.049 " fill="none" id="engine-opentest4j" style="stroke: #A80036; stroke-width: 1.0; stroke-dasharray: 7.0,7.0;"/><polygon fill="#A80036" points="748.384,445.6269,758.1797,446.6485,753.1391,444.0811,755.7065,439.0405,748.384,445.6269" style="stroke: #A80036; stroke-width: 1.0;"/><!--link engine to commons--><path d="M1035.56,368.188 C1037.29,387.238 1040.09,418.0203 1041.99,438.8619 " fill="none" id="engine-commons" style="stroke: #A80036; stroke-width: 1.0; stroke-dasharray: 7.0,7.0;"/><polygon fill="#A80036" points="1042.45,443.9332,1045.6197,434.6084,1041.9978,438.9537,1037.6525,435.3318,1042.45,443.9332" style="stroke: #A80036; stroke-width: 1.0;"/><!--link runner to launcher--><path d="M1059.12,96.244 C1096.73,121.069 1165.97,166.773 1205.75,193.031 " fill="none" id="runner-launcher" style="stroke: #A80036; stroke-width: 1.0; stroke-dasharray: 7.0,7.0;"/><polygon fill="#A80036" points="1209.98,195.822,1204.6761,187.5233,1205.8084,193.0657,1200.266,194.1979,1209.98,195.822" style="stroke: #A80036; stroke-width: 1.0;"/><!--link runner to suite_api--><path d="M1036.57,96.167 C1045.66,136.038 1073.16,236.06 1131,296 C1144.88,310.386 1163.49,321.454 1181.29,329.663 " fill="none" id="runner-suite_api" style="stroke: #A80036; stroke-width: 1.0; stroke-dasharray: 7.0,7.0;"/><polygon fill="#A80036" points="1186.28,331.903,1179.7002,324.5745,1181.7165,329.8599,1176.4312,331.8761,1186.28,331.903" style="stroke: #A80036; stroke-width: 1.0;"/><!--link runner to junit4--><path d="M952.437,86.615 C869.784,96.291 749.387,116.204 721,152 C681.233,202.146 694.935,237.548 721,296 C726.793,308.992 737.52,320.13 748.254,328.794 " fill="none" id="runner-junit4" style="stroke: #A80036; stroke-width: 1.0; stroke-dasharray: 7.0,7.0;"/><polygon fill="#A80036" points="752.2,331.872,747.5675,323.1806,748.2589,328.7951,742.6444,329.4865,752.2,331.872" style="stroke: #A80036; stroke-width: 1.0;"/><!--link suite_api to commons--><path d="M1207.69,368.188 C1172.67,388.046 1115.16,420.65 1078.47,441.456 " fill="none" id="suite_api-commons" style="stroke: #A80036; stroke-width: 1.0; stroke-dasharray: 7.0,7.0;"/><polygon fill="#A80036" points="1074.1,443.9332,1083.9035,442.9892,1078.4534,441.4739,1079.9686,436.0238,1074.1,443.9332" style="stroke: #A80036; stroke-width: 1.0;"/><!--link surefire to launcher--><path d="M1259.53,96.244 C1254.67,120.365 1245.83,164.199 1240.48,190.753 " fill="none" id="surefire-launcher" style="stroke: #A80036; stroke-width: 1.0; stroke-dasharray: 7.0,7.0;"/><polygon fill="#A80036" points="1239.46,195.822,1245.1609,187.7908,1240.4488,190.9208,1237.3189,186.2087,1239.46,195.822" style="stroke: #A80036; stroke-width: 1.0;"/><!--link vintage_engine to engine--><path d="M840.687,232.177 C864.371,249.099 902.055,275.342 936,296 C955.345,307.773 977.493,319.863 995.834,329.517 " fill="none" id="vintage_engine-engine" style="stroke: #A80036; stroke-width: 1.0; stroke-dasharray: 7.0,7.0;"/><polygon fill="#A80036" points="1000.411,331.918,994.2998,324.1944,995.9834,329.5949,990.5829,331.2785,1000.411,331.918" style="stroke: #A80036; stroke-width: 1.0;"/><!--link vintage_engine to junit4--><path d="M812.239,232.244 C805.578,256.365 793.475,300.199 786.143,326.753 " fill="none" id="vintage_engine-junit4" style="stroke: #A80036; stroke-width: 1.0; stroke-dasharray: 7.0,7.0;"/><polygon fill="#A80036" points="784.743,331.822,790.9949,324.2119,786.0743,327.0025,783.2837,322.0819,784.743,331.822" style="stroke: #A80036; stroke-width: 1.0;"/><!--
@startuml
skinparam {
    defaultFontName Open Sans
}

package org.junit.jupiter {
    [junit-jupiter-api] as jupiter_api
    [junit-jupiter-engine] as jupiter_engine
    [junit-jupiter-params] as jupiter_params
    [junit-jupiter-migrationsupport] as jupiter_migration_support
}

package org.junit.vintage {
    [junit-vintage-engine] as vintage_engine
    [junit:junit] as junit4
}

package org.junit.platform {
    [junit-platform-commons] as commons
    [junit-platform-console] as console
    [junit-platform-engine] as engine
    [junit-platform-launcher] as launcher
    [junit-platform-runner] as runner
    [junit-platform-suite-api] as suite_api
    [junit-platform-surefire-provider] as surefire
}

package org.opentest4j {
    [opentest4j]
}

package org.apiguardian {
    [apiguardian-api] as apiguardian
    note bottom of apiguardian #white
        All artifacts except
        opentest4j and junit:junit
        have a dependency on this
        artifact. The edges have
        been omitted from this
        diagram for the sake of
        readability.
    endnote
}

jupiter_api ..> opentest4j
jupiter_api ..> commons

jupiter_engine ..> engine
jupiter_engine ..> jupiter_api

jupiter_params ..> jupiter_api
jupiter_migration_support ..> jupiter_api
jupiter_migration_support ..> junit4

console ..> launcher

launcher ..> engine

engine ..> opentest4j
engine ..> commons

runner ..> launcher
runner ..> suite_api
runner ..> junit4

suite_api ..> commons

surefire ..> launcher

vintage_engine ..> engine
vintage_engine ..> junit4
@enduml

PlantUML version 1.2018.01(Sun Jan 28 18:08:22 UTC 2018)
(APACHE source distribution)
Java Runtime: OpenJDK Runtime Environment
JVM: OpenJDK 64-Bit Server VM
Java Version: 10.0.2+13
Operating System: Linux
OS Version: 4.14.12-041412-generic
Default Encoding: UTF-8
Language: en
Country: US
--></g></svg>