<?xml version="1.0" encoding="UTF-8" standalone="no"?><svg xmlns="http://www.w3.org/2000/svg" xmlns:xlink="http://www.w3.org/1999/xlink" contentScriptType="application/ecmascript" contentStyleType="text/css" height="508px" preserveAspectRatio="none" style="width:1613px;height:508px;" version="1.1" viewBox="0 0 1613 508" width="1613px" zoomAndPan="magnify"><defs><filter height="300%" id="f8g8dbmkhzgc8" width="300%" x="-1" y="-1"><feGaussianBlur result="blurOut" stdDeviation="2.0"/><feColorMatrix in="blurOut" result="blurOut2" type="matrix" values="0 0 0 0 0 0 0 0 0 0 0 0 0 0 0 0 0 0 .4 0"/><feOffset dx="4.0" dy="4.0" in="blurOut2" result="blurOut3"/><feBlend in="SourceGraphic" in2="blurOut3" mode="normal"/></filter></defs><g><!--cluster org.junit.jupiter--><polygon fill="#FFFFFF" filter="url(#f8g8dbmkhzgc8)" points="22,160,150,160,157,182.2969,648,182.2969,648,384,22,384,22,160" style="stroke: #000000; stroke-width: 1.5;"/><line style="stroke: #000000; stroke-width: 1.5;" x1="22" x2="157" y1="182.2969" y2="182.2969"/><text fill="#000000" font-family="Open Sans" font-size="14" font-weight="bold" lengthAdjust="spacingAndGlyphs" textLength="122" x="26" y="174.9951">org.junit.jupiter</text><!--cluster org.junit.vintage--><polygon fill="#FFFFFF" filter="url(#f8g8dbmkhzgc8)" points="722,160,857,160,864,182.2969,912,182.2969,912,384,722,384,722,160" style="stroke: #000000; stroke-width: 1.5;"/><line style="stroke: #000000; stroke-width: 1.5;" x1="722" x2="864" y1="182.2969" y2="182.2969"/><text fill="#000000" font-family="Open Sans" font-size="14" font-weight="bold" lengthAdjust="spacingAndGlyphs" textLength="129" x="726" y="174.9951">org.junit.vintage</text><!--cluster org.junit.platform--><polygon fill="#FFFFFF" filter="url(#f8g8dbmkhzgc8)" points="936,24,1079,24,1086,46.2969,1341,46.2969,1341,496,936,496,936,24" style="stroke: #000000; stroke-width: 1.5;"/><line style="stroke: #000000; stroke-width: 1.5;" x1="936" x2="1086" y1="46.2969" y2="46.2969"/><text fill="#000000" font-family="Open Sans" font-size="14" font-weight="bold" lengthAdjust="spacingAndGlyphs" textLength="137" x="940" y="38.9951">org.junit.platform</text><!--cluster org.opentest4j--><polygon fill="#FFFFFF" filter="url(#f8g8dbmkhzgc8)" points="634,408,757,408,764,430.2969,768,430.2969,768,496,634,496,634,408" style="stroke: #000000; stroke-width: 1.5;"/><line style="stroke: #000000; stroke-width: 1.5;" x1="634" x2="764" y1="430.2969" y2="430.2969"/><text fill="#000000" font-family="Open Sans" font-size="14" font-weight="bold" lengthAdjust="spacingAndGlyphs" textLength="117" x="638" y="422.9951">org.opentest4j</text><!--cluster org.apiguardian--><polygon fill="#FFFFFF" filter="url(#f8g8dbmkhzgc8)" points="1365,24,1495,24,1502,46.2969,1591,46.2969,1591,288,1365,288,1365,24" style="stroke: #000000; stroke-width: 1.5;"/><line style="stroke: #000000; stroke-width: 1.5;" x1="1365" x2="1502" y1="46.2969" y2="46.2969"/><text fill="#000000" font-family="Open Sans" font-size="14" font-weight="bold" lengthAdjust="spacingAndGlyphs" textLength="124" x="1369" y="38.9951">org.apiguardian</text><!--entity jupiter_api--><rect fill="#FEFECE" filter="url(#f8g8dbmkhzgc8)" height="36.2969" style="stroke: #A80036; stroke-width: 1.5;" width="122" x="496" y="332"/><rect fill="#FEFECE" height="5" style="stroke: #A80036; stroke-width: 1.5;" width="10" x="491" y="337"/><rect fill="#FEFECE" height="5" style="stroke: #A80036; stroke-width: 1.5;" width="10" x="491" y="358.2969"/><text fill="#000000" font-family="Open Sans" font-size="14" lengthAdjust="spacingAndGlyphs" textLength="102" x="506" y="354.9951">junit-jupiter-api</text><!--entity jupiter_engine--><rect fill="#FEFECE" filter="url(#f8g8dbmkhzgc8)" height="36.2969" style="stroke: #A80036; stroke-width: 1.5;" width="150" x="482.5" y="196"/><rect fill="#FEFECE" height="5" style="stroke: #A80036; stroke-width: 1.5;" width="10" x="477.5" y="201"/><rect fill="#FEFECE" height="5" style="stroke: #A80036; stroke-width: 1.5;" width="10" x="477.5" y="222.2969"/><text fill="#000000" font-family="Open Sans" font-size="14" lengthAdjust="spacingAndGlyphs" textLength="130" x="492.5" y="218.9951">junit-jupiter-engine</text><!--entity jupiter_params--><rect fill="#FEFECE" filter="url(#f8g8dbmkhzgc8)" height="36.2969" style="stroke: #A80036; stroke-width: 1.5;" width="153" x="38.75" y="196"/><rect fill="#FEFECE" height="5" style="stroke: #A80036; stroke-width: 1.5;" width="10" x="33.75" y="201"/><rect fill="#FEFECE" height="5" style="stroke: #A80036; stroke-width: 1.5;" width="10" x="33.75" y="222.2969"/><text fill="#000000" font-family="Open Sans" font-size="14" lengthAdjust="spacingAndGlyphs" textLength="133" x="48.75" y="218.9951">junit-jupiter-params</text><!--entity jupiter_migration_support--><rect fill="#FEFECE" filter="url(#f8g8dbmkhzgc8)" height="36.2969" style="stroke: #A80036; stroke-width: 1.5;" width="220" x="227" y="196"/><rect fill="#FEFECE" height="5" style="stroke: #A80036; stroke-width: 1.5;" width="10" x="222" y="201"/><rect fill="#FEFECE" height="5" style="stroke: #A80036; stroke-width: 1.5;" width="10" x="222" y="222.2969"/><text fill="#000000" font-family="Open Sans" font-size="14" lengthAdjust="spacingAndGlyphs" textLength="200" x="237" y="218.9951">junit-jupiter-migrationsupport</text><!--entity vintage_engine--><rect fill="#FEFECE" filter="url(#f8g8dbmkhzgc8)" height="36.2969" style="stroke: #A80036; stroke-width: 1.5;" width="157" x="738.75" y="196"/><rect fill="#FEFECE" height="5" style="stroke: #A80036; stroke-width: 1.5;" width="10" x="733.75" y="201"/><rect fill="#FEFECE" height="5" style="stroke: #A80036; stroke-width: 1.5;" width="10" x="733.75" y="222.2969"/><text fill="#000000" font-family="Open Sans" font-size="14" lengthAdjust="spacingAndGlyphs" textLength="137" x="748.75" y="218.9951">junit-vintage-engine</text><!--entity junit4--><rect fill="#FEFECE" filter="url(#f8g8dbmkhzgc8)" height="36.2969" style="stroke: #A80036; stroke-width: 1.5;" width="83" x="738.75" y="332"/><rect fill="#FEFECE" height="5" style="stroke: #A80036; stroke-width: 1.5;" width="10" x="733.75" y="337"/><rect fill="#FEFECE" height="5" style="stroke: #A80036; stroke-width: 1.5;" width="10" x="733.75" y="358.2969"/><text fill="#000000" font-family="Open Sans" font-size="14" lengthAdjust="spacingAndGlyphs" textLength="63" x="748.75" y="354.9951">junit:junit</text><!--entity commons--><rect fill="#FEFECE" filter="url(#f8g8dbmkhzgc8)" height="36.2969" style="stroke: #A80036; stroke-width: 1.5;" width="184" x="952" y="444"/><rect fill="#FEFECE" height="5" style="stroke: #A80036; stroke-width: 1.5;" width="10" x="947" y="449"/><rect fill="#FEFECE" height="5" style="stroke: #A80036; stroke-width: 1.5;" width="10" x="947" y="470.2969"/><text fill="#000000" font-family="Open Sans" font-size="14" lengthAdjust="spacingAndGlyphs" textLength="164" x="962" y="466.9951">junit-platform-commons</text><!--entity console--><rect fill="#FEFECE" filter="url(#f8g8dbmkhzgc8)" height="36.2969" style="stroke: #A80036; stroke-width: 1.5;" width="170" x="952" y="60"/><rect fill="#FEFECE" height="5" style="stroke: #A80036; stroke-width: 1.5;" width="10" x="947" y="65"/><rect fill="#FEFECE" height="5" style="stroke: #A80036; stroke-width: 1.5;" width="10" x="947" y="86.2969"/><text fill="#000000" font-family="Open Sans" font-size="14" lengthAdjust="spacingAndGlyphs" textLength="150" x="962" y="82.9951">junit-platform-console</text><!--entity engine--><rect fill="#FEFECE" filter="url(#f8g8dbmkhzgc8)" height="36.2969" style="stroke: #A80036; stroke-width: 1.5;" width="163" x="952.75" y="332"/><rect fill="#FEFECE" height="5" style="stroke: #A80036; stroke-width: 1.5;" width="10" x="947.75" y="337"/><rect fill="#FEFECE" height="5" style="stroke: #A80036; stroke-width: 1.5;" width="10" x="947.75" y="358.2969"/><text fill="#000000" font-family="Open Sans" font-size="14" lengthAdjust="spacingAndGlyphs" textLength="143" x="962.75" y="354.9951">junit-platform-engine</text><!--entity launcher--><rect fill="#FEFECE" filter="url(#f8g8dbmkhzgc8)" height="36.2969" style="stroke: #A80036; stroke-width: 1.5;" width="175" x="952.75" y="196"/><rect fill="#FEFECE" height="5" style="stroke: #A80036; stroke-width: 1.5;" width="10" x="947.75" y="201"/><rect fill="#FEFECE" height="5" style="stroke: #A80036; stroke-width: 1.5;" width="10" x="947.75" y="222.2969"/><text fill="#000000" font-family="Open Sans" font-size="14" lengthAdjust="spacingAndGlyphs" textLength="155" x="962.75" y="218.9951">junit-platform-launcher</text><!--entity runner--><rect fill="#FEFECE" filter="url(#f8g8dbmkhzgc8)" height="36.2969" style="stroke: #A80036; stroke-width: 1.5;" width="161" x="1157.75" y="60"/><rect fill="#FEFECE" height="5" style="stroke: #A80036; stroke-width: 1.5;" width="10" x="1152.75" y="65"/><rect fill="#FEFECE" height="5" style="stroke: #A80036; stroke-width: 1.5;" width="10" x="1152.75" y="86.2969"/><text fill="#000000" font-family="Open Sans" font-size="14" lengthAdjust="spacingAndGlyphs" textLength="141" x="1167.75" y="82.9951">junit-platform-runner</text><!--entity suite_api--><rect fill="#FEFECE" filter="url(#f8g8dbmkhzgc8)" height="36.2969" style="stroke: #A80036; stroke-width: 1.5;" width="174" x="1151" y="332"/><rect fill="#FEFECE" height="5" style="stroke: #A80036; stroke-width: 1.5;" width="10" x="1146" y="337"/><rect fill="#FEFECE" height="5" style="stroke: #A80036; stroke-width: 1.5;" width="10" x="1146" y="358.2969"/><text fill="#000000" font-family="Open Sans" font-size="14" lengthAdjust="spacingAndGlyphs" textLength="154" x="1161" y="354.9951">junit-platform-suite-api</text><!--entity opentest4j--><rect fill="#FEFECE" filter="url(#f8g8dbmkhzgc8)" height="36.2969" style="stroke: #A80036; stroke-width: 1.5;" width="95" x="653.75" y="444"/><rect fill="#FEFECE" height="5" style="stroke: #A80036; stroke-width: 1.5;" width="10" x="648.75" y="449"/><rect fill="#FEFECE" height="5" style="stroke: #A80036; stroke-width: 1.5;" width="10" x="648.75" y="470.2969"/><text fill="#000000" font-family="Open Sans" font-size="14" lengthAdjust="spacingAndGlyphs" textLength="75" x="663.75" y="466.9951">opentest4j</text><!--entity apiguardian--><rect fill="#FEFECE" filter="url(#f8g8dbmkhzgc8)" height="36.2969" style="stroke: #A80036; stroke-width: 1.5;" width="125" x="1415.75" y="60"/><rect fill="#FEFECE" height="5" style="stroke: #A80036; stroke-width: 1.5;" width="10" x="1410.75" y="65"/><rect fill="#FEFECE" height="5" style="stroke: #A80036; stroke-width: 1.5;" width="10" x="1410.75" y="86.2969"/><text fill="#000000" font-family="Open Sans" font-size="14" lengthAdjust="spacingAndGlyphs" textLength="105" x="1425.75" y="82.9951">apiguardian-api</text><path d="M1381.75,156 L1381.75,271.9297 A0,0 0 0 0 1381.75,271.9297 L1574.75,271.9297 A0,0 0 0 0 1574.75,271.9297 L1574.75,166 L1564.75,156 L1482,156 L1478,96.244 L1474,156 L1381.75,156 A0,0 0 0 0 1381.75,156 " fill="#FFFFFF" filter="url(#f8g8dbmkhzgc8)" style="stroke: #A80036; stroke-width: 1.0;"/><path d="M1564.75,156 L1564.75,166 L1574.75,166 L1564.75,156 " fill="#FFFFFF" style="stroke: #A80036; stroke-width: 1.0;"/><text fill="#000000" font-family="Open Sans" font-size="13" lengthAdjust="spacingAndGlyphs" textLength="118" x="1387.75" y="173.0669">All artifacts except</text><text fill="#000000" font-family="Open Sans" font-size="13" lengthAdjust="spacingAndGlyphs" textLength="158" x="1387.75" y="188.1997">opentest4j and junit:junit</text><text fill="#000000" font-family="Open Sans" font-size="13" lengthAdjust="spacingAndGlyphs" textLength="172" x="1387.75" y="203.3325">have a dependency on this</text><text fill="#000000" font-family="Open Sans" font-size="13" lengthAdjust="spacingAndGlyphs" textLength="154" x="1387.75" y="218.4653">artifact. The edges have</text><text fill="#000000" font-family="Open Sans" font-size="13" lengthAdjust="spacingAndGlyphs" textLength="147" x="1387.75" y="233.5981">been omitted from this</text><text fill="#000000" font-family="Open Sans" font-size="13" lengthAdjust="spacingAndGlyphs" textLength="149" x="1387.75" y="248.731">diagram for the sake of</text><text fill="#000000" font-family="Open Sans" font-size="13" lengthAdjust="spacingAndGlyphs" textLength="70" x="1387.75" y="263.8638">readability.</text><!--link jupiter_api to opentest4j--><path d="M579.5,368.188 C605.179,387.803 647.14,419.8567 674.412,440.6896 " fill="none" id="jupiter_api-opentest4j" style="stroke: #A80036; stroke-width: 1.0; stroke-dasharray: 7.0,7.0;"/><polygon fill="#A80036" points="678.658,443.9332,673.9349,435.2907,674.6849,440.8976,669.078,441.6477,678.658,443.9332" style="stroke: #A80036; stroke-width: 1.0;"/><!--link jupiter_api to commons--><path d="M618.306,367.157 C649.288,375.087 687.53,384.518 722,392 C740.997,396.123 745.947,396.146 765,400 C832.34,413.6223 908.523,430.3697 964.247,442.868 " fill="none" id="jupiter_api-commons" style="stroke: #A80036; stroke-width: 1.0; stroke-dasharray: 7.0,7.0;"/><polygon fill="#A80036" points="969.235,443.9878,961.3303,438.1128,964.3565,442.8921,959.5772,445.9183,969.235,443.9878" style="stroke: #A80036; stroke-width: 1.0;"/><!--link jupiter_engine to engine--><path d="M585.439,232.127 C617.505,250.674 671.741,279.773 722,296 C762.865,309.194 870.155,326.036 947.512,337.152 " fill="none" id="jupiter_engine-engine" style="stroke: #A80036; stroke-width: 1.0; stroke-dasharray: 7.0,7.0;"/><polygon fill="#A80036" points="952.563,337.876,944.2221,332.6387,947.6137,337.1661,943.0863,340.5576,952.563,337.876" style="stroke: #A80036; stroke-width: 1.0;"/><!--link jupiter_engine to jupiter_api--><path d="M557,232.244 C557,256.365 557,300.199 557,326.753 " fill="none" id="jupiter_engine-jupiter_api" style="stroke: #A80036; stroke-width: 1.0; stroke-dasharray: 7.0,7.0;"/><polygon fill="#A80036" points="557,331.822,561,322.822,557,326.822,553,322.822,557,331.822" style="stroke: #A80036; stroke-width: 1.0;"/><!--link jupiter_params to jupiter_api--><path d="M129.334,232.111 C146.273,251.075 176.317,280.964 209,296 C300.493,338.093 418.4,347.955 490.8,349.64 " fill="none" id="jupiter_params-jupiter_api" style="stroke: #A80036; stroke-width: 1.0; stroke-dasharray: 7.0,7.0;"/><polygon fill="#A80036" points="495.933,349.748,487.0196,345.5586,490.9341,349.6423,486.8504,353.5568,495.933,349.748" style="stroke: #A80036; stroke-width: 1.0;"/><!--link jupiter_migration_support to jupiter_api--><path d="M363.031,232.138 C388.536,248.803 428.621,274.655 464,296 C482.923,307.417 504.334,319.664 521.838,329.506 " fill="none" id="jupiter_migration_support-jupiter_api" style="stroke: #A80036; stroke-width: 1.0; stroke-dasharray: 7.0,7.0;"/><polygon fill="#A80036" points="526.2,331.954,520.3115,324.0594,521.8404,329.5057,516.3941,331.0347,526.2,331.954" style="stroke: #A80036; stroke-width: 1.0;"/><!--link jupiter_migration_support to junit4--><path d="M358.029,232.22 C382.109,250.991 423.479,280.425 464,296 C488.737,305.508 651.75,330.229 733.467,342.246 " fill="none" id="jupiter_migration_support-junit4" style="stroke: #A80036; stroke-width: 1.0; stroke-dasharray: 7.0,7.0;"/><polygon fill="#A80036" points="738.73,343.019,730.4059,337.7551,733.7829,342.2933,729.2447,345.6704,738.73,343.019" style="stroke: #A80036; stroke-width: 1.0;"/><!--link console to launcher--><path d="M1037.39,96.244 C1037.93,120.365 1038.91,164.199 1039.5,190.753 " fill="none" id="console-launcher" style="stroke: #A80036; stroke-width: 1.0; stroke-dasharray: 7.0,7.0;"/><polygon fill="#A80036" points="1039.62,195.822,1043.4159,186.734,1039.5072,190.8233,1035.4179,186.9146,1039.62,195.822" style="stroke: #A80036; stroke-width: 1.0;"/><!--link launcher to engine--><path d="M1039.23,232.244 C1038.15,256.365 1036.19,300.199 1035,326.753 " fill="none" id="launcher-engine" style="stroke: #A80036; stroke-width: 1.0; stroke-dasharray: 7.0,7.0;"/><polygon fill="#A80036" points="1034.77,331.822,1039.1693,323.0103,1034.9941,326.827,1031.1773,322.6518,1034.77,331.822" style="stroke: #A80036; stroke-width: 1.0;"/><!--link engine to opentest4j--><path d="M983.577,368.048 C961.606,375.45 935.542,384.195 912,392 C857.929,409.926 795.96,430.1534 753.236,444.049 " fill="none" id="engine-opentest4j" style="stroke: #A80036; stroke-width: 1.0; stroke-dasharray: 7.0,7.0;"/><polygon fill="#A80036" points="748.384,445.6269,758.1797,446.6485,753.1391,444.0811,755.7065,439.0405,748.384,445.6269" style="stroke: #A80036; stroke-width: 1.0;"/><!--link engine to commons--><path d="M1035.56,368.188 C1037.29,387.238 1040.09,418.0203 1041.99,438.8619 " fill="none" id="engine-commons" style="stroke: #A80036; stroke-width: 1.0; stroke-dasharray: 7.0,7.0;"/><polygon fill="#A80036" points="1042.45,443.9332,1045.6197,434.6084,1041.9978,438.9537,1037.6525,435.3318,1042.45,443.9332" style="stroke: #A80036; stroke-width: 1.0;"/><!--link runner to launcher--><path d="M1212.52,96.244 C1175.99,120.968 1108.85,166.403 1069.98,192.711 " fill="none" id="runner-launcher" style="stroke: #A80036; stroke-width: 1.0; stroke-dasharray: 7.0,7.0;"/><polygon fill="#A80036" points="1065.38,195.822,1075.076,194.0933,1069.5217,193.0209,1070.5941,187.4666,1065.38,195.822" style="stroke: #A80036; stroke-width: 1.0;"/><!--link runner to suite_api--><path d="M1238,96.3 C1238,143.449 1238,274.175 1238,326.714 " fill="none" id="runner-suite_api" style="stroke: #A80036; stroke-width: 1.0; stroke-dasharray: 7.0,7.0;"/><polygon fill="#A80036" points="1238,331.844,1242,322.844,1238,326.844,1234,322.844,1238,331.844" style="stroke: #A80036; stroke-width: 1.0;"/><!--link runner to junit4--><path d="M1157.54,93.072 C1151.27,94.091 1145.03,95.078 1139,96 C1046.36,110.155 782.713,81.468 721,152 C678.857,200.166 694.935,237.548 721,296 C726.793,308.992 737.52,320.13 748.254,328.794 " fill="none" id="runner-junit4" style="stroke: #A80036; stroke-width: 1.0; stroke-dasharray: 7.0,7.0;"/><polygon fill="#A80036" points="752.2,331.872,747.5675,323.1806,748.2589,328.7951,742.6444,329.4865,752.2,331.872" style="stroke: #A80036; stroke-width: 1.0;"/><!--link suite_api to commons--><path d="M1207.69,368.188 C1172.67,388.046 1115.16,420.65 1078.47,441.456 " fill="none" id="suite_api-commons" style="stroke: #A80036; stroke-width: 1.0; stroke-dasharray: 7.0,7.0;"/><polygon fill="#A80036" points="1074.1,443.9332,1083.9035,442.9892,1078.4534,441.4739,1079.9686,436.0238,1074.1,443.9332" style="stroke: #A80036; stroke-width: 1.0;"/><!--link vintage_engine to engine--><path d="M840.687,232.177 C864.371,249.099 902.055,275.342 936,296 C955.345,307.773 977.493,319.863 995.834,329.517 " fill="none" id="vintage_engine-engine" style="stroke: #A80036; stroke-width: 1.0; stroke-dasharray: 7.0,7.0;"/><polygon fill="#A80036" points="1000.411,331.918,994.2998,324.1944,995.9834,329.5949,990.5829,331.2785,1000.411,331.918" style="stroke: #A80036; stroke-width: 1.0;"/><!--link vintage_engine to junit4--><path d="M812.239,232.244 C805.578,256.365 793.475,300.199 786.143,326.753 " fill="none" id="vintage_engine-junit4" style="stroke: #A80036; stroke-width: 1.0; stroke-dasharray: 7.0,7.0;"/><polygon fill="#A80036" points="784.743,331.822,790.9949,324.2119,786.0743,327.0025,783.2837,322.0819,784.743,331.822" style="stroke: #A80036; stroke-width: 1.0;"/><!--
@startuml
skinparam {
    defaultFontName Open Sans
}

package org.junit.jupiter {
    [junit-jupiter-api] as jupiter_api
    [junit-jupiter-engine] as jupiter_engine
    [junit-jupiter-params] as jupiter_params
    [junit-jupiter-migrationsupport] as jupiter_migration_support
}

package org.junit.vintage {
    [junit-vintage-engine] as vintage_engine
    [junit:junit] as junit4
}

package org.junit.platform {
    [junit-platform-commons] as commons
    [junit-platform-console] as console
    [junit-platform-engine] as engine
    [junit-platform-launcher] as launcher
    [junit-platform-runner] as runner
    [junit-platform-suite-api] as suite_api
}

package org.opentest4j {
    [opentest4j]
}

package org.apiguardian {
    [apiguardian-api] as apiguardian
    note bottom of apiguardian #white
        All artifacts except
        opentest4j and junit:junit
        have a dependency on this
        artifact. The edges have
        been omitted from this
        diagram for the sake of
        readability.
    endnote
}

jupiter_api ..> opentest4j
jupiter_api ..> commons

jupiter_engine ..> engine
jupiter_engine ..> jupiter_api

jupiter_params ..> jupiter_api
jupiter_migration_support ..> jupiter_api
jupiter_migration_support ..> junit4

console ..> launcher

launcher ..> engine

engine ..> opentest4j
engine ..> commons

runner ..> launcher
runner ..> suite_api
runner ..> junit4

suite_api ..> commons

vintage_engine ..> engine
vintage_engine ..> junit4
@enduml

PlantUML version 1.2018.01(Sun Jan 28 18:08:22 UTC 2018)
(APACHE source distribution)
Java Runtime: OpenJDK Runtime Environment
JVM: OpenJDK 64-Bit Server VM
Java Version: 10.0.2+13
Operating System: Linux
OS Version: 4.4.0-112-generic
Default Encoding: UTF-8
Language: en
Country: US
--></g></svg>