<?xml version="1.0" encoding="UTF-8" standalone="no"?><svg xmlns="http://www.w3.org/2000/svg" xmlns:xlink="http://www.w3.org/1999/xlink" contentScriptType="application/ecmascript" contentStyleType="text/css" height="584px" preserveAspectRatio="none" style="width:1720px;height:584px;" version="1.1" viewBox="0 0 1720 584" width="1720px" zoomAndPan="magnify"><defs><filter height="300%" id="f85d4vi" width="300%" x="-1" y="-1"><feGaussianBlur result="blurOut" stdDeviation="2.0"/><feColorMatrix in="blurOut" result="blurOut2" type="matrix" values="0 0 0 0 0 0 0 0 0 0 0 0 0 0 0 0 0 0 .4 0"/><feOffset dx="4.0" dy="4.0" in="blurOut2" result="blurOut3"/><feBlend in="SourceGraphic" in2="blurOut3" mode="normal"/></filter></defs><g><!--cluster org.junit.jupiter--><polygon fill="#FFFFFF" filter="url(#f85d4vi)" points="22,293,136,293,143,312.9923,594,312.9923,594,470,22,470,22,293" style="stroke: #000000; stroke-width: 2.0;"/><line style="stroke: #000000; stroke-width: 2.0;" x1="22" x2="143" y1="312.9923" y2="312.9923"/><text fill="#000000" font-family="Open Sans" font-size="14" font-weight="bold" lengthAdjust="spacingAndGlyphs" textLength="108" x="26" y="306.3128">org.junit.jupiter</text><!--cluster org.junit.vintage--><polygon fill="#FFFFFF" filter="url(#f85d4vi)" points="668,293,788,293,795,312.9923,844,312.9923,844,470,668,470,668,293" style="stroke: #000000; stroke-width: 2.0;"/><line style="stroke: #000000; stroke-width: 2.0;" x1="668" x2="795" y1="312.9923" y2="312.9923"/><text fill="#000000" font-family="Open Sans" font-size="14" font-weight="bold" lengthAdjust="spacingAndGlyphs" textLength="114" x="672" y="306.3128">org.junit.vintage</text><!--cluster org.junit.platform--><polygon fill="#FFFFFF" filter="url(#f85d4vi)" points="868,24,995,24,1002,43.9923,1477,43.9923,1477,577,868,577,868,24" style="stroke: #000000; stroke-width: 2.0;"/><line style="stroke: #000000; stroke-width: 2.0;" x1="868" x2="1002" y1="43.9923" y2="43.9923"/><text fill="#000000" font-family="Open Sans" font-size="14" font-weight="bold" lengthAdjust="spacingAndGlyphs" textLength="121" x="872" y="37.3128">org.junit.platform</text><!--cluster org.opentest4j--><polygon fill="#FFFFFF" filter="url(#f85d4vi)" points="588,494,695,494,702,513.9923,706,513.9923,706,577,588,577,588,494" style="stroke: #000000; stroke-width: 2.0;"/><line style="stroke: #000000; stroke-width: 2.0;" x1="588" x2="702" y1="513.9923" y2="513.9923"/><text fill="#000000" font-family="Open Sans" font-size="14" font-weight="bold" lengthAdjust="spacingAndGlyphs" textLength="101" x="592" y="507.3128">org.opentest4j</text><!--cluster org.apiguardian--><polygon fill="#FFFFFF" filter="url(#f85d4vi)" points="1501,24,1618,24,1625,43.9923,1713,43.9923,1713,269,1501,269,1501,24" style="stroke: #000000; stroke-width: 2.0;"/><line style="stroke: #000000; stroke-width: 2.0;" x1="1501" x2="1625" y1="43.9923" y2="43.9923"/><text fill="#000000" font-family="Open Sans" font-size="14" font-weight="bold" lengthAdjust="spacingAndGlyphs" textLength="111" x="1505" y="37.3128">org.apiguardian</text><!--entity jupiter_api--><rect fill="#FEFECE" filter="url(#f85d4vi)" height="33.9923" style="stroke: #A80036; stroke-width: 1.5;" width="110" x="455" y="420"/><rect fill="#FEFECE" height="5" style="stroke: #A80036; stroke-width: 1.5;" width="10" x="450" y="425"/><rect fill="#FEFECE" height="5" style="stroke: #A80036; stroke-width: 1.5;" width="10" x="450" y="443.9923"/><text fill="#000000" font-family="Open Sans" font-size="14" lengthAdjust="spacingAndGlyphs" textLength="90" x="465" y="441.3128">junit-jupiter-api</text><!--entity jupiter_engine--><rect fill="#FEFECE" filter="url(#f85d4vi)" height="33.9923" style="stroke: #A80036; stroke-width: 1.5;" width="135" x="442.75" y="326"/><rect fill="#FEFECE" height="5" style="stroke: #A80036; stroke-width: 1.5;" width="10" x="437.75" y="331"/><rect fill="#FEFECE" height="5" style="stroke: #A80036; stroke-width: 1.5;" width="10" x="437.75" y="349.9923"/><text fill="#000000" font-family="Open Sans" font-size="14" lengthAdjust="spacingAndGlyphs" textLength="115" x="452.75" y="347.3128">junit-jupiter-engine</text><!--entity jupiter_params--><rect fill="#FEFECE" filter="url(#f85d4vi)" height="33.9923" style="stroke: #A80036; stroke-width: 1.5;" width="139" x="38.75" y="326"/><rect fill="#FEFECE" height="5" style="stroke: #A80036; stroke-width: 1.5;" width="10" x="33.75" y="331"/><rect fill="#FEFECE" height="5" style="stroke: #A80036; stroke-width: 1.5;" width="10" x="33.75" y="349.9923"/><text fill="#000000" font-family="Open Sans" font-size="14" lengthAdjust="spacingAndGlyphs" textLength="119" x="48.75" y="347.3128">junit-jupiter-params</text><!--entity jupiter_migration_support--><rect fill="#FEFECE" filter="url(#f85d4vi)" height="33.9923" style="stroke: #A80036; stroke-width: 1.5;" width="195" x="212.75" y="326"/><rect fill="#FEFECE" height="5" style="stroke: #A80036; stroke-width: 1.5;" width="10" x="207.75" y="331"/><rect fill="#FEFECE" height="5" style="stroke: #A80036; stroke-width: 1.5;" width="10" x="207.75" y="349.9923"/><text fill="#000000" font-family="Open Sans" font-size="14" lengthAdjust="spacingAndGlyphs" textLength="175" x="222.75" y="347.3128">junit-jupiter-migrationsupport</text><!--entity vintage_engine--><rect fill="#FEFECE" filter="url(#f85d4vi)" height="33.9923" style="stroke: #A80036; stroke-width: 1.5;" width="143" x="684.75" y="326"/><rect fill="#FEFECE" height="5" style="stroke: #A80036; stroke-width: 1.5;" width="10" x="679.75" y="331"/><rect fill="#FEFECE" height="5" style="stroke: #A80036; stroke-width: 1.5;" width="10" x="679.75" y="349.9923"/><text fill="#000000" font-family="Open Sans" font-size="14" lengthAdjust="spacingAndGlyphs" textLength="123" x="694.75" y="347.3128">junit-vintage-engine</text><!--entity junit4--><rect fill="#FEFECE" filter="url(#f85d4vi)" height="33.9923" style="stroke: #A80036; stroke-width: 1.5;" width="74" x="684" y="420"/><rect fill="#FEFECE" height="5" style="stroke: #A80036; stroke-width: 1.5;" width="10" x="679" y="425"/><rect fill="#FEFECE" height="5" style="stroke: #A80036; stroke-width: 1.5;" width="10" x="679" y="443.9923"/><text fill="#000000" font-family="Open Sans" font-size="14" lengthAdjust="spacingAndGlyphs" textLength="54" x="694" y="441.3128">junit:junit</text><!--entity commons--><rect fill="#FEFECE" filter="url(#f85d4vi)" height="33.9923" style="stroke: #A80036; stroke-width: 1.5;" width="166" x="884" y="527"/><rect fill="#FEFECE" height="5" style="stroke: #A80036; stroke-width: 1.5;" width="10" x="879" y="532"/><rect fill="#FEFECE" height="5" style="stroke: #A80036; stroke-width: 1.5;" width="10" x="879" y="550.9923"/><text fill="#000000" font-family="Open Sans" font-size="14" lengthAdjust="spacingAndGlyphs" textLength="146" x="894" y="548.3128">junit-platform-commons</text><!--entity console--><rect fill="#FEFECE" filter="url(#f85d4vi)" height="33.9923" style="stroke: #A80036; stroke-width: 1.5;" width="153" x="1307.75" y="185"/><rect fill="#FEFECE" height="5" style="stroke: #A80036; stroke-width: 1.5;" width="10" x="1302.75" y="190"/><rect fill="#FEFECE" height="5" style="stroke: #A80036; stroke-width: 1.5;" width="10" x="1302.75" y="208.9923"/><text fill="#000000" font-family="Open Sans" font-size="14" lengthAdjust="spacingAndGlyphs" textLength="133" x="1317.75" y="206.3128">junit-platform-console</text><!--entity engine--><rect fill="#FEFECE" filter="url(#f85d4vi)" height="33.9923" style="stroke: #A80036; stroke-width: 1.5;" width="147" x="884.75" y="420"/><rect fill="#FEFECE" height="5" style="stroke: #A80036; stroke-width: 1.5;" width="10" x="879.75" y="425"/><rect fill="#FEFECE" height="5" style="stroke: #A80036; stroke-width: 1.5;" width="10" x="879.75" y="443.9923"/><text fill="#000000" font-family="Open Sans" font-size="14" lengthAdjust="spacingAndGlyphs" textLength="127" x="894.75" y="441.3128">junit-platform-engine</text><!--entity gradle--><rect fill="#FEFECE" filter="url(#f85d4vi)" height="33.9923" style="stroke: #A80036; stroke-width: 1.5;" width="186" x="1275.5" y="57"/><rect fill="#FEFECE" height="5" style="stroke: #A80036; stroke-width: 1.5;" width="10" x="1270.5" y="62"/><rect fill="#FEFECE" height="5" style="stroke: #A80036; stroke-width: 1.5;" width="10" x="1270.5" y="80.9923"/><text fill="#000000" font-family="Open Sans" font-size="14" lengthAdjust="spacingAndGlyphs" textLength="166" x="1285.5" y="78.3128">junit-platform-gradle-plugin</text><!--entity launcher--><rect fill="#FEFECE" filter="url(#f85d4vi)" height="33.9923" style="stroke: #A80036; stroke-width: 1.5;" width="159" x="1064.75" y="326"/><rect fill="#FEFECE" height="5" style="stroke: #A80036; stroke-width: 1.5;" width="10" x="1059.75" y="331"/><rect fill="#FEFECE" height="5" style="stroke: #A80036; stroke-width: 1.5;" width="10" x="1059.75" y="349.9923"/><text fill="#000000" font-family="Open Sans" font-size="14" lengthAdjust="spacingAndGlyphs" textLength="139" x="1074.75" y="347.3128">junit-platform-launcher</text><!--entity runner--><rect fill="#FEFECE" filter="url(#f85d4vi)" height="33.9923" style="stroke: #A80036; stroke-width: 1.5;" width="146" x="884" y="185"/><rect fill="#FEFECE" height="5" style="stroke: #A80036; stroke-width: 1.5;" width="10" x="879" y="190"/><rect fill="#FEFECE" height="5" style="stroke: #A80036; stroke-width: 1.5;" width="10" x="879" y="208.9923"/><text fill="#000000" font-family="Open Sans" font-size="14" lengthAdjust="spacingAndGlyphs" textLength="126" x="894" y="206.3128">junit-platform-runner</text><!--entity suite_api--><rect fill="#FEFECE" filter="url(#f85d4vi)" height="33.9923" style="stroke: #A80036; stroke-width: 1.5;" width="156" x="1067" y="420"/><rect fill="#FEFECE" height="5" style="stroke: #A80036; stroke-width: 1.5;" width="10" x="1062" y="425"/><rect fill="#FEFECE" height="5" style="stroke: #A80036; stroke-width: 1.5;" width="10" x="1062" y="443.9923"/><text fill="#000000" font-family="Open Sans" font-size="14" lengthAdjust="spacingAndGlyphs" textLength="136" x="1077" y="441.3128">junit-platform-suite-api</text><!--entity surefire--><rect fill="#FEFECE" filter="url(#f85d4vi)" height="33.9923" style="stroke: #A80036; stroke-width: 1.5;" width="207" x="1065.75" y="185"/><rect fill="#FEFECE" height="5" style="stroke: #A80036; stroke-width: 1.5;" width="10" x="1060.75" y="190"/><rect fill="#FEFECE" height="5" style="stroke: #A80036; stroke-width: 1.5;" width="10" x="1060.75" y="208.9923"/><text fill="#000000" font-family="Open Sans" font-size="14" lengthAdjust="spacingAndGlyphs" textLength="187" x="1075.75" y="206.3128">junit-platform-surefire-provider</text><!--entity opentest4j--><rect fill="#FEFECE" filter="url(#f85d4vi)" height="33.9923" style="stroke: #A80036; stroke-width: 1.5;" width="83" x="605.75" y="527"/><rect fill="#FEFECE" height="5" style="stroke: #A80036; stroke-width: 1.5;" width="10" x="600.75" y="532"/><rect fill="#FEFECE" height="5" style="stroke: #A80036; stroke-width: 1.5;" width="10" x="600.75" y="550.9923"/><text fill="#000000" font-family="Open Sans" font-size="14" lengthAdjust="spacingAndGlyphs" textLength="63" x="615.75" y="548.3128">opentest4j</text><!--entity apiguardian--><rect fill="#FEFECE" filter="url(#f85d4vi)" height="33.9923" style="stroke: #A80036; stroke-width: 1.5;" width="117" x="1548.75" y="57"/><rect fill="#FEFECE" height="5" style="stroke: #A80036; stroke-width: 1.5;" width="10" x="1543.75" y="62"/><rect fill="#FEFECE" height="5" style="stroke: #A80036; stroke-width: 1.5;" width="10" x="1543.75" y="80.9923"/><text fill="#000000" font-family="Open Sans" font-size="14" lengthAdjust="spacingAndGlyphs" textLength="97" x="1558.75" y="78.3128">apiguardian-api</text><polygon fill="#FFFFFF" filter="url(#f85d4vi)" points="1517,151.5,1517,252.3966,1697,252.3966,1697,161.5,1687,151.5,1517,151.5" style="stroke: #A80036; stroke-width: 1.0;"/><polygon fill="#FFFFFF" points="1517,151.5,1517,252.3966,1697,252.3966,1697,161.5,1687,151.5,1611,151.5,1607,91.214,1603,151.5,1517,151.5" style="stroke: #A80036; stroke-width: 1.0;"/><line style="stroke: #A80036; stroke-width: 1.0;" x1="1687" x2="1687" y1="151.5" y2="161.5"/><line style="stroke: #A80036; stroke-width: 1.0;" x1="1697" x2="1687" y1="161.5" y2="161.5"/><text fill="#000000" font-family="Open Sans" font-size="13" lengthAdjust="spacingAndGlyphs" textLength="105" x="1523" y="166.9986">All artifacts except</text><text fill="#000000" font-family="Open Sans" font-size="13" lengthAdjust="spacingAndGlyphs" textLength="140" x="1523" y="179.9838">opentest4j and junit:junit</text><text fill="#000000" font-family="Open Sans" font-size="13" lengthAdjust="spacingAndGlyphs" textLength="159" x="1523" y="192.969">have a dependency on this</text><text fill="#000000" font-family="Open Sans" font-size="13" lengthAdjust="spacingAndGlyphs" textLength="140" x="1523" y="205.9542">artifact. The edges have</text><text fill="#000000" font-family="Open Sans" font-size="13" lengthAdjust="spacingAndGlyphs" textLength="131" x="1523" y="218.9395">been omitted from this</text><text fill="#000000" font-family="Open Sans" font-size="13" lengthAdjust="spacingAndGlyphs" textLength="135" x="1523" y="231.9247">diagram for the sake of</text><text fill="#000000" font-family="Open Sans" font-size="13" lengthAdjust="spacingAndGlyphs" textLength="62" x="1523" y="244.9099">readability.</text><path d="M531.106,454.176 C555.615,472.96 596,503.9126 622.043,523.8723 " fill="none" style="stroke: #A80036; stroke-width: 1.0; stroke-dasharray: 7.0,7.0;"/><polygon fill="#A80036" points="626.095,526.9778,621.3847,518.3283,622.1264,523.9364,616.5184,524.6781,626.095,526.9778" style="stroke: #A80036; stroke-width: 1.0;"/><path d="M565.091,452.451 C595.396,460.273 633.703,469.953 668,478 C684.38,481.843 688.558,482.434 705,486 C766.589,499.3578 836.31,514.5286 888.338,525.859 " fill="none" style="stroke: #A80036; stroke-width: 1.0; stroke-dasharray: 7.0,7.0;"/><polygon fill="#A80036" points="893.317,526.9433,885.3747,521.1193,888.4316,525.879,883.6718,528.9359,893.317,526.9433" style="stroke: #A80036; stroke-width: 1.0;"/><path d="M577.555,357.873 C658.562,374.508 794.09,402.34 879.623,419.905 " fill="none" style="stroke: #A80036; stroke-width: 1.0; stroke-dasharray: 7.0,7.0;"/><polygon fill="#A80036" points="884.674,420.942,876.6627,415.2133,879.7762,419.9362,875.0533,423.0497,884.674,420.942" style="stroke: #A80036; stroke-width: 1.0;"/><path d="M510,360.025 C510,375.104 510,397.793 510,414.451 " fill="none" style="stroke: #A80036; stroke-width: 1.0; stroke-dasharray: 7.0,7.0;"/><polygon fill="#A80036" points="510,419.85,514,410.85,510,414.85,506,410.85,510,419.85" style="stroke: #A80036; stroke-width: 1.0;"/><path d="M177.564,359.92 C254.373,377.498 376.782,405.512 449.678,422.195 " fill="none" style="stroke: #A80036; stroke-width: 1.0; stroke-dasharray: 7.0,7.0;"/><polygon fill="#A80036" points="454.84,423.376,446.9594,417.4687,449.9661,422.2604,445.1744,425.267,454.84,423.376" style="stroke: #A80036; stroke-width: 1.0;"/><path d="M344.837,360.025 C379.754,376.087 433.445,400.785 470.065,417.63 " fill="none" style="stroke: #A80036; stroke-width: 1.0; stroke-dasharray: 7.0,7.0;"/><polygon fill="#A80036" points="474.891,419.85,468.3866,412.4546,470.3487,417.7602,465.043,419.7223,474.891,419.85" style="stroke: #A80036; stroke-width: 1.0;"/><path d="M381.591,360.025 C467.612,379.281 609.08,410.947 679.08,426.616 " fill="none" style="stroke: #A80036; stroke-width: 1.0; stroke-dasharray: 7.0,7.0;"/><polygon fill="#A80036" points="683.995,427.717,676.087,421.8464,679.1159,426.624,674.3383,429.6529,683.995,427.717" style="stroke: #A80036; stroke-width: 1.0;"/><path d="M1366.03,219.139 C1347.61,235.161 1317.66,259.756 1289,277 C1258.05,295.619 1220.83,312.195 1191.85,323.948 " fill="none" style="stroke: #A80036; stroke-width: 1.0; stroke-dasharray: 7.0,7.0;"/><polygon fill="#A80036" points="1186.91,325.938,1196.7529,326.2802,1191.5468,324.0673,1193.7597,318.8612,1186.91,325.938" style="stroke: #A80036; stroke-width: 1.0;"/><path d="M1370.06,91.214 C1372.93,113.801 1378.13,154.769 1381.3,179.768 " fill="none" style="stroke: #A80036; stroke-width: 1.0; stroke-dasharray: 7.0,7.0;"/><polygon fill="#A80036" points="1381.95,184.848,1384.7868,175.4165,1381.3214,179.8877,1376.8503,176.4223,1381.95,184.848" style="stroke: #A80036; stroke-width: 1.0;"/><path d="M1111.6,360.025 C1079.13,376.087 1029.2,400.785 995.14,417.63 " fill="none" style="stroke: #A80036; stroke-width: 1.0; stroke-dasharray: 7.0,7.0;"/><polygon fill="#A80036" points="990.652,419.85,1000.4925,419.4455,995.1338,417.6334,996.946,412.2746,990.652,419.85" style="stroke: #A80036; stroke-width: 1.0;"/><path d="M912.854,454.06 C891.938,461.443 866.735,470.261 844,478 C792.563,495.508 733.334,514.955 693.36,527.9749 " fill="none" style="stroke: #A80036; stroke-width: 1.0; stroke-dasharray: 7.0,7.0;"/><polygon fill="#A80036" points="688.583,529.5303,698.3793,530.5463,693.3372,527.9818,695.9017,522.9396,688.583,529.5303" style="stroke: #A80036; stroke-width: 1.0;"/><path d="M959.406,454.406 C960.958,472.514 963.462,501.7251 965.167,521.6147 " fill="none" style="stroke: #A80036; stroke-width: 1.0; stroke-dasharray: 7.0,7.0;"/><polygon fill="#A80036" points="965.604,526.709,968.8205,517.4002,965.1768,521.7273,960.8497,518.0836,965.604,526.709" style="stroke: #A80036; stroke-width: 1.0;"/><path d="M975.788,219.087 C993.925,234.422 1022.34,257.935 1048,277 C1069.78,293.181 1095.24,310.344 1114.47,322.969 " fill="none" style="stroke: #A80036; stroke-width: 1.0; stroke-dasharray: 7.0,7.0;"/><polygon fill="#A80036" points="1118.72,325.753,1113.3872,317.4728,1114.5388,323.0112,1109.0004,324.1628,1118.72,325.753" style="stroke: #A80036; stroke-width: 1.0;"/><path d="M963.844,219.468 C976.903,249.612 1007.62,314.721 1047,360 C1066.65,382.599 1093.89,403.078 1114.66,417.069 " fill="none" style="stroke: #A80036; stroke-width: 1.0; stroke-dasharray: 7.0,7.0;"/><polygon fill="#A80036" points="1118.98,419.954,1113.7077,411.6352,1114.8189,417.1818,1109.2722,418.293,1118.98,419.954" style="stroke: #A80036; stroke-width: 1.0;"/><path d="M883.69,213.552 C806.671,226.315 693.12,250.471 667,285 C636.298,325.587 676.972,385.2 702.746,415.975 " fill="none" style="stroke: #A80036; stroke-width: 1.0; stroke-dasharray: 7.0,7.0;"/><polygon fill="#A80036" points="706.119,419.941,703.334,410.4941,702.8792,416.1326,697.2406,415.6778,706.119,419.941" style="stroke: #A80036; stroke-width: 1.0;"/><path d="M1117.58,454.176 C1085.47,473.115 1032.4,504.4229 998.594,524.3629 " fill="none" style="stroke: #A80036; stroke-width: 1.0; stroke-dasharray: 7.0,7.0;"/><polygon fill="#A80036" points="994.161,526.9778,1003.9452,525.851,998.4677,524.4377,999.881,518.9602,994.161,526.9778" style="stroke: #A80036; stroke-width: 1.0;"/><path d="M1166.08,219.217 C1161.55,244.432 1152.81,293.03 1147.79,320.928 " fill="none" style="stroke: #A80036; stroke-width: 1.0; stroke-dasharray: 7.0,7.0;"/><polygon fill="#A80036" points="1146.9,325.886,1152.4288,317.7354,1147.7844,320.9648,1144.555,316.3204,1146.9,325.886" style="stroke: #A80036; stroke-width: 1.0;"/><path d="M791.186,360.025 C826.452,376.087 880.68,400.785 917.666,417.63 " fill="none" style="stroke: #A80036; stroke-width: 1.0; stroke-dasharray: 7.0,7.0;"/><polygon fill="#A80036" points="922.54,419.85,916.0082,412.4787,917.9899,417.7771,912.6916,419.7589,922.54,419.85" style="stroke: #A80036; stroke-width: 1.0;"/><path d="M749.903,360.025 C744.117,375.235 735.385,398.188 729.033,414.885 " fill="none" style="stroke: #A80036; stroke-width: 1.0; stroke-dasharray: 7.0,7.0;"/><polygon fill="#A80036" points="727.144,419.85,734.0832,412.8609,728.9221,415.1769,726.6061,410.0158,727.144,419.85" style="stroke: #A80036; stroke-width: 1.0;"/></g></svg>