<?xml version="1.0" encoding="us-ascii" standalone="no"?><svg xmlns="http://www.w3.org/2000/svg" xmlns:xlink="http://www.w3.org/1999/xlink" contentStyleType="text/css" height="907px" preserveAspectRatio="none" style="width:2271px;height:907px;background:#FFFFFF;" version="1.1" viewBox="0 0 2271 907" width="2271px" zoomAndPan="magnify"><defs/><g><!--cluster org.junit.jupiter--><g id="cluster_org.junit.jupiter"><path d="M1293.5,147 L1416.5,147 A3.75,3.75 0 0 1 1419,149.5 L1426,169.2969 L2011.5,169.2969 A2.5,2.5 0 0 1 2014,171.7969 L2014,503.5 A2.5,2.5 0 0 1 2011.5,506 L1293.5,506 A2.5,2.5 0 0 1 1291,503.5 L1291,149.5 A2.5,2.5 0 0 1 1293.5,147 " fill="none" style="stroke:#000000;stroke-width:1.5;"/><line style="stroke:#000000;stroke-width:1.5;" x1="1291" x2="1426" y1="169.2969" y2="169.2969"/><text fill="#000000" font-family="sans-serif" font-size="14" font-weight="bold" lengthAdjust="spacing" textLength="122" x="1295" y="161.9951">org.junit.jupiter</text></g><!--cluster org.junit.vintage--><g id="cluster_org.junit.vintage"><path d="M1010.5,303 L1140.5,303 A3.75,3.75 0 0 1 1143,305.5 L1150,325.2969 L1213.5,325.2969 A2.5,2.5 0 0 1 1216,327.7969 L1216,397.5 A2.5,2.5 0 0 1 1213.5,400 L1010.5,400 A2.5,2.5 0 0 1 1008,397.5 L1008,305.5 A2.5,2.5 0 0 1 1010.5,303 " fill="none" style="stroke:#000000;stroke-width:1.5;"/><line style="stroke:#000000;stroke-width:1.5;" x1="1008" x2="1150" y1="325.2969" y2="325.2969"/><text fill="#000000" font-family="sans-serif" font-size="14" font-weight="bold" lengthAdjust="spacing" textLength="129" x="1012" y="317.9951">org.junit.vintage</text></g><!--cluster org.junit.platform--><g id="cluster_org.junit.platform"><path d="M8.5,6 L146.5,6 A3.75,3.75 0 0 1 149,8.5 L156,28.2969 L981.5,28.2969 A2.5,2.5 0 0 1 984,30.7969 L984,730.5 A2.5,2.5 0 0 1 981.5,733 L8.5,733 A2.5,2.5 0 0 1 6,730.5 L6,8.5 A2.5,2.5 0 0 1 8.5,6 " fill="none" style="stroke:#000000;stroke-width:1.5;"/><line style="stroke:#000000;stroke-width:1.5;" x1="6" x2="156" y1="28.2969" y2="28.2969"/><text fill="#000000" font-family="sans-serif" font-size="14" font-weight="bold" lengthAdjust="spacing" textLength="137" x="10" y="20.9951">org.junit.platform</text></g><!--cluster JUnit 4--><g id="cluster_JUnit 4"><path d="M1188.5,530 L1239.5,530 A3.75,3.75 0 0 1 1242,532.5 L1249,552.2969 L1319.5,552.2969 A2.5,2.5 0 0 1 1322,554.7969 L1322,624.5 A2.5,2.5 0 0 1 1319.5,627 L1188.5,627 A2.5,2.5 0 0 1 1186,624.5 L1186,532.5 A2.5,2.5 0 0 1 1188.5,530 " fill="none" style="stroke:#000000;stroke-width:1.5;"/><line style="stroke:#000000;stroke-width:1.5;" x1="1186" x2="1249" y1="552.2969" y2="552.2969"/><text fill="#000000" font-family="sans-serif" font-size="14" font-weight="bold" lengthAdjust="spacing" textLength="50" x="1190" y="544.9951">JUnit 4</text></g><!--cluster org.opentest4j--><g id="cluster_org.opentest4j"><path d="M639.5,803 L757.5,803 A3.75,3.75 0 0 1 760,805.5 L767,825.2969 L782.5,825.2969 A2.5,2.5 0 0 1 785,827.7969 L785,897.5 A2.5,2.5 0 0 1 782.5,900 L639.5,900 A2.5,2.5 0 0 1 637,897.5 L637,805.5 A2.5,2.5 0 0 1 639.5,803 " fill="none" style="stroke:#000000;stroke-width:1.5;"/><line style="stroke:#000000;stroke-width:1.5;" x1="637" x2="767" y1="825.2969" y2="825.2969"/><text fill="#000000" font-family="sans-serif" font-size="14" font-weight="bold" lengthAdjust="spacing" textLength="117" x="641" y="817.9951">org.opentest4j</text></g><!--cluster org.apiguardian--><g id="cluster_org.apiguardian"><path d="M2040.5,6 L2165.5,6 A3.75,3.75 0 0 1 2168,8.5 L2175,28.2969 L2261.5,28.2969 A2.5,2.5 0 0 1 2264,30.7969 L2264,276.5 A2.5,2.5 0 0 1 2261.5,279 L2040.5,279 A2.5,2.5 0 0 1 2038,276.5 L2038,8.5 A2.5,2.5 0 0 1 2040.5,6 " fill="none" style="stroke:#000000;stroke-width:1.5;"/><line style="stroke:#000000;stroke-width:1.5;" x1="2038" x2="2175" y1="28.2969" y2="28.2969"/><text fill="#000000" font-family="sans-serif" font-size="14" font-weight="bold" lengthAdjust="spacing" textLength="124" x="2042" y="20.9951">org.apiguardian</text></g><!--entity jupiter--><g id="elem_jupiter"><rect fill="#F1F1F1" height="46.2969" rx="2.5" ry="2.5" style="stroke:#181818;stroke-width:0.5;" width="117" x="1815.5" y="182"/><rect fill="#F1F1F1" height="10" style="stroke:#181818;stroke-width:0.5;" width="15" x="1912.5" y="187"/><rect fill="#F1F1F1" height="2" style="stroke:#181818;stroke-width:0.5;" width="4" x="1910.5" y="189"/><rect fill="#F1F1F1" height="2" style="stroke:#181818;stroke-width:0.5;" width="4" x="1910.5" y="193"/><text fill="#000000" font-family="sans-serif" font-size="14" lengthAdjust="spacing" textLength="77" x="1830.5" y="214.9951">junit-jupiter</text></g><!--entity jupiter_api--><g id="elem_jupiter_api"><rect fill="#F1F1F1" height="46.2969" rx="2.5" ry="2.5" style="stroke:#181818;stroke-width:0.5;" width="142" x="1547" y="444"/><rect fill="#F1F1F1" height="10" style="stroke:#181818;stroke-width:0.5;" width="15" x="1669" y="449"/><rect fill="#F1F1F1" height="2" style="stroke:#181818;stroke-width:0.5;" width="4" x="1667" y="451"/><rect fill="#F1F1F1" height="2" style="stroke:#181818;stroke-width:0.5;" width="4" x="1667" y="455"/><text fill="#000000" font-family="sans-serif" font-size="14" lengthAdjust="spacing" textLength="102" x="1562" y="476.9951">junit-jupiter-api</text></g><!--entity jupiter_engine--><g id="elem_jupiter_engine"><rect fill="#F1F1F1" height="46.2969" rx="2.5" ry="2.5" style="stroke:#181818;stroke-width:0.5;" width="170" x="1307" y="338"/><rect fill="#F1F1F1" height="10" style="stroke:#181818;stroke-width:0.5;" width="15" x="1457" y="343"/><rect fill="#F1F1F1" height="2" style="stroke:#181818;stroke-width:0.5;" width="4" x="1455" y="345"/><rect fill="#F1F1F1" height="2" style="stroke:#181818;stroke-width:0.5;" width="4" x="1455" y="349"/><text fill="#000000" font-family="sans-serif" font-size="14" lengthAdjust="spacing" textLength="130" x="1322" y="370.9951">junit-jupiter-engine</text></g><!--entity jupiter_params--><g id="elem_jupiter_params"><rect fill="#F1F1F1" height="46.2969" rx="2.5" ry="2.5" style="stroke:#181818;stroke-width:0.5;" width="173" x="1787.5" y="338"/><rect fill="#F1F1F1" height="10" style="stroke:#181818;stroke-width:0.5;" width="15" x="1940.5" y="343"/><rect fill="#F1F1F1" height="2" style="stroke:#181818;stroke-width:0.5;" width="4" x="1938.5" y="345"/><rect fill="#F1F1F1" height="2" style="stroke:#181818;stroke-width:0.5;" width="4" x="1938.5" y="349"/><text fill="#000000" font-family="sans-serif" font-size="14" lengthAdjust="spacing" textLength="133" x="1802.5" y="370.9951">junit-jupiter-params</text></g><!--entity jupiter_migration_support--><g id="elem_jupiter_migration_support"><rect fill="#F1F1F1" height="46.2969" rx="2.5" ry="2.5" style="stroke:#181818;stroke-width:0.5;" width="240" x="1512" y="338"/><rect fill="#F1F1F1" height="10" style="stroke:#181818;stroke-width:0.5;" width="15" x="1732" y="343"/><rect fill="#F1F1F1" height="2" style="stroke:#181818;stroke-width:0.5;" width="4" x="1730" y="345"/><rect fill="#F1F1F1" height="2" style="stroke:#181818;stroke-width:0.5;" width="4" x="1730" y="349"/><text fill="#000000" font-family="sans-serif" font-size="14" lengthAdjust="spacing" textLength="200" x="1527" y="370.9951">junit-jupiter-migrationsupport</text></g><!--entity vintage_engine--><g id="elem_vintage_engine"><rect fill="#F1F1F1" height="46.2969" rx="2.5" ry="2.5" style="stroke:#181818;stroke-width:0.5;" width="177" x="1023.5" y="338"/><rect fill="#F1F1F1" height="10" style="stroke:#181818;stroke-width:0.5;" width="15" x="1180.5" y="343"/><rect fill="#F1F1F1" height="2" style="stroke:#181818;stroke-width:0.5;" width="4" x="1178.5" y="345"/><rect fill="#F1F1F1" height="2" style="stroke:#181818;stroke-width:0.5;" width="4" x="1178.5" y="349"/><text fill="#000000" font-family="sans-serif" font-size="14" lengthAdjust="spacing" textLength="137" x="1038.5" y="370.9951">junit-vintage-engine</text></g><!--entity commons--><g id="elem_commons"><rect fill="#F1F1F1" height="46.2969" rx="2.5" ry="2.5" style="stroke:#181818;stroke-width:0.5;" width="204" x="764" y="671"/><rect fill="#F1F1F1" height="10" style="stroke:#181818;stroke-width:0.5;" width="15" x="948" y="676"/><rect fill="#F1F1F1" height="2" style="stroke:#181818;stroke-width:0.5;" width="4" x="946" y="678"/><rect fill="#F1F1F1" height="2" style="stroke:#181818;stroke-width:0.5;" width="4" x="946" y="682"/><text fill="#000000" font-family="sans-serif" font-size="14" lengthAdjust="spacing" textLength="164" x="779" y="703.9951">junit-platform-commons</text></g><!--entity console--><g id="elem_console"><rect fill="#F1F1F1" height="46.2969" rx="2.5" ry="2.5" style="stroke:#181818;stroke-width:0.5;" width="190" x="768" y="182"/><rect fill="#F1F1F1" height="10" style="stroke:#181818;stroke-width:0.5;" width="15" x="938" y="187"/><rect fill="#F1F1F1" height="2" style="stroke:#181818;stroke-width:0.5;" width="4" x="936" y="189"/><rect fill="#F1F1F1" height="2" style="stroke:#181818;stroke-width:0.5;" width="4" x="936" y="193"/><text fill="#000000" font-family="sans-serif" font-size="14" lengthAdjust="spacing" textLength="150" x="783" y="214.9951">junit-platform-console</text></g><!--entity engine--><g id="elem_engine"><rect fill="#F1F1F1" height="46.2969" rx="2.5" ry="2.5" style="stroke:#181818;stroke-width:0.5;" width="183" x="774.5" y="565"/><rect fill="#F1F1F1" height="10" style="stroke:#181818;stroke-width:0.5;" width="15" x="937.5" y="570"/><rect fill="#F1F1F1" height="2" style="stroke:#181818;stroke-width:0.5;" width="4" x="935.5" y="572"/><rect fill="#F1F1F1" height="2" style="stroke:#181818;stroke-width:0.5;" width="4" x="935.5" y="576"/><text fill="#000000" font-family="sans-serif" font-size="14" lengthAdjust="spacing" textLength="143" x="789.5" y="597.9951">junit-platform-engine</text></g><!--entity jfr--><g id="elem_jfr"><rect fill="#F1F1F1" height="46.2969" rx="2.5" ry="2.5" style="stroke:#181818;stroke-width:0.5;" width="147" x="550.5" y="338"/><rect fill="#F1F1F1" height="10" style="stroke:#181818;stroke-width:0.5;" width="15" x="677.5" y="343"/><rect fill="#F1F1F1" height="2" style="stroke:#181818;stroke-width:0.5;" width="4" x="675.5" y="345"/><rect fill="#F1F1F1" height="2" style="stroke:#181818;stroke-width:0.5;" width="4" x="675.5" y="349"/><text fill="#000000" font-family="sans-serif" font-size="14" lengthAdjust="spacing" textLength="107" x="565.5" y="370.9951">junit-platform-jfr</text></g><!--entity launcher--><g id="elem_launcher"><rect fill="#F1F1F1" height="46.2969" rx="2.5" ry="2.5" style="stroke:#181818;stroke-width:0.5;" width="195" x="581.5" y="444"/><rect fill="#F1F1F1" height="10" style="stroke:#181818;stroke-width:0.5;" width="15" x="756.5" y="449"/><rect fill="#F1F1F1" height="2" style="stroke:#181818;stroke-width:0.5;" width="4" x="754.5" y="451"/><rect fill="#F1F1F1" height="2" style="stroke:#181818;stroke-width:0.5;" width="4" x="754.5" y="455"/><text fill="#000000" font-family="sans-serif" font-size="14" lengthAdjust="spacing" textLength="155" x="596.5" y="476.9951">junit-platform-launcher</text></g><!--entity reporting--><g id="elem_reporting"><rect fill="#F1F1F1" height="46.2969" rx="2.5" ry="2.5" style="stroke:#181818;stroke-width:0.5;" width="198" x="770" y="338"/><rect fill="#F1F1F1" height="10" style="stroke:#181818;stroke-width:0.5;" width="15" x="948" y="343"/><rect fill="#F1F1F1" height="2" style="stroke:#181818;stroke-width:0.5;" width="4" x="946" y="345"/><rect fill="#F1F1F1" height="2" style="stroke:#181818;stroke-width:0.5;" width="4" x="946" y="349"/><text fill="#000000" font-family="sans-serif" font-size="14" lengthAdjust="spacing" textLength="158" x="785" y="370.9951">junit-platform-reporting</text></g><!--entity runner--><g id="elem_runner"><rect fill="#F1F1F1" height="46.2969" rx="2.5" ry="2.5" style="stroke:#181818;stroke-width:0.5;" width="181" x="545.5" y="182"/><rect fill="#F1F1F1" height="10" style="stroke:#181818;stroke-width:0.5;" width="15" x="706.5" y="187"/><rect fill="#F1F1F1" height="2" style="stroke:#181818;stroke-width:0.5;" width="4" x="704.5" y="189"/><rect fill="#F1F1F1" height="2" style="stroke:#181818;stroke-width:0.5;" width="4" x="704.5" y="193"/><text fill="#000000" font-family="sans-serif" font-size="14" lengthAdjust="spacing" textLength="141" x="560.5" y="214.9951">junit-platform-runner</text></g><!--entity suite--><g id="elem_suite"><rect fill="#F1F1F1" height="46.2969" rx="2.5" ry="2.5" style="stroke:#181818;stroke-width:0.5;" width="169" x="224.5" y="41"/><rect fill="#F1F1F1" height="10" style="stroke:#181818;stroke-width:0.5;" width="15" x="373.5" y="46"/><rect fill="#F1F1F1" height="2" style="stroke:#181818;stroke-width:0.5;" width="4" x="371.5" y="48"/><rect fill="#F1F1F1" height="2" style="stroke:#181818;stroke-width:0.5;" width="4" x="371.5" y="52"/><text fill="#000000" font-family="sans-serif" font-size="14" lengthAdjust="spacing" textLength="129" x="239.5" y="73.9951">junit-platform-suite</text></g><!--entity suite_api--><g id="elem_suite_api"><rect fill="#F1F1F1" height="46.2969" rx="2.5" ry="2.5" style="stroke:#181818;stroke-width:0.5;" width="194" x="264" y="444"/><rect fill="#F1F1F1" height="10" style="stroke:#181818;stroke-width:0.5;" width="15" x="438" y="449"/><rect fill="#F1F1F1" height="2" style="stroke:#181818;stroke-width:0.5;" width="4" x="436" y="451"/><rect fill="#F1F1F1" height="2" style="stroke:#181818;stroke-width:0.5;" width="4" x="436" y="455"/><text fill="#000000" font-family="sans-serif" font-size="14" lengthAdjust="spacing" textLength="154" x="279" y="476.9951">junit-platform-suite-api</text></g><!--entity suite_commons--><g id="elem_suite_commons"><rect fill="#F1F1F1" height="46.2969" rx="2.5" ry="2.5" style="stroke:#181818;stroke-width:0.5;" width="243" x="272.5" y="338"/><rect fill="#F1F1F1" height="10" style="stroke:#181818;stroke-width:0.5;" width="15" x="495.5" y="343"/><rect fill="#F1F1F1" height="2" style="stroke:#181818;stroke-width:0.5;" width="4" x="493.5" y="345"/><rect fill="#F1F1F1" height="2" style="stroke:#181818;stroke-width:0.5;" width="4" x="493.5" y="349"/><text fill="#000000" font-family="sans-serif" font-size="14" lengthAdjust="spacing" textLength="203" x="287.5" y="370.9951">junit-platform-suite-commons</text></g><!--entity suite_engine--><g id="elem_suite_engine"><rect fill="#F1F1F1" height="46.2969" rx="2.5" ry="2.5" style="stroke:#181818;stroke-width:0.5;" width="222" x="277" y="182"/><rect fill="#F1F1F1" height="10" style="stroke:#181818;stroke-width:0.5;" width="15" x="479" y="187"/><rect fill="#F1F1F1" height="2" style="stroke:#181818;stroke-width:0.5;" width="4" x="477" y="189"/><rect fill="#F1F1F1" height="2" style="stroke:#181818;stroke-width:0.5;" width="4" x="477" y="193"/><text fill="#000000" font-family="sans-serif" font-size="14" lengthAdjust="spacing" textLength="182" x="292" y="214.9951">junit-platform-suite-engine</text></g><!--entity testkit--><g id="elem_testkit"><rect fill="#F1F1F1" height="46.2969" rx="2.5" ry="2.5" style="stroke:#181818;stroke-width:0.5;" width="178" x="22" y="338"/><rect fill="#F1F1F1" height="10" style="stroke:#181818;stroke-width:0.5;" width="15" x="180" y="343"/><rect fill="#F1F1F1" height="2" style="stroke:#181818;stroke-width:0.5;" width="4" x="178" y="345"/><rect fill="#F1F1F1" height="2" style="stroke:#181818;stroke-width:0.5;" width="4" x="178" y="349"/><text fill="#000000" font-family="sans-serif" font-size="14" lengthAdjust="spacing" textLength="138" x="37" y="370.9951">junit-platform-testkit</text></g><!--entity junit4--><g id="elem_junit4"><rect fill="#F1F1F1" height="46.2969" rx="2.5" ry="2.5" style="stroke:#181818;stroke-width:0.5;" width="103" x="1202.5" y="565"/><rect fill="#F1F1F1" height="10" style="stroke:#181818;stroke-width:0.5;" width="15" x="1285.5" y="570"/><rect fill="#F1F1F1" height="2" style="stroke:#181818;stroke-width:0.5;" width="4" x="1283.5" y="572"/><rect fill="#F1F1F1" height="2" style="stroke:#181818;stroke-width:0.5;" width="4" x="1283.5" y="576"/><text fill="#000000" font-family="sans-serif" font-size="14" lengthAdjust="spacing" textLength="63" x="1217.5" y="597.9951">junit:junit</text></g><!--entity opentest4j--><g id="elem_opentest4j"><rect fill="#F1F1F1" height="46.2969" rx="2.5" ry="2.5" style="stroke:#181818;stroke-width:0.5;" width="115" x="653.5" y="838"/><rect fill="#F1F1F1" height="10" style="stroke:#181818;stroke-width:0.5;" width="15" x="748.5" y="843"/><rect fill="#F1F1F1" height="2" style="stroke:#181818;stroke-width:0.5;" width="4" x="746.5" y="845"/><rect fill="#F1F1F1" height="2" style="stroke:#181818;stroke-width:0.5;" width="4" x="746.5" y="849"/><text fill="#000000" font-family="sans-serif" font-size="14" lengthAdjust="spacing" textLength="75" x="668.5" y="870.9951">opentest4j</text></g><!--entity apiguardian--><g id="elem_apiguardian"><rect fill="#F1F1F1" height="46.2969" rx="2.5" ry="2.5" style="stroke:#181818;stroke-width:0.5;" width="145" x="2078.5" y="41"/><rect fill="#F1F1F1" height="10" style="stroke:#181818;stroke-width:0.5;" width="15" x="2203.5" y="46"/><rect fill="#F1F1F1" height="2" style="stroke:#181818;stroke-width:0.5;" width="4" x="2201.5" y="48"/><rect fill="#F1F1F1" height="2" style="stroke:#181818;stroke-width:0.5;" width="4" x="2201.5" y="52"/><text fill="#000000" font-family="sans-serif" font-size="14" lengthAdjust="spacing" textLength="105" x="2093.5" y="73.9951">apiguardian-api</text></g><g id="elem_GMN29"><path d="M2054.5,147 L2054.5,262.9297 A0,0 0 0 0 2054.5,262.9297 L2247.5,262.9297 A0,0 0 0 0 2247.5,262.9297 L2247.5,157 L2237.5,147 L2155,147 L2151,87.02 L2147,147 L2054.5,147 A0,0 0 0 0 2054.5,147 " fill="#FFFFFF" style="stroke:#181818;stroke-width:0.5;"/><path d="M2237.5,147 L2237.5,157 L2247.5,157 L2237.5,147 " fill="#FFFFFF" style="stroke:#181818;stroke-width:0.5;"/><text fill="#000000" font-family="sans-serif" font-size="13" lengthAdjust="spacing" textLength="118" x="2060.5" y="164.0669">All artifacts except</text><text fill="#000000" font-family="sans-serif" font-size="13" lengthAdjust="spacing" textLength="158" x="2060.5" y="179.1997">opentest4j and junit:junit</text><text fill="#000000" font-family="sans-serif" font-size="13" lengthAdjust="spacing" textLength="172" x="2060.5" y="194.3325">have a dependency on this</text><text fill="#000000" font-family="sans-serif" font-size="13" lengthAdjust="spacing" textLength="154" x="2060.5" y="209.4653">artifact. The edges have</text><text fill="#000000" font-family="sans-serif" font-size="13" lengthAdjust="spacing" textLength="147" x="2060.5" y="224.5981">been omitted from this</text><text fill="#000000" font-family="sans-serif" font-size="13" lengthAdjust="spacing" textLength="149" x="2060.5" y="239.731">diagram for the sake of</text><text fill="#000000" font-family="sans-serif" font-size="13" lengthAdjust="spacing" textLength="70" x="2060.5" y="254.8638">readability.</text></g><!--link jupiter to jupiter_api--><g id="link_jupiter_jupiter_api"><path d="M1913.8,228.01 C1937.23,243.39 1964.78,266.29 1978,295 C1999,340.62 2010.57,369.77 1978,408 C1941.67,450.65 1789.477,461.8609 1695.307,464.8309 " fill="none" id="jupiter-to-jupiter_api" style="stroke:#181818;stroke-width:1.0;stroke-dasharray:7.0,7.0;"/><polygon fill="#181818" points="1689.31,465.02,1698.4316,468.7343,1694.3075,464.8624,1698.1794,460.7383,1689.31,465.02" style="stroke:#181818;stroke-width:1.0;"/></g><!--link jupiter to jupiter_params--><g id="link_jupiter_jupiter_params"><path d="M1874,228.06 C1874,257.34 1874,302.72 1874,331.98 " fill="none" id="jupiter-to-jupiter_params" style="stroke:#181818;stroke-width:1.0;stroke-dasharray:7.0,7.0;"/><polygon fill="#181818" points="1874,337.98,1878,328.98,1874,332.98,1870,328.98,1874,337.98" style="stroke:#181818;stroke-width:1.0;"/></g><!--link jupiter to jupiter_engine--><g id="link_jupiter_jupiter_engine"><path d="M1815.31,213.6 C1739.18,224.84 1603.31,249.62 1495,295 C1468.48,306.11 1445.9629,320.2873 1426.0829,334.3973 " fill="none" id="jupiter-to-jupiter_engine" style="stroke:#181818;stroke-width:1.0;stroke-dasharray:7.0,7.0;"/><polygon fill="#181818" points="1421.19,337.87,1430.8444,335.9228,1425.2674,334.976,1426.2141,329.399,1421.19,337.87" style="stroke:#181818;stroke-width:1.0;"/></g><!--link jupiter_api to opentest4j--><g id="link_jupiter_api_opentest4j"><path d="M1602.34,490.15 C1575.97,525.83 1519.24,596 1455,635 C1224.01,775.23 905.0885,832.8929 774.5585,851.7329 " fill="none" id="jupiter_api-to-opentest4j" style="stroke:#181818;stroke-width:1.0;stroke-dasharray:7.0,7.0;"/><polygon fill="#181818" points="768.62,852.59,778.0991,855.2633,773.5687,851.8757,776.9563,847.3453,768.62,852.59" style="stroke:#181818;stroke-width:1.0;"/></g><!--link jupiter_api to commons--><g id="link_jupiter_api_commons"><path d="M1587.91,490.29 C1536.4,527.18 1426.73,600.28 1322,635 C1204.59,673.92 1068.1839,686.6999 974.0939,690.9399 " fill="none" id="jupiter_api-to-commons" style="stroke:#181818;stroke-width:1.0;stroke-dasharray:7.0,7.0;"/><polygon fill="#181818" points="968.1,691.21,977.2709,694.8008,973.0949,690.9849,976.9108,686.8089,968.1,691.21" style="stroke:#181818;stroke-width:1.0;"/></g><!--link jupiter_engine to engine--><g id="link_jupiter_engine_engine"><path d="M1340.13,384.19 C1239.3,427.32 1023.5164,519.62 923.0064,562.62 " fill="none" id="jupiter_engine-to-engine" style="stroke:#181818;stroke-width:1.0;stroke-dasharray:7.0,7.0;"/><polygon fill="#181818" points="917.49,564.98,927.3379,565.1176,922.087,563.0133,924.1912,557.7624,917.49,564.98" style="stroke:#181818;stroke-width:1.0;"/></g><!--link jupiter_engine to jupiter_api--><g id="link_jupiter_engine_jupiter_api"><path d="M1439.93,384.06 C1478.28,401.7 1526.3595,423.8316 1564.6895,441.4716 " fill="none" id="jupiter_engine-to-jupiter_api" style="stroke:#181818;stroke-width:1.0;stroke-dasharray:7.0,7.0;"/><polygon fill="#181818" points="1570.14,443.98,1563.6365,436.5837,1565.5979,441.8897,1560.292,443.8511,1570.14,443.98" style="stroke:#181818;stroke-width:1.0;"/></g><!--link jupiter_params to jupiter_api--><g id="link_jupiter_params_jupiter_api"><path d="M1825.55,384.05 C1808.12,391.82 1788.26,400.49 1770,408 C1739.83,420.42 1711.5674,431.3317 1683.4574,441.8817 " fill="none" id="jupiter_params-to-jupiter_api" style="stroke:#181818;stroke-width:1.0;stroke-dasharray:7.0,7.0;"/><polygon fill="#181818" points="1677.84,443.99,1687.6716,444.5725,1682.5212,442.2331,1684.8606,437.0827,1677.84,443.99" style="stroke:#181818;stroke-width:1.0;"/></g><!--link jupiter_migration_support to jupiter_api--><g id="link_jupiter_migration_support_jupiter_api"><path d="M1629.03,384.06 C1626.66,401.7 1624.1423,420.3939 1621.7623,438.0339 " fill="none" id="jupiter_migration_support-to-jupiter_api" style="stroke:#181818;stroke-width:1.0;stroke-dasharray:7.0,7.0;"/><polygon fill="#181818" points="1620.96,443.98,1626.1275,435.5957,1621.6285,439.0249,1618.1993,434.526,1620.96,443.98" style="stroke:#181818;stroke-width:1.0;"/></g><!--link jupiter_migration_support to junit4--><g id="link_jupiter_migration_support_junit4"><path d="M1595.63,384.04 C1546.56,413.74 1456.37,468.17 1379,514 C1349.92,531.23 1322.0769,547.4841 1297.2769,561.9041 " fill="none" id="jupiter_migration_support-to-junit4" style="stroke:#181818;stroke-width:1.0;stroke-dasharray:7.0,7.0;"/><polygon fill="#181818" points="1292.09,564.92,1301.881,563.854,1296.4124,562.4067,1297.8597,556.9381,1292.09,564.92" style="stroke:#181818;stroke-width:1.0;"/></g><!--link console to launcher--><g id="link_console_launcher"><path d="M825.98,228.08 C802.14,243.99 772.14,267.47 753,295 C722.76,338.51 737.57,360.06 715,408 C709.2,420.33 704.6252,428.2693 697.7352,438.7993 " fill="none" id="console-to-launcher" style="stroke:#181818;stroke-width:1.0;stroke-dasharray:7.0,7.0;"/><polygon fill="#181818" points="694.45,443.82,702.7249,438.479,697.1876,439.6361,696.0306,434.0988,694.45,443.82" style="stroke:#181818;stroke-width:1.0;"/></g><!--link console to reporting--><g id="link_console_reporting"><path d="M863.86,228.06 C865,257.34 866.7664,302.7245 867.9064,331.9845 " fill="none" id="console-to-reporting" style="stroke:#181818;stroke-width:1.0;stroke-dasharray:7.0,7.0;"/><polygon fill="#181818" points="868.14,337.98,871.7866,328.8311,867.9453,332.9838,863.7926,329.1425,868.14,337.98" style="stroke:#181818;stroke-width:1.0;"/></g><!--link launcher to engine--><g id="link_launcher_engine"><path d="M713.74,490.1 C747.22,511.41 792.548,540.2588 826.068,561.5888 " fill="none" id="launcher-to-engine" style="stroke:#181818;stroke-width:1.0;stroke-dasharray:7.0,7.0;"/><polygon fill="#181818" points="831.13,564.81,825.6844,556.6036,826.9116,562.1257,821.3895,563.353,831.13,564.81" style="stroke:#181818;stroke-width:1.0;"/></g><!--link jfr to launcher--><g id="link_jfr_launcher"><path d="M635.66,384.06 C645,401.7 655.2147,421.0362 664.5447,438.6762 " fill="none" id="jfr-to-launcher" style="stroke:#181818;stroke-width:1.0;stroke-dasharray:7.0,7.0;"/><polygon fill="#181818" points="667.35,443.98,666.678,434.1541,665.0123,439.5601,659.6062,437.8944,667.35,443.98" style="stroke:#181818;stroke-width:1.0;"/></g><!--link engine to opentest4j--><g id="link_engine_opentest4j"><path d="M817.27,611.14 C792.44,624.89 763.99,644.94 747,671 C712.79,723.46 709.2791,794.4608 709.9091,831.9108 " fill="none" id="engine-to-opentest4j" style="stroke:#181818;stroke-width:1.0;stroke-dasharray:7.0,7.0;"/><polygon fill="#181818" points="710.01,837.91,713.8581,828.844,709.9259,832.9107,705.8592,828.9786,710.01,837.91" style="stroke:#181818;stroke-width:1.0;"/></g><!--link engine to commons--><g id="link_engine_commons"><path d="M866,611.06 C866,628.7 866,647.34 866,664.98 " fill="none" id="engine-to-commons" style="stroke:#181818;stroke-width:1.0;stroke-dasharray:7.0,7.0;"/><polygon fill="#181818" points="866,670.98,870,661.98,866,665.98,862,661.98,866,670.98" style="stroke:#181818;stroke-width:1.0;"/></g><!--link reporting to launcher--><g id="link_reporting_launcher"><path d="M828.71,384.06 C796.46,401.7 756.7229,423.4587 724.5029,441.0987 " fill="none" id="reporting-to-launcher" style="stroke:#181818;stroke-width:1.0;stroke-dasharray:7.0,7.0;"/><polygon fill="#181818" points="719.24,443.98,729.0552,443.1666,723.6257,441.5789,725.2134,436.1494,719.24,443.98" style="stroke:#181818;stroke-width:1.0;"/></g><!--link runner to suite_commons--><g id="link_runner_suite_commons"><path d="M604.79,228.03 C580.99,244.63 547.26,267.75 517,287 C489.14,304.73 462.2087,320.7271 437.7887,334.9071 " fill="none" id="runner-to-suite_commons" style="stroke:#181818;stroke-width:1.0;stroke-dasharray:7.0,7.0;"/><polygon fill="#181818" points="432.6,337.92,442.3916,336.8597,436.9239,335.4092,438.3744,329.9415,432.6,337.92" style="stroke:#181818;stroke-width:1.0;"/></g><!--link runner to junit4--><g id="link_runner_junit4"><path d="M658.36,228.01 C680,247.69 714.78,275.18 751,287 C775.56,295.02 1196.73,277.78 1216,295 C1293.95,364.66 1272.8943,503.4991 1260.7543,558.8991 " fill="none" id="runner-to-junit4" style="stroke:#181818;stroke-width:1.0;stroke-dasharray:7.0,7.0;"/><polygon fill="#181818" points="1259.47,564.76,1265.3038,556.8248,1260.5403,559.8759,1257.4892,555.1124,1259.47,564.76" style="stroke:#181818;stroke-width:1.0;"/></g><!--link suite to suite_api--><g id="link_suite_suite_api"><path d="M289.49,87.26 C278.62,101.13 266.08,119.91 260,139 C223.7,252.93 194.03,305.14 255,408 C264.25,423.61 274.0729,432.4348 290.0229,441.0648 " fill="none" id="suite-to-suite_api" style="stroke:#181818;stroke-width:1.0;stroke-dasharray:7.0,7.0;"/><polygon fill="#181818" points="295.3,443.92,289.2879,436.1191,290.9024,441.5406,285.4809,443.1552,295.3,443.92" style="stroke:#181818;stroke-width:1.0;"/></g><!--link suite to suite_engine--><g id="link_suite_suite_engine"><path d="M321.52,87.02 C336.22,112.9 357.5259,150.3733 372.3159,176.4033 " fill="none" id="suite-to-suite_engine" style="stroke:#181818;stroke-width:1.0;stroke-dasharray:7.0,7.0;"/><polygon fill="#181818" points="375.28,181.62,374.3117,171.8189,372.8099,177.2727,367.3561,175.771,375.28,181.62" style="stroke:#181818;stroke-width:1.0;"/></g><!--link suite_engine to suite_commons--><g id="link_suite_engine_suite_commons"><path d="M388.86,228.06 C390,257.34 391.7664,302.7245 392.9064,331.9845 " fill="none" id="suite_engine-to-suite_commons" style="stroke:#181818;stroke-width:1.0;stroke-dasharray:7.0,7.0;"/><polygon fill="#181818" points="393.14,337.98,396.7866,328.8311,392.9453,332.9838,388.7926,329.1425,393.14,337.98" style="stroke:#181818;stroke-width:1.0;"/></g><!--link suite_commons to launcher--><g id="link_suite_commons_launcher"><path d="M454.44,384.06 C502.81,401.7 564.6634,424.2836 613.0134,441.9236 " fill="none" id="suite_commons-to-launcher" style="stroke:#181818;stroke-width:1.0;stroke-dasharray:7.0,7.0;"/><polygon fill="#181818" points="618.65,443.98,611.5661,437.1376,613.9529,442.2663,608.8242,444.653,618.65,443.98" style="stroke:#181818;stroke-width:1.0;"/></g><!--link suite_commons to suite_api--><g id="link_suite_commons_suite_api"><path d="M387,384.06 C381.4,401.7 375.4055,420.6213 369.8055,438.2613 " fill="none" id="suite_commons-to-suite_api" style="stroke:#181818;stroke-width:1.0;stroke-dasharray:7.0,7.0;"/><polygon fill="#181818" points="367.99,443.98,374.5257,436.6122,369.5029,439.2144,366.9007,434.1916,367.99,443.98" style="stroke:#181818;stroke-width:1.0;"/></g><!--link testkit to opentest4j--><g id="link_testkit_opentest4j"><path d="M116.61,384.19 C126.27,424.36 145,511.94 145,587 C145,587 145,587 145,695 C145,800.1 503.3034,842.2303 647.3734,855.0003 " fill="none" id="testkit-to-opentest4j" style="stroke:#181818;stroke-width:1.0;stroke-dasharray:7.0,7.0;"/><polygon fill="#181818" points="653.35,855.53,644.7383,850.751,648.3695,855.0885,644.032,858.7198,653.35,855.53" style="stroke:#181818;stroke-width:1.0;"/></g><!--link testkit to launcher--><g id="link_testkit_launcher"><path d="M172.02,384.07 C197.41,392.58 227.36,401.74 255,408 C315.24,421.63 470.0926,441.3064 575.4526,453.9264 " fill="none" id="testkit-to-launcher" style="stroke:#181818;stroke-width:1.0;stroke-dasharray:7.0,7.0;"/><polygon fill="#181818" points="581.41,454.64,572.9496,449.598,576.4455,454.0454,571.9982,457.5412,581.41,454.64" style="stroke:#181818;stroke-width:1.0;"/></g><!--link vintage_engine to engine--><g id="link_vintage_engine_engine"><path d="M1087.51,384.4 C1040.36,427.52 941.8875,517.5906 894.8175,560.6406 " fill="none" id="vintage_engine-to-engine" style="stroke:#181818;stroke-width:1.0;stroke-dasharray:7.0,7.0;"/><polygon fill="#181818" points="890.39,564.69,899.7308,561.5676,894.0796,561.3155,894.3317,555.6643,890.39,564.69" style="stroke:#181818;stroke-width:1.0;"/></g><!--link vintage_engine to junit4--><g id="link_vintage_engine_junit4"><path d="M1126.13,384.4 C1153.35,427.52 1209.5477,516.566 1236.7177,559.616 " fill="none" id="vintage_engine-to-junit4" style="stroke:#181818;stroke-width:1.0;stroke-dasharray:7.0,7.0;"/><polygon fill="#181818" points="1239.92,564.69,1238.4992,554.9442,1237.2514,560.4617,1231.7339,559.2139,1239.92,564.69" style="stroke:#181818;stroke-width:1.0;"/></g><!--SRC=[bLKzZzim3DtrAuJh74-PEXpGfKE7JkrqE1mOcxQLs98XoVU1el-zj2p9agqSK0y6zTuZGr8qOsv2Jg1Xv7yOfwV15kR1VbVI_eGHkG5fJWQrQDbVnYQeRz0XLxghhhCKbjwJiAYzzvC3Jnvyvc2ujmlq2IQHIbxeN9AXx8J4JBb29R6hnMJY5Ig9Hz5fi499Cq-JqZPpY-IBPyiDU1NIBaZM00-cgNief5wCDGrWMwN7F5X0JxKQHyhLXVFs7PqqQa2lStPHbsHtR6XKNLj_aQqkyWFCikxzROT3KQbnQQEGdPF6KraxI-bZhcPHPMQwAYTordrDd3Ltsa_QJflsUTL_rktL9-dbwl99HoqQUnFhj7axdOU77xz9piyFsHXyTMy_eMITzoEa9fHBjFCr-6t8yrvC3UXcq8q06TG95BkLO4uabKL-KTQgaQisfVcNjpxSmF9y6mOETBqjr9R6wxt6oKOoIHLamvFwegI7L-H0wuYa3ShwWol9RIzCL8Je5V_L8yUcG-Eyek22ABaQXRNOy5PJofa_PTqjUu-kX8XbqzseDstaDK835p48-r4va19PwbzQ6RPULJrcswk4-_LJeloCi2G4yOjYwz2UV8oVFil3hAGFUQ3oF5cUtBqwZZlmlvHEwaQL-JNatEEEIC5j6x30ywGUHjidTsPRrNc_af9ZfsBqNOnrjJWm_z0ZaTJW58bsAN-FXNJJKo4youvvKaTg-pdcryMnwer8wyl_TB89EL2nq7y0]--></g></svg>