<?xml version="1.0" encoding="UTF-8" standalone="no"?><svg xmlns="http://www.w3.org/2000/svg" xmlns:xlink="http://www.w3.org/1999/xlink" contentScriptType="application/ecmascript" contentStyleType="text/css" height="503px" preserveAspectRatio="none" style="width:1490px;height:503px;" version="1.1" viewBox="0 0 1490 503" width="1490px" zoomAndPan="magnify"><defs><filter height="300%" id="fqzrzli" width="300%" x="-1" y="-1"><feGaussianBlur result="blurOut" stdDeviation="2.0"/><feColorMatrix in="blurOut" result="blurOut2" type="matrix" values="0 0 0 0 0 0 0 0 0 0 0 0 0 0 0 0 0 0 .4 0"/><feOffset dx="4.0" dy="4.0" in="blurOut2" result="blurOut3"/><feBlend in="SourceGraphic" in2="blurOut3" mode="normal"/></filter></defs><g><!--cluster org.junit.jupiter--><polygon fill="#FFFFFF" filter="url(#fqzrzli)" points="22,212,136,212,143,231.9923,600,231.9923,600,389,22,389,22,212" style="stroke: #000000; stroke-width: 2.0;"/><line style="stroke: #000000; stroke-width: 2.0;" x1="22" x2="143" y1="231.9923" y2="231.9923"/><text fill="#000000" font-family="Open Sans" font-size="14" font-weight="bold" lengthAdjust="spacingAndGlyphs" textLength="108" x="26" y="225.3128">org.junit.jupiter</text><!--cluster org.junit.vintage--><polygon fill="#FFFFFF" filter="url(#fqzrzli)" points="674,212,794,212,801,231.9923,850,231.9923,850,389,674,389,674,212" style="stroke: #000000; stroke-width: 2.0;"/><line style="stroke: #000000; stroke-width: 2.0;" x1="674" x2="801" y1="231.9923" y2="231.9923"/><text fill="#000000" font-family="Open Sans" font-size="14" font-weight="bold" lengthAdjust="spacingAndGlyphs" textLength="114" x="678" y="225.3128">org.junit.vintage</text><!--cluster org.junit.platform--><polygon fill="#FFFFFF" filter="url(#fqzrzli)" points="874,24,1001,24,1008,43.9923,1483,43.9923,1483,496,874,496,874,24" style="stroke: #000000; stroke-width: 2.0;"/><line style="stroke: #000000; stroke-width: 2.0;" x1="874" x2="1008" y1="43.9923" y2="43.9923"/><text fill="#000000" font-family="Open Sans" font-size="14" font-weight="bold" lengthAdjust="spacingAndGlyphs" textLength="121" x="878" y="37.3128">org.junit.platform</text><!--cluster org.opentest4j--><polygon fill="#FFFFFF" filter="url(#fqzrzli)" points="594,413,701,413,708,432.9923,712,432.9923,712,496,594,496,594,413" style="stroke: #000000; stroke-width: 2.0;"/><line style="stroke: #000000; stroke-width: 2.0;" x1="594" x2="708" y1="432.9923" y2="432.9923"/><text fill="#000000" font-family="Open Sans" font-size="14" font-weight="bold" lengthAdjust="spacingAndGlyphs" textLength="101" x="598" y="426.3128">org.opentest4j</text><!--entity jupiter_api--><rect fill="#FEFECE" filter="url(#fqzrzli)" height="33.9923" style="stroke: #A80036; stroke-width: 1.5;" width="110" x="461" y="339"/><rect fill="#FEFECE" height="5" style="stroke: #A80036; stroke-width: 1.5;" width="10" x="456" y="344"/><rect fill="#FEFECE" height="5" style="stroke: #A80036; stroke-width: 1.5;" width="10" x="456" y="362.9923"/><text fill="#000000" font-family="Open Sans" font-size="14" lengthAdjust="spacingAndGlyphs" textLength="90" x="471" y="360.3128">junit-jupiter-api</text><!--entity jupiter_engine--><rect fill="#FEFECE" filter="url(#fqzrzli)" height="33.9923" style="stroke: #A80036; stroke-width: 1.5;" width="135" x="448.75" y="245"/><rect fill="#FEFECE" height="5" style="stroke: #A80036; stroke-width: 1.5;" width="10" x="443.75" y="250"/><rect fill="#FEFECE" height="5" style="stroke: #A80036; stroke-width: 1.5;" width="10" x="443.75" y="268.9923"/><text fill="#000000" font-family="Open Sans" font-size="14" lengthAdjust="spacingAndGlyphs" textLength="115" x="458.75" y="266.3128">junit-jupiter-engine</text><!--entity jupiter_params--><rect fill="#FEFECE" filter="url(#fqzrzli)" height="33.9923" style="stroke: #A80036; stroke-width: 1.5;" width="139" x="38.75" y="245"/><rect fill="#FEFECE" height="5" style="stroke: #A80036; stroke-width: 1.5;" width="10" x="33.75" y="250"/><rect fill="#FEFECE" height="5" style="stroke: #A80036; stroke-width: 1.5;" width="10" x="33.75" y="268.9923"/><text fill="#000000" font-family="Open Sans" font-size="14" lengthAdjust="spacingAndGlyphs" textLength="119" x="48.75" y="266.3128">junit-jupiter-params</text><!--entity jupiter_migration_support--><rect fill="#FEFECE" filter="url(#fqzrzli)" height="33.9923" style="stroke: #A80036; stroke-width: 1.5;" width="200" x="213" y="245"/><rect fill="#FEFECE" height="5" style="stroke: #A80036; stroke-width: 1.5;" width="10" x="208" y="250"/><rect fill="#FEFECE" height="5" style="stroke: #A80036; stroke-width: 1.5;" width="10" x="208" y="268.9923"/><text fill="#000000" font-family="Open Sans" font-size="14" lengthAdjust="spacingAndGlyphs" textLength="180" x="223" y="266.3128">junit-jupiter-migration-support</text><!--entity vintage_engine--><rect fill="#FEFECE" filter="url(#fqzrzli)" height="33.9923" style="stroke: #A80036; stroke-width: 1.5;" width="143" x="690.75" y="245"/><rect fill="#FEFECE" height="5" style="stroke: #A80036; stroke-width: 1.5;" width="10" x="685.75" y="250"/><rect fill="#FEFECE" height="5" style="stroke: #A80036; stroke-width: 1.5;" width="10" x="685.75" y="268.9923"/><text fill="#000000" font-family="Open Sans" font-size="14" lengthAdjust="spacingAndGlyphs" textLength="123" x="700.75" y="266.3128">junit-vintage-engine</text><!--entity junit4--><rect fill="#FEFECE" filter="url(#fqzrzli)" height="33.9923" style="stroke: #A80036; stroke-width: 1.5;" width="74" x="690" y="339"/><rect fill="#FEFECE" height="5" style="stroke: #A80036; stroke-width: 1.5;" width="10" x="685" y="344"/><rect fill="#FEFECE" height="5" style="stroke: #A80036; stroke-width: 1.5;" width="10" x="685" y="362.9923"/><text fill="#000000" font-family="Open Sans" font-size="14" lengthAdjust="spacingAndGlyphs" textLength="54" x="700" y="360.3128">junit:junit</text><!--entity commons--><rect fill="#FEFECE" filter="url(#fqzrzli)" height="33.9923" style="stroke: #A80036; stroke-width: 1.5;" width="166" x="890" y="446"/><rect fill="#FEFECE" height="5" style="stroke: #A80036; stroke-width: 1.5;" width="10" x="885" y="451"/><rect fill="#FEFECE" height="5" style="stroke: #A80036; stroke-width: 1.5;" width="10" x="885" y="469.9923"/><text fill="#000000" font-family="Open Sans" font-size="14" lengthAdjust="spacingAndGlyphs" textLength="146" x="900" y="467.3128">junit-platform-commons</text><!--entity console--><rect fill="#FEFECE" filter="url(#fqzrzli)" height="33.9923" style="stroke: #A80036; stroke-width: 1.5;" width="153" x="1313.75" y="151"/><rect fill="#FEFECE" height="5" style="stroke: #A80036; stroke-width: 1.5;" width="10" x="1308.75" y="156"/><rect fill="#FEFECE" height="5" style="stroke: #A80036; stroke-width: 1.5;" width="10" x="1308.75" y="174.9923"/><text fill="#000000" font-family="Open Sans" font-size="14" lengthAdjust="spacingAndGlyphs" textLength="133" x="1323.75" y="172.3128">junit-platform-console</text><!--entity engine--><rect fill="#FEFECE" filter="url(#fqzrzli)" height="33.9923" style="stroke: #A80036; stroke-width: 1.5;" width="147" x="890.75" y="339"/><rect fill="#FEFECE" height="5" style="stroke: #A80036; stroke-width: 1.5;" width="10" x="885.75" y="344"/><rect fill="#FEFECE" height="5" style="stroke: #A80036; stroke-width: 1.5;" width="10" x="885.75" y="362.9923"/><text fill="#000000" font-family="Open Sans" font-size="14" lengthAdjust="spacingAndGlyphs" textLength="127" x="900.75" y="360.3128">junit-platform-engine</text><!--entity gradle--><rect fill="#FEFECE" filter="url(#fqzrzli)" height="33.9923" style="stroke: #A80036; stroke-width: 1.5;" width="186" x="1281.5" y="57"/><rect fill="#FEFECE" height="5" style="stroke: #A80036; stroke-width: 1.5;" width="10" x="1276.5" y="62"/><rect fill="#FEFECE" height="5" style="stroke: #A80036; stroke-width: 1.5;" width="10" x="1276.5" y="80.9923"/><text fill="#000000" font-family="Open Sans" font-size="14" lengthAdjust="spacingAndGlyphs" textLength="166" x="1291.5" y="78.3128">junit-platform-gradle-plugin</text><!--entity launcher--><rect fill="#FEFECE" filter="url(#fqzrzli)" height="33.9923" style="stroke: #A80036; stroke-width: 1.5;" width="159" x="1070.75" y="245"/><rect fill="#FEFECE" height="5" style="stroke: #A80036; stroke-width: 1.5;" width="10" x="1065.75" y="250"/><rect fill="#FEFECE" height="5" style="stroke: #A80036; stroke-width: 1.5;" width="10" x="1065.75" y="268.9923"/><text fill="#000000" font-family="Open Sans" font-size="14" lengthAdjust="spacingAndGlyphs" textLength="139" x="1080.75" y="266.3128">junit-platform-launcher</text><!--entity runner--><rect fill="#FEFECE" filter="url(#fqzrzli)" height="33.9923" style="stroke: #A80036; stroke-width: 1.5;" width="146" x="890" y="151"/><rect fill="#FEFECE" height="5" style="stroke: #A80036; stroke-width: 1.5;" width="10" x="885" y="156"/><rect fill="#FEFECE" height="5" style="stroke: #A80036; stroke-width: 1.5;" width="10" x="885" y="174.9923"/><text fill="#000000" font-family="Open Sans" font-size="14" lengthAdjust="spacingAndGlyphs" textLength="126" x="900" y="172.3128">junit-platform-runner</text><!--entity suite_api--><rect fill="#FEFECE" filter="url(#fqzrzli)" height="33.9923" style="stroke: #A80036; stroke-width: 1.5;" width="156" x="1073" y="339"/><rect fill="#FEFECE" height="5" style="stroke: #A80036; stroke-width: 1.5;" width="10" x="1068" y="344"/><rect fill="#FEFECE" height="5" style="stroke: #A80036; stroke-width: 1.5;" width="10" x="1068" y="362.9923"/><text fill="#000000" font-family="Open Sans" font-size="14" lengthAdjust="spacingAndGlyphs" textLength="136" x="1083" y="360.3128">junit-platform-suite-api</text><!--entity surefire--><rect fill="#FEFECE" filter="url(#fqzrzli)" height="33.9923" style="stroke: #A80036; stroke-width: 1.5;" width="207" x="1071.75" y="151"/><rect fill="#FEFECE" height="5" style="stroke: #A80036; stroke-width: 1.5;" width="10" x="1066.75" y="156"/><rect fill="#FEFECE" height="5" style="stroke: #A80036; stroke-width: 1.5;" width="10" x="1066.75" y="174.9923"/><text fill="#000000" font-family="Open Sans" font-size="14" lengthAdjust="spacingAndGlyphs" textLength="187" x="1081.75" y="172.3128">junit-platform-surefire-provider</text><!--entity opentest4j--><rect fill="#FEFECE" filter="url(#fqzrzli)" height="33.9923" style="stroke: #A80036; stroke-width: 1.5;" width="83" x="611.75" y="446"/><rect fill="#FEFECE" height="5" style="stroke: #A80036; stroke-width: 1.5;" width="10" x="606.75" y="451"/><rect fill="#FEFECE" height="5" style="stroke: #A80036; stroke-width: 1.5;" width="10" x="606.75" y="469.9923"/><text fill="#000000" font-family="Open Sans" font-size="14" lengthAdjust="spacingAndGlyphs" textLength="63" x="621.75" y="467.3128">opentest4j</text><path d="M537.106,373.176 C561.615,391.96 602,422.9126 628.043,442.8723 " fill="none" style="stroke: #A80036; stroke-width: 1.0; stroke-dasharray: 7.0,7.0;"/><polygon fill="#A80036" points="632.095,445.9778,627.3847,437.3283,628.1264,442.9364,622.5184,443.6781,632.095,445.9778" style="stroke: #A80036; stroke-width: 1.0;"/><path d="M571.091,371.451 C601.396,379.273 639.703,388.953 674,397 C690.38,400.843 694.558,401.434 711,405 C772.589,418.3578 842.31,433.5286 894.338,444.859 " fill="none" style="stroke: #A80036; stroke-width: 1.0; stroke-dasharray: 7.0,7.0;"/><polygon fill="#A80036" points="899.317,445.9433,891.3747,440.1193,894.4316,444.879,889.6718,447.9359,899.317,445.9433" style="stroke: #A80036; stroke-width: 1.0;"/><path d="M583.555,276.873 C664.562,293.508 800.09,321.34 885.623,338.905 " fill="none" style="stroke: #A80036; stroke-width: 1.0; stroke-dasharray: 7.0,7.0;"/><polygon fill="#A80036" points="890.674,339.942,882.6627,334.2133,885.7762,338.9362,881.0533,342.0497,890.674,339.942" style="stroke: #A80036; stroke-width: 1.0;"/><path d="M516,279.025 C516,294.104 516,316.793 516,333.451 " fill="none" style="stroke: #A80036; stroke-width: 1.0; stroke-dasharray: 7.0,7.0;"/><polygon fill="#A80036" points="516,338.85,520,329.85,516,333.85,512,329.85,516,338.85" style="stroke: #A80036; stroke-width: 1.0;"/><path d="M177.674,278.711 C255.799,296.327 381.24,324.613 455.437,341.344 " fill="none" style="stroke: #A80036; stroke-width: 1.0; stroke-dasharray: 7.0,7.0;"/><polygon fill="#A80036" points="460.689,342.528,452.7896,336.6459,455.8115,341.4279,451.0295,344.4498,460.689,342.528" style="stroke: #A80036; stroke-width: 1.0;"/><path d="M348.36,279.025 C383.801,295.087 438.297,319.785 475.466,336.63 " fill="none" style="stroke: #A80036; stroke-width: 1.0; stroke-dasharray: 7.0,7.0;"/><polygon fill="#A80036" points="480.364,338.85,473.8162,331.493,475.8094,336.787,470.5154,338.7803,480.364,338.85" style="stroke: #A80036; stroke-width: 1.0;"/><path d="M385.113,279.025 C471.875,298.306 614.635,330.03 685.05,345.678 " fill="none" style="stroke: #A80036; stroke-width: 1.0; stroke-dasharray: 7.0,7.0;"/><polygon fill="#A80036" points="689.993,346.776,682.0761,340.9174,685.1123,345.6904,680.3392,348.7266,689.993,346.776" style="stroke: #A80036; stroke-width: 1.0;"/><path d="M1348.2,185.025 C1305.95,201.218 1240.81,226.189 1196.85,243.041 " fill="none" style="stroke: #A80036; stroke-width: 1.0; stroke-dasharray: 7.0,7.0;"/><polygon fill="#A80036" points="1192.13,244.85,1201.9664,245.3445,1196.7953,243.0513,1199.0885,237.8801,1192.13,244.85" style="stroke: #A80036; stroke-width: 1.0;"/><path d="M1376.79,91.025 C1379.43,106.235 1383.42,129.188 1386.33,145.885 " fill="none" style="stroke: #A80036; stroke-width: 1.0; stroke-dasharray: 7.0,7.0;"/><polygon fill="#A80036" points="1387.19,150.85,1389.5888,141.2977,1386.3333,145.9239,1381.7071,142.6685,1387.19,150.85" style="stroke: #A80036; stroke-width: 1.0;"/><path d="M1117.6,279.025 C1085.13,295.087 1035.2,319.785 1001.14,336.63 " fill="none" style="stroke: #A80036; stroke-width: 1.0; stroke-dasharray: 7.0,7.0;"/><polygon fill="#A80036" points="996.652,338.85,1006.4925,338.4455,1001.1338,336.6334,1002.946,331.2746,996.652,338.85" style="stroke: #A80036; stroke-width: 1.0;"/><path d="M918.854,373.06 C897.938,380.443 872.735,389.261 850,397 C798.563,414.508 739.334,433.955 699.36,446.9749 " fill="none" style="stroke: #A80036; stroke-width: 1.0; stroke-dasharray: 7.0,7.0;"/><polygon fill="#A80036" points="694.583,448.5303,704.3793,449.5463,699.3372,446.9818,701.9017,441.9396,694.583,448.5303" style="stroke: #A80036; stroke-width: 1.0;"/><path d="M965.406,373.406 C966.958,391.514 969.462,420.7251 971.167,440.6147 " fill="none" style="stroke: #A80036; stroke-width: 1.0; stroke-dasharray: 7.0,7.0;"/><polygon fill="#A80036" points="971.604,445.709,974.8205,436.4002,971.1768,440.7273,966.8497,437.0836,971.604,445.709" style="stroke: #A80036; stroke-width: 1.0;"/><path d="M995.573,185.025 C1028.22,201.087 1078.42,225.785 1112.66,242.63 " fill="none" style="stroke: #A80036; stroke-width: 1.0; stroke-dasharray: 7.0,7.0;"/><polygon fill="#A80036" points="1117.17,244.85,1110.8693,237.2802,1112.6862,242.6374,1107.3291,244.4543,1117.17,244.85" style="stroke: #A80036; stroke-width: 1.0;"/><path d="M974.485,185.254 C990.669,207.605 1021.72,248.523 1053,279 C1074.88,300.321 1102.62,321.357 1122.99,335.873 " fill="none" style="stroke: #A80036; stroke-width: 1.0; stroke-dasharray: 7.0,7.0;"/><polygon fill="#A80036" points="1127.23,338.869,1122.2117,330.3946,1123.1546,335.9723,1117.5769,336.9152,1127.23,338.869" style="stroke: #A80036; stroke-width: 1.0;"/><path d="M889.85,172.847 C808.685,177.88 687.193,187.991 673,204 C639.062,242.28 681.664,303.402 708.415,334.854 " fill="none" style="stroke: #A80036; stroke-width: 1.0; stroke-dasharray: 7.0,7.0;"/><polygon fill="#A80036" points="711.913,338.906,709.0593,329.4796,708.6455,335.1213,703.0038,334.7076,711.913,338.906" style="stroke: #A80036; stroke-width: 1.0;"/><path d="M1123.58,373.176 C1091.47,392.115 1038.4,423.4229 1004.594,443.3629 " fill="none" style="stroke: #A80036; stroke-width: 1.0; stroke-dasharray: 7.0,7.0;"/><polygon fill="#A80036" points="1000.161,445.9778,1009.9452,444.851,1004.4677,443.4377,1005.881,437.9602,1000.161,445.9778" style="stroke: #A80036; stroke-width: 1.0;"/><path d="M1170.65,185.025 C1166.51,200.235 1160.27,223.188 1155.74,239.885 " fill="none" style="stroke: #A80036; stroke-width: 1.0; stroke-dasharray: 7.0,7.0;"/><polygon fill="#A80036" points="1154.39,244.85,1160.6091,237.2131,1155.7005,240.0248,1152.8888,235.1162,1154.39,244.85" style="stroke: #A80036; stroke-width: 1.0;"/><path d="M797.186,279.025 C832.452,295.087 886.68,319.785 923.666,336.63 " fill="none" style="stroke: #A80036; stroke-width: 1.0; stroke-dasharray: 7.0,7.0;"/><polygon fill="#A80036" points="928.54,338.85,922.0082,331.4787,923.9899,336.7771,918.6916,338.7589,928.54,338.85" style="stroke: #A80036; stroke-width: 1.0;"/><path d="M755.903,279.025 C750.117,294.235 741.385,317.188 735.033,333.885 " fill="none" style="stroke: #A80036; stroke-width: 1.0; stroke-dasharray: 7.0,7.0;"/><polygon fill="#A80036" points="733.144,338.85,740.0832,331.8609,734.9221,334.1769,732.6061,329.0158,733.144,338.85" style="stroke: #A80036; stroke-width: 1.0;"/></g></svg>