<?xml version="1.0" encoding="UTF-8" standalone="no"?><svg xmlns="http://www.w3.org/2000/svg" xmlns:xlink="http://www.w3.org/1999/xlink" contentScriptType="application/ecmascript" contentStyleType="text/css" height="620px" preserveAspectRatio="none" style="width:1639px;height:620px;" version="1.1" viewBox="0 0 1639 620" width="1639px" zoomAndPan="magnify"><defs><filter height="300%" id="fg2l0gcov4rq" width="300%" x="-1" y="-1"><feGaussianBlur result="blurOut" stdDeviation="2.0"/><feColorMatrix in="blurOut" result="blurOut2" type="matrix" values="0 0 0 0 0 0 0 0 0 0 0 0 0 0 0 0 0 0 .4 0"/><feOffset dx="4.0" dy="4.0" in="blurOut2" result="blurOut3"/><feBlend in="SourceGraphic" in2="blurOut3" mode="normal"/></filter></defs><g><!--cluster org.junit.jupiter--><polygon fill="#FFFFFF" filter="url(#fg2l0gcov4rq)" points="704,160,832,160,839,182.2969,1367,182.2969,1367,496,704,496,704,160" style="stroke: #000000; stroke-width: 1.5;"/><line style="stroke: #000000; stroke-width: 1.5;" x1="704" x2="839" y1="182.2969" y2="182.2969"/><text fill="#000000" font-family="Open Sans" font-size="14" font-weight="bold" lengthAdjust="spacingAndGlyphs" textLength="122" x="708" y="174.9951">org.junit.jupiter</text><!--cluster org.junit.vintage--><polygon fill="#FFFFFF" filter="url(#fg2l0gcov4rq)" points="22,312,157,312,164,334.2969,212,334.2969,212,496,22,496,22,312" style="stroke: #000000; stroke-width: 1.5;"/><line style="stroke: #000000; stroke-width: 1.5;" x1="22" x2="164" y1="334.2969" y2="334.2969"/><text fill="#000000" font-family="Open Sans" font-size="14" font-weight="bold" lengthAdjust="spacingAndGlyphs" textLength="129" x="26" y="326.9951">org.junit.vintage</text><!--cluster org.junit.platform--><polygon fill="#FFFFFF" filter="url(#fg2l0gcov4rq)" points="236,24,379,24,386,46.2969,680,46.2969,680,608,236,608,236,24" style="stroke: #000000; stroke-width: 1.5;"/><line style="stroke: #000000; stroke-width: 1.5;" x1="236" x2="386" y1="46.2969" y2="46.2969"/><text fill="#000000" font-family="Open Sans" font-size="14" font-weight="bold" lengthAdjust="spacingAndGlyphs" textLength="137" x="240" y="38.9951">org.junit.platform</text><!--cluster org.opentest4j--><polygon fill="#FFFFFF" filter="url(#fg2l0gcov4rq)" points="790,520,913,520,920,542.2969,924,542.2969,924,608,790,608,790,520" style="stroke: #000000; stroke-width: 1.5;"/><line style="stroke: #000000; stroke-width: 1.5;" x1="790" x2="920" y1="542.2969" y2="542.2969"/><text fill="#000000" font-family="Open Sans" font-size="14" font-weight="bold" lengthAdjust="spacingAndGlyphs" textLength="117" x="794" y="534.9951">org.opentest4j</text><!--cluster org.apiguardian--><polygon fill="#FFFFFF" filter="url(#fg2l0gcov4rq)" points="1391,24,1521,24,1528,46.2969,1617,46.2969,1617,288,1391,288,1391,24" style="stroke: #000000; stroke-width: 1.5;"/><line style="stroke: #000000; stroke-width: 1.5;" x1="1391" x2="1528" y1="46.2969" y2="46.2969"/><text fill="#000000" font-family="Open Sans" font-size="14" font-weight="bold" lengthAdjust="spacingAndGlyphs" textLength="124" x="1395" y="38.9951">org.apiguardian</text><!--entity jupiter--><rect fill="#FEFECE" filter="url(#fg2l0gcov4rq)" height="36.2969" style="stroke: #A80036; stroke-width: 1.5;" width="97" x="1188.75" y="196"/><rect fill="#FEFECE" height="5" style="stroke: #A80036; stroke-width: 1.5;" width="10" x="1183.75" y="201"/><rect fill="#FEFECE" height="5" style="stroke: #A80036; stroke-width: 1.5;" width="10" x="1183.75" y="222.2969"/><text fill="#000000" font-family="Open Sans" font-size="14" lengthAdjust="spacingAndGlyphs" textLength="77" x="1198.75" y="218.9951">junit-jupiter</text><!--entity jupiter_api--><rect fill="#FEFECE" filter="url(#fg2l0gcov4rq)" height="36.2969" style="stroke: #A80036; stroke-width: 1.5;" width="122" x="879" y="444"/><rect fill="#FEFECE" height="5" style="stroke: #A80036; stroke-width: 1.5;" width="10" x="874" y="449"/><rect fill="#FEFECE" height="5" style="stroke: #A80036; stroke-width: 1.5;" width="10" x="874" y="470.2969"/><text fill="#000000" font-family="Open Sans" font-size="14" lengthAdjust="spacingAndGlyphs" textLength="102" x="889" y="466.9951">junit-jupiter-api</text><!--entity jupiter_engine--><rect fill="#FEFECE" filter="url(#fg2l0gcov4rq)" height="36.2969" style="stroke: #A80036; stroke-width: 1.5;" width="150" x="975.5" y="348"/><rect fill="#FEFECE" height="5" style="stroke: #A80036; stroke-width: 1.5;" width="10" x="970.5" y="353"/><rect fill="#FEFECE" height="5" style="stroke: #A80036; stroke-width: 1.5;" width="10" x="970.5" y="374.2969"/><text fill="#000000" font-family="Open Sans" font-size="14" lengthAdjust="spacingAndGlyphs" textLength="130" x="985.5" y="370.9951">junit-jupiter-engine</text><!--entity jupiter_params--><rect fill="#FEFECE" filter="url(#fg2l0gcov4rq)" height="36.2969" style="stroke: #A80036; stroke-width: 1.5;" width="153" x="1160.75" y="348"/><rect fill="#FEFECE" height="5" style="stroke: #A80036; stroke-width: 1.5;" width="10" x="1155.75" y="353"/><rect fill="#FEFECE" height="5" style="stroke: #A80036; stroke-width: 1.5;" width="10" x="1155.75" y="374.2969"/><text fill="#000000" font-family="Open Sans" font-size="14" lengthAdjust="spacingAndGlyphs" textLength="133" x="1170.75" y="370.9951">junit-jupiter-params</text><!--entity jupiter_migration_support--><rect fill="#FEFECE" filter="url(#fg2l0gcov4rq)" height="36.2969" style="stroke: #A80036; stroke-width: 1.5;" width="220" x="720" y="348"/><rect fill="#FEFECE" height="5" style="stroke: #A80036; stroke-width: 1.5;" width="10" x="715" y="353"/><rect fill="#FEFECE" height="5" style="stroke: #A80036; stroke-width: 1.5;" width="10" x="715" y="374.2969"/><text fill="#000000" font-family="Open Sans" font-size="14" lengthAdjust="spacingAndGlyphs" textLength="200" x="730" y="370.9951">junit-jupiter-migrationsupport</text><!--entity vintage_engine--><rect fill="#FEFECE" filter="url(#fg2l0gcov4rq)" height="36.2969" style="stroke: #A80036; stroke-width: 1.5;" width="157" x="38.75" y="348"/><rect fill="#FEFECE" height="5" style="stroke: #A80036; stroke-width: 1.5;" width="10" x="33.75" y="353"/><rect fill="#FEFECE" height="5" style="stroke: #A80036; stroke-width: 1.5;" width="10" x="33.75" y="374.2969"/><text fill="#000000" font-family="Open Sans" font-size="14" lengthAdjust="spacingAndGlyphs" textLength="137" x="48.75" y="370.9951">junit-vintage-engine</text><!--entity junit4--><rect fill="#FEFECE" filter="url(#fg2l0gcov4rq)" height="36.2969" style="stroke: #A80036; stroke-width: 1.5;" width="83" x="75.75" y="444"/><rect fill="#FEFECE" height="5" style="stroke: #A80036; stroke-width: 1.5;" width="10" x="70.75" y="449"/><rect fill="#FEFECE" height="5" style="stroke: #A80036; stroke-width: 1.5;" width="10" x="70.75" y="470.2969"/><text fill="#000000" font-family="Open Sans" font-size="14" lengthAdjust="spacingAndGlyphs" textLength="63" x="85.75" y="466.9951">junit:junit</text><!--entity commons--><rect fill="#FEFECE" filter="url(#fg2l0gcov4rq)" height="36.2969" style="stroke: #A80036; stroke-width: 1.5;" width="184" x="480" y="556"/><rect fill="#FEFECE" height="5" style="stroke: #A80036; stroke-width: 1.5;" width="10" x="475" y="561"/><rect fill="#FEFECE" height="5" style="stroke: #A80036; stroke-width: 1.5;" width="10" x="475" y="582.2969"/><text fill="#000000" font-family="Open Sans" font-size="14" lengthAdjust="spacingAndGlyphs" textLength="164" x="490" y="578.9951">junit-platform-commons</text><!--entity console--><rect fill="#FEFECE" filter="url(#fg2l0gcov4rq)" height="36.2969" style="stroke: #A80036; stroke-width: 1.5;" width="170" x="473" y="60"/><rect fill="#FEFECE" height="5" style="stroke: #A80036; stroke-width: 1.5;" width="10" x="468" y="65"/><rect fill="#FEFECE" height="5" style="stroke: #A80036; stroke-width: 1.5;" width="10" x="468" y="86.2969"/><text fill="#000000" font-family="Open Sans" font-size="14" lengthAdjust="spacingAndGlyphs" textLength="150" x="483" y="82.9951">junit-platform-console</text><!--entity engine--><rect fill="#FEFECE" filter="url(#fg2l0gcov4rq)" height="36.2969" style="stroke: #A80036; stroke-width: 1.5;" width="163" x="490.75" y="444"/><rect fill="#FEFECE" height="5" style="stroke: #A80036; stroke-width: 1.5;" width="10" x="485.75" y="449"/><rect fill="#FEFECE" height="5" style="stroke: #A80036; stroke-width: 1.5;" width="10" x="485.75" y="470.2969"/><text fill="#000000" font-family="Open Sans" font-size="14" lengthAdjust="spacingAndGlyphs" textLength="143" x="500.75" y="466.9951">junit-platform-engine</text><!--entity launcher--><rect fill="#FEFECE" filter="url(#fg2l0gcov4rq)" height="36.2969" style="stroke: #A80036; stroke-width: 1.5;" width="175" x="473.75" y="348"/><rect fill="#FEFECE" height="5" style="stroke: #A80036; stroke-width: 1.5;" width="10" x="468.75" y="353"/><rect fill="#FEFECE" height="5" style="stroke: #A80036; stroke-width: 1.5;" width="10" x="468.75" y="374.2969"/><text fill="#000000" font-family="Open Sans" font-size="14" lengthAdjust="spacingAndGlyphs" textLength="155" x="483.75" y="370.9951">junit-platform-launcher</text><!--entity reporting--><rect fill="#FEFECE" filter="url(#fg2l0gcov4rq)" height="36.2969" style="stroke: #A80036; stroke-width: 1.5;" width="178" x="449.5" y="196"/><rect fill="#FEFECE" height="5" style="stroke: #A80036; stroke-width: 1.5;" width="10" x="444.5" y="201"/><rect fill="#FEFECE" height="5" style="stroke: #A80036; stroke-width: 1.5;" width="10" x="444.5" y="222.2969"/><text fill="#000000" font-family="Open Sans" font-size="14" lengthAdjust="spacingAndGlyphs" textLength="158" x="459.5" y="218.9951">junit-platform-reporting</text><!--entity runner--><rect fill="#FEFECE" filter="url(#fg2l0gcov4rq)" height="36.2969" style="stroke: #A80036; stroke-width: 1.5;" width="161" x="252.75" y="196"/><rect fill="#FEFECE" height="5" style="stroke: #A80036; stroke-width: 1.5;" width="10" x="247.75" y="201"/><rect fill="#FEFECE" height="5" style="stroke: #A80036; stroke-width: 1.5;" width="10" x="247.75" y="222.2969"/><text fill="#000000" font-family="Open Sans" font-size="14" lengthAdjust="spacingAndGlyphs" textLength="141" x="262.75" y="218.9951">junit-platform-runner</text><!--entity suite_api--><rect fill="#FEFECE" filter="url(#fg2l0gcov4rq)" height="36.2969" style="stroke: #A80036; stroke-width: 1.5;" width="174" x="252" y="348"/><rect fill="#FEFECE" height="5" style="stroke: #A80036; stroke-width: 1.5;" width="10" x="247" y="353"/><rect fill="#FEFECE" height="5" style="stroke: #A80036; stroke-width: 1.5;" width="10" x="247" y="374.2969"/><text fill="#000000" font-family="Open Sans" font-size="14" lengthAdjust="spacingAndGlyphs" textLength="154" x="262" y="370.9951">junit-platform-suite-api</text><!--entity opentest4j--><rect fill="#FEFECE" filter="url(#fg2l0gcov4rq)" height="36.2969" style="stroke: #A80036; stroke-width: 1.5;" width="95" x="809.75" y="556"/><rect fill="#FEFECE" height="5" style="stroke: #A80036; stroke-width: 1.5;" width="10" x="804.75" y="561"/><rect fill="#FEFECE" height="5" style="stroke: #A80036; stroke-width: 1.5;" width="10" x="804.75" y="582.2969"/><text fill="#000000" font-family="Open Sans" font-size="14" lengthAdjust="spacingAndGlyphs" textLength="75" x="819.75" y="578.9951">opentest4j</text><!--entity apiguardian--><rect fill="#FEFECE" filter="url(#fg2l0gcov4rq)" height="36.2969" style="stroke: #A80036; stroke-width: 1.5;" width="125" x="1441.75" y="60"/><rect fill="#FEFECE" height="5" style="stroke: #A80036; stroke-width: 1.5;" width="10" x="1436.75" y="65"/><rect fill="#FEFECE" height="5" style="stroke: #A80036; stroke-width: 1.5;" width="10" x="1436.75" y="86.2969"/><text fill="#000000" font-family="Open Sans" font-size="14" lengthAdjust="spacingAndGlyphs" textLength="105" x="1451.75" y="82.9951">apiguardian-api</text><path d="M1407.75,156 L1407.75,271.9297 A0,0 0 0 0 1407.75,271.9297 L1600.75,271.9297 A0,0 0 0 0 1600.75,271.9297 L1600.75,166 L1590.75,156 L1508,156 L1504,96.244 L1500,156 L1407.75,156 A0,0 0 0 0 1407.75,156 " fill="#FFFFFF" filter="url(#fg2l0gcov4rq)" style="stroke: #A80036; stroke-width: 1.0;"/><path d="M1590.75,156 L1590.75,166 L1600.75,166 L1590.75,156 " fill="#FFFFFF" style="stroke: #A80036; stroke-width: 1.0;"/><text fill="#000000" font-family="Open Sans" font-size="13" lengthAdjust="spacingAndGlyphs" textLength="118" x="1413.75" y="173.0669">All artifacts except</text><text fill="#000000" font-family="Open Sans" font-size="13" lengthAdjust="spacingAndGlyphs" textLength="158" x="1413.75" y="188.1997">opentest4j and junit:junit</text><text fill="#000000" font-family="Open Sans" font-size="13" lengthAdjust="spacingAndGlyphs" textLength="172" x="1413.75" y="203.3325">have a dependency on this</text><text fill="#000000" font-family="Open Sans" font-size="13" lengthAdjust="spacingAndGlyphs" textLength="154" x="1413.75" y="218.4653">artifact. The edges have</text><text fill="#000000" font-family="Open Sans" font-size="13" lengthAdjust="spacingAndGlyphs" textLength="147" x="1413.75" y="233.5981">been omitted from this</text><text fill="#000000" font-family="Open Sans" font-size="13" lengthAdjust="spacingAndGlyphs" textLength="149" x="1413.75" y="248.731">diagram for the sake of</text><text fill="#000000" font-family="Open Sans" font-size="13" lengthAdjust="spacingAndGlyphs" textLength="70" x="1413.75" y="263.8638">readability.</text><!--link jupiter to jupiter_api--><path d="M1264.86,232.284 C1287.17,247.915 1316.83,273.173 1330,304 C1343.97,336.698 1352.58,356.531 1330,384 C1289.76,432.96 1106.55,451.301 1006.2,457.757 " fill="none" id="jupiter-jupiter_api" style="stroke: #A80036; stroke-width: 1.0; stroke-dasharray: 7.0,7.0;"/><polygon fill="#A80036" points="1001.192,458.074,1010.4256,461.5004,1006.1821,457.7597,1009.9228,453.5162,1001.192,458.074" style="stroke: #A80036; stroke-width: 1.0;"/><!--link jupiter to jupiter_params--><path d="M1237,232.207 C1237,259.446 1237,312.491 1237,342.642 " fill="none" id="jupiter-jupiter_params" style="stroke: #A80036; stroke-width: 1.0; stroke-dasharray: 7.0,7.0;"/><polygon fill="#A80036" points="1237,347.994,1241,338.994,1237,342.994,1233,338.994,1237,347.994" style="stroke: #A80036; stroke-width: 1.0;"/><!--link jupiter to jupiter_engine--><path d="M1215.55,232.207 C1180.75,260.124 1112.15,315.149 1075.12,344.85 " fill="none" id="jupiter-jupiter_engine" style="stroke: #A80036; stroke-width: 1.0; stroke-dasharray: 7.0,7.0;"/><polygon fill="#A80036" points="1071.2,347.994,1080.7232,345.4825,1075.1002,344.8653,1075.7173,339.2422,1071.2,347.994" style="stroke: #A80036; stroke-width: 1.0;"/><!--link jupiter_api to opentest4j--><path d="M927.031,480.188 C912.413,499.561 888.64,531.0671 872.911,551.9129 " fill="none" id="jupiter_api-opentest4j" style="stroke: #A80036; stroke-width: 1.0; stroke-dasharray: 7.0,7.0;"/><polygon fill="#A80036" points="869.878,555.9332,878.4919,551.1582,872.8896,551.9419,872.1059,546.3396,869.878,555.9332" style="stroke: #A80036; stroke-width: 1.0;"/><!--link jupiter_api to commons--><path d="M882.904,480.067 C815.379,500.251 703.397,533.7237 633.86,554.5094 " fill="none" id="jupiter_api-commons" style="stroke: #A80036; stroke-width: 1.0; stroke-dasharray: 7.0,7.0;"/><polygon fill="#A80036" points="628.927,555.9837,638.6955,557.2396,633.7177,554.5522,636.4051,549.5745,628.927,555.9837" style="stroke: #A80036; stroke-width: 1.0;"/><!--link jupiter_engine to engine--><path d="M975.312,381.688 C889.498,398.563 748.906,426.211 658.434,444.003 " fill="none" id="jupiter_engine-engine" style="stroke: #A80036; stroke-width: 1.0; stroke-dasharray: 7.0,7.0;"/><polygon fill="#A80036" points="653.357,445.001,662.9601,447.1873,658.2628,444.0353,661.4149,439.338,653.357,445.001" style="stroke: #A80036; stroke-width: 1.0;"/><!--link jupiter_engine to jupiter_api--><path d="M1030.08,384.023 C1011.51,399.895 983.772,423.595 963.989,440.5 " fill="none" id="jupiter_engine-jupiter_api" style="stroke: #A80036; stroke-width: 1.0; stroke-dasharray: 7.0,7.0;"/><polygon fill="#A80036" points="960.144,443.786,969.5841,440.9782,963.9445,440.537,964.3857,434.8974,960.144,443.786" style="stroke: #A80036; stroke-width: 1.0;"/><!--link jupiter_params to jupiter_api--><path d="M1183.22,384.023 C1131.13,400.508 1052.36,425.439 998.676,442.429 " fill="none" id="jupiter_params-jupiter_api" style="stroke: #A80036; stroke-width: 1.0; stroke-dasharray: 7.0,7.0;"/><polygon fill="#A80036" points="993.885,443.945,1003.6724,445.0433,998.652,442.4365,1001.2588,437.416,993.885,443.945" style="stroke: #A80036; stroke-width: 1.0;"/><!--link jupiter_migration_support to jupiter_api--><path d="M849.92,384.023 C868.494,399.895 896.228,423.595 916.011,440.5 " fill="none" id="jupiter_migration_support-jupiter_api" style="stroke: #A80036; stroke-width: 1.0; stroke-dasharray: 7.0,7.0;"/><polygon fill="#A80036" points="919.856,443.786,915.6143,434.8974,916.0555,440.537,910.4159,440.9782,919.856,443.786" style="stroke: #A80036; stroke-width: 1.0;"/><!--link jupiter_migration_support to junit4--><path d="M719.918,380.836 C600.633,395.929 404.721,421.014 236,444 C212.07,447.26 185.458,451.047 163.479,454.217 " fill="none" id="jupiter_migration_support-junit4" style="stroke: #A80036; stroke-width: 1.0; stroke-dasharray: 7.0,7.0;"/><polygon fill="#A80036" points="158.286,454.968,167.7659,457.6385,163.2345,454.2523,166.6208,449.7209,158.286,454.968" style="stroke: #A80036; stroke-width: 1.0;"/><!--link console to launcher--><path d="M589.242,96.236 C608.658,108.86 631.957,127.96 643,152 C669.715,210.158 670.007,237.978 643,296 C633.446,316.526 614.447,333.129 597.141,344.9 " fill="none" id="console-launcher" style="stroke: #A80036; stroke-width: 1.0; stroke-dasharray: 7.0,7.0;"/><polygon fill="#A80036" points="592.784,347.788,602.4954,346.1485,596.9513,345.0251,598.0747,339.4809,592.784,347.788" style="stroke: #A80036; stroke-width: 1.0;"/><!--link console to reporting--><path d="M555.426,96.244 C551.826,120.365 545.284,164.199 541.32,190.753 " fill="none" id="console-reporting" style="stroke: #A80036; stroke-width: 1.0; stroke-dasharray: 7.0,7.0;"/><polygon fill="#A80036" points="540.564,195.822,545.8471,187.51,541.3011,190.8766,537.9345,186.3307,540.564,195.822" style="stroke: #A80036; stroke-width: 1.0;"/><!--link launcher to engine--><path d="M563.018,384.241 C564.816,399.612 567.459,422.196 569.413,438.891 " fill="none" id="launcher-engine" style="stroke: #A80036; stroke-width: 1.0; stroke-dasharray: 7.0,7.0;"/><polygon fill="#A80036" points="569.995,443.868,572.9212,434.4639,569.4135,438.9019,564.9755,435.3942,569.995,443.868" style="stroke: #A80036; stroke-width: 1.0;"/><!--link engine to opentest4j--><path d="M616.219,480.067 C668.124,500.1 753.948,533.2256 807.883,554.0426 " fill="none" id="engine-opentest4j" style="stroke: #A80036; stroke-width: 1.0; stroke-dasharray: 7.0,7.0;"/><polygon fill="#A80036" points="812.678,555.8932,805.7215,548.9213,808.0133,554.0931,802.8414,556.3849,812.678,555.8932" style="stroke: #A80036; stroke-width: 1.0;"/><!--link engine to commons--><path d="M572,480.188 C572,499.238 572,530.0203 572,550.8619 " fill="none" id="engine-commons" style="stroke: #A80036; stroke-width: 1.0; stroke-dasharray: 7.0,7.0;"/><polygon fill="#A80036" points="572,555.9332,576,546.9332,572,550.9332,568,546.9332,572,555.9332" style="stroke: #A80036; stroke-width: 1.0;"/><!--link reporting to launcher--><path d="M540.638,232.207 C544.832,259.559 553.016,312.932 557.629,343.016 " fill="none" id="reporting-launcher" style="stroke: #A80036; stroke-width: 1.0; stroke-dasharray: 7.0,7.0;"/><polygon fill="#A80036" points="558.392,347.994,560.9801,338.4913,557.6333,343.0519,553.0727,339.7051,558.392,347.994" style="stroke: #A80036; stroke-width: 1.0;"/><!--link runner to launcher--><path d="M351.265,232.025 C370.312,249.303 401.457,276.248 431,296 C459.295,314.918 493.343,332.831 519.495,345.662 " fill="none" id="runner-launcher" style="stroke: #A80036; stroke-width: 1.0; stroke-dasharray: 7.0,7.0;"/><polygon fill="#A80036" points="524.283,347.998,517.9494,340.4557,519.7896,345.8049,514.4405,347.6451,524.283,347.998" style="stroke: #A80036; stroke-width: 1.0;"/><!--link runner to suite_api--><path d="M333.688,232.207 C334.778,259.446 336.9,312.491 338.106,342.642 " fill="none" id="runner-suite_api" style="stroke: #A80036; stroke-width: 1.0; stroke-dasharray: 7.0,7.0;"/><polygon fill="#A80036" points="338.32,347.994,341.9568,338.8412,338.12,342.998,333.9632,339.1612,338.32,347.994" style="stroke: #A80036; stroke-width: 1.0;"/><!--link runner to junit4--><path d="M252.613,226.809 C169.776,240.816 48.9071,267.019 21,304 C-0.4174,332.381 5.6181,351.944 21,384 C32.9084,408.817 57.1451,428.157 78.2852,441.248 " fill="none" id="runner-junit4" style="stroke: #A80036; stroke-width: 1.0; stroke-dasharray: 7.0,7.0;"/><polygon fill="#A80036" points="82.7437,443.946,77.1153,435.8639,78.4662,441.357,72.973,442.7079,82.7437,443.946" style="stroke: #A80036; stroke-width: 1.0;"/><!--link vintage_engine to engine--><path d="M195.476,383.213 C276.359,399.922 402.114,425.903 485.74,443.179 " fill="none" id="vintage_engine-engine" style="stroke: #A80036; stroke-width: 1.0; stroke-dasharray: 7.0,7.0;"/><polygon fill="#A80036" points="490.687,444.201,482.6824,438.4628,485.7904,443.1894,481.0638,446.2974,490.687,444.201" style="stroke: #A80036; stroke-width: 1.0;"/><!--link vintage_engine to junit4--><path d="M117,384.241 C117,399.479 117,421.807 117,438.458 " fill="none" id="vintage_engine-junit4" style="stroke: #A80036; stroke-width: 1.0; stroke-dasharray: 7.0,7.0;"/><polygon fill="#A80036" points="117,443.868,121,434.868,117,438.868,113,434.868,117,443.868" style="stroke: #A80036; stroke-width: 1.0;"/><!--
@startuml
skinparam {
    defaultFontName Open Sans
}

package org.junit.jupiter {
    [junit-jupiter] as jupiter
    [junit-jupiter-api] as jupiter_api
    [junit-jupiter-engine] as jupiter_engine
    [junit-jupiter-params] as jupiter_params
    [junit-jupiter-migrationsupport] as jupiter_migration_support
}

package org.junit.vintage {
    [junit-vintage-engine] as vintage_engine
    [junit:junit] as junit4
}

package org.junit.platform {
    [junit-platform-commons] as commons
    [junit-platform-console] as console
    [junit-platform-engine] as engine
    [junit-platform-launcher] as launcher
    [junit-platform-reporting] as reporting
    [junit-platform-runner] as runner
    [junit-platform-suite-api] as suite_api
}

package org.opentest4j {
    [opentest4j]
}

package org.apiguardian {
    [apiguardian-api] as apiguardian
    note bottom of apiguardian #white
        All artifacts except
        opentest4j and junit:junit
        have a dependency on this
        artifact. The edges have
        been omitted from this
        diagram for the sake of
        readability.
    endnote
}

jupiter ..> jupiter_api
jupiter ..> jupiter_params
jupiter ..> jupiter_engine

jupiter_api ..> opentest4j
jupiter_api ..> commons

jupiter_engine ..> engine
jupiter_engine ..> jupiter_api

jupiter_params ..> jupiter_api
jupiter_migration_support ..> jupiter_api
jupiter_migration_support ..> junit4

console ..> launcher
console ..> reporting

launcher ..> engine

engine ..> opentest4j
engine ..> commons

reporting ..> launcher

runner ..> launcher
runner ..> suite_api
runner ..> junit4

vintage_engine ..> engine
vintage_engine ..> junit4
@enduml

PlantUML version 1.2018.01(Sun Jan 28 18:08:22 UTC 2018)
(APACHE source distribution)
Java Runtime: OpenJDK Runtime Environment
JVM: OpenJDK 64-Bit Server VM
Java Version: 11.0.1+13
Operating System: Linux
OS Version: 4.4.0-101-generic
Default Encoding: UTF-8
Language: en
Country: US
--></g></svg>